<?xml version="1.0" encoding="utf-8"?>
<!-- Generator: Adobe Illustrator 16.0.0, SVG Export Plug-In . SVG Version: 6.00 Build 0)  -->
<!DOCTYPE svg PUBLIC "-//W3C//DTD SVG 1.1//EN" "http://www.w3.org/Graphics/SVG/1.1/DTD/svg11.dtd">
<svg version="1.1" id="Layer_1" xmlns="http://www.w3.org/2000/svg" xmlns:xlink="http://www.w3.org/1999/xlink" x="0px" y="0px"
	 width="118.583px" height="90.193px" viewBox="0 0 118.583 90.193" enable-background="new 0 0 118.583 90.193"
	 xml:space="preserve">
<g>
	<circle fill="#F57E20" stroke="#FFFFFF" stroke-width="1.2703" stroke-miterlimit="10" cx="6.865" cy="18.594" r="6.23"/>
	<path fill="#F57E20" stroke="#FFFFFF" stroke-width="1.2703" stroke-miterlimit="10" d="M44.025,18.594
		c0,5.53-4.485,10.011-10.011,10.011c-5.53,0-10.011-4.481-10.011-10.011c0-5.526,4.48-10.009,10.011-10.009
		C39.54,8.585,44.025,13.068,44.025,18.594z"/>
	<path fill="#F57E20" stroke="#FFFFFF" stroke-width="1.2703" stroke-miterlimit="10" d="M77.734,18.594
		c0,7.607-6.168,13.763-13.766,13.763c-7.604,0-13.765-6.155-13.765-13.763c0-7.597,6.16-13.76,13.765-13.76
		C71.566,4.833,77.734,10.997,77.734,18.594z"/>
	<path fill="#F57E20" stroke="#FFFFFF" stroke-width="1.2703" stroke-miterlimit="10" d="M117.948,18.594
		c0,9.93-8.05,17.96-17.969,17.96s-17.963-8.03-17.963-17.96c0-9.915,8.044-17.958,17.963-17.958S117.948,8.679,117.948,18.594z"/>
	<path fill="#E21F26" stroke="#FFFFFF" stroke-width="1.2703" stroke-miterlimit="10" d="M13.096,71.605
		c0,3.438-2.792,6.223-6.23,6.223c-3.441,0-6.23-2.784-6.23-6.223c0-3.443,2.789-6.233,6.23-6.233
		C10.304,65.372,13.096,68.162,13.096,71.605z"/>
	<path fill="#E21F26" stroke="#FFFFFF" stroke-width="1.2703" stroke-miterlimit="10" d="M44.025,71.605
		c0,5.527-4.485,10.004-10.011,10.004c-5.53,0-10.011-4.477-10.011-10.004c0-5.528,4.48-10.014,10.011-10.014
		C39.54,61.592,44.025,66.077,44.025,71.605z"/>
	<path fill="#E21F26" stroke="#FFFFFF" stroke-width="1.2703" stroke-miterlimit="10" d="M77.734,71.605
		c0,7.603-6.168,13.755-13.766,13.755c-7.604,0-13.765-6.152-13.765-13.755s6.16-13.766,13.765-13.766
		C71.566,57.84,77.734,64.003,77.734,71.605z"/>
	<path fill="#E21F26" stroke="#FFFFFF" stroke-width="1.2703" stroke-miterlimit="10" d="M117.948,71.605
		c0,9.925-8.05,17.953-17.969,17.953S82.016,81.53,82.016,71.605c0-9.915,8.044-17.961,17.963-17.961S117.948,61.69,117.948,71.605z
		"/>
</g>
</svg>
