<?xml version="1.0" encoding="utf-8"?>
<!-- Generator: Adobe Illustrator 16.0.0, SVG Export Plug-In . SVG Version: 6.00 Build 0)  -->
<!DOCTYPE svg PUBLIC "-//W3C//DTD SVG 1.1//EN" "http://www.w3.org/Graphics/SVG/1.1/DTD/svg11.dtd">
<svg version="1.1" id="Layer_1" xmlns="http://www.w3.org/2000/svg" xmlns:xlink="http://www.w3.org/1999/xlink" x="0px" y="0px"
	 width="183.932px" height="116.572px" viewBox="0 0 183.932 116.572" enable-background="new 0 0 183.932 116.572"
	 xml:space="preserve">
<g>
	<path d="M20.265,1.508H21.5V9.75h4.914v1.04h-6.149V1.508z"/>
	<path d="M33.044,8.658c-0.299,1.482-1.365,2.288-2.873,2.288c-2.146,0-3.159-1.482-3.225-3.536c0-2.015,1.326-3.498,3.159-3.498
		c2.379,0,3.107,2.223,3.042,3.848h-5.031c-0.039,1.17,0.624,2.21,2.093,2.21c0.91,0,1.547-0.442,1.742-1.313H33.044z M31.978,6.786
		c-0.052-1.053-0.845-1.898-1.937-1.898c-1.157,0-1.846,0.871-1.924,1.898H31.978z"/>
	<path d="M40.246,10.764c-0.195,0.117-0.442,0.182-0.793,0.182c-0.572,0-0.936-0.313-0.936-1.04c-0.611,0.715-1.43,1.04-2.366,1.04
		c-1.222,0-2.223-0.546-2.223-1.885c0-1.521,1.131-1.846,2.275-2.067c1.222-0.234,2.262-0.156,2.262-0.988
		c0-0.962-0.793-1.118-1.495-1.118c-0.936,0-1.625,0.286-1.677,1.274h-1.105c0.065-1.664,1.352-2.25,2.847-2.25
		c1.209,0,2.522,0.273,2.522,1.846v3.458c0,0.52,0,0.754,0.351,0.754c0.091,0,0.195-0.013,0.338-0.065V10.764z M38.452,7.319
		c-0.429,0.312-1.261,0.325-2.002,0.455c-0.728,0.13-1.352,0.39-1.352,1.209c0,0.728,0.624,0.988,1.3,0.988
		c1.456,0,2.054-0.91,2.054-1.521V7.319z"/>
	<path d="M47.278,10.79h-1.105V9.88h-0.026c-0.364,0.741-1.222,1.066-2.145,1.066c-2.067,0-3.094-1.638-3.094-3.536
		c0-1.898,1.014-3.498,3.068-3.498c0.689,0,1.677,0.26,2.171,1.053h0.026V1.508h1.105V10.79z M44.158,9.971
		c1.482,0,2.054-1.274,2.054-2.535c0-1.326-0.598-2.548-2.119-2.548c-1.508,0-2.015,1.287-2.015,2.6
		C42.078,8.749,42.728,9.971,44.158,9.971z"/>
	<path d="M50.151,2.86h-1.105V1.508h1.105V2.86z M49.046,4.069h1.105v6.721h-1.105V4.069z"/>
	<path d="M51.867,4.069h1.04v1.066h0.026c0.468-0.832,1.222-1.222,2.184-1.222c1.768,0,2.314,1.014,2.314,2.458v4.42h-1.104V6.24
		c0-0.819-0.521-1.352-1.365-1.352c-1.339,0-1.989,0.897-1.989,2.106v3.796h-1.105V4.069z"/>
	<path d="M64.893,10.218c0,2.185-1.001,3.303-3.12,3.303c-1.261,0-2.717-0.508-2.782-1.977h1.105
		c0.052,0.806,1.014,1.092,1.742,1.092c1.443,0,2.015-1.04,2.015-2.548V9.646h-0.025c-0.364,0.819-1.248,1.222-2.094,1.222
		c-2.002,0-3.003-1.573-3.003-3.406c0-1.586,0.78-3.549,3.107-3.549c0.845,0,1.599,0.377,2.002,1.118h0.013V4.069h1.04V10.218z
		 M63.801,7.293c0-1.183-0.52-2.405-1.911-2.405c-1.417,0-1.989,1.157-1.989,2.444c0,1.209,0.442,2.561,1.898,2.561
		S63.801,8.554,63.801,7.293z"/>
	<path d="M70.353,1.508h4.069c1.847,0,2.848,1.027,2.848,2.743c0,1.716-1.001,2.756-2.848,2.743h-2.834v3.796h-1.235V1.508z
		 M71.588,5.954h2.418c1.392,0.013,2.028-0.598,2.028-1.703c0-1.105-0.637-1.703-2.028-1.703h-2.418V5.954z"/>
	<path d="M84.328,8.658c-0.299,1.482-1.365,2.288-2.873,2.288c-2.146,0-3.159-1.482-3.225-3.536c0-2.015,1.326-3.498,3.159-3.498
		c2.379,0,3.107,2.223,3.042,3.848H79.4c-0.039,1.17,0.624,2.21,2.094,2.21c0.91,0,1.547-0.442,1.742-1.313H84.328z M83.262,6.786
		c-0.052-1.053-0.845-1.898-1.937-1.898c-1.157,0-1.847,0.871-1.925,1.898H83.262z"/>
	<path d="M91.581,10.79h-1.104V9.88H90.45c-0.364,0.741-1.222,1.066-2.145,1.066c-2.067,0-3.095-1.638-3.095-3.536
		c0-1.898,1.015-3.498,3.068-3.498c0.689,0,1.677,0.26,2.171,1.053h0.026V1.508h1.104V10.79z M88.461,9.971
		c1.482,0,2.055-1.274,2.055-2.535c0-1.326-0.599-2.548-2.119-2.548c-1.508,0-2.016,1.287-2.016,2.6
		C86.381,8.749,87.031,9.971,88.461,9.971z"/>
	<path d="M99.018,8.658c-0.299,1.482-1.365,2.288-2.873,2.288c-2.146,0-3.159-1.482-3.225-3.536c0-2.015,1.326-3.498,3.159-3.498
		c2.379,0,3.107,2.223,3.042,3.848H94.09c-0.039,1.17,0.624,2.21,2.094,2.21c0.91,0,1.547-0.442,1.742-1.313H99.018z M97.951,6.786
		c-0.052-1.053-0.845-1.898-1.937-1.898c-1.157,0-1.847,0.871-1.925,1.898H97.951z"/>
	<path d="M100.94,8.671c0.039,0.988,0.897,1.3,1.808,1.3c0.688,0,1.625-0.156,1.625-1.001c0-0.858-1.092-1.001-2.197-1.248
		c-1.092-0.247-2.197-0.611-2.197-1.898c0-1.352,1.339-1.911,2.509-1.911c1.482,0,2.665,0.468,2.757,2.106h-1.105
		c-0.078-0.858-0.832-1.131-1.56-1.131c-0.663,0-1.431,0.182-1.431,0.858c0,0.793,1.17,0.923,2.197,1.17
		c1.105,0.247,2.197,0.611,2.197,1.911c0,1.599-1.495,2.119-2.86,2.119c-1.508,0-2.782-0.611-2.847-2.275H100.94z"/>
	<path d="M108.299,4.069h1.339v0.975h-1.339v4.173c0,0.507,0.143,0.598,0.832,0.598h0.507v0.975h-0.845
		c-1.145,0-1.6-0.234-1.6-1.469V5.044h-1.144V4.069h1.144V2.054h1.105V4.069z"/>
	<path d="M110.821,4.069h1.04v1.417h0.026c0.532-1.079,1.273-1.612,2.47-1.573v1.17c-1.781,0-2.431,1.014-2.431,2.717v2.99h-1.105
		V4.069z"/>
	<path d="M116.358,2.86h-1.104V1.508h1.104V2.86z M115.254,4.069h1.104v6.721h-1.104V4.069z"/>
	<path d="M124.028,10.764c-0.195,0.117-0.442,0.182-0.793,0.182c-0.572,0-0.936-0.313-0.936-1.04
		c-0.611,0.715-1.431,1.04-2.366,1.04c-1.223,0-2.224-0.546-2.224-1.885c0-1.521,1.131-1.846,2.275-2.067
		c1.222-0.234,2.262-0.156,2.262-0.988c0-0.962-0.793-1.118-1.495-1.118c-0.936,0-1.625,0.286-1.677,1.274h-1.104
		c0.064-1.664,1.352-2.25,2.847-2.25c1.209,0,2.522,0.273,2.522,1.846v3.458c0,0.52,0,0.754,0.351,0.754
		c0.091,0,0.195-0.013,0.338-0.065V10.764z M122.234,7.319c-0.429,0.312-1.261,0.325-2.002,0.455
		c-0.729,0.13-1.353,0.39-1.353,1.209c0,0.728,0.624,0.988,1.301,0.988c1.456,0,2.054-0.91,2.054-1.521V7.319z"/>
	<path d="M125.056,4.069h1.04v1.066h0.026c0.468-0.832,1.222-1.222,2.184-1.222c1.769,0,2.314,1.014,2.314,2.458v4.42h-1.105V6.24
		c0-0.819-0.52-1.352-1.365-1.352c-1.339,0-1.988,0.897-1.988,2.106v3.796h-1.105V4.069z"/>
	<path d="M136.132,1.508h1.234v9.282h-1.234V1.508z"/>
	<path d="M139.265,4.069h1.04v1.066h0.026c0.468-0.832,1.222-1.222,2.184-1.222c1.769,0,2.314,1.014,2.314,2.458v4.42h-1.105V6.24
		c0-0.819-0.52-1.352-1.365-1.352c-1.339,0-1.988,0.897-1.988,2.106v3.796h-1.105V4.069z"/>
	<path d="M148.026,4.069h1.339v0.975h-1.339v4.173c0,0.507,0.143,0.598,0.832,0.598h0.507v0.975h-0.845
		c-1.145,0-1.6-0.234-1.6-1.469V5.044h-1.144V4.069h1.144V2.054h1.105V4.069z"/>
	<path d="M156.32,8.658c-0.299,1.482-1.365,2.288-2.873,2.288c-2.146,0-3.159-1.482-3.225-3.536c0-2.015,1.326-3.498,3.159-3.498
		c2.379,0,3.107,2.223,3.042,3.848h-5.031c-0.039,1.17,0.624,2.21,2.094,2.21c0.91,0,1.547-0.442,1.742-1.313H156.32z
		 M155.254,6.786c-0.052-1.053-0.845-1.898-1.937-1.898c-1.157,0-1.847,0.871-1.925,1.898H155.254z"/>
	<path d="M157.529,4.069h1.04v1.417h0.026c0.533-1.079,1.273-1.612,2.47-1.573v1.17c-1.781,0-2.431,1.014-2.431,2.717v2.99h-1.105
		V4.069z"/>
	<path d="M164.926,10.79h-1.184l-2.496-6.721h1.235l1.885,5.603h0.026l1.833-5.603h1.157L164.926,10.79z"/>
	<path d="M174.351,10.764c-0.195,0.117-0.442,0.182-0.793,0.182c-0.572,0-0.936-0.313-0.936-1.04
		c-0.611,0.715-1.431,1.04-2.366,1.04c-1.223,0-2.224-0.546-2.224-1.885c0-1.521,1.131-1.846,2.275-2.067
		c1.222-0.234,2.262-0.156,2.262-0.988c0-0.962-0.793-1.118-1.495-1.118c-0.936,0-1.625,0.286-1.677,1.274h-1.104
		c0.064-1.664,1.352-2.25,2.847-2.25c1.209,0,2.522,0.273,2.522,1.846v3.458c0,0.52,0,0.754,0.351,0.754
		c0.091,0,0.195-0.013,0.338-0.065V10.764z M172.557,7.319c-0.429,0.312-1.261,0.325-2.002,0.455
		c-0.729,0.13-1.353,0.39-1.353,1.209c0,0.728,0.624,0.988,1.301,0.988c1.456,0,2.054-0.91,2.054-1.521V7.319z"/>
	<path d="M175.443,1.508h1.104v9.282h-1.104V1.508z"/>
	<path d="M178.939,8.671c0.039,0.988,0.897,1.3,1.808,1.3c0.688,0,1.625-0.156,1.625-1.001c0-0.858-1.093-1.001-2.197-1.248
		c-1.092-0.247-2.197-0.611-2.197-1.898c0-1.352,1.339-1.911,2.509-1.911c1.482,0,2.666,0.468,2.757,2.106h-1.105
		c-0.078-0.858-0.832-1.131-1.56-1.131c-0.663,0-1.431,0.182-1.431,0.858c0,0.793,1.17,0.923,2.197,1.17
		c1.105,0.247,2.197,0.611,2.197,1.911c0,1.599-1.495,2.119-2.86,2.119c-1.508,0-2.782-0.611-2.847-2.275H178.939z"/>
	<path d="M20.291,22.107h1.69l2.925,7.8l2.938-7.8h1.69v9.282h-1.17v-7.723h-0.026l-2.899,7.723h-1.053l-2.899-7.723H21.46v7.723
		h-1.17V22.107z"/>
	<path d="M37.359,31.363c-0.195,0.117-0.442,0.183-0.793,0.183c-0.572,0-0.936-0.313-0.936-1.04c-0.611,0.715-1.43,1.04-2.366,1.04
		c-1.222,0-2.223-0.546-2.223-1.886c0-1.521,1.131-1.846,2.275-2.066c1.222-0.234,2.262-0.156,2.262-0.988
		c0-0.962-0.793-1.118-1.495-1.118c-0.936,0-1.625,0.286-1.677,1.274h-1.105c0.065-1.664,1.352-2.249,2.847-2.249
		c1.209,0,2.522,0.272,2.522,1.846v3.458c0,0.521,0,0.754,0.351,0.754c0.091,0,0.195-0.013,0.338-0.064V31.363z M35.565,27.919
		c-0.429,0.312-1.261,0.324-2.002,0.455c-0.728,0.13-1.352,0.39-1.352,1.209c0,0.728,0.624,0.987,1.3,0.987
		c1.456,0,2.054-0.91,2.054-1.521V27.919z"/>
	<path d="M39.556,32.248c0,1.195-0.637,1.716-1.612,1.716c-0.182,0-0.377-0.013-0.572-0.052v-0.949
		c0.156,0.025,0.299,0.025,0.455,0.025c0.481,0,0.624-0.233,0.624-0.923v-7.397h1.105V32.248z M39.556,23.459h-1.105v-1.352h1.105
		V23.459z"/>
	<path d="M44.171,24.513c2.132,0,3.263,1.547,3.263,3.522c0,1.964-1.131,3.511-3.263,3.511c-2.132,0-3.263-1.547-3.263-3.511
		C40.908,26.06,42.039,24.513,44.171,24.513z M44.171,30.57c1.157,0,2.093-0.91,2.093-2.535c0-1.638-0.936-2.548-2.093-2.548
		c-1.157,0-2.093,0.91-2.093,2.548C42.078,29.66,43.014,30.57,44.171,30.57z"/>
	<path d="M48.695,24.668h1.04v1.417h0.026c0.533-1.078,1.274-1.611,2.47-1.572v1.17c-1.781,0-2.431,1.014-2.431,2.717v2.99h-1.105
		V24.668z"/>
	<path d="M62.228,24.824c-0.143-1.326-1.026-1.897-2.301-1.897c-1.04,0-2.08,0.377-2.08,1.586c0,1.144,1.482,1.313,2.978,1.65
		c1.481,0.338,2.964,0.858,2.964,2.679c0,1.976-1.938,2.769-3.627,2.769c-2.08,0-3.835-1.014-3.835-3.275h1.17
		c0,1.56,1.3,2.235,2.704,2.235c1.118,0,2.353-0.351,2.353-1.689c0-1.274-1.481-1.495-2.964-1.82
		c-1.481-0.325-2.978-0.754-2.978-2.457c0-1.885,1.678-2.717,3.367-2.717c1.898,0,3.342,0.896,3.42,2.938H62.228z"/>
	<path d="M71.055,31.363c-0.195,0.117-0.441,0.183-0.793,0.183c-0.572,0-0.936-0.313-0.936-1.04c-0.611,0.715-1.431,1.04-2.366,1.04
		c-1.223,0-2.224-0.546-2.224-1.886c0-1.521,1.131-1.846,2.275-2.066c1.222-0.234,2.262-0.156,2.262-0.988
		c0-0.962-0.793-1.118-1.495-1.118c-0.936,0-1.625,0.286-1.677,1.274h-1.105c0.065-1.664,1.353-2.249,2.848-2.249
		c1.209,0,2.522,0.272,2.522,1.846v3.458c0,0.521,0,0.754,0.351,0.754c0.091,0,0.195-0.013,0.338-0.064V31.363z M69.261,27.919
		c-0.429,0.312-1.261,0.324-2.002,0.455c-0.729,0.13-1.353,0.39-1.353,1.209c0,0.728,0.624,0.987,1.301,0.987
		c1.456,0,2.054-0.91,2.054-1.521V27.919z"/>
	<path d="M72.536,25.644h-1.131v-0.976h1.131v-1.001c0-1.092,0.65-1.664,1.859-1.664c0.208,0,0.507,0.039,0.715,0.104v0.962
		c-0.195-0.065-0.429-0.091-0.624-0.091c-0.533,0-0.846,0.169-0.846,0.754v0.936h1.301v0.976h-1.301v5.746h-1.104V25.644z"/>
	<path d="M81.663,29.258c-0.299,1.481-1.365,2.288-2.873,2.288c-2.146,0-3.159-1.482-3.225-3.536c0-2.016,1.326-3.497,3.159-3.497
		c2.379,0,3.107,2.223,3.042,3.848h-5.031c-0.039,1.17,0.624,2.21,2.094,2.21c0.91,0,1.547-0.441,1.742-1.313H81.663z
		 M80.597,27.386c-0.052-1.054-0.845-1.898-1.937-1.898c-1.157,0-1.847,0.871-1.925,1.898H80.597z"/>
	<path d="M84.444,24.668h1.339v0.976h-1.339v4.173c0,0.507,0.143,0.599,0.832,0.599h0.507v0.975h-0.845
		c-1.145,0-1.6-0.234-1.6-1.469v-4.277h-1.144v-0.976h1.144v-2.015h1.105V24.668z"/>
	<path d="M89.644,32.287c-0.507,1.313-0.962,1.794-1.949,1.794c-0.261,0-0.521-0.026-0.768-0.117V32.95
		c0.208,0.064,0.429,0.155,0.65,0.155c0.455,0,0.702-0.221,0.91-0.61l0.455-1.145l-2.665-6.683h1.248l1.963,5.5h0.025l1.886-5.5
		h1.17L89.644,32.287z"/>
	<path d="M97.301,22.107h4.069c1.847,0,2.848,1.027,2.848,2.743s-1.001,2.756-2.848,2.743h-2.834v3.796h-1.235V22.107z
		 M98.536,26.554h2.418c1.392,0.013,2.028-0.599,2.028-1.703c0-1.105-0.637-1.703-2.028-1.703h-2.418V26.554z"/>
	<path d="M105.504,24.668h1.04v1.417h0.026c0.533-1.078,1.273-1.611,2.47-1.572v1.17c-1.781,0-2.431,1.014-2.431,2.717v2.99h-1.105
		V24.668z"/>
	<path d="M112.537,24.513c2.132,0,3.263,1.547,3.263,3.522c0,1.964-1.131,3.511-3.263,3.511c-2.133,0-3.264-1.547-3.264-3.511
		C109.273,26.06,110.404,24.513,112.537,24.513z M112.537,30.57c1.156,0,2.093-0.91,2.093-2.535c0-1.638-0.937-2.548-2.093-2.548
		c-1.157,0-2.094,0.91-2.094,2.548C110.443,29.66,111.38,30.57,112.537,30.57z"/>
	<path d="M118.27,32.248c0,1.195-0.637,1.716-1.612,1.716c-0.182,0-0.377-0.013-0.571-0.052v-0.949
		c0.155,0.025,0.299,0.025,0.455,0.025c0.48,0,0.624-0.233,0.624-0.923v-7.397h1.104V32.248z M118.27,23.459h-1.104v-1.352h1.104
		V23.459z"/>
	<path d="M125.719,29.258c-0.299,1.481-1.365,2.288-2.873,2.288c-2.146,0-3.159-1.482-3.225-3.536c0-2.016,1.326-3.497,3.159-3.497
		c2.379,0,3.107,2.223,3.042,3.848h-5.031c-0.039,1.17,0.624,2.21,2.094,2.21c0.91,0,1.547-0.441,1.742-1.313H125.719z
		 M124.652,27.386c-0.052-1.054-0.845-1.898-1.937-1.898c-1.157,0-1.847,0.871-1.925,1.898H124.652z"/>
	<path d="M131.53,26.826c-0.169-0.845-0.754-1.339-1.664-1.339c-1.6,0-2.094,1.261-2.094,2.626c0,1.235,0.56,2.457,1.964,2.457
		c1.065,0,1.703-0.624,1.846-1.638h1.131c-0.247,1.638-1.273,2.613-2.964,2.613c-2.054,0-3.146-1.431-3.146-3.433
		c0-2.015,1.04-3.601,3.173-3.601c1.521,0,2.742,0.715,2.898,2.313H131.53z"/>
	<path d="M135.481,24.668h1.339v0.976h-1.339v4.173c0,0.507,0.143,0.599,0.832,0.599h0.507v0.975h-0.845
		c-1.145,0-1.6-0.234-1.6-1.469v-4.277h-1.144v-0.976h1.144v-2.015h1.105V24.668z"/>
	<path d="M138.718,29.271c0.039,0.988,0.897,1.3,1.808,1.3c0.688,0,1.625-0.155,1.625-1.001c0-0.857-1.092-1.001-2.197-1.248
		c-1.092-0.247-2.197-0.61-2.197-1.897c0-1.353,1.339-1.911,2.509-1.911c1.482,0,2.665,0.468,2.757,2.105h-1.105
		c-0.078-0.857-0.832-1.131-1.56-1.131c-0.663,0-1.431,0.182-1.431,0.858c0,0.793,1.17,0.923,2.197,1.17
		c1.105,0.247,2.197,0.611,2.197,1.911c0,1.599-1.495,2.119-2.86,2.119c-1.508,0-2.782-0.611-2.847-2.275H138.718z"/>
	<path d="M22.787,42.708h1.365l3.627,9.282h-1.365L25.4,49.195h-3.926l-1.04,2.795H19.16L22.787,42.708z M21.864,48.155h3.146
		l-1.547-4.329h-0.026L21.864,48.155z"/>
	<path d="M28.467,45.269h1.04v1.418h0.026c0.533-1.079,1.274-1.612,2.47-1.573v1.17c-1.781,0-2.431,1.014-2.431,2.717v2.99h-1.105
		V45.269z"/>
	<path d="M34.37,45.269h1.339v0.976H34.37v4.173c0,0.507,0.143,0.599,0.832,0.599h0.507v0.975h-0.845
		c-1.144,0-1.599-0.234-1.599-1.469v-4.277h-1.144v-0.976h1.144v-2.015h1.105V45.269z"/>
	<path d="M42.664,49.858c-0.299,1.481-1.365,2.288-2.874,2.288c-2.145,0-3.159-1.482-3.224-3.536c0-2.016,1.326-3.497,3.159-3.497
		c2.379,0,3.107,2.223,3.042,3.848h-5.031c-0.039,1.17,0.624,2.21,2.093,2.21c0.91,0,1.547-0.441,1.742-1.313H42.664z
		 M41.597,47.986c-0.052-1.054-0.845-1.898-1.937-1.898c-1.157,0-1.846,0.871-1.924,1.898H41.597z"/>
	<path d="M43.872,45.269h1.04v1.418h0.026c0.533-1.079,1.274-1.612,2.47-1.573v1.17c-1.781,0-2.431,1.014-2.431,2.717v2.99h-1.105
		V45.269z"/>
	<path d="M49.41,44.06h-1.105v-1.352h1.105V44.06z M48.305,45.269h1.105v6.722h-1.105V45.269z"/>
	<path d="M57.08,51.964c-0.195,0.117-0.441,0.183-0.793,0.183c-0.572,0-0.936-0.313-0.936-1.04c-0.611,0.715-1.431,1.04-2.367,1.04
		c-1.222,0-2.223-0.546-2.223-1.886c0-1.521,1.131-1.846,2.275-2.066c1.222-0.234,2.262-0.156,2.262-0.988
		c0-0.962-0.793-1.118-1.495-1.118c-0.936,0-1.625,0.286-1.677,1.274h-1.105c0.065-1.664,1.352-2.249,2.847-2.249
		c1.209,0,2.521,0.272,2.521,1.846v3.458c0,0.521,0,0.754,0.352,0.754c0.091,0,0.195-0.013,0.338-0.064V51.964z M55.286,48.52
		c-0.429,0.312-1.261,0.324-2.002,0.454c-0.728,0.131-1.352,0.391-1.352,1.21c0,0.728,0.624,0.987,1.3,0.987
		c1.456,0,2.054-0.91,2.054-1.521V48.52z"/>
	<path d="M58.172,42.708h1.104v9.282h-1.104V42.708z"/>
	<path d="M70.157,45.425c-0.143-1.326-1.026-1.897-2.301-1.897c-1.04,0-2.08,0.377-2.08,1.586c0,1.144,1.482,1.313,2.978,1.65
		c1.481,0.339,2.964,0.858,2.964,2.679c0,1.976-1.938,2.769-3.627,2.769c-2.08,0-3.835-1.014-3.835-3.275h1.17
		c0,1.56,1.3,2.235,2.704,2.235c1.118,0,2.353-0.351,2.353-1.689c0-1.274-1.481-1.495-2.964-1.82s-2.978-0.754-2.978-2.457
		c0-1.885,1.678-2.717,3.367-2.717c1.898,0,3.342,0.896,3.42,2.938H70.157z"/>
	<path d="M73.096,42.708H74.2v9.282h-1.104V42.708z"/>
	<path d="M78.815,45.113c2.132,0,3.263,1.547,3.263,3.522c0,1.964-1.131,3.511-3.263,3.511c-2.133,0-3.264-1.547-3.264-3.511
		C75.552,46.66,76.683,45.113,78.815,45.113z M78.815,51.171c1.157,0,2.093-0.91,2.093-2.535c0-1.638-0.936-2.548-2.093-2.548
		s-2.094,0.91-2.094,2.548C76.722,50.261,77.658,51.171,78.815,51.171z"/>
	<path d="M90.034,51.99h-1.17l-1.365-5.343h-0.026l-1.352,5.343h-1.196l-2.158-6.722h1.223l1.521,5.5h0.026l1.352-5.5h1.209
		l1.404,5.5h0.026l1.508-5.5h1.145L90.034,51.99z"/>
	<path d="M96.3,50.95l5.772-7.202h-5.33v-1.04h6.786v1.04l-5.76,7.202h5.915v1.04H96.3V50.95z"/>
	<path d="M107.688,45.113c2.132,0,3.263,1.547,3.263,3.522c0,1.964-1.131,3.511-3.263,3.511c-2.133,0-3.264-1.547-3.264-3.511
		C104.425,46.66,105.556,45.113,107.688,45.113z M107.688,51.171c1.157,0,2.093-0.91,2.093-2.535c0-1.638-0.936-2.548-2.093-2.548
		s-2.094,0.91-2.094,2.548C105.595,50.261,106.531,51.171,107.688,51.171z"/>
	<path d="M112.251,45.269h1.04v1.066h0.026c0.468-0.832,1.222-1.222,2.184-1.222c1.769,0,2.314,1.014,2.314,2.457v4.42h-1.105v-4.55
		c0-0.819-0.52-1.353-1.365-1.353c-1.339,0-1.988,0.897-1.988,2.106v3.796h-1.105V45.269z"/>
	<path d="M125.212,49.858c-0.299,1.481-1.365,2.288-2.873,2.288c-2.146,0-3.159-1.482-3.225-3.536c0-2.016,1.326-3.497,3.159-3.497
		c2.379,0,3.107,2.223,3.042,3.848h-5.031c-0.039,1.17,0.624,2.21,2.094,2.21c0.91,0,1.547-0.441,1.742-1.313H125.212z
		 M124.146,47.986c-0.052-1.054-0.845-1.898-1.937-1.898c-1.157,0-1.847,0.871-1.925,1.898H124.146z"/>
	<path d="M127.136,49.871c0.039,0.988,0.897,1.3,1.808,1.3c0.688,0,1.625-0.155,1.625-1.001c0-0.857-1.092-1.001-2.197-1.248
		c-1.092-0.247-2.197-0.61-2.197-1.897c0-1.353,1.339-1.911,2.509-1.911c1.482,0,2.665,0.468,2.757,2.105h-1.105
		c-0.078-0.857-0.832-1.131-1.56-1.131c-0.663,0-1.431,0.183-1.431,0.858c0,0.793,1.17,0.923,2.197,1.17
		c1.105,0.247,2.197,0.611,2.197,1.911c0,1.599-1.495,2.119-2.86,2.119c-1.508,0-2.782-0.611-2.847-2.275H127.136z"/>
	<path d="M25.634,66.024c-0.143-1.326-1.027-1.897-2.301-1.897c-1.04,0-2.08,0.377-2.08,1.586c0,1.144,1.482,1.313,2.977,1.65
		c1.482,0.339,2.964,0.858,2.964,2.679c0,1.976-1.937,2.769-3.627,2.769c-2.08,0-3.835-1.014-3.835-3.275h1.17
		c0,1.56,1.3,2.235,2.704,2.235c1.118,0,2.354-0.351,2.354-1.689c0-1.274-1.482-1.495-2.964-1.82s-2.977-0.754-2.977-2.457
		c0-1.885,1.677-2.717,3.367-2.717c1.898,0,3.341,0.896,3.419,2.938H25.634z"/>
	<path d="M28.545,65.868h1.105v0.91h0.026c0.364-0.74,1.222-1.065,2.145-1.065c2.067,0,3.094,1.638,3.094,3.536
		c0,1.897-1.014,3.497-3.068,3.497c-0.689,0-1.677-0.261-2.171-1.054H29.65v3.472h-1.105V65.868z M31.666,66.688
		c-1.482,0-2.054,1.274-2.054,2.535c0,1.326,0.598,2.548,2.119,2.548c1.508,0,2.015-1.287,2.015-2.6
		C33.746,67.909,33.096,66.688,31.666,66.688z"/>
	<path d="M41.949,70.458c-0.299,1.481-1.365,2.288-2.874,2.288c-2.145,0-3.159-1.482-3.224-3.536c0-2.016,1.326-3.497,3.159-3.497
		c2.379,0,3.107,2.223,3.042,3.848h-5.031c-0.039,1.17,0.624,2.21,2.093,2.21c0.91,0,1.547-0.441,1.742-1.313H41.949z
		 M40.882,68.586c-0.052-1.054-0.845-1.898-1.937-1.898c-1.157,0-1.846,0.871-1.924,1.898H40.882z"/>
	<path d="M48.93,70.458c-0.299,1.481-1.365,2.288-2.873,2.288c-2.146,0-3.159-1.482-3.225-3.536c0-2.016,1.326-3.497,3.159-3.497
		c2.379,0,3.107,2.223,3.042,3.848h-5.031c-0.039,1.17,0.624,2.21,2.093,2.21c0.91,0,1.547-0.441,1.742-1.313H48.93z M47.863,68.586
		c-0.052-1.054-0.845-1.898-1.937-1.898c-1.157,0-1.846,0.871-1.924,1.898H47.863z"/>
	<path d="M56.184,72.59h-1.105v-0.91h-0.026c-0.364,0.741-1.222,1.066-2.145,1.066c-2.067,0-3.094-1.639-3.094-3.536
		c0-1.898,1.014-3.497,3.068-3.497c0.689,0,1.677,0.26,2.171,1.053h0.026v-3.458h1.105V72.59z M53.063,71.771
		c1.482,0,2.054-1.273,2.054-2.535c0-1.326-0.598-2.548-2.119-2.548c-1.508,0-2.015,1.287-2.015,2.601
		C50.983,70.549,51.633,71.771,53.063,71.771z"/>
	<path d="M61.682,63.308h1.235v3.991h4.889v-3.991h1.234v9.282h-1.234v-4.251h-4.889v4.251h-1.235V63.308z"/>
	<path d="M76.45,72.59h-1.04v-1.066h-0.026c-0.468,0.832-1.222,1.223-2.184,1.223c-1.769,0-2.314-1.015-2.314-2.457v-4.421h1.105
		v4.551c0,0.818,0.52,1.352,1.364,1.352c1.34,0,1.989-0.896,1.989-2.105v-3.797h1.105V72.59z"/>
	<path d="M78.113,65.868h1.04v0.988h0.026c0.494-0.754,1.248-1.144,2.171-1.144c0.819,0,1.573,0.325,1.846,1.144
		c0.455-0.715,1.248-1.144,2.106-1.144c1.339,0,2.236,0.559,2.236,1.95v4.927h-1.105v-4.407c0-0.832-0.221-1.495-1.3-1.495
		c-1.066,0-1.755,0.676-1.755,1.716v4.187h-1.105v-4.407c0-0.871-0.273-1.495-1.261-1.495c-1.313,0-1.794,1.209-1.794,1.716v4.187
		h-1.105V65.868z"/>
	<path d="M89.241,65.868h1.104v0.91h0.026c0.364-0.74,1.222-1.065,2.146-1.065c2.066,0,3.094,1.638,3.094,3.536
		c0,1.897-1.014,3.497-3.068,3.497c-0.688,0-1.677-0.261-2.171-1.054h-0.026v3.472h-1.104V65.868z M92.361,66.688
		c-1.482,0-2.054,1.274-2.054,2.535c0,1.326,0.598,2.548,2.118,2.548c1.509,0,2.016-1.287,2.016-2.6
		C94.441,67.909,93.791,66.688,92.361,66.688z"/>
	<path d="M97.587,70.471c0.039,0.988,0.897,1.3,1.808,1.3c0.688,0,1.625-0.155,1.625-1.001c0-0.857-1.092-1.001-2.197-1.248
		c-1.092-0.247-2.197-0.61-2.197-1.897c0-1.353,1.339-1.911,2.509-1.911c1.482,0,2.665,0.468,2.757,2.105h-1.105
		c-0.078-0.857-0.832-1.131-1.56-1.131c-0.663,0-1.431,0.183-1.431,0.858c0,0.793,1.17,0.923,2.197,1.17
		c1.105,0.247,2.197,0.611,2.197,1.911c0,1.599-1.495,2.119-2.86,2.119c-1.508,0-2.782-0.611-2.847-2.275H97.587z"/>
	<path d="M25.634,86.625c-0.143-1.326-1.027-1.897-2.301-1.897c-1.04,0-2.08,0.377-2.08,1.586c0,1.144,1.482,1.313,2.977,1.65
		c1.482,0.338,2.964,0.858,2.964,2.679c0,1.976-1.937,2.769-3.627,2.769c-2.08,0-3.835-1.014-3.835-3.275h1.17
		c0,1.56,1.3,2.235,2.704,2.235c1.118,0,2.354-0.351,2.354-1.689c0-1.274-1.482-1.495-2.964-1.82s-2.977-0.754-2.977-2.457
		c0-1.885,1.677-2.717,3.367-2.717c1.898,0,3.341,0.896,3.419,2.938H25.634z"/>
	<path d="M34.46,93.164c-0.195,0.117-0.442,0.183-0.793,0.183c-0.572,0-0.936-0.313-0.936-1.04c-0.611,0.715-1.43,1.04-2.366,1.04
		c-1.222,0-2.223-0.546-2.223-1.886c0-1.521,1.131-1.846,2.275-2.066c1.222-0.234,2.262-0.156,2.262-0.988
		c0-0.962-0.793-1.118-1.495-1.118c-0.936,0-1.625,0.286-1.677,1.274h-1.105c0.065-1.664,1.352-2.249,2.847-2.249
		c1.209,0,2.522,0.272,2.522,1.846v3.458c0,0.521,0,0.754,0.351,0.754c0.091,0,0.195-0.013,0.338-0.064V93.164z M32.667,89.72
		c-0.429,0.312-1.261,0.324-2.002,0.455c-0.728,0.13-1.352,0.39-1.352,1.209c0,0.728,0.624,0.987,1.3,0.987
		c1.456,0,2.054-0.91,2.054-1.521V89.72z"/>
	<path d="M35.942,87.444h-1.131v-0.976h1.131v-1.001c0-1.092,0.65-1.664,1.859-1.664c0.208,0,0.507,0.039,0.715,0.104v0.962
		c-0.195-0.065-0.429-0.091-0.624-0.091c-0.533,0-0.845,0.169-0.845,0.754v0.936h1.3v0.976h-1.3v5.746h-1.105V87.444z"/>
	<path d="M45.068,91.059c-0.299,1.481-1.365,2.288-2.873,2.288c-2.146,0-3.159-1.482-3.225-3.536c0-2.016,1.326-3.497,3.159-3.497
		c2.379,0,3.107,2.223,3.042,3.848h-5.031c-0.039,1.17,0.624,2.21,2.093,2.21c0.91,0,1.547-0.441,1.742-1.313H45.068z
		 M44.002,89.187c-0.052-1.054-0.845-1.898-1.937-1.898c-1.157,0-1.846,0.871-1.924,1.898H44.002z"/>
	<path d="M55.481,86.625c-0.144-1.326-1.027-1.897-2.301-1.897c-1.04,0-2.08,0.377-2.08,1.586c0,1.144,1.482,1.313,2.977,1.65
		c1.482,0.338,2.964,0.858,2.964,2.679c0,1.976-1.937,2.769-3.627,2.769c-2.08,0-3.835-1.014-3.835-3.275h1.17
		c0,1.56,1.3,2.235,2.704,2.235c1.118,0,2.354-0.351,2.354-1.689c0-1.274-1.482-1.495-2.964-1.82s-2.977-0.754-2.977-2.457
		c0-1.885,1.677-2.717,3.367-2.717c1.898,0,3.341,0.896,3.419,2.938H55.481z"/>
	<path d="M59.888,86.469h1.34v0.976h-1.34v4.173c0,0.507,0.144,0.599,0.832,0.599h0.508v0.975h-0.846
		c-1.144,0-1.599-0.234-1.599-1.469v-4.277h-1.145v-0.976h1.145v-2.015h1.104V86.469z"/>
	<path d="M62.41,86.469h1.04v1.417h0.026c0.533-1.078,1.273-1.611,2.47-1.572v1.17c-1.781,0-2.431,1.014-2.431,2.717v2.99H62.41
		V86.469z"/>
	<path d="M72.277,91.059c-0.299,1.481-1.365,2.288-2.873,2.288c-2.146,0-3.159-1.482-3.225-3.536c0-2.016,1.326-3.497,3.159-3.497
		c2.379,0,3.107,2.223,3.042,3.848H67.35c-0.039,1.17,0.624,2.21,2.094,2.21c0.91,0,1.547-0.441,1.742-1.313H72.277z M71.211,89.187
		c-0.052-1.054-0.845-1.898-1.937-1.898c-1.157,0-1.847,0.871-1.925,1.898H71.211z"/>
	<path d="M79.258,91.059c-0.299,1.481-1.365,2.288-2.873,2.288c-2.146,0-3.159-1.482-3.225-3.536c0-2.016,1.326-3.497,3.159-3.497
		c2.379,0,3.107,2.223,3.042,3.848H74.33c-0.039,1.17,0.624,2.21,2.094,2.21c0.91,0,1.547-0.441,1.742-1.313H79.258z M78.191,89.187
		c-0.052-1.054-0.845-1.898-1.937-1.898c-1.157,0-1.847,0.871-1.925,1.898H78.191z"/>
	<path d="M82.04,86.469h1.339v0.976H82.04v4.173c0,0.507,0.143,0.599,0.832,0.599h0.507v0.975h-0.845c-1.145,0-1.6-0.234-1.6-1.469
		v-4.277h-1.144v-0.976h1.144v-2.015h1.105V86.469z"/>
	<path d="M85.276,91.071c0.039,0.988,0.897,1.3,1.808,1.3c0.688,0,1.625-0.155,1.625-1.001c0-0.857-1.092-1.001-2.197-1.248
		c-1.092-0.247-2.197-0.61-2.197-1.897c0-1.353,1.339-1.911,2.509-1.911c1.482,0,2.665,0.468,2.757,2.105h-1.105
		c-0.078-0.857-0.832-1.131-1.56-1.131c-0.663,0-1.431,0.182-1.431,0.858c0,0.793,1.17,0.923,2.197,1.17
		c1.105,0.247,2.197,0.611,2.197,1.911c0,1.599-1.495,2.119-2.86,2.119c-1.508,0-2.782-0.611-2.847-2.275H85.276z"/>
	<path d="M94.896,83.908h6.098v1.04h-4.862v2.951h4.265v1.04h-4.265v4.251h-1.235V83.908z"/>
	<path d="M105.075,86.313c2.132,0,3.263,1.547,3.263,3.522c0,1.964-1.131,3.511-3.263,3.511c-2.133,0-3.264-1.547-3.264-3.511
		C101.812,87.86,102.942,86.313,105.075,86.313z M105.075,92.371c1.157,0,2.093-0.91,2.093-2.535c0-1.638-0.936-2.548-2.093-2.548
		s-2.094,0.91-2.094,2.548C102.981,91.461,103.918,92.371,105.075,92.371z"/>
	<path d="M109.599,86.469h1.04v1.417h0.026c0.532-1.078,1.273-1.611,2.47-1.572v1.17c-1.781,0-2.431,1.014-2.431,2.717v2.99h-1.105
		V86.469z"/>
	<path d="M123.132,86.625c-0.143-1.326-1.026-1.897-2.301-1.897c-1.04,0-2.08,0.377-2.08,1.586c0,1.144,1.482,1.313,2.978,1.65
		c1.481,0.338,2.964,0.858,2.964,2.679c0,1.976-1.938,2.769-3.627,2.769c-2.08,0-3.835-1.014-3.835-3.275h1.17
		c0,1.56,1.3,2.235,2.704,2.235c1.118,0,2.353-0.351,2.353-1.689c0-1.274-1.481-1.495-2.964-1.82s-2.978-0.754-2.978-2.457
		c0-1.885,1.678-2.717,3.367-2.717c1.898,0,3.342,0.896,3.42,2.938H123.132z"/>
	<path d="M131.738,91.059c-0.299,1.481-1.365,2.288-2.873,2.288c-2.146,0-3.159-1.482-3.225-3.536c0-2.016,1.326-3.497,3.159-3.497
		c2.379,0,3.107,2.223,3.042,3.848h-5.031c-0.039,1.17,0.624,2.21,2.094,2.21c0.91,0,1.547-0.441,1.742-1.313H131.738z
		 M130.672,89.187c-0.052-1.054-0.845-1.898-1.937-1.898c-1.157,0-1.847,0.871-1.925,1.898H130.672z"/>
	<path d="M132.985,86.469h1.04v1.066h0.026c0.468-0.832,1.222-1.222,2.184-1.222c1.769,0,2.314,1.014,2.314,2.457v4.42h-1.105v-4.55
		c0-0.819-0.52-1.353-1.365-1.353c-1.339,0-1.988,0.897-1.988,2.106v3.796h-1.105V86.469z"/>
	<path d="M141.384,85.26h-1.104v-1.352h1.104V85.26z M140.279,86.469h1.104v6.722h-1.104V86.469z"/>
	<path d="M145.999,86.313c2.132,0,3.263,1.547,3.263,3.522c0,1.964-1.131,3.511-3.263,3.511c-2.133,0-3.264-1.547-3.264-3.511
		C142.735,87.86,143.866,86.313,145.999,86.313z M145.999,92.371c1.157,0,2.093-0.91,2.093-2.535c0-1.638-0.936-2.548-2.093-2.548
		s-2.094,0.91-2.094,2.548C143.905,91.461,144.842,92.371,145.999,92.371z"/>
	<path d="M150.522,86.469h1.04v1.417h0.026c0.532-1.078,1.273-1.611,2.47-1.572v1.17c-1.781,0-2.431,1.014-2.431,2.717v2.99h-1.105
		V86.469z"/>
	<path d="M155.566,91.071c0.039,0.988,0.897,1.3,1.808,1.3c0.688,0,1.625-0.155,1.625-1.001c0-0.857-1.093-1.001-2.197-1.248
		c-1.092-0.247-2.197-0.61-2.197-1.897c0-1.353,1.339-1.911,2.509-1.911c1.482,0,2.666,0.468,2.757,2.105h-1.105
		c-0.078-0.857-0.832-1.131-1.56-1.131c-0.663,0-1.431,0.182-1.431,0.858c0,0.793,1.17,0.923,2.197,1.17
		c1.105,0.247,2.197,0.611,2.197,1.911c0,1.599-1.495,2.119-2.86,2.119c-1.508,0-2.782-0.611-2.847-2.275H155.566z"/>
	<path d="M20.251,104.508h1.313l4.888,7.527h0.026v-7.527h1.17v9.282h-1.352l-4.849-7.449h-0.026v7.449h-1.17V104.508z"/>
	<path d="M35.202,111.658c-0.299,1.481-1.365,2.288-2.874,2.288c-2.145,0-3.159-1.482-3.224-3.536c0-2.016,1.326-3.497,3.159-3.497
		c2.379,0,3.107,2.223,3.042,3.848h-5.031c-0.039,1.17,0.624,2.21,2.093,2.21c0.91,0,1.547-0.441,1.742-1.313H35.202z
		 M34.135,109.786c-0.052-1.054-0.845-1.898-1.937-1.898c-1.157,0-1.846,0.871-1.924,1.898H34.135z"/>
	<path d="M37.619,105.859h-1.105v-1.352h1.105V105.859z M36.514,107.068h1.105v6.722h-1.105V107.068z"/>
	<path d="M45.133,113.218c0,2.185-1.001,3.303-3.12,3.303c-1.261,0-2.717-0.508-2.782-1.977h1.105
		c0.052,0.807,1.014,1.092,1.742,1.092c1.443,0,2.015-1.04,2.015-2.548v-0.442h-0.026c-0.364,0.819-1.248,1.223-2.093,1.223
		c-2.002,0-3.003-1.573-3.003-3.406c0-1.586,0.78-3.549,3.107-3.549c0.845,0,1.599,0.377,2.002,1.118h0.013v-0.963h1.04V113.218z
		 M44.041,110.293c0-1.183-0.52-2.405-1.911-2.405c-1.417,0-1.989,1.157-1.989,2.444c0,1.209,0.442,2.561,1.898,2.561
		S44.041,111.554,44.041,110.293z"/>
	<path d="M46.797,104.508h1.105v3.549h0.026c0.364-0.806,1.313-1.144,2.119-1.144c1.768,0,2.314,1.014,2.314,2.457v4.42h-1.105
		v-4.55c0-0.819-0.52-1.353-1.365-1.353c-1.339,0-1.989,0.897-1.989,2.106v3.796h-1.105V104.508z"/>
	<path d="M54.064,104.508h1.105v3.471h0.026c0.363-0.741,1.222-1.065,2.145-1.065c2.067,0,3.095,1.638,3.095,3.536
		c0,1.897-1.015,3.497-3.068,3.497c-0.689,0-1.677-0.26-2.171-1.054h-0.026v0.897h-1.105V104.508z M57.184,107.888
		c-1.481,0-2.054,1.274-2.054,2.535c0,1.326,0.599,2.548,2.119,2.548c1.508,0,2.015-1.287,2.015-2.6
		C59.264,109.11,58.614,107.888,57.184,107.888z"/>
	<path d="M64.633,106.913c2.132,0,3.263,1.547,3.263,3.522c0,1.964-1.131,3.511-3.263,3.511c-2.133,0-3.264-1.547-3.264-3.511
		C61.369,108.46,62.5,106.913,64.633,106.913z M64.633,112.971c1.156,0,2.093-0.91,2.093-2.535c0-1.638-0.937-2.548-2.093-2.548
		c-1.157,0-2.094,0.91-2.094,2.548C62.539,112.061,63.476,112.971,64.633,112.971z"/>
	<path d="M69.156,107.068h1.04v1.417h0.026c0.533-1.078,1.273-1.611,2.47-1.572v1.17c-1.781,0-2.431,1.014-2.431,2.717v2.99h-1.105
		V107.068z"/>
	<path d="M73.524,104.508h1.105v3.549h0.025c0.364-0.806,1.313-1.144,2.119-1.144c1.769,0,2.314,1.014,2.314,2.457v4.42h-1.105
		v-4.55c0-0.819-0.52-1.353-1.365-1.353c-1.339,0-1.988,0.897-1.988,2.106v3.796h-1.105V104.508z"/>
	<path d="M83.651,106.913c2.132,0,3.263,1.547,3.263,3.522c0,1.964-1.131,3.511-3.263,3.511c-2.133,0-3.264-1.547-3.264-3.511
		C80.388,108.46,81.519,106.913,83.651,106.913z M83.651,112.971c1.157,0,2.093-0.91,2.093-2.535c0-1.638-0.936-2.548-2.093-2.548
		s-2.094,0.91-2.094,2.548C81.558,112.061,82.494,112.971,83.651,112.971z"/>
	<path d="M91.113,106.913c2.132,0,3.263,1.547,3.263,3.522c0,1.964-1.131,3.511-3.263,3.511c-2.133,0-3.264-1.547-3.264-3.511
		C87.85,108.46,88.98,106.913,91.113,106.913z M91.113,112.971c1.156,0,2.093-0.91,2.093-2.535c0-1.638-0.937-2.548-2.093-2.548
		c-1.157,0-2.094,0.91-2.094,2.548C89.02,112.061,89.956,112.971,91.113,112.971z"/>
	<path d="M101.682,113.79h-1.104v-0.91h-0.026c-0.364,0.741-1.222,1.066-2.145,1.066c-2.067,0-3.095-1.639-3.095-3.536
		c0-1.898,1.015-3.497,3.068-3.497c0.689,0,1.677,0.26,2.171,1.053h0.026v-3.458h1.104V113.79z M98.562,112.971
		c1.482,0,2.055-1.273,2.055-2.535c0-1.325-0.599-2.548-2.119-2.548c-1.508,0-2.016,1.287-2.016,2.601
		C96.481,111.749,97.132,112.971,98.562,112.971z"/>
	<path d="M112.55,107.225c-0.143-1.326-1.026-1.897-2.301-1.897c-1.04,0-2.08,0.377-2.08,1.586c0,1.144,1.482,1.313,2.978,1.65
		c1.481,0.338,2.964,0.858,2.964,2.679c0,1.976-1.938,2.769-3.627,2.769c-2.08,0-3.835-1.014-3.835-3.275h1.17
		c0,1.56,1.3,2.235,2.704,2.235c1.118,0,2.353-0.351,2.353-1.689c0-1.274-1.481-1.495-2.964-1.82s-2.978-0.754-2.978-2.457
		c0-1.885,1.678-2.717,3.367-2.717c1.898,0,3.342,0.896,3.42,2.938H112.55z"/>
	<path d="M115.488,104.508h1.104v9.282h-1.104V104.508z"/>
	<path d="M121.208,106.913c2.132,0,3.263,1.547,3.263,3.522c0,1.964-1.131,3.511-3.263,3.511c-2.133,0-3.264-1.547-3.264-3.511
		C117.944,108.46,119.075,106.913,121.208,106.913z M121.208,112.971c1.157,0,2.093-0.91,2.093-2.535
		c0-1.638-0.936-2.548-2.093-2.548s-2.094,0.91-2.094,2.548C119.114,112.061,120.051,112.971,121.208,112.971z"/>
	<path d="M132.427,113.79h-1.17l-1.365-5.343h-0.026l-1.352,5.343h-1.196l-2.158-6.722h1.223l1.521,5.5h0.026l1.352-5.5h1.209
		l1.404,5.5h0.026l1.508-5.5h1.145L132.427,113.79z"/>
	<path d="M138.692,112.75l5.772-7.202h-5.33v-1.04h6.786v1.04l-5.76,7.202h5.915v1.04h-7.384V112.75z"/>
	<path d="M150.081,106.913c2.132,0,3.263,1.547,3.263,3.522c0,1.964-1.131,3.511-3.263,3.511c-2.133,0-3.264-1.547-3.264-3.511
		C146.817,108.46,147.948,106.913,150.081,106.913z M150.081,112.971c1.157,0,2.093-0.91,2.093-2.535
		c0-1.638-0.936-2.548-2.093-2.548s-2.094,0.91-2.094,2.548C147.987,112.061,148.924,112.971,150.081,112.971z"/>
	<path d="M154.644,107.068h1.04v1.066h0.026c0.468-0.832,1.222-1.222,2.184-1.222c1.769,0,2.314,1.014,2.314,2.457v4.42h-1.105
		v-4.55c0-0.819-0.52-1.353-1.365-1.353c-1.339,0-1.988,0.897-1.988,2.106v3.796h-1.105V107.068z"/>
	<path d="M167.604,111.658c-0.299,1.481-1.365,2.288-2.873,2.288c-2.146,0-3.159-1.482-3.225-3.536c0-2.016,1.326-3.497,3.159-3.497
		c2.379,0,3.107,2.223,3.042,3.848h-5.031c-0.039,1.17,0.624,2.21,2.094,2.21c0.91,0,1.547-0.441,1.742-1.313H167.604z
		 M166.538,109.786c-0.052-1.054-0.845-1.898-1.937-1.898c-1.157,0-1.847,0.871-1.925,1.898H166.538z"/>
	<path d="M169.528,111.671c0.039,0.988,0.897,1.3,1.808,1.3c0.688,0,1.625-0.155,1.625-1.001c0-0.857-1.092-1.001-2.197-1.248
		c-1.092-0.247-2.197-0.61-2.197-1.897c0-1.353,1.339-1.911,2.509-1.911c1.482,0,2.665,0.468,2.757,2.105h-1.105
		c-0.078-0.857-0.832-1.131-1.56-1.131c-0.663,0-1.431,0.182-1.431,0.858c0,0.793,1.17,0.923,2.197,1.17
		c1.105,0.247,2.197,0.611,2.197,1.911c0,1.599-1.495,2.119-2.86,2.119c-1.508,0-2.782-0.611-2.847-2.275H169.528z"/>
</g>
<circle fill="#6B3F98" cx="6.775" cy="6.641" r="6.641"/>
<path fill="#2DA349" d="M13.248,25.792h-2.62c-0.565-1.678-2.135-2.894-4.003-2.894s-3.438,1.216-4.004,2.894H0v2.981h2.708
	c0.64,1.533,2.151,2.611,3.916,2.611s3.276-1.078,3.916-2.611h2.708V25.792z"/>
<rect y="45.786" fill="#1779B7" width="13.248" height="2.981"/>
<rect x="0.151" y="67.097" fill="#B65C29" width="13.248" height="2.981"/>
<rect x="0.101" y="82.952" fill="#F47D20" width="13.047" height="13.048"/>
<rect x="0.369" y="103.476" fill="#F6989D" width="13.047" height="13.049"/>
</svg>
