<?xml version="1.0" encoding="utf-8"?>
<!-- Generator: Adobe Illustrator 16.0.0, SVG Export Plug-In . SVG Version: 6.00 Build 0)  -->
<!DOCTYPE svg PUBLIC "-//W3C//DTD SVG 1.1//EN" "http://www.w3.org/Graphics/SVG/1.1/DTD/svg11.dtd">
<svg version="1.1" id="Layer_1" xmlns="http://www.w3.org/2000/svg" xmlns:xlink="http://www.w3.org/1999/xlink" x="0px" y="0px"
	 width="183.562px" height="212.76px" viewBox="-0.017 0 183.562 212.76" enable-background="new -0.017 0 183.562 212.76"
	 xml:space="preserve">
<g>
	<path d="M20.265,1.508H21.5V9.75h4.914v1.04h-6.149V1.508z"/>
	<path d="M33.044,8.658c-0.299,1.48-1.365,2.286-2.873,2.286c-2.146,0-3.159-1.48-3.228-3.534c0-2.017,1.326-3.498,3.159-3.498
		c2.379,0,3.107,2.223,3.042,3.848h-5.028c-0.039,1.17,0.624,2.21,2.093,2.21c0.91,0,1.547-0.442,1.742-1.313L33.044,8.658
		L33.044,8.658z M31.978,6.786c-0.052-1.055-0.845-1.898-1.937-1.898c-1.157,0-1.849,0.871-1.924,1.898H31.978z"/>
	<path d="M40.246,10.764c-0.195,0.117-0.442,0.182-0.793,0.182c-0.572,0-0.938-0.313-0.938-1.038
		c-0.611,0.715-1.43,1.038-2.366,1.038c-1.222,0-2.223-0.546-2.223-1.885c0-1.521,1.131-1.846,2.275-2.065
		c1.222-0.234,2.262-0.156,2.262-0.988c0-0.962-0.793-1.118-1.495-1.118c-0.936,0-1.625,0.286-1.677,1.274h-1.105
		c0.065-1.664,1.354-2.25,2.85-2.25c1.209,0,2.521,0.271,2.521,1.846v3.458c0,0.52,0,0.754,0.354,0.754
		c0.091,0,0.192-0.013,0.338-0.063L40.246,10.764L40.246,10.764z M38.452,7.319c-0.432,0.313-1.264,0.325-2.002,0.455
		c-0.729,0.13-1.354,0.392-1.354,1.209c0,0.729,0.624,0.988,1.3,0.988c1.456,0,2.057-0.91,2.057-1.521V7.319z"/>
	<path d="M47.278,10.79h-1.104V9.88h-0.026c-0.361,0.741-1.222,1.064-2.145,1.064c-2.067,0-3.094-1.638-3.094-3.534
		c0-1.898,1.014-3.498,3.065-3.498c0.689,0,1.677,0.26,2.171,1.053h0.026V1.508h1.104L47.278,10.79L47.278,10.79z M44.158,9.971
		c1.479,0,2.054-1.272,2.054-2.535c0-1.326-0.601-2.548-2.119-2.548c-1.508,0-2.015,1.287-2.015,2.6
		C42.078,8.749,42.728,9.971,44.158,9.971z"/>
	<path d="M50.151,2.86h-1.104V1.508h1.104V2.86z M49.046,4.069h1.104v6.723h-1.104V4.069z"/>
	<path d="M51.867,4.069h1.04v1.066h0.023c0.468-0.832,1.222-1.222,2.187-1.222c1.768,0,2.313,1.014,2.313,2.458v4.42h-1.104V6.24
		c0-0.819-0.521-1.354-1.365-1.354c-1.339,0-1.989,0.897-1.989,2.106v3.796h-1.104L51.867,4.069L51.867,4.069z"/>
	<path d="M64.893,10.218c0,2.185-1.001,3.303-3.12,3.303c-1.261,0-2.717-0.508-2.779-1.977h1.104
		c0.052,0.806,1.014,1.092,1.742,1.092c1.44,0,2.015-1.04,2.015-2.548V9.646h-0.022c-0.364,0.819-1.248,1.224-2.097,1.224
		c-2.002,0-3.003-1.573-3.003-3.406c0-1.586,0.78-3.549,3.107-3.549c0.845,0,1.599,0.377,2.002,1.118h0.013V4.069h1.04
		L64.893,10.218L64.893,10.218z M63.801,7.293c0-1.185-0.521-2.405-1.911-2.405c-1.417,0-1.989,1.157-1.989,2.444
		c0,1.209,0.442,2.561,1.898,2.561S63.801,8.554,63.801,7.293z"/>
	<path d="M70.353,1.508h4.069c1.847,0,2.848,1.027,2.848,2.743s-1.001,2.756-2.848,2.743h-2.834v3.796h-1.235V1.508z M71.588,5.954
		h2.418c1.392,0.013,2.028-0.6,2.028-1.703c0-1.105-0.64-1.703-2.028-1.703h-2.418V5.954z"/>
	<path d="M84.328,8.658c-0.302,1.48-1.365,2.286-2.873,2.286c-2.146,0-3.159-1.48-3.228-3.534c0-2.017,1.326-3.498,3.159-3.498
		c2.379,0,3.107,2.223,3.042,3.848H79.4c-0.039,1.17,0.624,2.21,2.097,2.21c0.907,0,1.547-0.442,1.739-1.313L84.328,8.658
		L84.328,8.658z M83.262,6.786c-0.052-1.055-0.845-1.898-1.937-1.898c-1.157,0-1.85,0.871-1.928,1.898H83.262z"/>
	<path d="M91.581,10.79h-1.104V9.88H90.45c-0.364,0.741-1.225,1.064-2.146,1.064c-2.067,0-3.095-1.638-3.095-3.534
		c0-1.898,1.015-3.498,3.065-3.498c0.689,0,1.68,0.26,2.174,1.053h0.023V1.508h1.104v9.282H91.581z M88.461,9.971
		c1.479,0,2.055-1.272,2.055-2.535c0-1.326-0.599-2.548-2.119-2.548c-1.508,0-2.016,1.287-2.016,2.6
		C86.381,8.749,87.031,9.971,88.461,9.971z"/>
	<path d="M99.018,8.658c-0.299,1.48-1.365,2.286-2.873,2.286c-2.146,0-3.159-1.48-3.225-3.534c0-2.017,1.326-3.498,3.159-3.498
		c2.379,0,3.104,2.223,3.042,3.848H94.09c-0.039,1.17,0.624,2.21,2.094,2.21c0.91,0,1.547-0.442,1.742-1.313L99.018,8.658
		L99.018,8.658z M97.951,6.786c-0.055-1.055-0.848-1.898-1.938-1.898c-1.157,0-1.847,0.871-1.925,1.898H97.951z"/>
	<path d="M100.94,8.671c0.039,0.988,0.897,1.3,1.811,1.3c0.688,0,1.625-0.156,1.625-1.001c0-0.858-1.094-1.001-2.197-1.248
		c-1.092-0.247-2.197-0.611-2.197-1.896c0-1.354,1.339-1.911,2.51-1.911c1.481,0,2.664,0.468,2.759,2.104h-1.105
		c-0.078-0.856-0.832-1.131-1.56-1.131c-0.663,0-1.434,0.182-1.434,0.858c0,0.793,1.17,0.923,2.197,1.17
		c1.105,0.247,2.197,0.609,2.197,1.911c0,1.599-1.495,2.117-2.86,2.117c-1.508,0-2.782-0.609-2.847-2.273H100.94z"/>
	<path d="M108.299,4.069h1.339v0.977h-1.339v4.173c0,0.507,0.143,0.598,0.832,0.598h0.507v0.977h-0.845
		c-1.146,0-1.603-0.234-1.603-1.471V5.044h-1.144V4.069h1.144V2.054h1.105L108.299,4.069L108.299,4.069z"/>
	<path d="M110.821,4.069h1.04v1.417h0.026c0.532-1.077,1.273-1.61,2.47-1.571v1.17c-1.778,0-2.431,1.014-2.431,2.717v2.99h-1.105
		V4.069z"/>
	<path d="M116.358,2.86h-1.104V1.508h1.104V2.86z M115.254,4.069h1.104v6.723h-1.104V4.069z"/>
	<path d="M124.028,10.764c-0.192,0.117-0.439,0.182-0.793,0.182c-0.569,0-0.936-0.313-0.936-1.038
		c-0.611,0.715-1.431,1.038-2.366,1.038c-1.223,0-2.224-0.546-2.224-1.885c0-1.521,1.131-1.846,2.272-2.065
		c1.225-0.234,2.265-0.156,2.265-0.988c0-0.962-0.793-1.118-1.495-1.118c-0.938,0-1.625,0.286-1.677,1.274h-1.104
		c0.064-1.664,1.352-2.25,2.847-2.25c1.209,0,2.522,0.271,2.522,1.846v3.458c0,0.52,0,0.754,0.351,0.754
		c0.094,0,0.195-0.013,0.338-0.063V10.764L124.028,10.764z M122.234,7.319c-0.429,0.313-1.261,0.325-2.002,0.455
		c-0.729,0.13-1.353,0.392-1.353,1.209c0,0.729,0.624,0.988,1.301,0.988c1.456,0,2.054-0.91,2.054-1.521V7.319z"/>
	<path d="M125.056,4.069h1.04v1.066h0.026c0.468-0.832,1.222-1.222,2.184-1.222c1.771,0,2.314,1.014,2.314,2.458v4.42h-1.105V6.24
		c0-0.819-0.52-1.354-1.365-1.354c-1.339,0-1.985,0.897-1.985,2.106v3.796h-1.105L125.056,4.069L125.056,4.069z"/>
	<path d="M136.132,1.508h1.234v9.282h-1.234V1.508z"/>
	<path d="M139.265,4.069h1.04v1.066h0.026c0.468-0.832,1.222-1.222,2.184-1.222c1.771,0,2.314,1.014,2.314,2.458v4.42h-1.105V6.24
		c0-0.819-0.52-1.354-1.365-1.354c-1.339,0-1.985,0.897-1.985,2.106v3.796h-1.105L139.265,4.069L139.265,4.069z"/>
	<path d="M148.026,4.069h1.342v0.977h-1.342v4.173c0,0.507,0.146,0.598,0.832,0.598h0.51v0.977h-0.848c-1.145,0-1.6-0.234-1.6-1.471
		V5.044h-1.146V4.069h1.146V2.054h1.104L148.026,4.069L148.026,4.069z"/>
	<path d="M156.32,8.658c-0.299,1.48-1.362,2.286-2.873,2.286c-2.146,0-3.156-1.48-3.225-3.534c0-2.017,1.326-3.498,3.159-3.498
		c2.379,0,3.104,2.223,3.042,3.848h-5.031c-0.039,1.17,0.624,2.21,2.094,2.21c0.91,0,1.55-0.442,1.742-1.313L156.32,8.658
		L156.32,8.658z M155.254,6.786c-0.052-1.055-0.845-1.898-1.938-1.898c-1.154,0-1.847,0.871-1.925,1.898H155.254z"/>
	<path d="M157.529,4.069h1.04v1.417h0.026c0.533-1.077,1.273-1.61,2.47-1.571v1.17c-1.778,0-2.431,1.014-2.431,2.717v2.99h-1.105
		V4.069z"/>
	<path d="M164.926,10.79h-1.184l-2.496-6.723h1.232l1.888,5.604h0.023l1.833-5.604h1.157L164.926,10.79z"/>
	<path d="M174.351,10.764c-0.195,0.117-0.439,0.182-0.793,0.182c-0.572,0-0.936-0.313-0.936-1.038
		c-0.611,0.715-1.434,1.038-2.366,1.038c-1.223,0-2.224-0.546-2.224-1.885c0-1.521,1.131-1.846,2.272-2.065
		c1.222-0.234,2.262-0.156,2.262-0.988c0-0.962-0.793-1.118-1.492-1.118c-0.938,0-1.625,0.286-1.68,1.274h-1.104
		c0.063-1.664,1.352-2.25,2.847-2.25c1.209,0,2.522,0.271,2.522,1.846v3.458c0,0.52,0,0.754,0.351,0.754
		c0.091,0,0.195-0.013,0.338-0.063L174.351,10.764L174.351,10.764z M172.557,7.319c-0.429,0.313-1.261,0.325-2.002,0.455
		c-0.729,0.13-1.353,0.392-1.353,1.209c0,0.729,0.624,0.988,1.301,0.988c1.456,0,2.054-0.91,2.054-1.521V7.319z"/>
	<path d="M175.443,1.508h1.104v9.282h-1.104V1.508z"/>
	<path d="M178.939,8.671c0.039,0.988,0.897,1.3,1.811,1.3c0.688,0,1.625-0.156,1.625-1.001c0-0.858-1.096-1.001-2.197-1.248
		c-1.092-0.247-2.197-0.611-2.197-1.896c0-1.354,1.339-1.911,2.509-1.911c1.482,0,2.666,0.468,2.76,2.104h-1.105
		c-0.078-0.856-0.832-1.131-1.56-1.131c-0.663,0-1.434,0.182-1.434,0.858c0,0.793,1.17,0.923,2.197,1.17
		c1.105,0.247,2.197,0.609,2.197,1.911c0,1.599-1.495,2.117-2.86,2.117c-1.508,0-2.782-0.609-2.847-2.273H178.939z"/>
	<path d="M20.291,22.107h1.688l2.925,7.802l2.938-7.802h1.69v9.282H28.36v-7.723h-0.023l-2.899,7.723h-1.053l-2.899-7.723H21.46
		v7.723h-1.17L20.291,22.107L20.291,22.107z"/>
	<path d="M37.359,31.363c-0.192,0.117-0.439,0.185-0.793,0.185c-0.569,0-0.936-0.313-0.936-1.04c-0.611,0.715-1.43,1.04-2.366,1.04
		c-1.222,0-2.223-0.546-2.223-1.886c0-1.521,1.131-1.848,2.272-2.066c1.225-0.234,2.265-0.156,2.265-0.988
		c0-0.962-0.793-1.117-1.495-1.117c-0.938,0-1.625,0.285-1.679,1.273h-1.104c0.065-1.664,1.352-2.249,2.847-2.249
		c1.209,0,2.522,0.272,2.522,1.846v3.458c0,0.521,0,0.754,0.351,0.754c0.091,0,0.195-0.013,0.338-0.063V31.363z M35.565,27.919
		c-0.429,0.312-1.261,0.324-2.002,0.455c-0.728,0.13-1.352,0.39-1.352,1.209c0,0.728,0.624,0.985,1.3,0.985
		c1.456,0,2.054-0.908,2.054-1.521V27.919z"/>
	<path d="M39.556,32.248c0,1.193-0.637,1.716-1.612,1.716c-0.182,0-0.377-0.013-0.569-0.052v-0.949
		c0.153,0.023,0.299,0.023,0.455,0.023c0.479,0,0.624-0.231,0.624-0.923v-7.396h1.104L39.556,32.248L39.556,32.248z M39.556,23.459
		h-1.104v-1.354h1.104V23.459z"/>
	<path d="M44.171,24.513c2.132,0,3.263,1.547,3.263,3.522c0,1.964-1.131,3.511-3.263,3.511s-3.263-1.547-3.263-3.511
		C40.908,26.06,42.039,24.513,44.171,24.513z M44.171,30.57c1.157,0,2.093-0.908,2.093-2.533c0-1.64-0.936-2.55-2.093-2.55
		s-2.093,0.91-2.093,2.55C42.078,29.66,43.014,30.57,44.171,30.57z"/>
	<path d="M48.695,24.668h1.04v1.417h0.026c0.533-1.078,1.274-1.611,2.47-1.572v1.17c-1.778,0-2.431,1.016-2.431,2.717v2.99h-1.105
		V24.668z"/>
	<path d="M62.228,24.824c-0.143-1.326-1.023-1.897-2.301-1.897c-1.04,0-2.08,0.377-2.08,1.586c0,1.146,1.482,1.313,2.979,1.65
		c1.479,0.338,2.964,0.856,2.964,2.679c0,1.976-1.938,2.769-3.627,2.769c-2.08,0-3.835-1.014-3.835-3.273h1.17
		c0,1.56,1.3,2.233,2.704,2.233c1.115,0,2.353-0.351,2.353-1.688c0-1.274-1.479-1.495-2.964-1.82
		c-1.481-0.325-2.979-0.754-2.979-2.457c0-1.885,1.681-2.717,3.367-2.717c1.898,0,3.342,0.896,3.42,2.938h-1.171V24.824z"/>
	<path d="M71.055,31.363c-0.195,0.117-0.441,0.185-0.793,0.185c-0.572,0-0.936-0.313-0.936-1.04c-0.611,0.715-1.434,1.04-2.366,1.04
		c-1.226,0-2.227-0.546-2.227-1.886c0-1.521,1.134-1.848,2.275-2.066c1.222-0.234,2.262-0.156,2.262-0.988
		c0-0.962-0.793-1.117-1.495-1.117c-0.936,0-1.625,0.285-1.677,1.273h-1.104c0.063-1.664,1.353-2.249,2.848-2.249
		c1.209,0,2.522,0.272,2.522,1.846v3.458c0,0.521,0,0.754,0.351,0.754c0.091,0,0.195-0.013,0.338-0.063L71.055,31.363L71.055,31.363
		z M69.261,27.919c-0.429,0.312-1.261,0.324-2.002,0.455c-0.729,0.13-1.353,0.39-1.353,1.209c0,0.728,0.621,0.985,1.301,0.985
		c1.456,0,2.054-0.908,2.054-1.521V27.919L69.261,27.919z"/>
	<path d="M72.536,25.644h-1.134v-0.976h1.134v-1.001c0-1.092,0.647-1.664,1.856-1.664c0.208,0,0.507,0.039,0.715,0.104v0.962
		c-0.192-0.063-0.429-0.091-0.624-0.091c-0.53,0-0.846,0.169-0.846,0.754v0.938h1.301v0.976h-1.3v5.746h-1.104L72.536,25.644
		L72.536,25.644z"/>
	<path d="M81.663,29.258c-0.302,1.481-1.365,2.288-2.873,2.288c-2.146,0-3.159-1.482-3.228-3.536c0-2.016,1.326-3.497,3.159-3.497
		c2.379,0,3.107,2.223,3.042,3.848h-5.031c-0.039,1.172,0.624,2.21,2.097,2.21c0.907,0,1.547-0.439,1.739-1.313H81.663z
		 M80.597,27.386c-0.052-1.054-0.845-1.898-1.937-1.898c-1.157,0-1.85,0.871-1.928,1.898H80.597z"/>
	<path d="M84.444,24.668h1.342v0.976h-1.342v4.173c0,0.509,0.146,0.601,0.832,0.601h0.51v0.975h-0.848c-1.145,0-1.6-0.232-1.6-1.469
		v-4.277h-1.146V24.67h1.146v-2.017h1.104L84.444,24.668L84.444,24.668z"/>
	<path d="M89.644,32.287c-0.507,1.313-0.962,1.794-1.949,1.794c-0.261,0-0.521-0.026-0.768-0.117V32.95
		c0.208,0.063,0.429,0.153,0.65,0.153c0.455,0,0.699-0.221,0.907-0.608l0.455-1.146l-2.665-6.683h1.248l1.963,5.5h0.025l1.886-5.5
		h1.17L89.644,32.287z"/>
	<path d="M97.301,22.107h4.069c1.847,0,2.848,1.027,2.848,2.743s-1.001,2.756-2.848,2.743h-2.834v3.796h-1.235V22.107z
		 M98.536,26.554h2.418c1.392,0.013,2.025-0.599,2.025-1.703c0-1.104-0.637-1.703-2.025-1.703h-2.418V26.554z"/>
	<path d="M105.504,24.668h1.04v1.417h0.023c0.533-1.078,1.273-1.611,2.473-1.572v1.17c-1.781,0-2.434,1.016-2.434,2.717v2.99h-1.104
		L105.504,24.668L105.504,24.668z"/>
	<path d="M112.537,24.513c2.132,0,3.263,1.547,3.263,3.522c0,1.964-1.131,3.511-3.263,3.511c-2.136,0-3.267-1.547-3.267-3.511
		C109.273,26.06,110.404,24.513,112.537,24.513z M112.537,30.57c1.153,0,2.093-0.908,2.093-2.533c0-1.64-0.938-2.55-2.093-2.55
		c-1.157,0-2.097,0.91-2.097,2.55C110.443,29.66,111.38,30.57,112.537,30.57z"/>
	<path d="M118.27,32.248c0,1.193-0.637,1.716-1.609,1.716c-0.185,0-0.379-0.013-0.571-0.052v-0.949
		c0.155,0.023,0.299,0.023,0.455,0.023c0.479,0,0.624-0.231,0.624-0.923v-7.396h1.104L118.27,32.248L118.27,32.248z M118.27,23.459
		h-1.104v-1.354h1.104V23.459z"/>
	<path d="M125.719,29.258c-0.299,1.481-1.365,2.288-2.873,2.288c-2.146,0-3.159-1.482-3.225-3.536c0-2.016,1.323-3.497,3.156-3.497
		c2.382,0,3.107,2.223,3.042,3.848h-5.028c-0.039,1.172,0.624,2.21,2.094,2.21c0.91,0,1.547-0.439,1.742-1.313H125.719z
		 M124.652,27.386c-0.052-1.054-0.845-1.898-1.937-1.898c-1.157,0-1.847,0.871-1.925,1.898H124.652z"/>
	<path d="M131.53,26.826c-0.169-0.847-0.754-1.341-1.661-1.341c-1.603,0-2.097,1.263-2.097,2.626c0,1.235,0.563,2.457,1.964,2.457
		c1.065,0,1.703-0.624,1.849-1.638h1.131c-0.247,1.638-1.273,2.613-2.964,2.613c-2.057,0-3.146-1.432-3.146-3.435
		c0-2.015,1.04-3.601,3.173-3.601c1.521,0,2.742,0.715,2.898,2.313h-1.146V26.826z"/>
	<path d="M135.481,24.668h1.339v0.976h-1.339v4.173c0,0.509,0.146,0.601,0.832,0.601h0.507v0.975h-0.845
		c-1.145,0-1.6-0.232-1.6-1.469v-4.277h-1.146V24.67h1.146v-2.017h1.104L135.481,24.668L135.481,24.668z"/>
	<path d="M138.718,29.271c0.039,0.988,0.897,1.3,1.808,1.3c0.688,0,1.625-0.153,1.625-1.001c0-0.855-1.092-1.001-2.194-1.246
		c-1.095-0.247-2.197-0.61-2.197-1.897c0-1.353,1.339-1.911,2.509-1.911c1.482,0,2.665,0.468,2.757,2.105h-1.104
		c-0.078-0.857-0.832-1.133-1.563-1.133c-0.663,0-1.431,0.184-1.431,0.858c0,0.793,1.17,0.923,2.197,1.17
		c1.104,0.247,2.194,0.611,2.194,1.911c0,1.599-1.492,2.119-2.857,2.119c-1.508,0-2.782-0.611-2.847-2.275H138.718z"/>
	<path d="M22.787,42.708h1.362l3.627,9.282h-1.362L25.4,49.195h-3.926l-1.04,2.797H19.16L22.787,42.708z M21.865,48.156h3.146
		l-1.547-4.329h-0.026L21.865,48.156z"/>
	<path d="M28.467,45.269h1.04v1.418h0.026c0.53-1.079,1.271-1.61,2.47-1.571v1.17c-1.781,0-2.434,1.014-2.434,2.717v2.99h-1.104
		L28.467,45.269L28.467,45.269z"/>
	<path d="M34.37,45.269h1.339v0.978H34.37v4.173c0,0.507,0.143,0.599,0.832,0.599h0.507v0.977h-0.848
		c-1.144,0-1.599-0.234-1.599-1.471v-4.275H32.12V45.27h1.144v-2.015h1.105L34.37,45.269L34.37,45.269z"/>
	<path d="M42.664,49.858c-0.299,1.481-1.365,2.288-2.874,2.288c-2.146,0-3.159-1.48-3.227-3.536c0-2.016,1.326-3.497,3.159-3.497
		c2.379,0,3.107,2.225,3.042,3.85h-5.031c-0.039,1.17,0.624,2.21,2.096,2.21c0.907,0,1.547-0.441,1.739-1.313L42.664,49.858
		L42.664,49.858z M41.597,47.986c-0.052-1.054-0.845-1.896-1.937-1.896c-1.157,0-1.849,0.871-1.927,1.896H41.597z"/>
	<path d="M43.872,45.269h1.04v1.418h0.023c0.533-1.079,1.274-1.61,2.473-1.571v1.17c-1.781,0-2.434,1.014-2.434,2.717v2.99h-1.104
		L43.872,45.269L43.872,45.269z"/>
	<path d="M49.41,44.06h-1.105v-1.352h1.105V44.06z M48.305,45.269h1.105v6.724h-1.105V45.269z"/>
	<path d="M57.08,51.964c-0.195,0.117-0.441,0.183-0.793,0.183c-0.572,0-0.938-0.313-0.938-1.04c-0.608,0.717-1.431,1.04-2.367,1.04
		c-1.222,0-2.223-0.546-2.223-1.886c0-1.521,1.131-1.846,2.275-2.066c1.222-0.232,2.262-0.154,2.262-0.986
		c0-0.962-0.793-1.118-1.495-1.118c-0.936,0-1.625,0.286-1.677,1.272H51.02c0.065-1.662,1.354-2.247,2.85-2.247
		c1.209,0,2.521,0.271,2.521,1.846v3.458c0,0.521,0,0.754,0.354,0.754c0.091,0,0.192-0.013,0.338-0.064v0.855H57.08z M55.286,48.52
		c-0.432,0.313-1.264,0.324-2.002,0.454c-0.729,0.131-1.354,0.393-1.354,1.21c0,0.729,0.624,0.987,1.3,0.987
		c1.456,0,2.057-0.91,2.057-1.521V48.52z"/>
	<path d="M58.172,42.708h1.104v9.282h-1.104V42.708z"/>
	<path d="M70.157,45.425c-0.146-1.326-1.026-1.897-2.304-1.897c-1.04,0-2.08,0.379-2.08,1.588c0,1.144,1.482,1.313,2.979,1.648
		c1.479,0.339,2.964,0.858,2.964,2.679c0,1.978-1.938,2.771-3.627,2.771c-2.08,0-3.835-1.014-3.835-3.275h1.17
		c0,1.562,1.3,2.235,2.704,2.235c1.118,0,2.353-0.353,2.353-1.689c0-1.272-1.479-1.494-2.964-1.818
		c-1.48-0.325-2.978-0.754-2.978-2.457c0-1.887,1.678-2.717,3.367-2.717c1.896,0,3.342,0.896,3.42,2.938h-1.172v-0.004H70.157z"/>
	<path d="M73.096,42.708H74.2v9.282h-1.104V42.708z"/>
	<path d="M78.815,45.113c2.132,0,3.266,1.549,3.266,3.522c0,1.964-1.134,3.511-3.266,3.511c-2.133,0-3.264-1.547-3.264-3.511
		C75.552,46.66,76.683,45.113,78.815,45.113z M78.815,51.171c1.157,0,2.096-0.91,2.096-2.535c0-1.638-0.938-2.548-2.096-2.548
		c-1.154,0-2.094,0.91-2.094,2.548C76.722,50.261,77.658,51.171,78.815,51.171z"/>
	<path d="M90.034,51.99h-1.173l-1.362-5.345h-0.026l-1.352,5.345h-1.196l-2.158-6.724h1.226l1.521,5.5h0.026l1.352-5.5H88.1
		l1.404,5.5h0.023l1.511-5.5h1.145L90.034,51.99z"/>
	<path d="M96.3,50.95l5.771-7.202h-5.327v-1.04h6.783v1.04l-5.76,7.202h5.915v1.04H96.3V50.95z"/>
	<path d="M107.688,45.113c2.132,0,3.266,1.549,3.266,3.522c0,1.964-1.134,3.511-3.266,3.511c-2.133,0-3.264-1.547-3.264-3.511
		C104.425,46.66,105.556,45.113,107.688,45.113z M107.688,51.171c1.157,0,2.096-0.91,2.096-2.535c0-1.638-0.938-2.548-2.096-2.548
		c-1.156,0-2.094,0.91-2.094,2.548C105.595,50.261,106.531,51.171,107.688,51.171z"/>
	<path d="M112.251,45.269h1.04v1.066h0.023c0.471-0.832,1.225-1.224,2.187-1.224c1.769,0,2.313,1.016,2.313,2.457v4.422h-1.104
		V47.44c0-0.817-0.521-1.353-1.365-1.353c-1.339,0-1.988,0.896-1.988,2.104v3.798h-1.104L112.251,45.269L112.251,45.269z"/>
	<path d="M125.212,49.858c-0.299,1.481-1.365,2.288-2.873,2.288c-2.146,0-3.159-1.48-3.228-3.536c0-2.016,1.326-3.497,3.159-3.497
		c2.379,0,3.107,2.225,3.042,3.85h-5.028c-0.039,1.17,0.624,2.21,2.094,2.21c0.91,0,1.547-0.441,1.742-1.313L125.212,49.858
		L125.212,49.858z M124.146,47.986c-0.052-1.054-0.845-1.896-1.937-1.896c-1.157,0-1.85,0.871-1.925,1.896H124.146z"/>
	<path d="M127.136,49.871c0.039,0.986,0.897,1.3,1.808,1.3c0.688,0,1.625-0.155,1.625-1.001c0-0.857-1.092-1.001-2.194-1.248
		c-1.095-0.247-2.197-0.61-2.197-1.897c0-1.353,1.339-1.909,2.509-1.909c1.482,0,2.665,0.468,2.757,2.104h-1.104
		c-0.078-0.857-0.832-1.131-1.563-1.131c-0.663,0-1.431,0.183-1.431,0.856c0,0.793,1.17,0.925,2.197,1.172
		c1.104,0.245,2.197,0.609,2.197,1.909c0,1.601-1.495,2.119-2.86,2.119c-1.508,0-2.782-0.609-2.847-2.273H127.136L127.136,49.871z"
		/>
	<path d="M25.634,66.024c-0.143-1.324-1.027-1.896-2.301-1.896c-1.04,0-2.08,0.377-2.08,1.586c0,1.144,1.479,1.313,2.977,1.647
		c1.482,0.342,2.964,0.859,2.964,2.682c0,1.977-1.937,2.77-3.627,2.77c-2.08,0-3.835-1.015-3.835-3.273h1.17
		c0,1.561,1.303,2.232,2.704,2.232c1.118,0,2.354-0.351,2.354-1.688c0-1.274-1.482-1.495-2.964-1.82
		c-1.482-0.325-2.979-0.754-2.979-2.456c0-1.886,1.677-2.718,3.367-2.718c1.898,0,3.341,0.896,3.419,2.938h-1.171L25.634,66.024
		L25.634,66.024z"/>
	<path d="M28.545,65.868h1.104v0.908h0.026c0.364-0.738,1.222-1.063,2.145-1.063c2.067,0,3.097,1.638,3.097,3.536
		c0,1.896-1.017,3.497-3.068,3.497c-0.688,0-1.677-0.263-2.171-1.056H29.65v3.474h-1.104L28.545,65.868L28.545,65.868z
		 M31.666,66.688c-1.482,0-2.057,1.273-2.057,2.535c0,1.325,0.601,2.547,2.119,2.547c1.508,0,2.018-1.287,2.018-2.6
		C33.746,67.909,33.096,66.688,31.666,66.688z"/>
	<path d="M41.949,70.458c-0.302,1.479-1.365,2.288-2.874,2.288c-2.146,0-3.159-1.481-3.227-3.536c0-2.018,1.326-3.497,3.159-3.497
		c2.379,0,3.107,2.224,3.042,3.849h-5.03c-0.039,1.17,0.624,2.209,2.093,2.209c0.91,0,1.55-0.438,1.742-1.313H41.949z
		 M40.882,68.586c-0.052-1.054-0.845-1.897-1.938-1.897c-1.154,0-1.846,0.871-1.924,1.897H40.882z"/>
	<path d="M48.93,70.458c-0.299,1.479-1.365,2.288-2.873,2.288c-2.146,0-3.159-1.481-3.225-3.536c0-2.018,1.326-3.497,3.159-3.497
		c2.379,0,3.104,2.224,3.042,3.849h-5.031c-0.039,1.17,0.624,2.209,2.093,2.209c0.91,0,1.547-0.438,1.742-1.313H48.93z
		 M47.863,68.586c-0.052-1.054-0.845-1.897-1.937-1.897c-1.157,0-1.846,0.871-1.924,1.897H47.863z"/>
	<path d="M56.184,72.59H55.08v-0.909h-0.026c-0.364,0.74-1.222,1.065-2.145,1.065c-2.067,0-3.097-1.642-3.097-3.536
		c0-1.898,1.017-3.497,3.068-3.497c0.688,0,1.677,0.261,2.171,1.054h0.026v-3.459h1.104L56.184,72.59L56.184,72.59z M53.063,71.771
		c1.482,0,2.057-1.271,2.057-2.535c0-1.323-0.601-2.547-2.119-2.547c-1.508,0-2.018,1.287-2.018,2.603
		C50.983,70.549,51.633,71.771,53.063,71.771z"/>
	<path d="M61.682,63.308h1.235v3.991h4.889v-3.991h1.234v9.282h-1.234v-4.251h-4.889v4.251h-1.235V63.308z"/>
	<path d="M76.45,72.59h-1.04v-1.065h-0.026c-0.468,0.832-1.222,1.225-2.184,1.225c-1.771,0-2.314-1.018-2.314-2.457V65.87h1.105
		v4.551c0,0.815,0.52,1.353,1.361,1.353c1.34,0,1.989-0.896,1.989-2.104v-3.8h1.104L76.45,72.59L76.45,72.59z"/>
	<path d="M78.113,65.868h1.04v0.986h0.026c0.494-0.754,1.248-1.145,2.171-1.145c0.819,0,1.573,0.325,1.846,1.145
		c0.455-0.715,1.248-1.145,2.106-1.145c1.339,0,2.236,0.559,2.236,1.95v4.927h-1.105v-4.406c0-0.832-0.221-1.496-1.3-1.496
		c-1.066,0-1.755,0.676-1.755,1.717v4.188h-1.105v-4.407c0-0.871-0.271-1.494-1.261-1.494c-1.313,0-1.794,1.209-1.794,1.715v4.188
		h-1.105V65.868L78.113,65.868z"/>
	<path d="M89.241,65.868h1.104v0.908h0.026c0.361-0.738,1.222-1.063,2.146-1.063c2.066,0,3.094,1.638,3.094,3.536
		c0,1.896-1.014,3.497-3.065,3.497c-0.688,0-1.677-0.263-2.171-1.056h-0.026v3.474h-1.104L89.241,65.868L89.241,65.868z
		 M92.361,66.688c-1.479,0-2.054,1.273-2.054,2.535c0,1.325,0.598,2.547,2.118,2.547c1.509,0,2.016-1.287,2.016-2.6
		C94.441,67.909,93.791,66.688,92.361,66.688z"/>
	<path d="M97.587,70.472c0.039,0.987,0.896,1.299,1.808,1.299c0.688,0,1.625-0.152,1.625-1c0-0.855-1.092-1.002-2.194-1.248
		c-1.095-0.248-2.197-0.608-2.197-1.896c0-1.354,1.339-1.911,2.509-1.911c1.482,0,2.665,0.469,2.757,2.104h-1.104
		c-0.078-0.855-0.832-1.131-1.563-1.131c-0.663,0-1.431,0.185-1.431,0.857c0,0.793,1.17,0.923,2.197,1.17
		c1.104,0.247,2.194,0.611,2.194,1.911c0,1.599-1.495,2.119-2.857,2.119c-1.511,0-2.782-0.611-2.85-2.274H97.587z"/>
	<path d="M25.634,86.625c-0.143-1.326-1.027-1.897-2.301-1.897c-1.04,0-2.08,0.377-2.08,1.586c0,1.146,1.479,1.313,2.977,1.65
		c1.482,0.338,2.964,0.857,2.964,2.68c0,1.978-1.937,2.771-3.627,2.771c-2.08,0-3.835-1.017-3.835-3.275h1.17
		c0,1.563,1.303,2.235,2.704,2.235c1.118,0,2.354-0.354,2.354-1.689c0-1.271-1.482-1.494-2.964-1.818
		c-1.482-0.324-2.979-0.756-2.979-2.456c0-1.888,1.677-2.72,3.367-2.72c1.898,0,3.341,0.896,3.419,2.938h-1.171L25.634,86.625
		L25.634,86.625z"/>
	<path d="M34.46,93.164c-0.195,0.117-0.442,0.183-0.793,0.183c-0.572,0-0.938-0.313-0.938-1.039
		c-0.608,0.715-1.43,1.039-2.363,1.039c-1.225,0-2.226-0.546-2.226-1.886c0-1.521,1.131-1.846,2.275-2.065
		c1.222-0.232,2.262-0.154,2.262-0.986c0-0.965-0.793-1.118-1.495-1.118c-0.936,0-1.625,0.286-1.677,1.272H28.4
		c0.065-1.664,1.354-2.25,2.85-2.25c1.209,0,2.521,0.272,2.521,1.849v3.458c0,0.521,0,0.754,0.354,0.754
		c0.091,0,0.192-0.016,0.338-0.064L34.46,93.164L34.46,93.164z M32.667,89.72c-0.432,0.313-1.264,0.324-2.002,0.455
		c-0.729,0.131-1.354,0.391-1.354,1.209c0,0.729,0.624,0.987,1.3,0.987c1.456,0,2.057-0.91,2.057-1.521V89.72z"/>
	<path d="M35.942,87.444h-1.131v-0.977h1.131v-1.001c0-1.092,0.65-1.664,1.859-1.664c0.208,0,0.507,0.039,0.715,0.104v0.962
		c-0.195-0.065-0.429-0.093-0.624-0.093c-0.533,0-0.845,0.169-0.845,0.756v0.936h1.3v0.977h-1.3v5.746h-1.105V87.444z"/>
	<path d="M45.068,91.06c-0.299,1.48-1.362,2.287-2.873,2.287c-2.146,0-3.156-1.479-3.225-3.535c0-2.017,1.326-3.498,3.159-3.498
		c2.379,0,3.104,2.226,3.042,3.851H40.14c-0.039,1.17,0.624,2.21,2.093,2.21c0.91,0,1.547-0.441,1.742-1.313L45.068,91.06
		L45.068,91.06z M44.002,89.187c-0.052-1.054-0.845-1.896-1.938-1.896c-1.154,0-1.846,0.871-1.924,1.896H44.002z"/>
	<path d="M55.481,86.625c-0.144-1.326-1.024-1.897-2.301-1.897c-1.04,0-2.08,0.377-2.08,1.586c0,1.146,1.482,1.313,2.979,1.65
		c1.479,0.338,2.964,0.857,2.964,2.68c0,1.978-1.938,2.771-3.627,2.771c-2.08,0-3.835-1.017-3.835-3.275h1.17
		c0,1.563,1.3,2.235,2.704,2.235c1.115,0,2.354-0.354,2.354-1.689c0-1.271-1.479-1.494-2.964-1.818
		c-1.482-0.324-2.977-0.756-2.977-2.456c0-1.888,1.677-2.72,3.364-2.72c1.898,0,3.344,0.896,3.419,2.938h-1.171V86.625
		L55.481,86.625z"/>
	<path d="M59.888,86.469h1.34v0.976h-1.34v4.176c0,0.507,0.146,0.599,0.832,0.599h0.508v0.976h-0.846
		c-1.146,0-1.599-0.232-1.599-1.469V87.45h-1.146v-0.98h1.146v-2.015h1.104L59.888,86.469L59.888,86.469z"/>
	<path d="M62.41,86.469h1.04v1.417h0.023c0.533-1.078,1.273-1.611,2.47-1.572v1.17c-1.778,0-2.431,1.017-2.431,2.72v2.987H62.41
		V86.469z"/>
	<path d="M72.277,91.06c-0.299,1.48-1.362,2.287-2.873,2.287c-2.146,0-3.156-1.479-3.225-3.535c0-2.017,1.326-3.498,3.159-3.498
		c2.379,0,3.104,2.226,3.042,3.851h-5.03c-0.039,1.17,0.624,2.21,2.094,2.21c0.91,0,1.55-0.441,1.742-1.313L72.277,91.06
		L72.277,91.06z M71.211,89.187c-0.052-1.054-0.845-1.896-1.938-1.896c-1.154,0-1.847,0.871-1.925,1.896H71.211z"/>
	<path d="M79.258,91.06c-0.299,1.48-1.365,2.287-2.873,2.287c-2.146,0-3.159-1.479-3.225-3.535c0-2.017,1.323-3.498,3.156-3.498
		c2.382,0,3.107,2.226,3.042,3.851H74.33c-0.039,1.17,0.624,2.21,2.094,2.21c0.91,0,1.547-0.441,1.742-1.313L79.258,91.06
		L79.258,91.06z M78.191,89.187c-0.052-1.054-0.845-1.896-1.937-1.896c-1.157,0-1.847,0.871-1.925,1.896H78.191z"/>
	<path d="M82.04,86.469h1.339v0.976H82.04v4.176c0,0.507,0.143,0.599,0.832,0.599h0.507v0.976h-0.845
		c-1.146,0-1.603-0.232-1.603-1.469V87.45H79.79v-0.98h1.144v-2.015h1.105L82.04,86.469L82.04,86.469z"/>
	<path d="M85.276,91.071c0.039,0.988,0.897,1.302,1.811,1.302c0.688,0,1.625-0.155,1.625-1.001c0-0.857-1.092-1.001-2.197-1.248
		c-1.092-0.247-2.197-0.609-2.197-1.896c0-1.354,1.34-1.912,2.512-1.912c1.479,0,2.664,0.471,2.757,2.105H88.48
		c-0.078-0.857-0.832-1.131-1.56-1.131c-0.663,0-1.434,0.182-1.434,0.855c0,0.793,1.172,0.924,2.197,1.17
		c1.105,0.248,2.197,0.611,2.197,1.912c0,1.601-1.495,2.119-2.86,2.119c-1.508,0-2.781-0.611-2.847-2.275H85.276L85.276,91.071z"/>
	<path d="M94.896,83.908h6.101v1.04h-4.862v2.949h4.265v1.039h-4.265v4.252h-1.235L94.896,83.908L94.896,83.908z"/>
	<path d="M105.075,86.313c2.132,0,3.263,1.547,3.263,3.521c0,1.964-1.131,3.512-3.263,3.512c-2.136,0-3.267-1.548-3.267-3.512
		C101.812,87.86,102.942,86.313,105.075,86.313z M105.075,92.371c1.154,0,2.093-0.91,2.093-2.535c0-1.638-0.938-2.548-2.093-2.548
		c-1.157,0-2.097,0.91-2.097,2.548C102.981,91.461,103.918,92.371,105.075,92.371z"/>
	<path d="M109.599,86.469h1.04v1.417h0.026c0.529-1.078,1.271-1.611,2.47-1.572v1.17c-1.781,0-2.431,1.017-2.431,2.72v2.987h-1.105
		V86.469z"/>
	<path d="M123.132,86.625c-0.146-1.326-1.026-1.897-2.301-1.897c-1.04,0-2.08,0.377-2.08,1.586c0,1.146,1.479,1.313,2.978,1.65
		c1.481,0.338,2.964,0.857,2.964,2.68c0,1.978-1.938,2.771-3.627,2.771c-2.08,0-3.835-1.017-3.835-3.275h1.17
		c0,1.563,1.303,2.235,2.704,2.235c1.118,0,2.354-0.354,2.354-1.689c0-1.271-1.481-1.494-2.964-1.818
		c-1.483-0.324-2.979-0.756-2.979-2.456c0-1.888,1.678-2.72,3.367-2.72c1.896,0,3.342,0.896,3.42,2.938h-1.171V86.625z"/>
	<path d="M131.738,91.06c-0.299,1.48-1.362,2.287-2.87,2.287c-2.146,0-3.159-1.479-3.228-3.535c0-2.017,1.326-3.498,3.159-3.498
		c2.379,0,3.107,2.226,3.042,3.851h-5.031c-0.039,1.17,0.624,2.21,2.094,2.21c0.91,0,1.55-0.441,1.742-1.313L131.738,91.06
		L131.738,91.06z M130.672,89.187c-0.052-1.054-0.845-1.896-1.938-1.896c-1.154,0-1.847,0.871-1.925,1.896H130.672z"/>
	<path d="M132.985,86.469h1.04v1.066h0.026c0.468-0.832,1.222-1.224,2.184-1.224c1.771,0,2.314,1.016,2.314,2.457v4.42h-1.105v-4.55
		c0-0.817-0.52-1.353-1.362-1.353c-1.339,0-1.988,0.896-1.988,2.104v3.795h-1.105L132.985,86.469L132.985,86.469z"/>
	<path d="M141.384,85.26h-1.104v-1.352h1.104V85.26z M140.279,86.469h1.104v6.722h-1.104V86.469z"/>
	<path d="M145.999,86.313c2.132,0,3.263,1.547,3.263,3.521c0,1.964-1.131,3.512-3.263,3.512c-2.133,0-3.267-1.548-3.267-3.512
		C142.735,87.86,143.866,86.313,145.999,86.313z M145.999,92.371c1.154,0,2.093-0.91,2.093-2.535c0-1.638-0.938-2.548-2.093-2.548
		c-1.157,0-2.097,0.91-2.097,2.548C143.905,91.461,144.842,92.371,145.999,92.371z"/>
	<path d="M150.522,86.469h1.04v1.417h0.026c0.532-1.078,1.271-1.611,2.47-1.572v1.17c-1.781,0-2.431,1.017-2.431,2.72v2.987h-1.105
		V86.469z"/>
	<path d="M155.566,91.071c0.039,0.988,0.897,1.302,1.811,1.302c0.688,0,1.625-0.155,1.625-1.001c0-0.857-1.094-1.001-2.197-1.248
		c-1.092-0.247-2.197-0.609-2.197-1.896c0-1.354,1.339-1.912,2.511-1.912c1.48,0,2.664,0.471,2.758,2.105h-1.105
		c-0.078-0.857-0.832-1.131-1.56-1.131c-0.663,0-1.434,0.182-1.434,0.855c0,0.793,1.17,0.924,2.197,1.17
		c1.105,0.248,2.197,0.611,2.197,1.912c0,1.601-1.495,2.119-2.86,2.119c-1.508,0-2.782-0.611-2.847-2.275H155.566L155.566,91.071z"
		/>
	<path d="M20.251,104.508h1.313l4.891,7.527h0.023v-7.527h1.17v9.282h-1.352l-4.852-7.449h-0.023v7.449h-1.17V104.508z"/>
	<path d="M35.202,111.658c-0.302,1.479-1.365,2.286-2.874,2.286c-2.146,0-3.159-1.48-3.227-3.534c0-2.019,1.326-3.497,3.159-3.497
		c2.379,0,3.107,2.223,3.042,3.848h-5.031c-0.039,1.17,0.624,2.211,2.096,2.211c0.907,0,1.547-0.439,1.739-1.313L35.202,111.658
		L35.202,111.658z M34.135,109.786c-0.052-1.057-0.845-1.898-1.937-1.898c-1.157,0-1.849,0.871-1.927,1.898H34.135z"/>
	<path d="M37.619,105.858h-1.105v-1.352h1.105V105.858z M36.514,107.067h1.105v6.725h-1.105V107.067z"/>
	<path d="M45.133,113.218c0,2.186-1.001,3.303-3.12,3.303c-1.261,0-2.717-0.508-2.782-1.977h1.105
		c0.052,0.807,1.014,1.092,1.742,1.092c1.44,0,2.015-1.039,2.015-2.548v-0.442h-0.026c-0.361,0.819-1.248,1.226-2.093,1.226
		c-2.002,0-3.003-1.573-3.003-3.406c0-1.586,0.78-3.549,3.107-3.549c0.845,0,1.599,0.377,2.002,1.118h0.013v-0.965h1.04V113.218z
		 M44.041,110.293c0-1.185-0.521-2.405-1.911-2.405c-1.417,0-1.989,1.157-1.989,2.444c0,1.209,0.442,2.562,1.898,2.562
		S44.041,111.554,44.041,110.293z"/>
	<path d="M46.797,104.508h1.104v3.55h0.026c0.364-0.807,1.313-1.145,2.119-1.145c1.768,0,2.313,1.014,2.313,2.457v4.42h-1.104v-4.55
		c0-0.819-0.521-1.354-1.365-1.354c-1.339,0-1.989,0.896-1.989,2.105v3.796h-1.104V104.508z"/>
	<path d="M54.064,104.508h1.105v3.472h0.023c0.363-0.739,1.225-1.063,2.146-1.063c2.067,0,3.095,1.638,3.095,3.536
		c0,1.896-1.015,3.497-3.065,3.497c-0.689,0-1.68-0.263-2.174-1.056H55.17v0.896h-1.105L54.064,104.508L54.064,104.508z
		 M57.184,107.888c-1.479,0-2.054,1.274-2.054,2.535c0,1.326,0.599,2.549,2.119,2.549c1.508,0,2.015-1.287,2.015-2.601
		C59.264,109.11,58.614,107.888,57.184,107.888z"/>
	<path d="M64.633,106.913c2.132,0,3.263,1.547,3.263,3.521c0,1.965-1.131,3.512-3.263,3.512c-2.133,0-3.264-1.547-3.264-3.512
		C61.369,108.46,62.5,106.913,64.633,106.913z M64.633,112.972c1.156,0,2.093-0.91,2.093-2.535c0-1.639-0.937-2.549-2.093-2.549
		c-1.157,0-2.094,0.91-2.094,2.549C62.539,112.062,63.476,112.972,64.633,112.972z"/>
	<path d="M69.156,107.067h1.039v1.418h0.026c0.533-1.076,1.273-1.609,2.47-1.57v1.17c-1.778,0-2.431,1.014-2.431,2.717v2.99h-1.104
		V107.067z"/>
	<path d="M73.524,104.508h1.105v3.55h0.022c0.364-0.807,1.313-1.145,2.119-1.145c1.771,0,2.314,1.014,2.314,2.457v4.42H77.98v-4.55
		c0-0.819-0.52-1.354-1.362-1.354c-1.342,0-1.988,0.896-1.988,2.105v3.796h-1.105V104.508L73.524,104.508z"/>
	<path d="M83.651,106.913c2.135,0,3.266,1.547,3.266,3.521c0,1.965-1.131,3.512-3.266,3.512c-2.133,0-3.264-1.547-3.264-3.512
		C80.388,108.46,81.519,106.913,83.651,106.913z M83.651,112.972c1.157,0,2.096-0.91,2.096-2.535c0-1.639-0.938-2.549-2.096-2.549
		c-1.154,0-2.094,0.91-2.094,2.549C81.558,112.062,82.494,112.972,83.651,112.972z"/>
	<path d="M91.113,106.913c2.135,0,3.266,1.547,3.266,3.521c0,1.965-1.131,3.512-3.266,3.512c-2.133,0-3.264-1.547-3.264-3.512
		C87.85,108.46,88.98,106.913,91.113,106.913z M91.113,112.972c1.156,0,2.096-0.91,2.096-2.535c0-1.639-0.938-2.549-2.096-2.549
		c-1.154,0-2.094,0.91-2.094,2.549C89.02,112.062,89.956,112.972,91.113,112.972z"/>
	<path d="M101.682,113.79h-1.104v-0.91h-0.026c-0.364,0.741-1.222,1.064-2.145,1.064c-2.067,0-3.098-1.639-3.098-3.534
		c0-1.898,1.018-3.497,3.068-3.497c0.688,0,1.677,0.26,2.171,1.053h0.026v-3.458h1.104L101.682,113.79L101.682,113.79z
		 M98.562,112.972c1.482,0,2.058-1.271,2.058-2.535c0-1.326-0.602-2.549-2.119-2.549c-1.508,0-2.019,1.287-2.019,2.604
		C96.481,111.749,97.132,112.972,98.562,112.972z"/>
	<path d="M112.55,107.226c-0.143-1.326-1.026-1.896-2.301-1.896c-1.04,0-2.08,0.377-2.08,1.586c0,1.144,1.479,1.313,2.978,1.647
		c1.481,0.338,2.964,0.858,2.964,2.682c0,1.976-1.938,2.769-3.627,2.769c-2.08,0-3.835-1.014-3.835-3.272h1.17
		c0,1.56,1.303,2.232,2.704,2.232c1.118,0,2.354-0.351,2.354-1.688c0-1.274-1.481-1.495-2.964-1.82
		c-1.483-0.325-2.979-0.754-2.979-2.457c0-1.885,1.678-2.717,3.367-2.717c1.898,0,3.342,0.896,3.42,2.938h-1.171V107.226z"/>
	<path d="M115.488,104.508h1.104v9.282h-1.104V104.508z"/>
	<path d="M121.208,106.913c2.132,0,3.263,1.547,3.263,3.521c0,1.965-1.131,3.512-3.263,3.512c-2.133,0-3.267-1.547-3.267-3.512
		C117.944,108.46,119.075,106.913,121.208,106.913z M121.208,112.972c1.157,0,2.093-0.91,2.093-2.535
		c0-1.639-0.936-2.549-2.093-2.549s-2.097,0.91-2.097,2.549C119.114,112.062,120.051,112.972,121.208,112.972z"/>
	<path d="M132.427,113.79h-1.17l-1.365-5.344h-0.023l-1.354,5.344h-1.196l-2.155-6.725h1.223l1.521,5.5h0.025l1.354-5.5h1.209
		l1.401,5.5h0.026l1.508-5.5h1.146L132.427,113.79z"/>
	<path d="M138.692,112.75l5.772-7.202h-5.33v-1.04h6.786v1.04l-5.76,7.202h5.915v1.04h-7.387L138.692,112.75L138.692,112.75z"/>
	<path d="M150.081,106.913c2.132,0,3.263,1.547,3.263,3.521c0,1.965-1.131,3.512-3.263,3.512c-2.133,0-3.267-1.547-3.267-3.512
		C146.817,108.46,147.948,106.913,150.081,106.913z M150.081,112.972c1.154,0,2.093-0.91,2.093-2.535
		c0-1.639-0.938-2.549-2.093-2.549c-1.157,0-2.097,0.91-2.097,2.549C147.987,112.062,148.924,112.972,150.081,112.972z"/>
	<path d="M154.644,107.067h1.04v1.066h0.026c0.468-0.832,1.222-1.222,2.184-1.222c1.771,0,2.314,1.014,2.314,2.457v4.42h-1.105
		v-4.552c0-0.817-0.52-1.354-1.365-1.354c-1.339,0-1.985,0.896-1.985,2.106v3.796h-1.105L154.644,107.067L154.644,107.067z"/>
	<path d="M167.604,111.658c-0.299,1.479-1.365,2.286-2.873,2.286c-2.146,0-3.159-1.48-3.225-3.534c0-2.019,1.326-3.497,3.159-3.497
		c2.379,0,3.104,2.223,3.042,3.848h-5.031c-0.039,1.17,0.624,2.211,2.094,2.211c0.91,0,1.547-0.439,1.742-1.313L167.604,111.658
		L167.604,111.658z M166.538,109.786c-0.055-1.057-0.848-1.898-1.938-1.898c-1.157,0-1.847,0.871-1.925,1.898H166.538z"/>
	<path d="M169.528,111.671c0.039,0.988,0.897,1.301,1.811,1.301c0.688,0,1.625-0.156,1.625-1.002c0-0.857-1.092-1.001-2.197-1.248
		c-1.092-0.246-2.197-0.609-2.197-1.896c0-1.354,1.341-1.911,2.512-1.911c1.479,0,2.665,0.468,2.757,2.104h-1.105
		c-0.078-0.854-0.832-1.131-1.56-1.131c-0.663,0-1.434,0.182-1.434,0.858c0,0.793,1.173,0.923,2.197,1.17
		c1.105,0.247,2.197,0.608,2.197,1.911c0,1.599-1.495,2.117-2.86,2.117c-1.508,0-2.779-0.609-2.847-2.273H169.528L169.528,111.671z"
		/>
</g>
<circle fill="#6B3F98" cx="6.775" cy="6.641" r="6.641"/>
<path fill="#2DA349" d="M13.248,25.792h-2.62c-0.565-1.678-2.135-2.896-4.003-2.896s-3.438,1.218-4.004,2.896H0v2.979h2.708
	c0.64,1.533,2.148,2.611,3.916,2.611c1.765,0,3.273-1.078,3.916-2.611h2.708V25.792z"/>
<rect x="0" y="45.786" fill="#1779B7" width="13.248" height="2.979"/>
<rect x="0.151" y="67.097" fill="#B65C29" width="13.248" height="2.981"/>
<rect x="0.101" y="82.952" fill="#F47D20" width="13.047" height="13.048"/>
<rect x="0.369" y="103.476" fill="#F6989D" width="13.047" height="13.049"/>
<rect x="0" y="129.416" fill="#00E6A9" width="13.248" height="2.979"/>
<circle fill="#A80000" cx="6.624" cy="149.004" r="6.641"/>
<rect x="0.269" y="167.963" fill="#A80000" width="13.248" height="2.979"/>
<rect x="0.101" y="181.431" fill="#FF7F7F" width="13.047" height="13.049"/>
<g enable-background="new    ">
	<path d="M25.86,128.457h-1.08c-0.132-1.176-0.839-1.751-2.122-1.751c-1.225,0-1.92,0.526-1.92,1.463c0,0.336,0.156,0.6,0.433,0.828
		c0.288,0.216,1.055,0.442,2.313,0.694c1.835,0.372,2.735,1.104,2.735,2.472c0,0.804-0.336,1.427-0.983,1.871
		c-0.647,0.455-1.438,0.684-2.362,0.684c-2.052,0-3.526-1.056-3.538-3.022h1.079c0.012,1.319,1.031,2.063,2.495,2.063
		c1.379,0,2.171-0.552,2.171-1.559c0-0.805-0.563-1.261-2.411-1.607c-1.224-0.24-2.027-0.527-2.447-0.888
		c-0.419-0.372-0.624-0.853-0.624-1.451c0-1.583,1.332-2.507,3.106-2.507C24.601,125.746,25.848,126.718,25.86,128.457z"/>
	<path d="M28.011,125.866c0.372,0,0.672,0.3,0.672,0.672s-0.3,0.672-0.672,0.672s-0.672-0.3-0.672-0.672
		S27.639,125.866,28.011,125.866z M28.515,128.314v6.2h-1.02v-6.2H28.515z"/>
	<path d="M34.477,129.2h0.012v-0.888h0.96v5.732c0,1.955-0.924,2.986-2.867,2.986c-1.403,0-2.52-0.624-2.579-1.823h1.02
		c0.036,0.647,0.816,1.008,1.607,1.008c1.199,0,1.858-0.804,1.858-2.375v-0.384h-0.023c-0.313,0.684-1.067,1.128-1.931,1.128
		c-1.68,0-2.771-1.271-2.771-3.144c0-1.883,1.032-3.273,2.854-3.273C33.493,128.169,34.129,128.577,34.477,129.2z M32.594,133.687
		c1.127,0,1.847-0.96,1.847-2.398c0-1.308-0.636-2.22-1.774-2.22c-1.14,0-1.823,0.899-1.823,2.256
		C30.843,132.775,31.479,133.687,32.594,133.687z"/>
	<path d="M42.12,130.388v4.126H41.1v-4.232c0-0.685-0.443-1.213-1.271-1.213c-1.163,0-1.823,0.78-1.823,1.907v3.538h-1.021v-6.2
		h0.959v0.983h0.024c0.456-0.78,1.104-1.128,2.015-1.128C41.485,128.169,42.12,128.961,42.12,130.388z"/>
	<path d="M48.516,129.836v3.574c0,0.228,0.108,0.348,0.324,0.348c0.096,0,0.216-0.023,0.312-0.06v0.791
		c-0.191,0.107-0.443,0.168-0.731,0.168c-0.552,0-0.863-0.313-0.863-0.959c-0.54,0.636-1.271,0.959-2.183,0.959
		c-1.271,0-2.051-0.623-2.051-1.738c0-0.552,0.18-0.996,0.539-1.319c0.349-0.336,1.176-0.576,2.507-0.744
		c0.898-0.106,1.14-0.322,1.14-0.768c0-0.685-0.42-1.021-1.379-1.021c-1.007,0-1.499,0.372-1.547,1.177h-1.021
		c0.072-1.379,1.008-2.075,2.64-2.075C47.952,128.169,48.516,128.865,48.516,129.836z M45.602,133.758
		c1.188,0,1.896-0.695,1.896-1.379v-1.067c-0.168,0.12-0.444,0.216-0.721,0.252l-1.043,0.155c-0.898,0.133-1.331,0.48-1.331,1.128
		C44.403,133.422,44.846,133.758,45.602,133.758z"/>
	<path d="M51.182,125.95v8.563h-1.02v-8.563H51.182z"/>
	<path d="M62.207,125.95v0.96h-2.854v7.604h-1.139v-7.604H55.36v-0.96H62.207L62.207,125.95z"/>
	<path d="M63.71,125.866c0.372,0,0.672,0.3,0.672,0.672s-0.3,0.672-0.672,0.672s-0.672-0.3-0.672-0.672
		S63.339,125.866,63.71,125.866z M64.214,128.314v6.2h-1.021v-6.2H64.214z"/>
	<path d="M70.488,129.225c0.421-0.66,1.128-1.056,1.955-1.056c1.392,0,2.052,0.684,2.052,1.764v4.581h-1.021v-4.113
		c0-0.888-0.359-1.332-1.199-1.332c-1.02,0-1.618,0.685-1.618,1.549v3.896h-1.021v-4.113c0-0.888-0.36-1.332-1.164-1.332
		c-0.324,0-0.611,0.084-0.863,0.24c-0.491,0.313-0.792,0.959-0.792,1.319v3.886h-1.02v-6.2h0.959v0.911h0.023
		c0.469-0.708,1.128-1.056,2.004-1.056C69.696,128.169,70.272,128.553,70.488,129.225z"/>
	<path d="M76.61,125.866c0.372,0,0.672,0.3,0.672,0.672s-0.301,0.672-0.672,0.672c-0.37,0-0.671-0.3-0.671-0.672
		S76.239,125.866,76.61,125.866z M77.114,128.314v6.2h-1.02v-6.2H77.114z"/>
	<path d="M83.831,130.388v4.126h-1.021v-4.232c0-0.685-0.443-1.213-1.271-1.213c-1.163,0-1.823,0.78-1.823,1.907v3.538h-1.021v-6.2
		h0.96v0.983h0.023c0.456-0.78,1.104-1.128,2.015-1.128C83.196,128.169,83.831,128.961,83.831,130.388z"/>
	<path d="M89.748,129.2h0.012v-0.888h0.959v5.732c0,1.955-0.923,2.986-2.867,2.986c-1.402,0-2.519-0.624-2.578-1.823h1.02
		c0.036,0.647,0.815,1.008,1.606,1.008c1.199,0,1.859-0.804,1.859-2.375v-0.384h-0.024c-0.312,0.684-1.066,1.128-1.931,1.128
		c-1.679,0-2.771-1.271-2.771-3.144c0-1.883,1.031-3.273,2.854-3.273C88.764,128.169,89.4,128.577,89.748,129.2z M87.865,133.687
		c1.127,0,1.847-0.96,1.847-2.398c0-1.308-0.636-2.22-1.775-2.22c-1.139,0-1.823,0.899-1.823,2.256
		C86.114,132.775,86.75,133.687,87.865,133.687z"/>
</g>
<g enable-background="new    ">
	<path d="M23.91,144.691c1.547,0,2.565,0.853,2.565,2.531c0,1.702-1.043,2.53-2.495,2.53h-2.747v3.502h-1.139v-8.563H23.91z
		 M23.586,148.792c1.079,0,1.751-0.503,1.751-1.57c0-1.056-0.624-1.571-1.823-1.571h-2.279v3.143L23.586,148.792L23.586,148.792z"/>
	<path d="M30.69,146.909v1.08c-1.522,0-2.243,0.79-2.243,2.493v2.771h-1.02v-6.2h0.959v1.307h0.024
		c0.479-0.982,1.164-1.45,2.135-1.45C30.594,146.909,30.63,146.909,30.69,146.909z"/>
	<path d="M32.036,144.607c0.372,0,0.671,0.301,0.671,0.672c0,0.372-0.3,0.673-0.671,0.673s-0.671-0.301-0.671-0.673
		C31.365,144.907,31.664,144.607,32.036,144.607z M32.54,147.054v6.2H31.52v-6.2H32.54z"/>
	<path d="M39.809,150.159c0,1.919-1.188,3.237-3.011,3.237c-1.799,0-3.01-1.259-3.01-3.237c0-1.979,1.15-3.25,3.01-3.25
		C38.705,146.909,39.809,148.265,39.809,150.159z M36.798,152.498c1.116,0,1.931-0.937,1.931-2.339s-0.814-2.352-1.942-2.352
		c-1.08,0-1.919,0.912-1.919,2.352C34.867,151.563,35.671,152.498,36.798,152.498z"/>
	<path d="M44.238,146.909v1.08c-1.522,0-2.242,0.79-2.242,2.493v2.771h-1.021v-6.2h0.959v1.307h0.024
		c0.479-0.982,1.164-1.45,2.135-1.45C44.142,146.909,44.178,146.909,44.238,146.909z"/>
	<path d="M45.583,144.607c0.372,0,0.672,0.301,0.672,0.672c0,0.372-0.3,0.673-0.672,0.673s-0.672-0.301-0.672-0.673
		C44.911,144.907,45.212,144.607,45.583,144.607z M46.087,147.054v6.2h-1.021v-6.2H46.087z"/>
	<path d="M49.086,145.195v1.859h1.234v0.899h-1.234v3.886c0,0.312,0.096,0.468,0.312,0.491c0.204,0.013,0.42,0.023,0.637,0.023
		h0.287v0.899h-0.839c-1.127,0-1.415-0.359-1.415-1.295v-4.006h-1.056v-0.899h1.056v-1.859L49.086,145.195L49.086,145.195z"/>
	<path d="M51.931,147.054l1.812,5.073h0.023l1.739-5.073h1.08l-2.64,6.859c-0.539,1.438-0.946,1.822-1.858,1.822
		c-0.252,0-0.48-0.022-0.708-0.106v-0.937c0.191,0.061,0.396,0.145,0.6,0.145c0.419,0,0.708-0.204,0.863-0.624l0.396-0.995
		l-2.459-6.164H51.931z"/>
	<path d="M62.143,144.691v8.563h-1.14v-8.563H62.143z"/>
	<path d="M69.029,149.128v4.126h-1.02v-4.233c0-0.684-0.444-1.212-1.271-1.212c-1.162,0-1.822,0.78-1.822,1.907v3.538h-1.021v-6.2
		h0.959v0.983h0.024c0.456-0.78,1.104-1.128,2.015-1.128C68.393,146.909,69.029,147.701,69.029,149.128z"/>
	<path d="M71.982,145.195v1.859h1.235v0.899h-1.235v3.886c0,0.312,0.097,0.468,0.313,0.491c0.204,0.013,0.42,0.023,0.636,0.023
		h0.288v0.899h-0.839c-1.127,0-1.415-0.359-1.415-1.295v-4.006h-1.056v-0.899h1.056v-1.859L71.982,145.195L71.982,145.195z"/>
	<path d="M78.856,147.869c0.492,0.636,0.732,1.463,0.732,2.471v0.119h-4.643v0.072c0,1.188,0.731,1.967,1.932,1.967
		c0.912,0,1.438-0.443,1.606-1.211h1.008c-0.276,1.379-1.247,2.109-2.65,2.109c-0.648,0-1.2-0.144-1.643-0.432
		c-0.912-0.6-1.332-1.774-1.332-2.854c0-0.91,0.264-1.667,0.815-2.277c0.551-0.611,1.259-0.924,2.1-0.924
		C77.669,146.909,78.365,147.234,78.856,147.869z M78.509,149.56c-0.06-0.995-0.792-1.751-1.799-1.751
		c-0.959,0-1.679,0.696-1.764,1.751H78.509z"/>
	<path d="M83.873,146.909v1.08c-1.523,0-2.243,0.79-2.243,2.493v2.771H80.61v-6.2h0.959v1.307h0.024
		c0.48-0.982,1.164-1.45,2.135-1.45C83.777,146.909,83.813,146.909,83.873,146.909z"/>
	<path d="M89.236,148.853h-1.019v-0.013c-0.06-0.659-0.624-1.031-1.439-1.031c-0.814,0-1.318,0.288-1.318,0.792
		c0,0.456,0.42,0.72,1.259,0.911l0.959,0.216c1.2,0.266,1.835,0.78,1.835,1.716c0,1.224-1.019,1.954-2.638,1.954
		c-1.571,0-2.567-0.707-2.627-2.099h1.02c0.024,0.768,0.636,1.199,1.667,1.199c0.984,0,1.5-0.313,1.5-0.923
		c0-0.276-0.132-0.505-0.384-0.66s-0.768-0.313-1.547-0.479c-1.595-0.336-2.123-0.84-2.123-1.763c0-1.092,0.971-1.764,2.327-1.764
		C88.373,146.909,89.153,147.557,89.236,148.853z"/>
	<path d="M95.296,147.869c0.491,0.636,0.73,1.463,0.73,2.471v0.119h-4.641v0.072c0,1.188,0.731,1.967,1.93,1.967
		c0.912,0,1.439-0.443,1.607-1.211h1.008c-0.274,1.379-1.247,2.109-2.649,2.109c-0.648,0-1.199-0.144-1.644-0.432
		c-0.912-0.6-1.332-1.774-1.332-2.854c0-0.91,0.264-1.667,0.815-2.277c0.552-0.611,1.26-0.924,2.099-0.924
		C94.11,146.909,94.805,147.234,95.296,147.869z M94.948,149.56c-0.061-0.995-0.792-1.751-1.8-1.751
		c-0.959,0-1.679,0.696-1.763,1.751H94.948z"/>
	<path d="M102.352,149.044h-1.056c-0.167-0.804-0.72-1.235-1.535-1.235c-1.259,0-1.931,0.889-1.931,2.423
		c0,1.355,0.684,2.268,1.811,2.268c0.984,0,1.571-0.563,1.703-1.512h1.044c-0.228,1.548-1.188,2.41-2.735,2.41
		c-1.811,0-2.901-1.223-2.901-3.166c0-2.015,1.104-3.321,2.927-3.321C101.176,146.909,102.184,147.629,102.352,149.044z"/>
	<path d="M104.946,145.195v1.859h1.235v0.899h-1.235v3.886c0,0.312,0.097,0.468,0.313,0.491c0.203,0.013,0.42,0.023,0.635,0.023
		h0.288v0.899h-0.839c-1.128,0-1.416-0.359-1.416-1.295v-4.006h-1.055v-0.899h1.055v-1.859L104.946,145.195L104.946,145.195z"/>
	<path d="M107.886,144.607c0.372,0,0.672,0.301,0.672,0.672c0,0.372-0.3,0.673-0.672,0.673s-0.672-0.301-0.672-0.673
		C107.214,144.907,107.514,144.607,107.886,144.607z M108.39,147.054v6.2h-1.02v-6.2H108.39z"/>
	<path d="M115.658,150.159c0,1.919-1.188,3.237-3.011,3.237c-1.799,0-3.011-1.259-3.011-3.237c0-1.979,1.151-3.25,3.011-3.25
		C114.555,146.909,115.658,148.265,115.658,150.159z M112.649,152.498c1.115,0,1.932-0.937,1.932-2.339s-0.815-2.352-1.942-2.352
		c-1.08,0-1.92,0.912-1.92,2.352C110.717,151.563,111.522,152.498,112.649,152.498z"/>
	<path d="M121.995,149.128v4.126h-1.021v-4.233c0-0.684-0.443-1.212-1.271-1.212c-1.163,0-1.823,0.78-1.823,1.907v3.538h-1.021v-6.2
		h0.96v0.983h0.024c0.455-0.78,1.104-1.128,2.015-1.128C121.36,146.909,121.995,147.701,121.995,149.128z"/>
</g>
<g enable-background="new    ">
	<path d="M23.641,164.271c1.547,0,2.566,0.853,2.566,2.531c0,1.702-1.043,2.53-2.495,2.53h-2.747v3.502h-1.139v-8.563H23.641z
		 M23.318,168.372c1.079,0,1.751-0.503,1.751-1.57c0-1.056-0.624-1.571-1.822-1.571h-2.279v3.143L23.318,168.372L23.318,168.372z"/>
	<path d="M30.422,166.49v1.079c-1.523,0-2.243,0.791-2.243,2.494v2.771h-1.02v-6.2h0.959v1.307h0.023
		c0.48-0.982,1.164-1.45,2.135-1.45C30.326,166.49,30.362,166.49,30.422,166.49z"/>
	<path d="M31.767,164.187c0.372,0,0.671,0.3,0.671,0.672s-0.3,0.672-0.671,0.672s-0.671-0.3-0.671-0.672
		S31.396,164.187,31.767,164.187z M32.271,166.634v6.2h-1.02v-6.2H32.271z"/>
	<path d="M39.54,169.74c0,1.919-1.188,3.237-3.012,3.237c-1.799,0-3.01-1.259-3.01-3.237c0-1.979,1.151-3.25,3.01-3.25
		C38.437,166.49,39.54,167.845,39.54,169.74z M36.53,172.078c1.116,0,1.932-0.937,1.932-2.34c0-1.401-0.815-2.351-1.943-2.351
		c-1.08,0-1.919,0.912-1.919,2.351C34.599,171.143,35.403,172.078,36.53,172.078z"/>
	<path d="M43.969,166.49v1.079c-1.523,0-2.243,0.791-2.243,2.494v2.771h-1.02v-6.2h0.959v1.307h0.023
		c0.48-0.982,1.164-1.45,2.136-1.45C43.873,166.49,43.909,166.49,43.969,166.49z"/>
	<path d="M45.315,164.187c0.372,0,0.672,0.3,0.672,0.672s-0.3,0.672-0.672,0.672s-0.672-0.3-0.672-0.672
		S44.943,164.187,45.315,164.187z M45.819,166.634v6.2h-1.02v-6.2H45.819z"/>
	<path d="M48.818,164.775v1.859h1.235v0.899h-1.235v3.886c0,0.312,0.097,0.468,0.313,0.491c0.204,0.013,0.42,0.023,0.636,0.023
		h0.288v0.899h-0.839c-1.127,0-1.415-0.359-1.415-1.295v-4.006h-1.056v-0.899H47.8v-1.859L48.818,164.775L48.818,164.775z"/>
	<path d="M51.662,166.634l1.811,5.073h0.024l1.738-5.073h1.08l-2.639,6.859c-0.54,1.438-0.947,1.822-1.859,1.822
		c-0.252,0-0.479-0.022-0.708-0.106v-0.937c0.192,0.061,0.396,0.145,0.601,0.145c0.419,0,0.708-0.204,0.863-0.624l0.396-0.995
		l-2.459-6.164H51.662z"/>
	<path d="M67.847,166.85h-1.14c-0.252-1.176-1.14-1.823-2.398-1.823c-1.811,0-2.901,1.428-2.901,3.467
		c0,2.171,1.043,3.586,2.913,3.586c1.403,0,2.363-0.972,2.472-2.472h1.14c-0.24,2.207-1.595,3.432-3.706,3.432
		c-1.224,0-2.194-0.408-2.901-1.212c-0.708-0.815-1.057-1.896-1.057-3.25c0-1.331,0.36-2.41,1.091-3.25
		c0.732-0.841,1.716-1.261,2.962-1.261C66.192,164.067,67.595,165.111,67.847,166.85z"/>
	<path d="M74.867,169.74c0,1.919-1.188,3.237-3.012,3.237c-1.799,0-3.01-1.259-3.01-3.237c0-1.979,1.151-3.25,3.01-3.25
		C73.764,166.49,74.867,167.845,74.867,169.74z M71.857,172.078c1.116,0,1.932-0.937,1.932-2.34c0-1.401-0.815-2.351-1.943-2.351
		c-1.08,0-1.919,0.912-1.919,2.351C69.926,171.143,70.73,172.078,71.857,172.078z"/>
	<path d="M79.297,166.49v1.079c-1.523,0-2.243,0.791-2.243,2.494v2.771h-1.02v-6.2h0.959v1.307h0.023
		c0.48-0.982,1.164-1.45,2.135-1.45C79.201,166.49,79.237,166.49,79.297,166.49z"/>
	<path d="M83.292,166.49v1.079c-1.523,0-2.243,0.791-2.243,2.494v2.771h-1.021v-6.2h0.959v1.307h0.024
		c0.48-0.982,1.164-1.45,2.135-1.45C83.197,166.49,83.233,166.49,83.292,166.49z"/>
	<path d="M84.638,164.187c0.372,0,0.672,0.3,0.672,0.672s-0.3,0.672-0.672,0.672s-0.672-0.3-0.672-0.672
		S84.266,164.187,84.638,164.187z M85.142,166.634v6.2h-1.02v-6.2H85.142z"/>
	<path d="M92.267,164.271v8.563h-1.02v-0.84h-0.024c-0.324,0.636-1.056,0.982-1.979,0.982c-1.739,0-2.854-1.331-2.854-3.262
		c0-1.896,1.043-3.228,2.818-3.228c0.804,0,1.631,0.349,2.015,0.973h0.024v-3.19L92.267,164.271L92.267,164.271z M89.388,172.078
		c1.223,0,1.896-0.972,1.896-2.34c0-1.401-0.708-2.351-1.968-2.351c-1.176,0-1.847,0.924-1.847,2.399
		C87.469,171.095,88.189,172.078,89.388,172.078z"/>
	<path d="M99.528,169.74c0,1.919-1.188,3.237-3.012,3.237c-1.799,0-3.01-1.259-3.01-3.237c0-1.979,1.151-3.25,3.01-3.25
		C98.424,166.49,99.528,167.845,99.528,169.74z M96.516,172.078c1.116,0,1.933-0.937,1.933-2.34c0-1.401-0.815-2.351-1.943-2.351
		c-1.079,0-1.918,0.912-1.918,2.351C94.586,171.143,95.389,172.078,96.516,172.078z"/>
	<path d="M103.955,166.49v1.079c-1.522,0-2.242,0.791-2.242,2.494v2.771h-1.021v-6.2h0.959v1.307h0.024
		c0.479-0.982,1.163-1.45,2.136-1.45C103.86,166.49,103.896,166.49,103.955,166.49z"/>
	<path d="M109.319,168.433H108.3v-0.013c-0.06-0.659-0.624-1.031-1.439-1.031c-0.814,0-1.318,0.288-1.318,0.792
		c0,0.456,0.42,0.72,1.26,0.911l0.959,0.216c1.199,0.266,1.835,0.78,1.835,1.716c0,1.224-1.019,1.954-2.638,1.954
		c-1.572,0-2.567-0.707-2.627-2.099h1.02c0.023,0.768,0.635,1.199,1.666,1.199c0.984,0,1.5-0.313,1.5-0.924
		c0-0.275-0.132-0.504-0.384-0.659s-0.768-0.313-1.548-0.479c-1.595-0.336-2.122-0.84-2.122-1.763c0-1.092,0.972-1.765,2.327-1.765
		C108.455,166.49,109.236,167.137,109.319,168.433z"/>
</g>
<g enable-background="new    ">
	<path d="M23.641,183.626c1.547,0,2.566,0.852,2.566,2.531c0,1.701-1.043,2.529-2.495,2.529h-2.747v3.502h-1.139v-8.563H23.641z
		 M23.318,187.728c1.079,0,1.751-0.503,1.751-1.569c0-1.057-0.624-1.571-1.822-1.571h-2.279v3.142L23.318,187.728L23.318,187.728z"
		/>
	<path d="M30.422,185.845v1.08c-1.523,0-2.243,0.791-2.243,2.494v2.771h-1.02v-6.199h0.959v1.307h0.023
		c0.48-0.983,1.164-1.451,2.135-1.451C30.326,185.845,30.362,185.845,30.422,185.845z"/>
	<path d="M31.767,183.542c0.372,0,0.671,0.3,0.671,0.672s-0.3,0.672-0.671,0.672s-0.671-0.3-0.671-0.672
		S31.396,183.542,31.767,183.542z M32.271,185.99v6.199h-1.02v-6.199H32.271z"/>
	<path d="M39.54,189.095c0,1.919-1.188,3.238-3.012,3.238c-1.799,0-3.01-1.259-3.01-3.238c0-1.979,1.151-3.25,3.01-3.25
		C38.437,185.845,39.54,187.2,39.54,189.095z M36.53,191.434c1.116,0,1.932-0.936,1.932-2.339c0-1.402-0.815-2.351-1.943-2.351
		c-1.08,0-1.919,0.912-1.919,2.351C34.599,190.498,35.403,191.434,36.53,191.434z"/>
	<path d="M43.969,185.845v1.08c-1.523,0-2.243,0.791-2.243,2.494v2.771h-1.02v-6.199h0.959v1.307h0.023
		c0.48-0.983,1.164-1.451,2.136-1.451C43.873,185.845,43.909,185.845,43.969,185.845z"/>
	<path d="M45.315,183.542c0.372,0,0.672,0.3,0.672,0.672s-0.3,0.672-0.672,0.672s-0.672-0.3-0.672-0.672
		S44.943,183.542,45.315,183.542z M45.819,185.99v6.199h-1.02v-6.199H45.819z"/>
	<path d="M48.818,184.13v1.858h1.235v0.899h-1.235v3.886c0,0.313,0.097,0.469,0.313,0.491c0.204,0.013,0.42,0.024,0.636,0.024h0.288
		v0.898h-0.839c-1.127,0-1.415-0.358-1.415-1.295v-4.006h-1.056v-0.899H47.8v-1.858L48.818,184.13L48.818,184.13z"/>
	<path d="M51.662,185.99l1.811,5.072h0.024l1.738-5.072h1.08l-2.639,6.858c-0.54,1.439-0.947,1.823-1.859,1.823
		c-0.252,0-0.479-0.023-0.708-0.107v-0.936c0.192,0.06,0.396,0.144,0.601,0.144c0.419,0,0.708-0.204,0.863-0.624l0.396-0.995
		l-2.459-6.163H51.662z"/>
	<path d="M66.683,183.626v0.96l-5.313,6.645h5.457v0.959h-6.813v-0.959l5.325-6.645h-4.917v-0.96H66.683z"/>
	<path d="M73.248,189.095c0,1.919-1.188,3.238-3.012,3.238c-1.799,0-3.01-1.259-3.01-3.238c0-1.979,1.151-3.25,3.01-3.25
		C72.144,185.845,73.248,187.2,73.248,189.095z M70.237,191.434c1.116,0,1.932-0.936,1.932-2.339c0-1.402-0.815-2.351-1.943-2.351
		c-1.08,0-1.919,0.912-1.919,2.351C68.306,190.498,69.11,191.434,70.237,191.434z"/>
	<path d="M79.584,188.064v4.126h-1.021v-4.232c0-0.685-0.443-1.212-1.271-1.212c-1.163,0-1.823,0.779-1.823,1.906v3.538h-1.02
		v-6.199h0.959v0.982h0.023c0.456-0.78,1.104-1.128,2.016-1.128C78.948,185.845,79.584,186.637,79.584,188.064z"/>
	<path d="M85.776,186.805c0.492,0.636,0.732,1.463,0.732,2.471v0.119h-4.642v0.072c0,1.188,0.73,1.967,1.931,1.967
		c0.912,0,1.438-0.442,1.606-1.211h1.008c-0.276,1.379-1.247,2.11-2.65,2.11c-0.648,0-1.2-0.145-1.643-0.433
		c-0.912-0.6-1.332-1.773-1.332-2.854c0-0.911,0.264-1.667,0.815-2.278c0.551-0.61,1.259-0.924,2.1-0.924
		C84.589,185.845,85.284,186.169,85.776,186.805z M85.428,188.495c-0.06-0.995-0.792-1.751-1.799-1.751
		c-0.959,0-1.679,0.695-1.763,1.751H85.428z"/>
	<path d="M92.16,187.788h-1.02v-0.014c-0.06-0.658-0.624-1.03-1.438-1.03c-0.815,0-1.319,0.288-1.319,0.792
		c0,0.456,0.42,0.72,1.259,0.91l0.959,0.217c1.2,0.265,1.835,0.779,1.835,1.716c0,1.223-1.019,1.954-2.638,1.954
		c-1.571,0-2.567-0.707-2.627-2.1h1.02c0.024,0.769,0.637,1.199,1.667,1.199c0.984,0,1.5-0.312,1.5-0.923
		c0-0.276-0.132-0.504-0.384-0.66c-0.252-0.155-0.768-0.312-1.547-0.479c-1.595-0.336-2.123-0.841-2.123-1.764
		c0-1.092,0.971-1.764,2.327-1.764C91.297,185.845,92.076,186.492,92.16,187.788z"/>
</g>
<circle fill="#0085A8" cx="6.937" cy="206.119" r="6.641"/>
<g>
	<path d="M19.902,201.109h1.131v7.813h3.744v0.949h-4.875V201.109z"/>
	<path d="M26.454,206.933c0.026,1.548,1.014,2.185,2.158,2.185c0.819,0,1.313-0.144,1.742-0.325l0.195,0.819
		c-0.403,0.182-1.092,0.39-2.093,0.39c-1.938,0-3.094-1.274-3.094-3.172c0-1.898,1.118-3.394,2.951-3.394
		c2.054,0,2.6,1.808,2.6,2.965c0,0.233-0.026,0.416-0.039,0.532H26.454z M29.808,206.115c0.013-0.729-0.299-1.859-1.586-1.859
		c-1.157,0-1.664,1.066-1.755,1.859H29.808z"/>
	<path d="M32.447,209.871v-5.421h-0.884v-0.871h0.884v-0.299c0-0.885,0.195-1.69,0.728-2.197c0.429-0.416,1.001-0.585,1.534-0.585
		c0.403,0,0.754,0.091,0.975,0.182l-0.156,0.884c-0.169-0.078-0.403-0.143-0.728-0.143c-0.975,0-1.222,0.858-1.222,1.82v0.338h1.521
		v0.871h-1.521v5.421H32.447z"/>
	<path d="M37.647,201.772v1.808h1.638v0.871h-1.638v3.393c0,0.78,0.221,1.223,0.858,1.223c0.299,0,0.52-0.039,0.662-0.078
		l0.053,0.857c-0.222,0.092-0.572,0.156-1.015,0.156c-0.533,0-0.962-0.169-1.235-0.48c-0.325-0.339-0.442-0.897-0.442-1.639v-3.432
		h-0.975v-0.871h0.975v-1.509L37.647,201.772z"/>
	<path d="M44.498,202.071h-2.665v-0.962h6.487v0.962h-2.679v7.801h-1.144V202.071z"/>
	<path d="M53.935,208.156c0,0.649,0.014,1.222,0.053,1.716h-1.015l-0.064-1.027h-0.026c-0.299,0.508-0.962,1.17-2.08,1.17
		c-0.988,0-2.171-0.546-2.171-2.756v-3.679h1.144v3.483c0,1.196,0.364,2.003,1.404,2.003c0.768,0,1.3-0.533,1.508-1.04
		c0.065-0.169,0.104-0.377,0.104-0.585v-3.861h1.144V208.156z"/>
	<path d="M55.834,205.542c0-0.741-0.014-1.378-0.052-1.963h1.001l0.039,1.234h0.052c0.286-0.845,0.975-1.378,1.742-1.378
		c0.13,0,0.221,0.014,0.325,0.039v1.079c-0.117-0.025-0.234-0.039-0.391-0.039c-0.806,0-1.378,0.611-1.534,1.47
		c-0.025,0.155-0.052,0.338-0.052,0.532v3.354h-1.131V205.542z"/>
	<path d="M60.136,205.282c0-0.65-0.014-1.184-0.052-1.703h1.014l0.065,1.04h0.025c0.313-0.599,1.04-1.184,2.08-1.184
		c0.871,0,2.224,0.521,2.224,2.679v3.757h-1.145v-3.627c0-1.015-0.377-1.859-1.456-1.859c-0.754,0-1.339,0.533-1.534,1.17
		c-0.052,0.144-0.078,0.338-0.078,0.533v3.783h-1.144V205.282z"/>
	<path d="M71.278,202.071h-2.665v-0.962H75.1v0.962h-2.679v7.801h-1.144V202.071z"/>
	<path d="M75.451,205.542c0-0.741-0.014-1.378-0.052-1.963H76.4l0.039,1.234h0.052c0.286-0.845,0.975-1.378,1.742-1.378
		c0.13,0,0.221,0.014,0.325,0.039v1.079c-0.117-0.025-0.234-0.039-0.391-0.039c-0.806,0-1.378,0.611-1.534,1.47
		c-0.025,0.155-0.052,0.338-0.052,0.532v3.354h-1.131V205.542z"/>
	<path d="M83.121,209.871l-0.092-0.793H82.99c-0.351,0.494-1.026,0.936-1.924,0.936c-1.273,0-1.924-0.896-1.924-1.807
		c0-1.521,1.352-2.354,3.783-2.34v-0.13c0-0.521-0.144-1.456-1.43-1.456c-0.586,0-1.196,0.182-1.639,0.468l-0.26-0.754
		c0.52-0.338,1.273-0.56,2.067-0.56c1.924,0,2.392,1.313,2.392,2.574v2.354c0,0.546,0.026,1.079,0.104,1.508H83.121z M82.951,206.66
		c-1.248-0.026-2.665,0.195-2.665,1.417c0,0.741,0.494,1.092,1.079,1.092c0.819,0,1.34-0.52,1.521-1.053
		c0.039-0.117,0.064-0.247,0.064-0.364V206.66z"/>
	<path d="M93.781,201.759c-0.287-0.182-0.754-0.338-1.273-0.338c-1.209,0-1.574,0.845-1.574,1.846v0.313H94.6v6.292h-1.145v-5.421
		h-2.508v5.421h-1.144v-5.421h-2.652v5.421H86.02v-5.421h-0.885v-0.871h0.885v-0.234c0-0.793,0.208-1.56,0.754-2.093
		c0.364-0.377,0.91-0.611,1.612-0.611c0.429,0,0.87,0.156,1.104,0.273l-0.312,0.845c-0.195-0.104-0.494-0.221-0.793-0.221
		c-0.364,0-0.625,0.13-0.819,0.338c-0.313,0.338-0.416,0.91-0.416,1.456v0.247h2.652v-0.338c0-1.664,0.987-2.743,2.755-2.743
		c0.572,0,1.223,0.169,1.561,0.402L93.781,201.759z"/>
	<path d="M100.983,209.637c-0.299,0.156-0.961,0.364-1.807,0.364c-1.898,0-3.133-1.287-3.133-3.211c0-1.938,1.326-3.341,3.379-3.341
		c0.676,0,1.275,0.169,1.586,0.324l-0.26,0.885c-0.273-0.156-0.701-0.299-1.326-0.299c-1.443,0-2.223,1.065-2.223,2.379
		c0,1.456,0.936,2.353,2.184,2.353c0.65,0,1.08-0.169,1.404-0.312L100.983,209.637z"/>
	<path d="M111.24,209.585c-0.416,0.208-1.248,0.416-2.314,0.416c-2.471,0-4.33-1.56-4.33-4.433c0-2.743,1.859-4.603,4.576-4.603
		c1.094,0,1.781,0.234,2.08,0.39l-0.271,0.924c-0.43-0.209-1.041-0.364-1.77-0.364c-2.053,0-3.418,1.313-3.418,3.614
		c0,2.145,1.234,3.522,3.367,3.522c0.689,0,1.391-0.143,1.846-0.363L111.24,209.585z"/>
	<path d="M116.01,209.871l-0.092-0.793h-0.039c-0.35,0.494-1.025,0.936-1.924,0.936c-1.273,0-1.924-0.896-1.924-1.807
		c0-1.521,1.352-2.354,3.783-2.34v-0.13c0-0.521-0.143-1.456-1.43-1.456c-0.586,0-1.195,0.182-1.639,0.468l-0.26-0.754
		c0.52-0.338,1.275-0.56,2.068-0.56c1.924,0,2.391,1.313,2.391,2.574v2.354c0,0.546,0.027,1.079,0.105,1.508H116.01z
		 M115.842,206.66c-1.248-0.026-2.666,0.195-2.666,1.417c0,0.741,0.494,1.092,1.078,1.092c0.82,0,1.34-0.52,1.521-1.053
		c0.039-0.117,0.066-0.247,0.066-0.364V206.66z"/>
	<path d="M118.793,200.641h1.143v9.23h-1.143V200.641z"/>
	<path d="M121.86,205.282c0-0.65-0.012-1.184-0.051-1.703h1l0.053,1.014h0.039c0.35-0.598,0.936-1.157,1.975-1.157
		c0.859,0,1.51,0.521,1.781,1.262h0.027c0.193-0.352,0.441-0.624,0.701-0.819c0.377-0.286,0.793-0.442,1.391-0.442
		c0.832,0,2.068,0.546,2.068,2.73v3.705h-1.119v-3.563c0-1.209-0.441-1.937-1.365-1.937c-0.65,0-1.156,0.48-1.352,1.04
		c-0.053,0.156-0.092,0.364-0.092,0.572v3.887h-1.117v-3.771c0-1.001-0.441-1.729-1.313-1.729c-0.715,0-1.236,0.572-1.418,1.144
		c-0.064,0.169-0.09,0.364-0.09,0.56v3.796h-1.119V205.282z"/>
	<path d="M133.975,201.811c0.014,0.391-0.271,0.702-0.727,0.702c-0.404,0-0.689-0.312-0.689-0.702c0-0.402,0.299-0.715,0.715-0.715
		C133.703,201.096,133.975,201.408,133.975,201.811z M132.701,209.871v-6.292h1.145v6.292H132.701z"/>
	<path d="M135.744,205.282c0-0.65-0.014-1.184-0.053-1.703h1.014l0.066,1.04h0.025c0.313-0.599,1.039-1.184,2.08-1.184
		c0.871,0,2.223,0.521,2.223,2.679v3.757h-1.145v-3.627c0-1.015-0.377-1.859-1.455-1.859c-0.754,0-1.34,0.533-1.535,1.17
		c-0.051,0.144-0.078,0.338-0.078,0.533v3.783h-1.143V205.282z"/>
	<path d="M148.379,203.579c-0.025,0.455-0.051,0.962-0.051,1.729v3.653c0,1.443-0.287,2.327-0.898,2.873
		c-0.609,0.572-1.494,0.754-2.287,0.754c-0.754,0-1.586-0.182-2.094-0.52l0.287-0.871c0.416,0.26,1.066,0.494,1.846,0.494
		c1.17,0,2.027-0.611,2.027-2.197v-0.702h-0.025c-0.352,0.585-1.027,1.053-2.002,1.053c-1.561,0-2.678-1.325-2.678-3.067
		c0-2.133,1.391-3.342,2.834-3.342c1.092,0,1.689,0.572,1.963,1.093h0.025l0.053-0.949H148.379z M147.198,206.062
		c0-0.194-0.014-0.363-0.066-0.52c-0.207-0.663-0.766-1.209-1.598-1.209c-1.094,0-1.873,0.923-1.873,2.379
		c0,1.235,0.625,2.262,1.859,2.262c0.701,0,1.34-0.441,1.586-1.17c0.064-0.194,0.092-0.416,0.092-0.61V206.062z"/>
</g>
</svg>
