<?xml version="1.0" encoding="utf-8"?>
<!-- Generator: Adobe Illustrator 16.0.0, SVG Export Plug-In . SVG Version: 6.00 Build 0)  -->
<!DOCTYPE svg PUBLIC "-//W3C//DTD SVG 1.1//EN" "http://www.w3.org/Graphics/SVG/1.1/DTD/svg11.dtd">
<svg version="1.1" id="Layer_1" xmlns="http://www.w3.org/2000/svg" xmlns:xlink="http://www.w3.org/1999/xlink" x="0px" y="0px"
	 width="132.881px" height="119.984px" viewBox="-1.361 0 132.881 119.984" enable-background="new -1.361 0 132.881 119.984"
	 xml:space="preserve">
<circle fill="#4EAF49" cx="6.641" cy="6.641" r="6.641"/>
<circle fill="#387EB9" cx="6.641" cy="27.95" r="6.641"/>
<circle fill="#B77753" cx="6.641" cy="48.389" r="6.641"/>
<circle fill="#984F9F" cx="6.641" cy="69.308" r="6.641"/>
<circle fill="#F57E20" cx="6.641" cy="90.244" r="6.641"/>
<g>
	<path d="M23.668,4.833c-0.143-1.326-1.026-1.898-2.301-1.898c-1.04,0-2.08,0.377-2.08,1.586c0,1.144,1.482,1.313,2.978,1.651
		c1.481,0.338,2.964,0.858,2.964,2.678c0,1.976-1.938,2.769-3.627,2.769c-2.08,0-3.835-1.014-3.835-3.276h1.17
		c0,1.56,1.3,2.236,2.704,2.236c1.117,0,2.354-0.351,2.354-1.69c0-1.274-1.481-1.495-2.964-1.82
		c-1.482-0.325-2.977-0.754-2.977-2.457c0-1.885,1.677-2.717,3.366-2.717c1.898,0,3.342,0.897,3.419,2.938H23.668z"/>
	<path d="M31.104,6.835C30.935,5.99,30.35,5.496,29.44,5.496c-1.6,0-2.093,1.261-2.093,2.626c0,1.235,0.559,2.458,1.963,2.458
		c1.065,0,1.703-0.624,1.846-1.638h1.131c-0.247,1.638-1.273,2.613-2.964,2.613c-2.054,0-3.146-1.43-3.146-3.433
		c0-2.015,1.039-3.601,3.172-3.601c1.521,0,2.742,0.715,2.898,2.314H31.104z"/>
	<path d="M33.522,2.116h1.104v3.549h0.026c0.364-0.806,1.313-1.144,2.119-1.144c1.768,0,2.313,1.014,2.313,2.458v4.42h-1.104v-4.55
		c0-0.819-0.521-1.352-1.365-1.352c-1.339,0-1.989,0.897-1.989,2.106v3.796h-1.104V2.116z"/>
	<path d="M43.649,4.521c2.132,0,3.263,1.547,3.263,3.523c0,1.963-1.131,3.51-3.263,3.51s-3.263-1.547-3.263-3.51
		C40.386,6.068,41.517,4.521,43.649,4.521z M43.649,10.58c1.157,0,2.093-0.91,2.093-2.535c0-1.638-0.936-2.548-2.093-2.548
		s-2.093,0.91-2.093,2.548C41.556,9.669,42.492,10.58,43.649,10.58z"/>
	<path d="M51.111,4.521c2.132,0,3.263,1.547,3.263,3.523c0,1.963-1.131,3.51-3.263,3.51s-3.263-1.547-3.263-3.51
		C47.848,6.068,48.979,4.521,51.111,4.521z M51.111,10.58c1.157,0,2.093-0.91,2.093-2.535c0-1.638-0.936-2.548-2.093-2.548
		s-2.093,0.91-2.093,2.548C49.018,9.669,49.954,10.58,51.111,10.58z"/>
	<path d="M55.739,2.116h1.105v9.282h-1.105V2.116z"/>
	<path d="M59.235,9.279c0.039,0.988,0.896,1.3,1.808,1.3c0.688,0,1.625-0.156,1.625-1.001c0-0.858-1.092-1.001-2.196-1.248
		c-1.093-0.247-2.197-0.611-2.197-1.898c0-1.352,1.339-1.911,2.509-1.911c1.482,0,2.665,0.468,2.757,2.106h-1.104
		c-0.078-0.858-0.832-1.131-1.561-1.131c-0.663,0-1.431,0.182-1.431,0.858c0,0.793,1.17,0.923,2.197,1.17
		c1.104,0.247,2.196,0.611,2.196,1.911c0,1.599-1.495,2.119-2.859,2.119c-1.508,0-2.782-0.611-2.848-2.275H59.235z"/>
	<path d="M23.668,25.433c-0.143-1.326-1.026-1.897-2.301-1.897c-1.04,0-2.08,0.377-2.08,1.586c0,1.144,1.482,1.313,2.978,1.65
		c1.481,0.338,2.964,0.858,2.964,2.679c0,1.976-1.938,2.769-3.627,2.769c-2.08,0-3.835-1.014-3.835-3.275h1.17
		c0,1.56,1.3,2.235,2.704,2.235c1.117,0,2.354-0.351,2.354-1.689c0-1.274-1.481-1.495-2.964-1.82
		c-1.482-0.325-2.977-0.754-2.977-2.457c0-1.885,1.677-2.717,3.366-2.717c1.898,0,3.342,0.896,3.419,2.938h-1.171V25.433z"/>
	<path d="M32.274,29.866c-0.299,1.481-1.365,2.288-2.874,2.288c-2.146,0-3.159-1.482-3.225-3.536c0-2.016,1.326-3.497,3.159-3.497
		c2.379,0,3.107,2.223,3.042,3.848h-5.03c-0.039,1.17,0.624,2.21,2.093,2.21c0.91,0,1.547-0.441,1.742-1.313H32.274z M31.208,27.994
		c-0.052-1.054-0.845-1.898-1.937-1.898c-1.157,0-1.847,0.871-1.924,1.898H31.208z"/>
	<path d="M33.522,25.276h1.04v1.066h0.025c0.469-0.832,1.223-1.222,2.185-1.222c1.768,0,2.313,1.014,2.313,2.457v4.42h-1.104v-4.55
		c0-0.819-0.521-1.353-1.365-1.353c-1.339,0-1.989,0.897-1.989,2.106v3.796h-1.104V25.276z"/>
	<path d="M41.92,24.067h-1.104v-1.352h1.104V24.067z M40.815,25.276h1.104v6.722h-1.104V25.276z"/>
	<path d="M46.535,25.121c2.132,0,3.263,1.547,3.263,3.522c0,1.964-1.131,3.511-3.263,3.511s-3.263-1.547-3.263-3.511
		C43.272,26.668,44.403,25.121,46.535,25.121z M46.535,31.179c1.157,0,2.093-0.91,2.093-2.535c0-1.638-0.936-2.548-2.093-2.548
		s-2.093,0.91-2.093,2.548C44.442,30.269,45.378,31.179,46.535,31.179z"/>
	<path d="M51.059,25.276h1.04v1.417h0.025c0.533-1.078,1.274-1.611,2.471-1.572v1.17c-1.781,0-2.432,1.014-2.432,2.717v2.99h-1.104
		V25.276z"/>
	<path d="M65.749,25.511c-0.26-1.313-1.313-1.976-2.6-1.976c-2.21,0-3.146,1.819-3.146,3.757c0,2.119,0.938,3.887,3.159,3.887
		c1.625,0,2.563-1.144,2.678-2.678h1.235c-0.233,2.314-1.677,3.718-4.017,3.718c-2.888,0-4.291-2.132-4.291-4.836
		c0-2.691,1.533-4.888,4.395-4.888c1.938,0,3.536,1.04,3.822,3.016H65.749z"/>
	<path d="M74.16,29.866c-0.299,1.481-1.365,2.288-2.873,2.288c-2.146,0-3.159-1.482-3.225-3.536c0-2.016,1.326-3.497,3.159-3.497
		c2.379,0,3.106,2.223,3.042,3.848h-5.031c-0.039,1.17,0.624,2.21,2.094,2.21c0.91,0,1.547-0.441,1.742-1.313H74.16z M73.093,27.994
		c-0.052-1.054-0.845-1.898-1.937-1.898c-1.157,0-1.847,0.871-1.925,1.898H73.093z"/>
	<path d="M75.407,25.276h1.04v1.066h0.026c0.468-0.832,1.222-1.222,2.184-1.222c1.769,0,2.314,1.014,2.314,2.457v4.42h-1.105v-4.55
		c0-0.819-0.52-1.353-1.365-1.353c-1.339,0-1.987,0.897-1.987,2.106v3.796h-1.105L75.407,25.276L75.407,25.276z"/>
	<path d="M84.169,25.276h1.339v0.976h-1.339v4.173c0,0.507,0.144,0.599,0.832,0.599h0.507v0.975h-0.845
		c-1.145,0-1.6-0.234-1.6-1.469v-4.277H81.92v-0.976h1.145v-2.015h1.104V25.276z"/>
	<path d="M92.463,29.866c-0.299,1.481-1.364,2.288-2.873,2.288c-2.146,0-3.158-1.482-3.225-3.536c0-2.016,1.326-3.497,3.159-3.497
		c2.379,0,3.107,2.223,3.042,3.848h-5.031c-0.039,1.17,0.624,2.21,2.094,2.21c0.91,0,1.547-0.441,1.742-1.313H92.463z
		 M91.397,27.994c-0.052-1.054-0.845-1.898-1.938-1.898c-1.156,0-1.847,0.871-1.925,1.898H91.397z"/>
	<path d="M93.672,25.276h1.039v1.417h0.027c0.533-1.078,1.273-1.611,2.469-1.572v1.17c-1.781,0-2.43,1.014-2.43,2.717v2.99h-1.105
		V25.276z"/>
	<path d="M98.715,29.879c0.039,0.988,0.898,1.3,1.81,1.3c0.688,0,1.625-0.155,1.625-1.001c0-0.857-1.092-1.001-2.197-1.248
		c-1.092-0.247-2.197-0.61-2.197-1.897c0-1.353,1.338-1.911,2.509-1.911c1.481,0,2.666,0.468,2.758,2.105h-1.105
		c-0.078-0.857-0.832-1.131-1.561-1.131c-0.662,0-1.431,0.182-1.431,0.858c0,0.793,1.171,0.923,2.197,1.17
		c1.105,0.247,2.197,0.611,2.197,1.911c0,1.599-1.496,2.119-2.861,2.119c-1.508,0-2.78-0.611-2.846-2.275H98.715z"/>
	<path d="M20.405,44.356h-3.094v-1.04h7.423v1.04H21.64v8.243h-1.235V44.356z"/>
	<path d="M25.761,43.316h1.234v8.242h4.914v1.041h-6.148V43.316z"/>
	<path d="M39.515,46.111c-0.261-1.313-1.313-1.976-2.601-1.976c-2.21,0-3.146,1.819-3.146,3.757c0,2.119,0.936,3.886,3.159,3.886
		c1.625,0,2.561-1.144,2.678-2.678h1.234c-0.233,2.314-1.677,3.719-4.017,3.719c-2.886,0-4.29-2.133-4.29-4.836
		c0-2.691,1.534-4.888,4.395-4.888c1.937,0,3.535,1.04,3.821,3.016H39.515z"/>
	<path d="M20.405,64.956h-3.094v-1.04h7.423v1.04H21.64v8.242h-1.235V64.956z"/>
	<path d="M27.035,66.321c2.132,0,3.263,1.547,3.263,3.521c0,1.965-1.131,3.512-3.263,3.512s-3.263-1.547-3.263-3.512
		C23.772,67.868,24.903,66.321,27.035,66.321z M27.035,72.379c1.157,0,2.093-0.91,2.093-2.535c0-1.638-0.936-2.548-2.093-2.548
		s-2.093,0.91-2.093,2.548C24.942,71.469,25.878,72.379,27.035,72.379z"/>
	<path d="M38.254,73.198h-1.17l-1.364-5.344h-0.026l-1.353,5.344h-1.195l-2.158-6.723h1.222l1.521,5.5h0.025l1.353-5.5h1.209
		l1.404,5.5h0.025l1.508-5.5h1.145L38.254,73.198z"/>
	<path d="M41.452,66.478h1.04v1.065h0.026c0.468-0.832,1.222-1.222,2.184-1.222c1.769,0,2.314,1.014,2.314,2.457v4.42h-1.105v-4.551
		c0-0.818-0.52-1.353-1.365-1.353c-1.339,0-1.988,0.897-1.988,2.106v3.795h-1.105V66.478z"/>
	<path d="M52.476,63.916h1.234v3.991h4.889v-3.991h1.234v9.282h-1.234v-4.252h-4.889v4.252h-1.234V63.916z"/>
	<path d="M67.634,73.172c-0.194,0.117-0.44,0.183-0.793,0.183c-0.571,0-0.936-0.313-0.936-1.039
		c-0.611,0.715-1.431,1.039-2.366,1.039c-1.223,0-2.224-0.545-2.224-1.886c0-1.521,1.131-1.846,2.274-2.065
		c1.223-0.234,2.263-0.156,2.263-0.988c0-0.962-0.793-1.118-1.495-1.118c-0.937,0-1.625,0.286-1.677,1.274h-1.105
		c0.065-1.664,1.354-2.25,2.848-2.25c1.209,0,2.522,0.272,2.522,1.847v3.458c0,0.521,0,0.754,0.351,0.754
		c0.092,0,0.195-0.013,0.338-0.064V73.172z M65.84,69.728c-0.429,0.313-1.261,0.324-2.002,0.455
		c-0.729,0.131-1.353,0.391-1.353,1.209c0,0.729,0.624,0.987,1.301,0.987c1.456,0,2.054-0.91,2.054-1.521V69.728z"/>
	<path d="M68.726,63.916h1.104v9.282h-1.104V63.916z"/>
	<path d="M71.612,63.916h1.104v9.282h-1.104V63.916z"/>
	<path d="M78.254,63.916h1.69l2.925,7.8l2.938-7.8h1.688v9.282h-1.17v-7.723H86.3l-2.897,7.723h-1.054l-2.898-7.723h-0.026v7.723
		h-1.17V63.916z"/>
	<path d="M95.102,71.065c-0.299,1.481-1.365,2.289-2.873,2.289c-2.146,0-3.159-1.482-3.225-3.537c0-2.016,1.326-3.496,3.16-3.496
		c2.379,0,3.107,2.223,3.041,3.848h-5.031c-0.038,1.17,0.624,2.21,2.094,2.21c0.91,0,1.547-0.44,1.741-1.313H95.102L95.102,71.065z
		 M94.035,69.194c-0.051-1.055-0.844-1.898-1.936-1.898c-1.158,0-1.848,0.871-1.926,1.898H94.035z"/>
	<path d="M102.084,71.065c-0.299,1.481-1.364,2.289-2.873,2.289c-2.146,0-3.16-1.482-3.225-3.537c0-2.016,1.326-3.496,3.158-3.496
		c2.379,0,3.106,2.223,3.043,3.848h-5.031c-0.039,1.17,0.623,2.21,2.094,2.21c0.91,0,1.547-0.44,1.742-1.313H102.084L102.084,71.065
		z M101.018,69.194c-0.054-1.055-0.847-1.898-1.938-1.898c-1.156,0-1.846,0.871-1.924,1.898H101.018z"/>
	<path d="M104.865,66.478h1.338v0.976h-1.338v4.173c0,0.507,0.143,0.6,0.832,0.6h0.506V73.2h-0.844
		c-1.146,0-1.601-0.234-1.601-1.469v-4.277h-1.145v-0.977h1.145v-2.015h1.105L104.865,66.478L104.865,66.478z"/>
	<path d="M108.596,65.269h-1.105v-1.353h1.105V65.269z M107.49,66.478h1.105v6.722h-1.105V66.478z"/>
	<path d="M110.311,66.478h1.041v1.065h0.024c0.47-0.832,1.224-1.222,2.185-1.222c1.77,0,2.313,1.014,2.313,2.457v4.42h-1.104v-4.551
		c0-0.818-0.521-1.353-1.365-1.353c-1.338,0-1.988,0.897-1.988,2.106v3.795h-1.104L110.311,66.478L110.311,66.478z"/>
	<path d="M123.338,72.626c0,2.186-1.002,3.303-3.121,3.303c-1.26,0-2.717-0.508-2.78-1.977h1.104
		c0.051,0.806,1.015,1.092,1.742,1.092c1.443,0,2.014-1.04,2.014-2.548v-0.44h-0.024c-0.363,0.817-1.248,1.221-2.094,1.221
		c-2.003,0-3.003-1.572-3.003-3.405c0-1.586,0.779-3.549,3.107-3.549c0.844,0,1.598,0.377,2.002,1.118h0.012v-0.963h1.041V72.626z
		 M122.246,69.701c0-1.185-0.52-2.405-1.912-2.405c-1.416,0-1.987,1.157-1.987,2.444c0,1.209,0.44,2.561,1.897,2.561
		C121.699,72.301,122.246,70.962,122.246,69.701z"/>
	<path d="M125.678,71.079c0.038,0.988,0.896,1.3,1.807,1.3c0.688,0,1.625-0.155,1.625-1.001c0-0.857-1.092-1.001-2.197-1.248
		c-1.092-0.247-2.197-0.609-2.197-1.896c0-1.354,1.341-1.912,2.511-1.912c1.481,0,2.666,0.469,2.756,2.105h-1.105
		c-0.078-0.857-0.832-1.131-1.559-1.131c-0.664,0-1.432,0.184-1.432,0.857c0,0.794,1.17,0.924,2.196,1.171
		c1.105,0.247,2.197,0.61,2.197,1.911c0,1.599-1.494,2.119-2.859,2.119c-1.508,0-2.782-0.611-2.848-2.275H125.678z"/>
	<path d="M26.685,93.799h-1.287l-2.119-7.801h-0.026l-2.145,7.801H19.82l-2.379-9.282h1.261l1.82,7.723h0.025l2.08-7.723h1.339
		l2.055,7.723h0.025l1.886-7.723h1.234L26.685,93.799z"/>
	<path d="M32.313,86.922c2.132,0,3.263,1.547,3.263,3.522c0,1.964-1.131,3.511-3.263,3.511s-3.264-1.547-3.264-3.511
		C29.05,88.469,30.181,86.922,32.313,86.922z M32.313,92.979c1.157,0,2.093-0.91,2.093-2.535c0-1.639-0.936-2.549-2.093-2.549
		s-2.093,0.91-2.093,2.549C30.22,92.069,31.156,92.979,32.313,92.979z"/>
	<path d="M36.837,87.077h1.04v1.417h0.026c0.533-1.078,1.274-1.611,2.47-1.572v1.17c-1.781,0-2.431,1.015-2.431,2.718v2.989h-1.105
		V87.077z"/>
	<path d="M41.27,84.517h1.104v5.5l3.068-2.938h1.481l-2.665,2.444l2.86,4.276h-1.404l-2.301-3.51l-1.04,0.962v2.548H41.27V84.517z"
		/>
	<path d="M48.628,91.681c0.039,0.987,0.897,1.299,1.808,1.299c0.688,0,1.625-0.154,1.625-1c0-0.857-1.093-1.002-2.197-1.248
		c-1.092-0.248-2.197-0.61-2.197-1.897c0-1.353,1.339-1.911,2.509-1.911c1.482,0,2.665,0.469,2.757,2.105h-1.105
		c-0.078-0.857-0.832-1.131-1.56-1.131c-0.663,0-1.431,0.182-1.431,0.857c0,0.793,1.17,0.924,2.197,1.17
		c1.105,0.247,2.197,0.611,2.197,1.911c0,1.599-1.495,2.119-2.86,2.119c-1.508,0-2.782-0.611-2.847-2.274H48.628z"/>
	<path d="M54.452,84.517h1.105v3.549h0.025c0.364-0.806,1.313-1.144,2.12-1.144c1.769,0,2.313,1.015,2.313,2.457v4.42h-1.104v-4.55
		c0-0.818-0.521-1.354-1.365-1.354c-1.339,0-1.988,0.897-1.988,2.106v3.796h-1.105L54.452,84.517L54.452,84.517z"/>
	<path d="M64.58,86.922c2.132,0,3.263,1.547,3.263,3.522c0,1.964-1.131,3.511-3.263,3.511c-2.133,0-3.264-1.547-3.264-3.511
		C61.316,88.469,62.447,86.922,64.58,86.922z M64.58,92.979c1.156,0,2.093-0.91,2.093-2.535c0-1.639-0.937-2.549-2.093-2.549
		c-1.157,0-2.094,0.91-2.094,2.549C62.486,92.069,63.422,92.979,64.58,92.979z"/>
	<path d="M69.181,87.077h1.104v0.91h0.025c0.363-0.741,1.223-1.065,2.146-1.065c2.066,0,3.094,1.638,3.094,3.536
		c0,1.896-1.014,3.497-3.067,3.497c-0.688,0-1.677-0.261-2.171-1.054h-0.025v3.472h-1.104L69.181,87.077L69.181,87.077z
		 M72.301,87.896c-1.481,0-2.054,1.274-2.054,2.535c0,1.326,0.599,2.549,2.119,2.549c1.508,0,2.015-1.287,2.015-2.601
		C74.381,89.119,73.731,87.896,72.301,87.896z"/>
	<path d="M77.527,91.681c0.039,0.987,0.896,1.299,1.808,1.299c0.688,0,1.625-0.154,1.625-1c0-0.857-1.093-1.002-2.196-1.248
		c-1.093-0.248-2.197-0.61-2.197-1.897c0-1.353,1.339-1.911,2.509-1.911c1.482,0,2.666,0.469,2.757,2.105h-1.104
		c-0.078-0.857-0.832-1.131-1.561-1.131c-0.663,0-1.431,0.182-1.431,0.857c0,0.793,1.17,0.924,2.197,1.17
		c1.104,0.247,2.196,0.611,2.196,1.911c0,1.599-1.495,2.119-2.859,2.119c-1.508,0-2.782-0.611-2.848-2.274H77.527z"/>
</g>
<circle fill="#FF73DF" cx="6.641" cy="110.863" r="6.641"/>
<g>
	<path d="M20.288,111.908c0.027,0.488,0.143,0.885,0.346,1.189c0.387,0.57,1.068,0.855,2.045,0.855c0.438,0,0.836-0.063,1.195-0.188
		c0.695-0.242,1.043-0.676,1.043-1.301c0-0.469-0.147-0.802-0.442-0.999s-0.759-0.368-1.392-0.513l-1.166-0.264
		c-0.762-0.172-1.301-0.361-1.617-0.568c-0.547-0.359-0.82-0.896-0.82-1.611c0-0.773,0.268-1.408,0.803-1.904
		s1.293-0.744,2.273-0.744c0.902,0,1.669,0.218,2.3,0.653s0.946,1.132,0.946,2.089h-1.096c-0.059-0.461-0.184-0.814-0.375-1.061
		c-0.355-0.449-0.959-0.674-1.811-0.674c-0.688,0-1.182,0.145-1.482,0.434s-0.451,0.625-0.451,1.008c0,0.422,0.176,0.73,0.527,0.926
		c0.23,0.125,0.752,0.281,1.564,0.469l1.207,0.275c0.582,0.133,1.031,0.314,1.348,0.545c0.547,0.402,0.82,0.986,0.82,1.752
		c0,0.953-0.347,1.635-1.04,2.045s-1.499,0.615-2.417,0.615c-1.07,0-1.908-0.273-2.514-0.82c-0.594-0.531-0.891-1.25-0.891-2.156
		c0-0.016,0-0.033,0-0.053H20.288z"/>
	<path d="M27.6,106.658h1.066v1.752h1.002v0.861h-1.002v4.096c0,0.219,0.074,0.365,0.223,0.439c0.082,0.043,0.219,0.064,0.41,0.064
		c0.051,0,0.105-0.002,0.164-0.006c0.059,0,0.127-0.004,0.205-0.012v0.832c-0.121,0.035-0.247,0.061-0.378,0.076
		s-0.272,0.023-0.425,0.023c-0.492,0-0.826-0.126-1.002-0.378s-0.264-0.579-0.264-0.981v-4.154h-0.85v-0.861h0.85V106.658z"/>
	<path d="M30.753,108.41h1.002v1.084c0.082-0.211,0.283-0.468,0.604-0.771s0.689-0.454,1.107-0.454c0.02,0,0.053,0.002,0.1,0.006
		s0.127,0.012,0.24,0.023v1.113c-0.063-0.012-0.12-0.02-0.173-0.023s-0.11-0.006-0.173-0.006c-0.531,0-0.939,0.171-1.225,0.513
		s-0.428,0.735-0.428,1.181v3.609h-1.055V108.41z"/>
	<path d="M39.583,109.395c0.211,0.316,0.352,0.686,0.422,1.107c0.063,0.289,0.094,0.75,0.094,1.383h-4.6
		c0.02,0.637,0.17,1.147,0.451,1.532s0.717,0.577,1.307,0.577c0.551,0,0.99-0.182,1.318-0.545c0.188-0.211,0.32-0.455,0.398-0.732
		h1.037c-0.027,0.23-0.118,0.487-0.272,0.771s-0.327,0.515-0.519,0.694c-0.32,0.313-0.717,0.523-1.189,0.633
		c-0.254,0.063-0.541,0.094-0.861,0.094c-0.781,0-1.443-0.284-1.986-0.853s-0.814-1.364-0.814-2.388c0-1.008,0.273-1.826,0.82-2.455
		s1.262-0.943,2.145-0.943c0.445,0,0.877,0.104,1.295,0.313S39.364,109.063,39.583,109.395z M39.014,111.047
		c-0.043-0.457-0.143-0.822-0.299-1.096c-0.289-0.508-0.771-0.762-1.447-0.762c-0.484,0-0.891,0.175-1.219,0.524
		s-0.502,0.794-0.521,1.333H39.014z"/>
	<path d="M46.257,109.395c0.211,0.316,0.352,0.686,0.422,1.107c0.063,0.289,0.094,0.75,0.094,1.383h-4.6
		c0.02,0.637,0.17,1.147,0.451,1.532s0.717,0.577,1.307,0.577c0.551,0,0.99-0.182,1.318-0.545c0.188-0.211,0.32-0.455,0.398-0.732
		h1.037c-0.027,0.23-0.118,0.487-0.272,0.771s-0.327,0.515-0.519,0.694c-0.32,0.313-0.717,0.523-1.189,0.633
		c-0.254,0.063-0.541,0.094-0.861,0.094c-0.781,0-1.443-0.284-1.986-0.853s-0.814-1.364-0.814-2.388c0-1.008,0.273-1.826,0.82-2.455
		s1.262-0.943,2.145-0.943c0.445,0,0.877,0.104,1.295,0.313S46.038,109.063,46.257,109.395z M45.688,111.047
		c-0.043-0.457-0.143-0.822-0.299-1.096c-0.289-0.508-0.771-0.762-1.447-0.762c-0.484,0-0.891,0.175-1.219,0.524
		s-0.502,0.794-0.521,1.333H45.688z"/>
	<path d="M48.278,106.658h1.066v1.752h1.002v0.861h-1.002v4.096c0,0.219,0.074,0.365,0.223,0.439
		c0.082,0.043,0.219,0.064,0.41,0.064c0.051,0,0.105-0.002,0.164-0.006c0.059,0,0.127-0.004,0.205-0.012v0.832
		c-0.121,0.035-0.247,0.061-0.378,0.076s-0.272,0.023-0.425,0.023c-0.492,0-0.826-0.126-1.002-0.378s-0.264-0.579-0.264-0.981
		v-4.154h-0.85v-0.861h0.85V106.658z"/>
	<path d="M60.923,106.078v1.025h-2.9v7.582h-1.184v-7.582h-2.9v-1.025H60.923z"/>
	<path d="M65.382,109.395c0.211,0.316,0.352,0.686,0.422,1.107c0.063,0.289,0.094,0.75,0.094,1.383h-4.6
		c0.02,0.637,0.17,1.147,0.451,1.532s0.717,0.577,1.307,0.577c0.551,0,0.99-0.182,1.318-0.545c0.188-0.211,0.32-0.455,0.398-0.732
		h1.037c-0.027,0.23-0.118,0.487-0.272,0.771s-0.327,0.515-0.519,0.694c-0.32,0.313-0.717,0.523-1.189,0.633
		c-0.254,0.063-0.541,0.094-0.861,0.094c-0.781,0-1.443-0.284-1.986-0.853s-0.814-1.364-0.814-2.388c0-1.008,0.273-1.826,0.82-2.455
		s1.262-0.943,2.145-0.943c0.445,0,0.877,0.104,1.295,0.313S65.163,109.063,65.382,109.395z M64.813,111.047
		c-0.043-0.457-0.143-0.822-0.299-1.096c-0.289-0.508-0.771-0.762-1.447-0.762c-0.484,0-0.891,0.175-1.219,0.524
		s-0.502,0.794-0.521,1.333H64.813z"/>
	<path d="M70.555,110.883c0.242-0.031,0.404-0.133,0.486-0.305c0.047-0.094,0.07-0.229,0.07-0.404c0-0.359-0.128-0.62-0.384-0.782
		s-0.622-0.243-1.099-0.243c-0.551,0-0.941,0.148-1.172,0.445c-0.129,0.164-0.213,0.408-0.252,0.732h-0.984
		c0.02-0.773,0.271-1.312,0.753-1.614s1.042-0.454,1.679-0.454c0.738,0,1.337,0.141,1.796,0.422s0.688,0.719,0.688,1.313v3.615
		c0,0.109,0.022,0.197,0.067,0.264s0.14,0.1,0.284,0.1c0.047,0,0.1-0.003,0.158-0.009s0.121-0.015,0.188-0.026v0.779
		c-0.164,0.047-0.289,0.076-0.375,0.088s-0.203,0.018-0.352,0.018c-0.363,0-0.627-0.129-0.791-0.387
		c-0.086-0.137-0.146-0.33-0.182-0.58c-0.215,0.281-0.523,0.525-0.926,0.732s-0.846,0.311-1.33,0.311
		c-0.582,0-1.058-0.177-1.427-0.53s-0.554-0.796-0.554-1.327c0-0.582,0.182-1.033,0.545-1.354s0.84-0.518,1.43-0.592L70.555,110.883
		z M69.126,114c0.371,0,0.73-0.086,1.078-0.258c0.586-0.285,0.879-0.752,0.879-1.4v-0.85c-0.129,0.082-0.295,0.15-0.498,0.205
		s-0.402,0.094-0.598,0.117l-0.639,0.082c-0.383,0.051-0.67,0.131-0.861,0.24c-0.324,0.184-0.486,0.477-0.486,0.879
		c0,0.305,0.111,0.545,0.334,0.721S68.821,114,69.126,114z"/>
	<path d="M73.866,108.41h1.043v0.891c0.25-0.309,0.477-0.533,0.68-0.674c0.348-0.238,0.742-0.357,1.184-0.357
		c0.5,0,0.902,0.123,1.207,0.369c0.172,0.141,0.328,0.348,0.469,0.621c0.234-0.336,0.51-0.585,0.826-0.747s0.672-0.243,1.066-0.243
		c0.844,0,1.418,0.305,1.723,0.914c0.164,0.328,0.246,0.77,0.246,1.324v4.178h-1.096v-4.359c0-0.418-0.104-0.705-0.313-0.861
		s-0.464-0.234-0.765-0.234c-0.414,0-0.771,0.139-1.069,0.416s-0.448,0.74-0.448,1.389v3.65h-1.072v-4.096
		c0-0.426-0.051-0.736-0.152-0.932c-0.16-0.293-0.459-0.439-0.896-0.439c-0.398,0-0.761,0.154-1.087,0.463s-0.489,0.867-0.489,1.676
		v3.328h-1.055V108.41z"/>
	<path d="M84.489,112.717c0.031,0.352,0.119,0.621,0.264,0.809c0.266,0.34,0.727,0.51,1.383,0.51c0.391,0,0.734-0.085,1.031-0.255
		s0.445-0.433,0.445-0.788c0-0.27-0.119-0.475-0.357-0.615c-0.152-0.086-0.453-0.186-0.902-0.299l-0.838-0.211
		c-0.535-0.133-0.93-0.281-1.184-0.445c-0.453-0.285-0.68-0.68-0.68-1.184c0-0.594,0.214-1.074,0.642-1.441s1.003-0.551,1.726-0.551
		c0.945,0,1.627,0.277,2.045,0.832c0.254,0.34,0.381,0.707,0.381,1.102c0,0.012,0,0.023,0,0.035h-0.996
		c-0.02-0.238-0.104-0.455-0.252-0.65c-0.242-0.277-0.662-0.416-1.26-0.416c-0.398,0-0.7,0.076-0.905,0.229
		s-0.308,0.354-0.308,0.604c0,0.273,0.135,0.492,0.404,0.656c0.156,0.098,0.387,0.184,0.691,0.258l0.697,0.17
		c0.758,0.184,1.266,0.361,1.523,0.533c0.41,0.27,0.615,0.693,0.615,1.271c0,0.559-0.212,1.041-0.636,1.447
		s-1.069,0.609-1.937,0.609c-0.934,0-1.595-0.212-1.983-0.636s-0.597-0.948-0.624-1.573H84.489z"/>
</g>
</svg>
