<?xml version="1.0" encoding="utf-8"?>
<!-- Generator: Adobe Illustrator 16.0.0, SVG Export Plug-In . SVG Version: 6.00 Build 0)  -->
<!DOCTYPE svg PUBLIC "-//W3C//DTD SVG 1.1//EN" "http://www.w3.org/Graphics/SVG/1.1/DTD/svg11.dtd">
<svg version="1.1" id="Layer_1" xmlns="http://www.w3.org/2000/svg" xmlns:xlink="http://www.w3.org/1999/xlink" x="0px" y="0px"
	 width="156.602px" height="140.625px" viewBox="0 0 156.602 140.625" enable-background="new 0 0 156.602 140.625"
	 xml:space="preserve">
<circle fill="#4EAF49" cx="6.641" cy="6.641" r="6.641"/>
<circle fill="#387EB9" cx="6.641" cy="27.95" r="6.641"/>
<circle fill="#B77753" cx="6.641" cy="48.389" r="6.641"/>
<circle fill="#984F9F" cx="6.641" cy="69.308" r="6.641"/>
<circle fill="#F57E20" cx="6.641" cy="90.244" r="6.641"/>
<g>
	<path d="M23.668,4.833c-0.143-1.326-1.025-1.897-2.301-1.897c-1.04,0-2.08,0.377-2.08,1.586c0,1.144,1.482,1.313,2.979,1.65
		c1.48,0.338,2.964,0.858,2.964,2.679c0,1.976-1.938,2.769-3.627,2.769c-2.08,0-3.835-1.014-3.835-3.276h1.17
		c0,1.561,1.3,2.236,2.704,2.236c1.116,0,2.354-0.351,2.354-1.689c0-1.274-1.48-1.495-2.964-1.82
		c-1.482-0.325-2.977-0.754-2.977-2.457c0-1.885,1.677-2.717,3.365-2.717c1.898,0,3.343,0.896,3.419,2.938h-1.171V4.833z"/>
	<path d="M31.104,6.835C30.935,5.99,30.35,5.496,29.44,5.496c-1.601,0-2.093,1.261-2.093,2.626c0,1.235,0.559,2.458,1.963,2.458
		c1.064,0,1.703-0.624,1.846-1.638h1.131c-0.247,1.638-1.272,2.613-2.964,2.613c-2.054,0-3.146-1.431-3.146-3.434
		c0-2.015,1.039-3.601,3.173-3.601c1.521,0,2.741,0.715,2.897,2.313h-1.143V6.835z"/>
	<path d="M33.522,2.116h1.104v3.549h0.026c0.364-0.806,1.313-1.144,2.119-1.144c1.768,0,2.313,1.014,2.313,2.458v4.42H37.98v-4.55
		c0-0.819-0.521-1.353-1.365-1.353c-1.339,0-1.989,0.897-1.989,2.106v3.796h-1.104V2.116z"/>
	<path d="M43.649,4.521c2.132,0,3.263,1.547,3.263,3.522c0,1.963-1.131,3.511-3.263,3.511s-3.263-1.548-3.263-3.511
		C40.386,6.068,41.517,4.521,43.649,4.521z M43.649,10.58c1.157,0,2.093-0.91,2.093-2.535c0-1.638-0.936-2.548-2.093-2.548
		s-2.093,0.91-2.093,2.548C41.556,9.669,42.492,10.58,43.649,10.58z"/>
	<path d="M51.111,4.521c2.132,0,3.263,1.547,3.263,3.522c0,1.963-1.131,3.511-3.263,3.511s-3.263-1.548-3.263-3.511
		C47.848,6.068,48.979,4.521,51.111,4.521z M51.111,10.58c1.157,0,2.093-0.91,2.093-2.535c0-1.638-0.936-2.548-2.093-2.548
		s-2.093,0.91-2.093,2.548C49.018,9.669,49.954,10.58,51.111,10.58z"/>
	<path d="M55.739,2.116h1.105v9.282h-1.105V2.116z"/>
	<path d="M59.235,9.279c0.039,0.988,0.896,1.3,1.808,1.3c0.688,0,1.625-0.156,1.625-1.001c0-0.857-1.092-1.001-2.195-1.248
		c-1.094-0.247-2.197-0.611-2.197-1.897c0-1.353,1.339-1.911,2.509-1.911c1.482,0,2.665,0.468,2.757,2.105h-1.104
		c-0.078-0.857-0.832-1.131-1.562-1.131c-0.663,0-1.431,0.183-1.431,0.858c0,0.793,1.17,0.923,2.197,1.17
		c1.104,0.247,2.195,0.61,2.195,1.911c0,1.599-1.495,2.119-2.858,2.119c-1.508,0-2.782-0.611-2.849-2.275H59.235z"/>
	<path d="M23.668,25.433c-0.143-1.326-1.025-1.897-2.301-1.897c-1.04,0-2.08,0.377-2.08,1.586c0,1.145,1.482,1.313,2.979,1.65
		c1.48,0.338,2.964,0.857,2.964,2.679c0,1.976-1.938,2.77-3.627,2.77c-2.08,0-3.835-1.015-3.835-3.275h1.17
		c0,1.56,1.3,2.235,2.704,2.235c1.116,0,2.354-0.352,2.354-1.689c0-1.274-1.48-1.495-2.964-1.82
		c-1.482-0.324-2.977-0.754-2.977-2.457c0-1.885,1.677-2.717,3.365-2.717c1.898,0,3.343,0.896,3.419,2.938h-1.171V25.433z"/>
	<path d="M32.274,29.866c-0.299,1.481-1.365,2.288-2.874,2.288c-2.146,0-3.159-1.482-3.226-3.536c0-2.016,1.326-3.497,3.159-3.497
		c2.379,0,3.107,2.223,3.042,3.848h-5.029c-0.039,1.171,0.624,2.211,2.093,2.211c0.91,0,1.547-0.441,1.742-1.313L32.274,29.866
		L32.274,29.866z M31.208,27.994c-0.052-1.054-0.845-1.897-1.937-1.897c-1.157,0-1.848,0.87-1.924,1.897H31.208z"/>
	<path d="M33.522,25.276h1.04v1.065h0.024c0.47-0.832,1.224-1.222,2.186-1.222c1.768,0,2.313,1.014,2.313,2.457v4.42h-1.104v-4.55
		c0-0.819-0.521-1.354-1.365-1.354c-1.339,0-1.989,0.897-1.989,2.106v3.796h-1.104L33.522,25.276L33.522,25.276z"/>
	<path d="M41.92,24.067h-1.104v-1.353h1.104V24.067z M40.815,25.276h1.104v6.722h-1.104V25.276z"/>
	<path d="M46.535,25.121c2.132,0,3.263,1.547,3.263,3.522c0,1.964-1.131,3.511-3.263,3.511s-3.263-1.547-3.263-3.511
		C43.272,26.668,44.403,25.121,46.535,25.121z M46.535,31.179c1.157,0,2.093-0.91,2.093-2.535c0-1.639-0.936-2.548-2.093-2.548
		s-2.093,0.909-2.093,2.548C44.442,30.269,45.378,31.179,46.535,31.179z"/>
	<path d="M51.059,25.276h1.04v1.417h0.024c0.533-1.078,1.274-1.611,2.472-1.572v1.17c-1.781,0-2.433,1.015-2.433,2.717v2.99h-1.104
		V25.276z"/>
	<path d="M65.749,25.51c-0.26-1.313-1.313-1.976-2.6-1.976c-2.21,0-3.146,1.819-3.146,3.757c0,2.119,0.938,3.888,3.159,3.888
		c1.625,0,2.563-1.145,2.678-2.679h1.235c-0.233,2.314-1.677,3.718-4.017,3.718c-2.889,0-4.291-2.132-4.291-4.836
		c0-2.69,1.532-4.888,4.395-4.888c1.938,0,3.536,1.04,3.821,3.016H65.749z"/>
	<path d="M74.16,29.866c-0.3,1.481-1.365,2.288-2.873,2.288c-2.146,0-3.159-1.482-3.226-3.536c0-2.016,1.326-3.497,3.16-3.497
		c2.379,0,3.104,2.223,3.041,3.848h-5.031c-0.039,1.171,0.625,2.211,2.095,2.211c0.909,0,1.547-0.441,1.741-1.313L74.16,29.866
		L74.16,29.866z M73.093,27.994c-0.052-1.054-0.845-1.897-1.937-1.897c-1.157,0-1.847,0.87-1.925,1.897H73.093z"/>
	<path d="M75.407,25.276h1.039v1.065h0.027c0.467-0.832,1.221-1.222,2.184-1.222c1.769,0,2.314,1.014,2.314,2.457v4.42h-1.105v-4.55
		c0-0.819-0.52-1.354-1.365-1.354c-1.339,0-1.985,0.897-1.985,2.106v3.796H75.41L75.407,25.276L75.407,25.276z"/>
	<path d="M84.169,25.276h1.339v0.976h-1.339v4.173c0,0.508,0.146,0.6,0.832,0.6h0.507V32h-0.845c-1.145,0-1.6-0.233-1.6-1.469
		v-4.277H81.92v-0.976h1.146v-2.015h1.104L84.169,25.276L84.169,25.276z"/>
	<path d="M92.463,29.866c-0.299,1.481-1.363,2.288-2.873,2.288c-2.146,0-3.156-1.482-3.225-3.536c0-2.016,1.325-3.497,3.159-3.497
		c2.379,0,3.105,2.223,3.041,3.848h-5.03c-0.039,1.171,0.624,2.211,2.094,2.211c0.91,0,1.547-0.441,1.742-1.313L92.463,29.866
		L92.463,29.866z M91.397,27.994c-0.053-1.054-0.847-1.897-1.938-1.897c-1.154,0-1.847,0.87-1.925,1.897H91.397z"/>
	<path d="M93.672,25.276h1.039v1.417h0.026c0.533-1.078,1.272-1.611,2.47-1.572v1.17c-1.781,0-2.431,1.015-2.431,2.717v2.99h-1.104
		V25.276z"/>
	<path d="M98.715,29.879c0.039,0.988,0.897,1.301,1.811,1.301c0.688,0,1.625-0.155,1.625-1.001c0-0.857-1.092-1.002-2.196-1.248
		c-1.093-0.247-2.197-0.61-2.197-1.897c0-1.353,1.339-1.911,2.51-1.911c1.48,0,2.666,0.468,2.758,2.105h-1.104
		c-0.078-0.857-0.832-1.131-1.562-1.131c-0.662,0-1.431,0.182-1.431,0.857c0,0.793,1.171,0.923,2.196,1.17
		c1.104,0.247,2.196,0.611,2.196,1.911c0,1.599-1.495,2.119-2.86,2.119c-1.508,0-2.779-0.611-2.847-2.275H98.715z"/>
	<path d="M20.405,44.356h-3.094v-1.04h7.423v1.04H21.64v8.243h-1.235V44.356z"/>
	<path d="M25.761,43.316h1.233v8.242h4.914v1.041h-6.147V43.316z"/>
	<path d="M39.515,46.111c-0.262-1.313-1.313-1.977-2.602-1.977c-2.21,0-3.146,1.819-3.146,3.758c0,2.118,0.936,3.886,3.158,3.886
		c1.625,0,2.562-1.145,2.679-2.678h1.233c-0.232,2.313-1.677,3.719-4.017,3.719c-2.886,0-4.29-2.133-4.29-4.836
		c0-2.691,1.534-4.888,4.395-4.888c1.938,0,3.535,1.039,3.821,3.016H39.515z"/>
	<path d="M20.405,64.956h-3.094v-1.04h7.423v1.04H21.64v8.242h-1.235V64.956z"/>
	<path d="M27.035,66.321c2.132,0,3.263,1.547,3.263,3.521c0,1.967-1.131,3.514-3.263,3.514s-3.263-1.547-3.263-3.514
		C23.772,67.868,24.903,66.321,27.035,66.321z M27.035,72.379c1.157,0,2.093-0.91,2.093-2.535c0-1.638-0.936-2.548-2.093-2.548
		s-2.093,0.91-2.093,2.548C24.942,71.469,25.878,72.379,27.035,72.379z"/>
	<path d="M38.254,73.198h-1.17l-1.363-5.344h-0.026l-1.354,5.344h-1.194l-2.158-6.723h1.222l1.521,5.5h0.024l1.354-5.5h1.209
		l1.404,5.5h0.024l1.508-5.5H40.4L38.254,73.198z"/>
	<path d="M41.452,66.478h1.04v1.064h0.026c0.468-0.832,1.222-1.222,2.184-1.222c1.77,0,2.314,1.014,2.314,2.457v4.42h-1.105v-4.551
		c0-0.818-0.52-1.354-1.365-1.354c-1.339,0-1.987,0.897-1.987,2.106v3.795h-1.105L41.452,66.478L41.452,66.478z"/>
	<path d="M52.476,63.916h1.233v3.991h4.89v-3.991h1.233v9.282h-1.233v-4.252h-4.89v4.252h-1.233V63.916z"/>
	<path d="M67.634,73.172c-0.192,0.117-0.438,0.184-0.793,0.184c-0.57,0-0.936-0.313-0.936-1.039
		c-0.611,0.716-1.431,1.039-2.366,1.039c-1.223,0-2.224-0.545-2.224-1.887c0-1.521,1.131-1.846,2.273-2.064
		c1.224-0.234,2.264-0.156,2.264-0.988c0-0.962-0.793-1.118-1.495-1.118c-0.938,0-1.625,0.286-1.677,1.274h-1.105
		c0.065-1.664,1.354-2.25,2.848-2.25c1.209,0,2.521,0.271,2.521,1.847v3.458c0,0.521,0,0.754,0.352,0.754
		c0.093,0,0.195-0.013,0.338-0.063V73.172z M65.84,69.728c-0.429,0.313-1.261,0.323-2.002,0.455
		c-0.729,0.131-1.353,0.391-1.353,1.209c0,0.729,0.624,0.985,1.301,0.985c1.456,0,2.054-0.91,2.054-1.521V69.728z"/>
	<path d="M68.726,63.916h1.104v9.282h-1.104V63.916z"/>
	<path d="M71.612,63.916h1.104v9.282h-1.104V63.916z"/>
	<path d="M78.254,63.916h1.69l2.925,7.8l2.938-7.8h1.688v9.282h-1.17v-7.723H86.3l-2.896,7.723h-1.055l-2.897-7.723h-0.026v7.723
		h-1.17L78.254,63.916L78.254,63.916z"/>
	<path d="M95.103,71.064c-0.299,1.48-1.365,2.289-2.873,2.289c-2.146,0-3.16-1.481-3.227-3.537c0-2.017,1.326-3.496,3.16-3.496
		c2.379,0,3.106,2.223,3.041,3.848h-5.031c-0.037,1.17,0.624,2.21,2.096,2.21c0.91,0,1.547-0.439,1.739-1.313L95.103,71.064
		L95.103,71.064z M94.035,69.194c-0.052-1.055-0.845-1.898-1.937-1.898c-1.158,0-1.849,0.871-1.927,1.898H94.035z"/>
	<path d="M102.084,71.064c-0.299,1.48-1.363,2.289-2.873,2.289c-2.146,0-3.16-1.481-3.226-3.537c0-2.017,1.326-3.496,3.158-3.496
		c2.379,0,3.105,2.223,3.043,3.848h-5.031c-0.038,1.17,0.623,2.21,2.095,2.21c0.91,0,1.547-0.439,1.742-1.313L102.084,71.064
		L102.084,71.064z M101.019,69.194c-0.056-1.055-0.849-1.898-1.938-1.898c-1.156,0-1.847,0.871-1.925,1.898H101.019z"/>
	<path d="M104.865,66.478h1.338v0.976h-1.338v4.173c0,0.507,0.143,0.602,0.831,0.602h0.507V73.2h-0.845
		c-1.146,0-1.602-0.234-1.602-1.47v-4.276h-1.146v-0.977h1.146v-2.016h1.104L104.865,66.478L104.865,66.478z"/>
	<path d="M108.597,65.269h-1.105v-1.354h1.105V65.269z M107.49,66.478h1.104V73.2h-1.104V66.478z"/>
	<path d="M110.312,66.478h1.041v1.064h0.022c0.472-0.832,1.226-1.222,2.187-1.222c1.77,0,2.313,1.014,2.313,2.457v4.42h-1.104
		v-4.551c0-0.818-0.521-1.354-1.365-1.354c-1.338,0-1.988,0.897-1.988,2.106v3.795h-1.104L110.312,66.478L110.312,66.478z"/>
	<path d="M123.338,72.626c0,2.187-1.002,3.304-3.121,3.304c-1.26,0-2.717-0.509-2.779-1.978h1.104
		c0.051,0.806,1.016,1.092,1.742,1.092c1.442,0,2.014-1.04,2.014-2.548v-0.439h-0.023c-0.362,0.816-1.248,1.221-2.094,1.221
		c-2.004,0-3.004-1.571-3.004-3.404c0-1.586,0.779-3.549,3.107-3.549c0.844,0,1.598,0.377,2.002,1.118h0.012v-0.963h1.041V72.626z
		 M122.246,69.701c0-1.185-0.521-2.405-1.912-2.405c-1.416,0-1.986,1.157-1.986,2.444c0,1.209,0.439,2.561,1.896,2.561
		C121.699,72.301,122.246,70.962,122.246,69.701z"/>
	<path d="M125.679,71.079c0.036,0.987,0.896,1.3,1.807,1.3c0.688,0,1.625-0.154,1.625-1.001c0-0.856-1.092-1.001-2.197-1.248
		c-1.092-0.247-2.197-0.608-2.197-1.896c0-1.354,1.343-1.912,2.513-1.912c1.479,0,2.666,0.469,2.756,2.104h-1.105
		c-0.078-0.856-0.832-1.131-1.559-1.131c-0.664,0-1.432,0.185-1.432,0.857c0,0.794,1.17,0.924,2.194,1.171
		c1.105,0.247,2.197,0.61,2.197,1.911c0,1.599-1.494,2.119-2.859,2.119c-1.508,0-2.78-0.611-2.848-2.275L125.679,71.079
		L125.679,71.079z"/>
	<path d="M26.685,93.799h-1.287l-2.119-7.801h-0.026l-2.145,7.801H19.82l-2.379-9.281h1.261l1.82,7.724h0.024l2.08-7.724h1.339
		l2.056,7.724h0.024l1.887-7.724h1.233L26.685,93.799z"/>
	<path d="M32.313,86.922c2.132,0,3.263,1.547,3.263,3.521c0,1.965-1.131,3.512-3.263,3.512s-3.265-1.547-3.265-3.512
		C29.05,88.469,30.181,86.922,32.313,86.922z M32.313,92.979c1.157,0,2.093-0.91,2.093-2.535c0-1.639-0.936-2.549-2.093-2.549
		s-2.093,0.91-2.093,2.549C30.22,92.068,31.156,92.979,32.313,92.979z"/>
	<path d="M36.837,87.077h1.04v1.417h0.026c0.533-1.078,1.273-1.611,2.47-1.572v1.17c-1.781,0-2.431,1.016-2.431,2.719v2.988h-1.105
		V87.077z"/>
	<path d="M41.27,84.518h1.104v5.5l3.068-2.938h1.48l-2.665,2.444l2.86,4.274h-1.404l-2.301-3.51l-1.04,0.962v2.548H41.27V84.518z"/>
	<path d="M48.628,91.682c0.039,0.985,0.897,1.299,1.809,1.299c0.688,0,1.625-0.154,1.625-1c0-0.857-1.094-1.002-2.197-1.248
		c-1.092-0.248-2.197-0.61-2.197-1.897c0-1.353,1.339-1.911,2.509-1.911c1.482,0,2.665,0.471,2.758,2.105h-1.105
		c-0.078-0.857-0.832-1.131-1.56-1.131c-0.663,0-1.432,0.182-1.432,0.855c0,0.793,1.17,0.926,2.197,1.17
		c1.105,0.247,2.197,0.611,2.197,1.911c0,1.601-1.495,2.119-2.86,2.119c-1.508,0-2.782-0.611-2.847-2.272H48.628z"/>
	<path d="M54.452,84.518h1.105v3.549h0.024c0.364-0.808,1.313-1.146,2.12-1.146c1.77,0,2.313,1.017,2.313,2.457v4.42h-1.104v-4.55
		c0-0.816-0.521-1.354-1.365-1.354c-1.339,0-1.987,0.896-1.987,2.104v3.796h-1.105L54.452,84.518L54.452,84.518z"/>
	<path d="M64.58,86.922c2.132,0,3.263,1.547,3.263,3.521c0,1.965-1.131,3.512-3.263,3.512c-2.133,0-3.264-1.547-3.264-3.512
		C61.316,88.469,62.447,86.922,64.58,86.922z M64.58,92.979c1.156,0,2.093-0.91,2.093-2.535c0-1.639-0.937-2.549-2.093-2.549
		c-1.157,0-2.094,0.91-2.094,2.549C62.486,92.068,63.422,92.979,64.58,92.979z"/>
	<path d="M69.181,87.077h1.104v0.909h0.024c0.362-0.74,1.224-1.064,2.146-1.064c2.066,0,3.094,1.639,3.094,3.536
		c0,1.896-1.014,3.497-3.065,3.497c-0.688,0-1.678-0.262-2.172-1.055h-0.024v3.473h-1.104L69.181,87.077L69.181,87.077z
		 M72.301,87.896c-1.48,0-2.054,1.272-2.054,2.535c0,1.324,0.601,2.549,2.119,2.549c1.508,0,2.015-1.287,2.015-2.603
		C74.381,89.119,73.731,87.896,72.301,87.896z"/>
	<path d="M77.526,91.682c0.039,0.985,0.896,1.299,1.809,1.299c0.688,0,1.625-0.154,1.625-1c0-0.857-1.093-1.002-2.194-1.248
		c-1.095-0.248-2.197-0.61-2.197-1.897c0-1.353,1.338-1.911,2.509-1.911c1.481,0,2.666,0.471,2.757,2.105H80.73
		c-0.078-0.857-0.832-1.131-1.563-1.131c-0.663,0-1.431,0.182-1.431,0.855c0,0.793,1.17,0.926,2.197,1.17
		c1.104,0.247,2.194,0.611,2.194,1.911c0,1.601-1.495,2.119-2.858,2.119c-1.508,0-2.781-0.611-2.849-2.272H77.526z"/>
</g>
<circle fill="#FF73DF" cx="6.641" cy="110.863" r="6.641"/>
<g>
	<path d="M20.288,111.908c0.027,0.488,0.144,0.885,0.346,1.189c0.388,0.568,1.068,0.854,2.046,0.854
		c0.438,0,0.836-0.063,1.194-0.188c0.695-0.242,1.043-0.678,1.043-1.303c0-0.469-0.146-0.802-0.441-0.999
		c-0.295-0.196-0.76-0.366-1.393-0.513l-1.166-0.264c-0.762-0.172-1.301-0.361-1.617-0.568c-0.547-0.359-0.819-0.896-0.819-1.611
		c0-0.771,0.268-1.406,0.803-1.902s1.293-0.744,2.273-0.744c0.901,0,1.669,0.218,2.3,0.652c0.631,0.436,0.945,1.133,0.945,2.09
		h-1.096c-0.059-0.461-0.184-0.814-0.375-1.063c-0.354-0.449-0.959-0.674-1.811-0.674c-0.688,0-1.183,0.146-1.482,0.434
		c-0.3,0.289-0.451,0.625-0.451,1.01c0,0.422,0.177,0.729,0.527,0.926c0.229,0.125,0.752,0.281,1.564,0.469l1.206,0.275
		c0.582,0.133,1.031,0.313,1.349,0.545c0.547,0.4,0.82,0.984,0.82,1.752c0,0.953-0.348,1.635-1.04,2.045
		c-0.693,0.41-1.499,0.615-2.417,0.615c-1.07,0-1.908-0.273-2.515-0.82c-0.594-0.531-0.891-1.25-0.891-2.156
		c0-0.016,0-0.033,0-0.053L20.288,111.908L20.288,111.908z"/>
	<path d="M27.6,106.658h1.065v1.752h1.002v0.861h-1.002v4.096c0,0.219,0.074,0.365,0.224,0.439c0.082,0.043,0.219,0.063,0.409,0.063
		c0.052,0,0.105-0.002,0.164-0.006c0.06,0,0.127-0.004,0.205-0.012v0.832c-0.121,0.033-0.247,0.061-0.378,0.074
		c-0.131,0.016-0.271,0.023-0.425,0.023c-0.492,0-0.826-0.127-1.002-0.379s-0.264-0.578-0.264-0.98v-4.152h-0.851v-0.861h0.851
		L27.6,106.658L27.6,106.658z"/>
	<path d="M30.753,108.41h1.002v1.084c0.082-0.211,0.283-0.469,0.604-0.771c0.321-0.304,0.688-0.453,1.106-0.453
		c0.021,0,0.054,0.002,0.101,0.006s0.127,0.012,0.24,0.021v1.113c-0.063-0.012-0.12-0.02-0.174-0.021
		c-0.053-0.005-0.109-0.008-0.173-0.008c-0.53,0-0.938,0.171-1.225,0.514c-0.286,0.342-0.428,0.734-0.428,1.182v3.609h-1.056
		L30.753,108.41L30.753,108.41z"/>
	<path d="M39.583,109.395c0.211,0.315,0.353,0.687,0.422,1.106c0.063,0.289,0.095,0.75,0.095,1.383h-4.601
		c0.021,0.638,0.17,1.147,0.451,1.532s0.717,0.577,1.307,0.577c0.552,0,0.99-0.183,1.318-0.545c0.188-0.212,0.32-0.455,0.398-0.732
		h1.036c-0.026,0.229-0.117,0.487-0.271,0.771c-0.154,0.285-0.327,0.516-0.519,0.695c-0.32,0.313-0.718,0.521-1.189,0.633
		c-0.254,0.063-0.541,0.094-0.861,0.094c-0.78,0-1.442-0.284-1.985-0.854c-0.543-0.568-0.814-1.363-0.814-2.389
		c0-1.008,0.273-1.826,0.82-2.455s1.262-0.941,2.145-0.941c0.445,0,0.877,0.104,1.295,0.313S39.364,109.063,39.583,109.395z
		 M39.014,111.047c-0.043-0.457-0.144-0.82-0.3-1.096c-0.289-0.508-0.771-0.762-1.446-0.762c-0.484,0-0.892,0.175-1.22,0.522
		c-0.327,0.351-0.502,0.794-0.521,1.333L39.014,111.047L39.014,111.047z"/>
	<path d="M46.257,109.395c0.211,0.315,0.353,0.687,0.423,1.106c0.063,0.289,0.094,0.75,0.094,1.383h-4.601
		c0.021,0.638,0.17,1.147,0.451,1.532s0.717,0.577,1.308,0.577c0.551,0,0.989-0.183,1.317-0.545c0.188-0.212,0.32-0.455,0.398-0.732
		h1.037c-0.027,0.229-0.118,0.487-0.272,0.771c-0.154,0.285-0.327,0.516-0.519,0.695c-0.32,0.313-0.718,0.521-1.189,0.633
		c-0.254,0.063-0.541,0.094-0.861,0.094c-0.78,0-1.442-0.284-1.985-0.854c-0.543-0.568-0.814-1.363-0.814-2.389
		c0-1.008,0.273-1.826,0.82-2.455s1.262-0.941,2.145-0.941c0.445,0,0.877,0.104,1.296,0.313
		C45.721,108.792,46.038,109.063,46.257,109.395z M45.688,111.047c-0.043-0.457-0.144-0.82-0.299-1.096
		c-0.289-0.508-0.771-0.762-1.447-0.762c-0.484,0-0.892,0.175-1.219,0.522c-0.328,0.351-0.502,0.794-0.521,1.333L45.688,111.047
		L45.688,111.047z"/>
	<path d="M48.278,106.658h1.066v1.752h1.002v0.861h-1.002v4.096c0,0.219,0.073,0.365,0.223,0.439
		c0.082,0.043,0.219,0.063,0.41,0.063c0.051,0,0.104-0.002,0.164-0.006c0.059,0,0.127-0.004,0.205-0.012v0.832
		c-0.121,0.033-0.247,0.061-0.379,0.074c-0.131,0.016-0.271,0.023-0.425,0.023c-0.492,0-0.826-0.127-1.002-0.379
		s-0.264-0.578-0.264-0.98v-4.152h-0.85v-0.861h0.85L48.278,106.658L48.278,106.658z"/>
	<path d="M60.923,106.078v1.025h-2.899v7.582h-1.185v-7.582h-2.899v-1.025H60.923z"/>
	<path d="M65.382,109.395c0.211,0.315,0.353,0.687,0.423,1.106c0.063,0.289,0.094,0.75,0.094,1.383h-4.601
		c0.021,0.638,0.17,1.147,0.451,1.532s0.717,0.577,1.308,0.577c0.551,0,0.989-0.183,1.317-0.545c0.188-0.212,0.32-0.455,0.398-0.732
		h1.037c-0.027,0.229-0.118,0.487-0.272,0.771c-0.154,0.285-0.327,0.516-0.519,0.695c-0.32,0.313-0.718,0.521-1.189,0.633
		c-0.254,0.063-0.541,0.094-0.861,0.094c-0.78,0-1.442-0.284-1.985-0.854c-0.543-0.568-0.814-1.363-0.814-2.389
		c0-1.008,0.273-1.826,0.82-2.455s1.262-0.941,2.145-0.941c0.445,0,0.877,0.104,1.296,0.313
		C64.846,108.792,65.163,109.063,65.382,109.395z M64.813,111.047c-0.043-0.457-0.144-0.82-0.299-1.096
		c-0.289-0.508-0.771-0.762-1.447-0.762c-0.484,0-0.892,0.175-1.219,0.522c-0.328,0.351-0.502,0.794-0.521,1.333L64.813,111.047
		L64.813,111.047z"/>
	<path d="M70.556,110.883c0.24-0.029,0.402-0.133,0.484-0.305c0.047-0.094,0.069-0.229,0.069-0.404c0-0.357-0.127-0.619-0.383-0.781
		s-0.623-0.242-1.101-0.242c-0.551,0-0.94,0.146-1.172,0.443c-0.129,0.164-0.213,0.408-0.252,0.732H67.22
		c0.021-0.771,0.271-1.313,0.754-1.614c0.48-0.302,1.041-0.454,1.678-0.454c0.738,0,1.338,0.143,1.797,0.424
		c0.459,0.279,0.688,0.719,0.688,1.313v3.615c0,0.107,0.021,0.197,0.066,0.264s0.141,0.102,0.284,0.102
		c0.047,0,0.1-0.004,0.158-0.011c0.058-0.006,0.121-0.015,0.188-0.024v0.777c-0.164,0.049-0.289,0.076-0.375,0.09
		c-0.086,0.012-0.203,0.018-0.352,0.018c-0.363,0-0.627-0.129-0.791-0.387c-0.086-0.139-0.146-0.33-0.184-0.58
		c-0.215,0.279-0.521,0.523-0.926,0.73c-0.403,0.207-0.847,0.313-1.33,0.313c-0.582,0-1.058-0.178-1.427-0.53
		s-0.554-0.796-0.554-1.327c0-0.582,0.182-1.033,0.544-1.354c0.363-0.321,0.84-0.52,1.431-0.592L70.556,110.883z M69.126,114
		c0.371,0,0.73-0.086,1.078-0.258c0.586-0.285,0.879-0.752,0.879-1.4v-0.85c-0.129,0.082-0.295,0.15-0.498,0.205
		s-0.401,0.094-0.598,0.117l-0.639,0.082c-0.385,0.051-0.67,0.131-0.861,0.238c-0.324,0.186-0.486,0.479-0.486,0.881
		c0,0.305,0.111,0.545,0.334,0.721C68.558,113.912,68.821,114,69.126,114z"/>
	<path d="M73.866,108.41h1.043v0.891c0.25-0.309,0.478-0.531,0.68-0.674c0.349-0.236,0.742-0.355,1.185-0.355
		c0.5,0,0.901,0.123,1.207,0.369c0.172,0.141,0.328,0.348,0.47,0.619c0.233-0.336,0.51-0.585,0.825-0.746
		c0.315-0.162,0.672-0.242,1.065-0.242c0.845,0,1.418,0.305,1.724,0.914c0.164,0.328,0.246,0.77,0.246,1.322v4.18h-1.097v-4.359
		c0-0.418-0.104-0.705-0.313-0.861c-0.209-0.154-0.465-0.232-0.767-0.232c-0.413,0-0.771,0.139-1.067,0.416
		c-0.299,0.275-0.448,0.74-0.448,1.389v3.65h-1.072v-4.098c0-0.426-0.051-0.734-0.15-0.932c-0.16-0.293-0.459-0.438-0.896-0.438
		c-0.397,0-0.762,0.152-1.087,0.463c-0.326,0.309-0.489,0.865-0.489,1.676v3.328h-1.055v-6.277h-0.003V108.41z"/>
	<path d="M84.489,112.717c0.031,0.354,0.119,0.621,0.264,0.811c0.267,0.34,0.728,0.51,1.384,0.51c0.391,0,0.733-0.085,1.03-0.255
		c0.297-0.171,0.445-0.433,0.445-0.788c0-0.27-0.119-0.475-0.357-0.615c-0.151-0.086-0.453-0.186-0.901-0.299l-0.838-0.211
		c-0.535-0.133-0.931-0.281-1.185-0.445c-0.453-0.283-0.68-0.68-0.68-1.184c0-0.594,0.214-1.074,0.642-1.441
		c0.43-0.365,1.003-0.551,1.727-0.551c0.944,0,1.627,0.277,2.045,0.832c0.254,0.34,0.381,0.707,0.381,1.104c0,0.012,0,0.021,0,0.033
		H87.45c-0.021-0.236-0.104-0.455-0.253-0.648c-0.241-0.277-0.661-0.416-1.26-0.416c-0.397,0-0.699,0.076-0.904,0.229
		c-0.205,0.153-0.309,0.354-0.309,0.604c0,0.272,0.135,0.492,0.403,0.656c0.156,0.098,0.388,0.185,0.691,0.258l0.697,0.17
		c0.758,0.185,1.266,0.361,1.521,0.533c0.41,0.271,0.614,0.692,0.614,1.271c0,0.561-0.211,1.041-0.635,1.447
		c-0.426,0.406-1.069,0.607-1.938,0.607c-0.934,0-1.596-0.212-1.981-0.636c-0.39-0.424-0.599-0.948-0.625-1.573L84.489,112.717
		L84.489,112.717z"/>
</g>
<g>
	<circle fill="#01E6A9" cx="6.641" cy="131.678" r="6.641"/>
	<g>
		<path d="M19.86,126.88h1.178v3.558h4.478v-3.558h1.178v8.606h-1.178v-4.024h-4.478v4.024H19.86V126.88z"/>
		<path d="M31.72,131.684c0.241-0.031,0.403-0.133,0.485-0.305c0.047-0.094,0.07-0.229,0.07-0.404c0-0.358-0.128-0.619-0.384-0.781
			s-0.622-0.243-1.1-0.243c-0.551,0-0.94,0.147-1.172,0.444c-0.129,0.164-0.213,0.408-0.252,0.732h-0.984
			c0.021-0.773,0.271-1.313,0.754-1.613c0.481-0.303,1.042-0.455,1.679-0.455c0.738,0,1.337,0.142,1.796,0.422
			c0.459,0.281,0.688,0.72,0.688,1.313v3.615c0,0.108,0.022,0.196,0.067,0.264s0.14,0.101,0.284,0.101c0.047,0,0.1-0.004,0.158-0.01
			c0.058-0.006,0.121-0.015,0.188-0.025v0.779c-0.164,0.047-0.289,0.076-0.375,0.088s-0.203,0.018-0.352,0.018
			c-0.363,0-0.627-0.129-0.791-0.387c-0.086-0.137-0.146-0.33-0.183-0.58c-0.215,0.281-0.522,0.525-0.926,0.732
			s-0.846,0.311-1.33,0.311c-0.582,0-1.058-0.178-1.427-0.53s-0.554-0.796-0.554-1.327c0-0.582,0.182-1.033,0.545-1.354
			c0.362-0.321,0.84-0.518,1.43-0.592L31.72,131.684z M30.29,134.802c0.371,0,0.73-0.086,1.078-0.258
			c0.586-0.285,0.879-0.752,0.879-1.399v-0.851c-0.129,0.082-0.295,0.149-0.498,0.205s-0.401,0.094-0.598,0.117l-0.639,0.082
			c-0.384,0.051-0.671,0.131-0.861,0.239c-0.324,0.185-0.486,0.478-0.486,0.879c0,0.306,0.111,0.545,0.334,0.722
			C29.722,134.714,29.985,134.802,30.29,134.802z"/>
		<path d="M35.03,129.212h1.002v0.892c0.297-0.367,0.611-0.631,0.943-0.791s0.7-0.24,1.106-0.24c0.892,0,1.492,0.311,1.806,0.932
			c0.172,0.34,0.258,0.826,0.258,1.459v4.025h-1.072v-3.955c0-0.383-0.057-0.691-0.17-0.926c-0.188-0.392-0.527-0.586-1.021-0.586
			c-0.25,0-0.454,0.024-0.614,0.076c-0.289,0.086-0.543,0.258-0.763,0.516c-0.176,0.207-0.289,0.421-0.342,0.642
			c-0.053,0.222-0.08,0.536-0.08,0.946v3.287H35.03V129.212z"/>
		<path d="M45.167,129.404c0.188,0.117,0.4,0.322,0.64,0.615v-3.17h1.014v8.637h-0.95v-0.872c-0.246,0.387-0.537,0.665-0.873,0.838
			c-0.336,0.172-0.721,0.258-1.154,0.258c-0.698,0-1.305-0.294-1.815-0.882s-0.769-1.37-0.769-2.348c0-0.914,0.233-1.705,0.7-2.375
			s1.134-1.006,2.001-1.006C44.44,129.1,44.842,129.202,45.167,129.404z M44.17,134.79c0.488,0,0.891-0.21,1.204-0.63
			c0.314-0.42,0.473-1.021,0.473-1.809c0-0.793-0.162-1.379-0.486-1.761c-0.324-0.381-0.726-0.571-1.201-0.571
			c-0.531,0-0.962,0.203-1.292,0.609s-0.495,1.004-0.495,1.793c0,0.672,0.144,1.234,0.428,1.688
			C43.085,134.564,43.542,134.79,44.17,134.79z"/>
		<path d="M49.004,133.518c0.031,0.353,0.119,0.621,0.265,0.81c0.266,0.34,0.727,0.51,1.383,0.51c0.391,0,0.733-0.085,1.031-0.255
			c0.297-0.17,0.444-0.434,0.444-0.788c0-0.271-0.119-0.476-0.356-0.614c-0.152-0.087-0.453-0.187-0.902-0.3l-0.838-0.211
			c-0.535-0.133-0.93-0.28-1.184-0.444c-0.453-0.285-0.681-0.681-0.681-1.185c0-0.595,0.214-1.074,0.643-1.44
			c0.428-0.367,1.003-0.552,1.726-0.552c0.945,0,1.627,0.277,2.045,0.832c0.254,0.341,0.381,0.707,0.381,1.103
			c0,0.012,0,0.022,0,0.035h-0.996c-0.02-0.238-0.104-0.455-0.252-0.65c-0.241-0.277-0.662-0.416-1.26-0.416
			c-0.397,0-0.7,0.076-0.905,0.229c-0.205,0.153-0.308,0.354-0.308,0.604c0,0.272,0.135,0.491,0.404,0.655
			c0.155,0.099,0.387,0.185,0.69,0.259l0.697,0.17c0.758,0.185,1.266,0.36,1.523,0.532c0.409,0.271,0.614,0.693,0.614,1.271
			c0,0.559-0.212,1.041-0.636,1.447s-1.069,0.609-1.937,0.609c-0.935,0-1.596-0.213-1.983-0.637s-0.597-0.947-0.624-1.572h1.015
			V133.518z"/>
		<path d="M64.942,128.109c0.57,0.763,0.854,1.736,0.854,2.925c0,1.284-0.325,2.354-0.979,3.205c-0.766,1-1.857,1.5-3.275,1.5
			c-1.323,0-2.364-0.438-3.123-1.313c-0.676-0.844-1.014-1.91-1.014-3.199c0-1.164,0.289-2.16,0.867-2.988
			c0.742-1.063,1.84-1.594,3.293-1.594C63.086,126.645,64.211,127.134,64.942,128.109z M64.602,131.052
			c0-1.012-0.266-1.825-0.794-2.442c-0.529-0.617-1.253-0.926-2.171-0.926c-0.892,0-1.617,0.306-2.181,0.916
			c-0.563,0.611-0.844,1.514-0.844,2.705c0,0.952,0.241,1.756,0.724,2.41c0.483,0.654,1.266,0.98,2.348,0.98
			c1.026,0,1.771-0.367,2.229-1.104S64.602,132.009,64.602,131.052z"/>
		<path d="M67.046,129.212h1.002v0.892c0.298-0.367,0.611-0.631,0.943-0.791s0.701-0.24,1.107-0.24c0.891,0,1.491,0.311,1.805,0.932
			c0.172,0.34,0.258,0.826,0.258,1.459v4.025h-1.072v-3.955c0-0.383-0.057-0.691-0.17-0.926c-0.188-0.392-0.526-0.586-1.02-0.586
			c-0.25,0-0.455,0.024-0.615,0.076c-0.289,0.086-0.543,0.258-0.762,0.516c-0.176,0.207-0.291,0.421-0.344,0.642
			c-0.054,0.222-0.078,0.536-0.078,0.946v3.287h-1.056L67.046,129.212L67.046,129.212z"/>
		<path d="M77.956,132.71c0.027,0.488,0.144,0.886,0.346,1.188c0.388,0.57,1.068,0.855,2.046,0.855c0.438,0,0.836-0.063,1.194-0.188
			c0.695-0.242,1.043-0.676,1.043-1.301c0-0.47-0.147-0.803-0.442-1s-0.759-0.367-1.392-0.513l-1.166-0.264
			c-0.762-0.173-1.301-0.361-1.617-0.568c-0.547-0.358-0.819-0.896-0.819-1.61c0-0.773,0.268-1.408,0.803-1.904
			s1.293-0.744,2.273-0.744c0.901,0,1.668,0.218,2.299,0.652c0.631,0.436,0.947,1.133,0.947,2.09h-1.097
			c-0.059-0.461-0.184-0.814-0.375-1.062c-0.354-0.448-0.959-0.674-1.811-0.674c-0.688,0-1.183,0.146-1.482,0.435
			s-0.451,0.625-0.451,1.008c0,0.422,0.177,0.729,0.527,0.926c0.23,0.125,0.752,0.281,1.564,0.469l1.207,0.275
			c0.582,0.133,1.03,0.313,1.348,0.545c0.547,0.402,0.82,0.986,0.82,1.752c0,0.953-0.349,1.635-1.041,2.045
			c-0.693,0.41-1.498,0.615-2.416,0.615c-1.07,0-1.908-0.273-2.515-0.82c-0.594-0.531-0.891-1.25-0.891-2.156
			c0-0.016,0-0.033,0-0.053L77.956,132.71L77.956,132.71z"/>
		<path d="M88.421,131.684c0.242-0.031,0.404-0.133,0.486-0.305c0.047-0.094,0.07-0.229,0.07-0.404c0-0.358-0.129-0.619-0.386-0.781
			c-0.256-0.162-0.62-0.243-1.098-0.243c-0.551,0-0.94,0.147-1.172,0.444c-0.129,0.164-0.213,0.408-0.252,0.732h-0.984
			c0.021-0.773,0.271-1.313,0.752-1.613c0.482-0.303,1.043-0.455,1.681-0.455c0.737,0,1.336,0.142,1.795,0.422
			c0.459,0.281,0.688,0.72,0.688,1.313v3.615c0,0.108,0.021,0.196,0.066,0.264s0.141,0.101,0.285,0.101
			c0.047,0,0.1-0.004,0.158-0.01c0.058-0.006,0.12-0.015,0.188-0.025v0.779c-0.164,0.047-0.289,0.076-0.375,0.088
			s-0.203,0.018-0.352,0.018c-0.363,0-0.627-0.129-0.791-0.387c-0.086-0.137-0.146-0.33-0.183-0.58
			c-0.215,0.281-0.522,0.525-0.926,0.732s-0.846,0.311-1.33,0.311c-0.582,0-1.059-0.178-1.428-0.53s-0.553-0.796-0.553-1.327
			c0-0.582,0.182-1.033,0.545-1.354c0.362-0.321,0.84-0.518,1.43-0.592L88.421,131.684z M86.991,134.802
			c0.371,0,0.73-0.086,1.078-0.258c0.586-0.285,0.879-0.752,0.879-1.399v-0.851c-0.129,0.082-0.295,0.149-0.498,0.205
			s-0.402,0.094-0.598,0.117l-0.64,0.082c-0.383,0.051-0.67,0.131-0.86,0.239c-0.324,0.185-0.486,0.478-0.486,0.879
			c0,0.306,0.111,0.545,0.334,0.722C86.423,134.714,86.687,134.802,86.991,134.802z"/>
		<path d="M92.224,127.296c0.246-0.358,0.721-0.539,1.424-0.539c0.065,0,0.135,0.002,0.205,0.007
			c0.069,0.004,0.149,0.01,0.239,0.018v0.961c-0.108-0.008-0.188-0.014-0.233-0.018c-0.051,0-0.098,0-0.142,0
			c-0.319,0-0.512,0.082-0.573,0.248c-0.063,0.166-0.095,0.59-0.095,1.27h1.043v0.832h-1.055v5.414h-1.043v-5.414h-0.873v-0.832
			h0.873v-0.984C92.011,127.818,92.087,127.499,92.224,127.296z"/>
		<path d="M99.929,130.195c0.211,0.316,0.352,0.687,0.422,1.107c0.063,0.289,0.094,0.75,0.094,1.383h-4.6
			c0.02,0.638,0.17,1.147,0.45,1.532c0.281,0.386,0.718,0.577,1.308,0.577c0.551,0,0.989-0.182,1.317-0.545
			c0.188-0.211,0.32-0.455,0.398-0.732h1.037c-0.027,0.23-0.119,0.487-0.273,0.771c-0.153,0.284-0.326,0.516-0.518,0.693
			c-0.32,0.313-0.717,0.523-1.189,0.634c-0.254,0.063-0.541,0.094-0.86,0.094c-0.781,0-1.443-0.284-1.986-0.853
			c-0.543-0.569-0.814-1.364-0.814-2.389c0-1.008,0.273-1.826,0.82-2.455s1.262-0.943,2.146-0.943c0.444,0,0.877,0.104,1.295,0.313
			S99.71,129.864,99.929,130.195z M99.36,131.848c-0.043-0.457-0.144-0.822-0.299-1.096c-0.289-0.508-0.771-0.762-1.447-0.762
			c-0.484,0-0.891,0.175-1.219,0.523c-0.328,0.35-0.502,0.795-0.521,1.334H99.36L99.36,131.848z"/>
		<path d="M101.95,127.46h1.066v1.752h1.002v0.861h-1.002v4.096c0,0.22,0.073,0.365,0.223,0.438c0.082,0.043,0.219,0.064,0.41,0.064
			c0.051,0,0.104-0.002,0.164-0.006c0.059,0,0.127-0.004,0.205-0.012v0.832c-0.121,0.035-0.248,0.061-0.379,0.076
			c-0.132,0.015-0.271,0.022-0.425,0.022c-0.491,0-0.825-0.126-1.002-0.378c-0.176-0.252-0.264-0.579-0.264-0.98v-4.154h-0.85
			v-0.861h0.85L101.95,127.46L101.95,127.46z"/>
		<path d="M108.993,129.212h1.166c-0.147,0.402-0.479,1.32-0.99,2.754c-0.383,1.078-0.703,1.957-0.961,2.638
			c-0.608,1.602-1.039,2.578-1.289,2.93s-0.68,0.527-1.289,0.527c-0.147,0-0.264-0.006-0.344-0.019s-0.178-0.033-0.295-0.063v-0.961
			c0.184,0.051,0.316,0.082,0.398,0.094s0.153,0.018,0.217,0.018c0.194,0,0.338-0.031,0.43-0.097s0.17-0.144,0.232-0.237
			c0.02-0.031,0.09-0.191,0.211-0.48s0.209-0.504,0.264-0.645l-2.32-6.457h1.195l1.682,5.109L108.993,129.212z"/>
		<path d="M114.601,126.88h3.485c1.185,0,2.103,0.42,2.754,1.261c0.582,0.758,0.873,1.729,0.873,2.911
			c0,0.914-0.172,1.74-0.516,2.479c-0.605,1.305-1.646,1.957-3.123,1.957H114.6L114.601,126.88L114.601,126.88z M117.853,134.491
			c0.395,0,0.719-0.041,0.973-0.123c0.453-0.152,0.824-0.445,1.113-0.879c0.229-0.349,0.396-0.794,0.498-1.337
			c0.059-0.323,0.088-0.625,0.088-0.901c0-1.065-0.213-1.896-0.637-2.483c-0.425-0.59-1.105-0.886-2.048-0.886h-2.067v6.609H117.853
			L117.853,134.491z"/>
		<path d="M127.937,130.195c0.211,0.316,0.352,0.687,0.422,1.107c0.063,0.289,0.094,0.75,0.094,1.383h-4.6
			c0.02,0.638,0.17,1.147,0.451,1.532c0.28,0.386,0.717,0.577,1.307,0.577c0.551,0,0.99-0.182,1.318-0.545
			c0.188-0.211,0.319-0.455,0.397-0.732h1.037c-0.027,0.23-0.119,0.487-0.273,0.771c-0.153,0.284-0.325,0.516-0.518,0.693
			c-0.32,0.313-0.717,0.523-1.189,0.634c-0.254,0.063-0.541,0.094-0.86,0.094c-0.781,0-1.443-0.284-1.986-0.853
			c-0.543-0.569-0.813-1.364-0.813-2.389c0-1.008,0.272-1.826,0.819-2.455s1.263-0.943,2.146-0.943c0.444,0,0.877,0.104,1.295,0.313
			S127.718,129.864,127.937,130.195z M127.368,131.848c-0.043-0.457-0.143-0.822-0.299-1.096c-0.289-0.508-0.771-0.762-1.447-0.762
			c-0.483,0-0.891,0.175-1.219,0.523c-0.328,0.35-0.502,0.795-0.521,1.334H127.368L127.368,131.848z"/>
		<path d="M129.747,129.212h1.043v0.892c0.25-0.31,0.478-0.533,0.681-0.674c0.348-0.238,0.741-0.357,1.184-0.357
			c0.5,0,0.902,0.123,1.207,0.369c0.172,0.141,0.328,0.348,0.469,0.621c0.234-0.336,0.51-0.586,0.826-0.748s0.672-0.242,1.066-0.242
			c0.844,0,1.418,0.305,1.723,0.914c0.164,0.328,0.246,0.77,0.246,1.324v4.178h-1.096v-4.359c0-0.418-0.105-0.705-0.314-0.861
			c-0.209-0.155-0.463-0.233-0.764-0.233c-0.414,0-0.771,0.139-1.07,0.416c-0.299,0.276-0.447,0.739-0.447,1.389v3.65h-1.072v-4.097
			c0-0.426-0.051-0.735-0.151-0.932c-0.16-0.293-0.459-0.439-0.896-0.439c-0.397,0-0.762,0.154-1.088,0.463
			c-0.326,0.31-0.487,0.867-0.487,1.677v3.328h-1.056v-6.277H129.747z"/>
		<path d="M145.163,132.218c0,1.013-0.246,1.849-0.738,2.509c-0.491,0.659-1.256,0.989-2.291,0.989
			c-0.862,0-1.549-0.292-2.057-0.876s-0.762-1.367-0.762-2.354c0-1.055,0.268-1.895,0.803-2.52s1.254-0.938,2.156-0.938
			c0.809,0,1.492,0.27,2.051,0.809S145.163,131.171,145.163,132.218z M144.062,132.247c0-0.586-0.095-1.063-0.281-1.431
			c-0.297-0.577-0.809-0.866-1.535-0.866c-0.645,0-1.113,0.245-1.406,0.737s-0.438,1.086-0.438,1.781
			c0,0.668,0.146,1.225,0.438,1.67s0.759,0.668,1.396,0.668c0.699,0,1.178-0.265,1.438-0.793
			C143.933,133.484,144.062,132.895,144.062,132.247z"/>
		<path d="M147.044,133.518c0.031,0.353,0.119,0.621,0.265,0.81c0.266,0.34,0.727,0.51,1.383,0.51c0.391,0,0.733-0.085,1.031-0.255
			c0.297-0.17,0.444-0.434,0.444-0.788c0-0.271-0.119-0.476-0.356-0.614c-0.152-0.087-0.453-0.187-0.902-0.3l-0.838-0.211
			c-0.535-0.133-0.93-0.28-1.184-0.444c-0.453-0.285-0.681-0.681-0.681-1.185c0-0.595,0.213-1.074,0.642-1.44
			c0.428-0.367,1.004-0.552,1.727-0.552c0.945,0,1.627,0.277,2.045,0.832c0.254,0.341,0.381,0.707,0.381,1.103
			c0,0.012,0,0.022,0,0.035h-0.996c-0.02-0.238-0.104-0.455-0.252-0.65c-0.241-0.277-0.662-0.416-1.26-0.416
			c-0.397,0-0.701,0.076-0.906,0.229c-0.205,0.153-0.307,0.354-0.307,0.604c0,0.272,0.135,0.491,0.404,0.655
			c0.155,0.099,0.387,0.185,0.69,0.259l0.697,0.17c0.758,0.185,1.266,0.36,1.523,0.532c0.409,0.271,0.614,0.693,0.614,1.271
			c0,0.559-0.213,1.041-0.637,1.447s-1.068,0.609-1.936,0.609c-0.935,0-1.597-0.213-1.984-0.637s-0.596-0.947-0.623-1.572h1.015
			V133.518z"/>
	</g>
</g>
<g>
	<path d="M56.709,131.288v0.779h-2.962v-0.779H56.709z"/>
</g>
</svg>
