<?xml version="1.0" encoding="utf-8"?>
<!-- Generator: Adobe Illustrator 16.0.0, SVG Export Plug-In . SVG Version: 6.00 Build 0)  -->
<!DOCTYPE svg PUBLIC "-//W3C//DTD SVG 1.1//EN" "http://www.w3.org/Graphics/SVG/1.1/DTD/svg11.dtd">
<svg version="1.1" id="Layer_1" xmlns="http://www.w3.org/2000/svg" xmlns:xlink="http://www.w3.org/1999/xlink" x="0px" y="0px"
	 width="162.774px" height="228.356px" viewBox="0 0 162.774 228.356" enable-background="new 0 0 162.774 228.356"
	 xml:space="preserve">
<metadata><?xpacket begin="﻿" id="W5M0MpCehiHzreSzNTczkc9d"?>
<x:xmpmeta xmlns:x="adobe:ns:meta/" x:xmptk="Adobe XMP Core 5.3-c011 66.145661, 2012/02/06-14:56:27        ">
   <rdf:RDF xmlns:rdf="http://www.w3.org/1999/02/22-rdf-syntax-ns#">
      <rdf:Description rdf:about=""
            xmlns:dc="http://purl.org/dc/elements/1.1/">
         <dc:format>image/svg+xml</dc:format>
         <dc:title>
            <rdf:Alt>
               <rdf:li xml:lang="x-default">Print</rdf:li>
            </rdf:Alt>
         </dc:title>
      </rdf:Description>
      <rdf:Description rdf:about=""
            xmlns:xmp="http://ns.adobe.com/xap/1.0/"
            xmlns:xmpGImg="http://ns.adobe.com/xap/1.0/g/img/">
         <xmp:MetadataDate>2016-10-21T15:25:13-04:00</xmp:MetadataDate>
         <xmp:ModifyDate>2016-10-21T15:25:13-04:00</xmp:ModifyDate>
         <xmp:CreateDate>2016-10-21T15:25:12-04:00</xmp:CreateDate>
         <xmp:CreatorTool>Adobe Illustrator CS6 (Windows)</xmp:CreatorTool>
         <xmp:Thumbnails>
            <rdf:Alt>
               <rdf:li rdf:parseType="Resource">
                  <xmpGImg:width>168</xmpGImg:width>
                  <xmpGImg:height>256</xmpGImg:height>
                  <xmpGImg:format>JPEG</xmpGImg:format>
                  <xmpGImg:image>/9j/4AAQSkZJRgABAgEASABIAAD/7QAsUGhvdG9zaG9wIDMuMAA4QklNA+0AAAAAABAASAAAAAEA&#xA;AQBIAAAAAQAB/+4ADkFkb2JlAGTAAAAAAf/bAIQABgQEBAUEBgUFBgkGBQYJCwgGBggLDAoKCwoK&#xA;DBAMDAwMDAwQDA4PEA8ODBMTFBQTExwbGxscHx8fHx8fHx8fHwEHBwcNDA0YEBAYGhURFRofHx8f&#xA;Hx8fHx8fHx8fHx8fHx8fHx8fHx8fHx8fHx8fHx8fHx8fHx8fHx8fHx8fHx8f/8AAEQgBAACoAwER&#xA;AAIRAQMRAf/EAaIAAAAHAQEBAQEAAAAAAAAAAAQFAwIGAQAHCAkKCwEAAgIDAQEBAQEAAAAAAAAA&#xA;AQACAwQFBgcICQoLEAACAQMDAgQCBgcDBAIGAnMBAgMRBAAFIRIxQVEGE2EicYEUMpGhBxWxQiPB&#xA;UtHhMxZi8CRygvElQzRTkqKyY3PCNUQnk6OzNhdUZHTD0uIIJoMJChgZhJRFRqS0VtNVKBry4/PE&#xA;1OT0ZXWFlaW1xdXl9WZ2hpamtsbW5vY3R1dnd4eXp7fH1+f3OEhYaHiImKi4yNjo+Ck5SVlpeYmZ&#xA;qbnJ2en5KjpKWmp6ipqqusra6voRAAICAQIDBQUEBQYECAMDbQEAAhEDBCESMUEFURNhIgZxgZEy&#xA;obHwFMHR4SNCFVJicvEzJDRDghaSUyWiY7LCB3PSNeJEgxdUkwgJChgZJjZFGidkdFU38qOzwygp&#xA;0+PzhJSktMTU5PRldYWVpbXF1eX1RlZmdoaWprbG1ub2R1dnd4eXp7fH1+f3OEhYaHiImKi4yNjo&#xA;+DlJWWl5iZmpucnZ6fkqOkpaanqKmqq6ytrq+v/aAAwDAQACEQMRAD8AMh5Qs3/MfSrHyxcy+Y/P&#xA;llr/AOlPN/nNVligs7PmS9g/7ySIloz6awq3Y/Z3oqlVnYwReR9D/NKN5G8+3vm7jdXokkEjxyX0&#xA;lq1iULUMRhQfAB0+nFX1ZirsVdirsVdirsVdirsVdirsVdirsVY35q1HzHa39jFpMLyW8ltfyXLp&#xA;CZaSwwq1spNCF5vUU/a7Zj5pTBHD3H9jk4IQIPF3x/axpvMX5jCKRhZz810RLxR9UbfUDIqtD9nq&#xA;FJPD7WY/i5e7+G+XVyfBw94+uufTvdrHmL8xre31h7Oznlktf0d+j1Foz+p9YhL3VAF+P0322+z3&#xA;xyZcoEqHLhrb5rjw4SY2RvxXv3HZFahrnnyK8njt7aZ4U1m3tIm+qlq2MkbGWaoXcKwA59BkpZMo&#xA;Ow/iA5dGMMWIgWf4SefVLNY80/mfb6VNNZ6fPLdpqlzbRoLN3Js40QxScQu4Zifj6HK55swjsN+I&#xA;9OjbjwYDKiRXCDz6phf695/i1PX4be1ne1srKKbS5Pqpb1bhkiLoGC0ehd/hXfb2yyWTKDKhsBtt&#xA;7muGLCYxJO5O+/TddpHmDz9L5t0WyvLOYaRdWUc2oztasix3DWrSOhk4gJSUBeJ37Ywy5TkiCPSR&#xA;vt5IyYsIxyIPqB236X+pCaL+QPk3RbxLrTtQ1qApci8eBNSnWGSbkHZpIlIVuRHxVG+Zzr0XB+Rv&#xA;kWHzQmvot5SK9bVYdHNzIdNj1BtzdJa/ZElTUdvbFXoGKuxV2KuxV2KuxV2KuxV2KuxV2KuxV2Ku&#xA;xV2KuxV2KuxV2KuxV2KuxV2KuxV2KuxV2KuxV2KuxV2KuxV2KuxV2KuxV2KuxV2KuxV2KuxV2Kux&#xA;V2KuxV2KuxV2KuxV2KuxV2KuxV2KuxV2KuxV2KuxV2KvF7j83PzHsdW0jUNW0ey0/wAsa5rw0Ow0&#xA;m4juotcaN3MSXfCQrHxLDkVEf2SN964qt8t/nZrXmDzxcaNbal5as7KLWZ9Ot7G6luBqdxbW0oRp&#xA;YlUmLnIvL0w1Kntir07zh518ueUNLTUteuTbwSzJbWyIjzSzTyV4RRRRhndjQ7AYqxxfz0/LYaE+&#xA;tT6jJa20F7Fpt7BcW80VxbXMwLIk8LLzQEKTypx2O+xxVOfKH5i+VvNtzqNpo8031zSXRb60urea&#xA;1mQSgmJ/TmVG4yBSVP30xVJvMH56/lroHmGXQtT1GSO5tpI4L65W3me1tpZhWNJ51UxoWG/XbetK&#xA;HFVp/NrRtKHmS58xXsCWmlawuk2MVnDcvcPI8EciQNGVJlmZmY/uvhp9OKqCf85CflebW/uZb+4t&#xA;k0uS3i1FLi0uYXgkumZY1kR0VgaoeXhiqLj/ADx/Lc2OtXs2oy2kWgGL9Ix3VrcQTBbhuMDpC8Yk&#xA;dZT9nivzpiqZ+RfzN8o+dvryaHcSm601lS/srmGS3nhMleBaOQKaNxPTFWVYq7FXYq7FUHf6zo+n&#xA;FF1C+t7MyVMYuJUiLAdePMitK5OOOUuQJYynEczSE/xh5S/6vdh/0lQ/81ZP8vk/mn5Fj40O8fN3&#xA;+MPKX/V7sP8ApKh/5qx/L5P5p+RXxod4+bv8YeUv+r3Yf9JUP/NWP5fJ/NPyK+NDvHzd/jDyl/1e&#xA;7D/pKh/5qx/L5P5p+RXxod4+bv8AGHlL/q92H/SVD/zVj+XyfzT8ivjQ7x81ez8xeX72dbez1O0u&#xA;bhqlYYZ45HIAqaKrE7DIywziLII+CRkidgQ8X8v+Ufzebz8PNXmvy5Za1efWqadcT6mPR0uzdxUW&#xA;losRT1AnVy3JqDcb1rZrL/8ALb8xNUFj5YuPLmiabYWmvR6vL5s00w2/OGGUyKUso41kW4ZKIzFq&#xA;e/fFWdfmv5S8yardeWPMPlyCC+1Tytfm8GlXUnox3MUsZjkVZCGVJV2KMwoPwKrz/VPyl/MLzJrF&#xA;/wCa9SsbXTtR1XXtEu20ZLhZhDYaQrozyzABJJXDigUdPwVej+XPKGs2H5tecPM1wsY0rWrXTobF&#xA;lcFy9rGyy8k/Z3O2KvOfzF/LH8xtS83a3f8Al3SY7K91Ka2ex8y6dqstinCIKpGpWMhmS4KBafu0&#xA;FR74qgvPXlXV/Kd0/m3Ubyzgul84w6npQvGkS0ukltEgZJ5oo5EtWLRkq8lEXucVSK20DzL+ZXm3&#xA;zzqOmDTrgyX/AJdlkksLj17IC0Vnlijuyka3Dxxgc2UU5HbamKvQvP8A+V/m3VvNHnDVLLTdO1Wx&#xA;1nTNPtLex1GSVEma1mEkq8oHikicAVjk5bNTFUz/ACa8n+edC1fXLnWVn0/QbpIE0rRbzUBq08Tp&#xA;X1HFzxBWM1oqVPvir1XFXYq7FXYqwL8zPyot/PU9hLLqT2H1BZEASIS8vVKnuyUpwzP0euOAHa7c&#xA;TU6UZa3qmFf9CuWH/Uwy/wDSMv8A1UzN/lo/zftcb+TB/O+x3/Qrlh/1MMv/AEjL/wBVMf5aP837&#xA;V/kwfzvsd/0K5Yf9TDL/ANIy/wDVTH+Wj/N+1f5MH877Hf8AQrlh/wBTDL/0jL/1Ux/lo/zftX+T&#xA;B/O+x3/Qrlh/1MMv/SMv/VTH+Wj/ADftX+TB/O+xkHkT8irTyl5lt9cj1iS7e3WRBA0AjB9RCn2g&#xA;7dK+GY+q7TOWBjw18W3BoRjlxXb1LNW57sVdirsVdirsVU7i2t7mB4LmJJ4JBR4pFDow60KtUHFV&#xA;tpZWdlAILOCO2gBJEUKLGgJ3J4qAMVVsVdirsVdirsVdirsVdirsVdirsVdirsVdirsVdirsVdir&#xA;sVdirsVdirsVdirsVdirsVdirsVdirsVdirsVdirDo/zf/LeTzV/hWPW4n1wzm0FuscxjNwoqYRc&#xA;cPQ9QdOHOtduuKqcn50flhH5mHld9eiGvG7XTxY+nMW+tNIIhFyCcK8zT7VMVZrirsVQOt65pOha&#xA;Vcatq90llp1qA1xcy1CIGYKCaV/aYDFUZHIkkayRnkjgMrDoQRUHFV2KuxV2KpfLr+kxa7BoMk9N&#xA;VureS8gtuDnlBCypI/MLwFGkUULVxVMMVdirsVdirsVdirsVdirsVdirsVfM2k6l5G80+YdJ8s6D&#xA;quneX/I/lvX/ANJE39/EdT1fU0mLKLeGR/WWJpHIDsatUUG1AqhNL12by01vqflPz3Lq2q6r5skj&#xA;v/J81rBbySNeXJW7WW3JluQ441EpalOgGKvVvzp/SU2peQ9PstSutMXUNfjguprORopGhNvKzpUH&#xA;9oL9B36jFXlut6pr3l9tf8sL5h1K18qxecNOsNQ1eW6kkubLTby1E0qC7kLSRIZOIL8tu/2jVVKf&#xA;zAW0uPL/AOZmiaLr17r3lLRLbTNQspXvZbuO3v5ZfSkt1uebetGY3LFGLAMP5lxV7Tr2pzaL+QN5&#xA;qPka6a/ktdKaXTr0TNeOAd5ZRK5kLtCC7CpNONO1MVeV3Ws22kXWjR+R/N+oeYP0x5d1a48zRTX8&#xA;t56YhsGlhvG5M31Wb6xtQcT+zQd1Uy8mHWtK1L8mtUGvapeT+aLa5j1mG8u5ZoJY1sxLGohY8F9N&#xA;m2IFT1NTviqd/wDOQ8t9N5i8uWFr5jGnAwXc02iPqE2ii6AAVZY78RvB6kW/wSN9BBOKsLsfPvmi&#xA;bQ9L1HQbzU7i7h8m628IvZ1uZmntb1YvWLxBY52iUH05ONWA33rirrPV9Fg8x+Rf8L+c9S1mXUdI&#xA;1e48wW8uozXaLcrpEskbyqzkQy+py/d024g0FKlVGeWbrW9L078o/Mp8watPea801pq6z3MtzDJb&#xA;iF2UC2+JWaPjVaLyJ3PJsVS/8oPMGo2Xn/yx9c8zXfmIa693Ct7Y6u93BckK7g3mlXcSXNtwH7W1&#xA;KeFcVfVmKsI/MbzP5t0WaxXQbL62k6yG4PoSTcSpXj9ginU5stBp8WQHjNV506ntLVZsRj4Yu+ex&#xA;LDv+Vlfmp/1Z/wDpzn/rmf8AkNN/O/2QdX/Kes/mf7Eu/wCVlfmp/wBWf/pzn/rj+Q0387/ZBf5T&#xA;1n8z/Yl3/KyvzU/6s/8A05z/ANcfyGm/nf7IL/Kes/mf7Eu/5WV+an/Vn/6c5/64/kNN/O/2QX+U&#xA;9Z/M/wBiXf8AKyvzU/6s/wD05z/1x/Iab+d/sgv8p6z+Z/sSnvknzr591TzFBZavp31exdZDJL9W&#xA;lioVQlfiY06jMbV6TBDGTCVy94czQ67U5MojONR9xDLofIfkaCaOeDy7pkU0TB4pUs7dWVlNVZWC&#xA;VBB6HNO75Gp5e0BNTbVk0y0XVGryvxBGLg1FDWULz6e+Kom5sLG6kgkubeKeS1f1bZ5EVzHJQjmh&#xA;YHi1CRUYqpPoujyLdq9hbuuoEG/VokInIAUGao/eUAp8VcVWW3l7QLXT5NNtdNtYNOm5etZRQRpA&#xA;/LZuUaqENe9RiqIsrCxsbRLOxtorW0iBEVtCixxqCSSFRQFG5xVCWfljy1ZC5FlpNnbC8UpeCG3i&#xA;jEytWqycVHMGp+1iqquiaMn1LjYWy/o4EafSGMfVwV4kQ7fu6rt8NNsVdqmh6Lq8SRarp9tqEUZ5&#xA;Rx3UMcyq3SoEgYA4qh7/AMsaRd2MltHD9QkNpJY299YgW91bQyClLaZByi4mhHHaoG2KsI8rfkom&#xA;la3pmp6xr1xrq6JHcxaRaS29tbxobyIQzy3BhRTcyvGOJeTr3qd8VZ8mhaIkdnGmn2yx6eeVgghj&#xA;C27UpWEAfuz/AKtMVU7Ly15csb57+y0qztb6Xl6l3DbxRzNyNW5SKoY1PXfFUyxV2KuxV2KuxV2K&#xA;uxV2KuxV2KuxV2KuxV2KuxV2KuxV2KuxV2KuxV2KuxV2KuxV2KuxV2KuxV2KuxV2KuxV2KuxV2Ku&#xA;xV2KuxV2KuxV2KuxV2KuxV2KuxV2KuxV2KvnbV7z8xPJ/wCYvlY6p5j1O7vtd1lYtYSRHXy0ljcy&#xA;OsVvbSOqqlyiLsoFWJ3O3xKoG18yedY/Lek/mxJ5k1CSXUfMn1Kfy8ZQdNXTGvJLT0EtqUEi+nUS&#xA;Vr+vFX0virsVdirsVdirsVdirsVdirsVdirsVSHzN5vsfL726XMMspuAxX0+O3GgNeRHjmq7S7Wh&#xA;pDESBPF3Oy0HZk9SCYkDh70l/wCVs6L/AMsdz/yT/wCas1n+irD/ADZfZ+t2P+hvN/Oj9v6mm/Nn&#xA;R+J42dwWpsDwAr/wWJ9qsPSEvs/Wo9m8v86P2sPn8/8AmmW7Nwt4YhyqsKKvpgeHEg1+nOdn27qp&#xA;T4uOvLo72HY2mEeHhvz6sstPzZsPq0Yu7OY3IUeqYuPAt3K1atM3+L2px8I44y4utVX3ulyezc+I&#xA;8Mhw9Lu1X/lbOi/8sdz/AMk/+asn/oqw/wA2X2frYf6G8386P2/qTDQvzA03WdSjsILaaOSQMQ78&#xA;OPwqW7E+GZmh7exajKMcYyBPfTi6zsXJgxmcpRIHvYXpn5AyWR0/R38zT3PkPStQ/Sdh5Xe1hBWV&#xA;ZWnSN7sHm8SyuW4ld/HN46ZUtfyEjg1a3iPmG4fyXZ6sdetPKxgiCpe8jIoN1X1GhWQlhFxp4nvi&#xA;r1jFXYq7FXYq7FXYq7FXYq7FXYq7FXYqhL7SNL1Aob21iuTHUIZFDUr1pX5Zj59Jiy1xxEq72/Dq&#xA;cmK+CRjfchf8J+Wf+rZbf8i1/plH8l6b/U4/Ju/lLUfz5fNa/lHyyyMp0y3AYEVCAHfwIwHsrSkV&#xA;4cfkkdp6gH65fNhk35SXX1siC/QWZOzOpMgXwoPhJ+kZzc/ZWXH6Zjg+138PaWPBvA8X2Mvs/Jfl&#xA;u2tYoDYwztGoVppUVnY92Y++dDh7H00ICPBGVdSNy6PL2rqJyMuMi+gOyt/hPyz/ANWy2/5Fr/TL&#xA;P5L03+px+TX/AClqP58vmrWmgaJZzrcWtjDBMtQsiIFYVFDuMsxaDBjlxQhGMvIMMutzZI8MpSI9&#xA;6PzLcV2KuxV2KuxV2KuxV2KuxV2KuxV2KuxV2KuxV2KuxV2KuxV2KuxV2KuxV2KuxV2KuxV2KuxV&#xA;2KuxV2KuxV2KuxV2KuxV2KuxV2KuxV2KvKLH8+RPr+mQ3Plq8s/K+t6m+i6N5jkkQrNeK7RqGtgP&#xA;UjSR1ojE777ChxVGaP8Amx5l1vzPdabo3k+S80Sy1WXSbnXP0jaRBfq0ojuJ1tpOMzrHXl8Fa9Aa&#xA;4q9LxV2KuxV2KuxV2KuxV2KuxV2KuxV2Koa81TTLIqL27hti9SgmkSPlTrTkRXJCJPIMhEnkEN/i&#xA;by3/ANXWz/6SIv8AmrD4cu4p8KXcXHzP5aAJOrWYA6n6xF/zVj4Uu4r4Uu4vM9c/PH0PMkSaZCtx&#xA;oluxS5Yijz12Lxk/ZC/s+Pf2zYaK47/U50NFcd/qei2PnLyte2kV1DqtqI5VDBZJkRxXsysQVI8D&#xA;mHLDMGqLhywzBqir/wCJvLf/AFdbP/pIi/5qweHLuLHwpdxVbbW9FuphDa39tPM1SsUU0bsabmiq&#xA;ScBhIcwgwkOYeAatbeb/ADd5t8tXN75Q1PSfzD0XVoxd62qTHQF0+CVy7xtLLJE5eIjZQHLftdMi&#xA;xSn/AANdS6lp+naT5A1DQvPVt5iS+uvNAMsuni1SdpJJkv5XbkskZ/uQNzXau2KvqLFXYq7FXYq7&#xA;FXYq7FXYq7FXYq7FXYqw/wA+fl3D5ums5JL5rP6orqAsYk5eoVPdlpTjmRg1Hh3tduTg1Hh3tdsV&#xA;/wChf7P/AKvUn/Ihf+a8yPz57m/8+e5iOtflL5ot9Qkg0qxnvbSM0W6k9GLme5VPUJC+FcyIaqBG&#xA;5pyIauBG5ooH/lVvn7/q0Sf8HF/zXkvzWPvZ/msfevh/K3zx6yevpEwhqPUKPCWC9yAXAJxOqx96&#xA;DqsfezeP8gbR0VjrEq8gDxa3Wor2NJMxfz57nF/PnuTvyh+Udv5c12HVk1N7loVdRC0QQHmhXqGb&#xA;pXKsurM41TXm1ZnGqeg5iOG7FXYq7FXYq7FXYq7FXYq7FXYq7FXYq7FXYq7FXYq7FXYq7FXYq7FX&#xA;Yq7FXYq7FXYq7FXYq7FXYq7FXYq7FXYq7FXYq7FXYq7FXYq7FVCbULCC6t7Oe5iiu7zn9Ut3dVkl&#xA;9JeUnpoTyfgu7U6DFVAa9obaodIGo2p1UDkdPE0f1gDjyr6Vef2d+nTFUdirsVdirsVdirsVdirs&#xA;VdirsVdirsVdirsVad0jRnchUUFmY9ABuTiSpKT/AOM/Kn/V2tf+Rq/1yn8xj/nBo/NYv5wTDT9T&#xA;0/UYWnsLiO5hVijSRMGAYAEio70IyyExIWDbZDJGQuJtE5Jm7FXydp35i2ur/nV5R85a4L+3vJbz&#xA;UbWDSWtLkLZWBs5ILRF+CkssskplmZK8ajoFxVu00/S0/LHy/wCbIooz59n87j1tQKgXjXTahIjW&#xA;7P8AbKmBQTGdvbFX1hirsVdirsVdirsVdirsVdirsVdirsVYb5/1bzhYTWQ8vwSzJIshuDFbmehB&#xA;XjX4Wp3zD1U8ka4PucDWZMsSOAfZbEv8U/m3/wAsd1/0gn/qnmJ4+o7j8nC/MaruP+l/Yp3Hmf8A&#xA;NV7eVJrO5ELIwkJsiBxI334bbYDmz1uD8kS1GprcH/SsCzAdaynytrXnmx0+SLQbeaWzaUvI0VsZ&#xA;x6pVQRy4tvxC7ZlYMmWI9A29zmafLmjGoA17rTj/ABT+bf8Ayx3X/SCf+qeXePqO4/Jv/MaruP8A&#xA;pf2J35O178wbvX4INZtp49PZXMjyWpiWoQlfj4LTf3y7T5cxnUga9zkaXNnlMCYPD7maX3l/R77V&#xA;dN1a7tll1HR2mbTbglgYTcR+lKQAQp5Rmm4ObF2iQQ/lF+XEPmw+bYtEhXXjM1z9ZDy8BO4+KYQc&#xA;/QEh68wnKu9a4qy/FXYq7FXYq7FXYq7FXYq7FXYq7FXYq7FXYqtkjSSNo3HJHBVlPcEUIxIQRaR/&#xA;4E8of9WqD7j/AFyj8rj7nH/J4v5oTPTNJ03S4Gt9Pt1toWcyMidCxABP3KMshjjEUBTdjxxgKiKR&#xA;eTZuxV2KuxV2KuxV2KuxV2KuxV2KuxV2KuxV2KuxV2KuxV2KuxV2KuxV2KuxV2KuxV2KuxV2KuxV&#xA;2KuxV2KuxV2KuxV2KuxV2KuxV2KuxV2KuxV5E35ua1qX5y6D5d0WKM+Tp59Q0+81Jl5NdX1lZvcS&#xA;pAe0cDhFLj7Tch2xVjHlv86dc1vz5JazebLLS9KbzBLpljpsmlzS+vBDMBHEb8FYY5riMHiDuPpG&#xA;KvoTFXYq7FXYq7FXYq7FXYq7FXYq7FXYqlWt6/8Aop4l/R93e+qCa2iRuF40+1zePrXNfre1MGmI&#xA;GU1xcmcYGXJLP8dD/qw6r/yKg/6rZg/6JNF/PZeDJ3+Oh/1YdV/5FQf9Vsf9Emi/nr4Mnf46H/Vh&#xA;1X/kVB/1Wx/0SaL+evgyd/jof9WHVf8AkVB/1Wx/0SaL+evgyd/jof8AVh1X/kVB/wBVsf8ARJov&#xA;56+DJGaV5q/SF6lr+ib+15gn1riOJYxxFdysjnf5Zk6XtrTZ5iGOVyLGWMgWXnA/5x006w8xeU7r&#xA;Q9Z1S20bQJbqSa0k1G5LIJ4iEFmB8MXKQ/vqU5qSDXNqwWaj+V35qa0LTy7rur6Tc+U7PV01Qaik&#xA;cseqywwymWKBokjS2U78S4bpir2bFXYq7FXYq7FXYq7FXYq7FXYq7FXYqlms+XNN1homvGulMIIT&#xA;6reXdoPipXkLaWEN0/armLqNFhzEHJCMq7xbISI5Jb/yr3y7/vzU/wDuL6p/2U5j/wAjaT/UofIJ&#xA;8SXe7/lXvl3/AH5qf/cX1T/spx/kbSf6lD5BfEl3u/5V75d/35qf/cX1T/spx/kbSf6lD5BfEl3u&#xA;/wCVe+Xf9+an/wBxfVP+ynH+RtJ/qUPkF8SXe7/lXvl3/fmp/wDcX1T/ALKcf5G0n+pQ+QXxJd6L&#xA;0zyfo2m3iXds980yAhRPqN/cx/EKGsU88kZ+lcsw9m6fFLihCMZDqAgzJ5lOszmLsVdirsVdirsV&#xA;dirsVdirsVdirsVdirsVdirsVdirsVdirsVdirsVdirsVdirsVdirsVdirsVdirsVdirsVdirsVd&#xA;irsVdirsVdirsVYJZfnL5VvvM0vl6ytNUubmC+fTJ7yKxmezS5if03DXCgoArdScVUoPzy8izeaE&#xA;0BGvKS3raVDrBtpBpsmoLsbVLr7JkqKDt74q9AxV2KuxV2KuxV2KuxV2KuxV2KuxV2KuxV2KuxV2&#xA;KuxV2KuxV8p6Lf6Zp+paNB5M1zzEnnyXzKw1XylqDsFS3lnLX31m3iUW4iK/vPVqTv12+FV1nfQS&#xA;+R9D/K2NJF8+2Xm7ldWQjkMiRx30l018XK0EQhcfGD0+nFX1ZirsVdirsVdirsVdirsVdirsVdir&#xA;sVeTfnj5e/NHVbrSH8kSXqRxJOL8Wd59UFSUMfIfW7Pl+1/N9HejNGZ+n8fYXa9nZdNEHxhZ6ekn&#xA;7pw/T8Hl/wDgT/nJv/f2sf8AcX/72uU8Gbv+0f8AEux/M9nfzP8AYS/6rO/wJ/zk3/v7WP8AuL/9&#xA;7XHgzd/2j/iV/M9nfzP9hL/qs7/An/OTf+/tY/7i/wD3tceDN3/aP+JX8z2d/M/2Ev8Aqs7/AAJ/&#xA;zk3/AL+1j/uL/wDe1x4M3f8AaP8AiV/M9nfzP9hL/qs7/An/ADk3/v7WP+4v/wB7XHgzd/2j/iV/&#xA;M9nfzP8AYS/6rMu/Knyp+eGn+eLG681S6i2iIkwuBc6h9Zi5NEwjrH9fua/GRT92fo65ZjjkEvUd&#xA;vf8AsDi63Po5YiMUan/VI6+eSX3P/9k=</xmpGImg:image>
               </rdf:li>
            </rdf:Alt>
         </xmp:Thumbnails>
      </rdf:Description>
      <rdf:Description rdf:about=""
            xmlns:xmpMM="http://ns.adobe.com/xap/1.0/mm/"
            xmlns:stRef="http://ns.adobe.com/xap/1.0/sType/ResourceRef#"
            xmlns:stEvt="http://ns.adobe.com/xap/1.0/sType/ResourceEvent#">
         <xmpMM:InstanceID>xmp.iid:E007DD43188BE611B7B4CA8BA42D266E</xmpMM:InstanceID>
         <xmpMM:DocumentID>xmp.did:E007DD43188BE611B7B4CA8BA42D266E</xmpMM:DocumentID>
         <xmpMM:OriginalDocumentID>uuid:5D20892493BFDB11914A8590D31508C8</xmpMM:OriginalDocumentID>
         <xmpMM:RenditionClass>proof:pdf</xmpMM:RenditionClass>
         <xmpMM:DerivedFrom rdf:parseType="Resource">
            <stRef:instanceID>xmp.iid:9ED0B0153013E411BEDAD1AAF8E34EA0</stRef:instanceID>
            <stRef:documentID>xmp.did:9ED0B0153013E411BEDAD1AAF8E34EA0</stRef:documentID>
            <stRef:originalDocumentID>uuid:5D20892493BFDB11914A8590D31508C8</stRef:originalDocumentID>
            <stRef:renditionClass>proof:pdf</stRef:renditionClass>
         </xmpMM:DerivedFrom>
         <xmpMM:History>
            <rdf:Seq>
               <rdf:li rdf:parseType="Resource">
                  <stEvt:action>saved</stEvt:action>
                  <stEvt:instanceID>xmp.iid:9CD0B0153013E411BEDAD1AAF8E34EA0</stEvt:instanceID>
                  <stEvt:when>2014-07-24T15:52:32-04:00</stEvt:when>
                  <stEvt:softwareAgent>Adobe Illustrator CS6 (Windows)</stEvt:softwareAgent>
                  <stEvt:changed>/</stEvt:changed>
               </rdf:li>
               <rdf:li rdf:parseType="Resource">
                  <stEvt:action>saved</stEvt:action>
                  <stEvt:instanceID>xmp.iid:E007DD43188BE611B7B4CA8BA42D266E</stEvt:instanceID>
                  <stEvt:when>2016-10-21T15:25:13-04:00</stEvt:when>
                  <stEvt:softwareAgent>Adobe Illustrator CS6 (Windows)</stEvt:softwareAgent>
                  <stEvt:changed>/</stEvt:changed>
               </rdf:li>
            </rdf:Seq>
         </xmpMM:History>
      </rdf:Description>
      <rdf:Description rdf:about=""
            xmlns:illustrator="http://ns.adobe.com/illustrator/1.0/">
         <illustrator:StartupProfile>Print</illustrator:StartupProfile>
      </rdf:Description>
      <rdf:Description rdf:about=""
            xmlns:xmpTPg="http://ns.adobe.com/xap/1.0/t/pg/"
            xmlns:stDim="http://ns.adobe.com/xap/1.0/sType/Dimensions#"
            xmlns:xmpG="http://ns.adobe.com/xap/1.0/g/">
         <xmpTPg:HasVisibleOverprint>False</xmpTPg:HasVisibleOverprint>
         <xmpTPg:HasVisibleTransparency>False</xmpTPg:HasVisibleTransparency>
         <xmpTPg:NPages>1</xmpTPg:NPages>
         <xmpTPg:MaxPageSize rdf:parseType="Resource">
            <stDim:w>162.774414</stDim:w>
            <stDim:h>228.356445</stDim:h>
            <stDim:unit>Pixels</stDim:unit>
         </xmpTPg:MaxPageSize>
         <xmpTPg:PlateNames>
            <rdf:Seq>
               <rdf:li>Cyan</rdf:li>
               <rdf:li>Magenta</rdf:li>
               <rdf:li>Yellow</rdf:li>
               <rdf:li>Black</rdf:li>
            </rdf:Seq>
         </xmpTPg:PlateNames>
         <xmpTPg:SwatchGroups>
            <rdf:Seq>
               <rdf:li rdf:parseType="Resource">
                  <xmpG:groupName>Default Swatch Group</xmpG:groupName>
                  <xmpG:groupType>0</xmpG:groupType>
               </rdf:li>
            </rdf:Seq>
         </xmpTPg:SwatchGroups>
      </rdf:Description>
      <rdf:Description rdf:about=""
            xmlns:pdf="http://ns.adobe.com/pdf/1.3/">
         <pdf:Producer>Adobe PDF library 10.01</pdf:Producer>
      </rdf:Description>
   </rdf:RDF>
</x:xmpmeta>
                                                                                                    
                                                                                                    
                                                                                                    
                                                                                                    
                                                                                                    
                                                                                                    
                                                                                                    
                                                                                                    
                                                                                                    
                                                                                                    
                                                                                                    
                                                                                                    
                                                                                                    
                                                                                                    
                                                                                                    
                                                                                                    
                                                                                                    
                                                                                                    
                                                                                                    
                                                                                                    
                           
<?xpacket end="w"?>
	</metadata>
<rect x="110.873" y="14.119" fill="#A65624" width="40.836" height="3.515"/>
<path d="M20.676,12.66c0.48,0.504,0.708,1.115,0.708,1.823c0,0.575-0.18,1.104-0.516,1.595c-0.348,0.479-0.983,1.008-1.895,1.583
	c-1.199,0.756-1.547,1.128-1.691,1.583h4.09v1.224h-5.733c0-1.295,0.612-2.351,1.919-3.227c0.432-0.287,0.863-0.587,1.271-0.887
	c0.815-0.601,1.187-1.2,1.187-1.836c0-0.935-0.528-1.475-1.415-1.475c-0.923,0-1.391,0.636-1.439,2.099h-1.367
	c0.036-2.039,1.151-3.238,2.891-3.238C19.549,11.904,20.208,12.156,20.676,12.66z"/>
<path d="M28.079,16.271c0,2.758-0.995,4.365-2.902,4.365c-1.907,0-2.902-1.595-2.902-4.365c0-2.759,0.983-4.366,2.902-4.366
	C27.108,11.904,28.079,13.5,28.079,16.271z M25.177,19.496c1.02,0,1.535-1.02,1.535-3.226c0-2.195-0.54-3.227-1.547-3.227
	s-1.523,1.092-1.523,3.227C23.642,18.465,24.17,19.496,25.177,19.496z"/>
<path d="M20.676,41.46c0.48,0.504,0.708,1.115,0.708,1.823c0,0.575-0.18,1.104-0.516,1.595c-0.348,0.479-0.983,1.008-1.895,1.583
	c-1.199,0.756-1.547,1.128-1.691,1.583h4.09v1.224h-5.733c0-1.295,0.612-2.351,1.919-3.227c0.432-0.287,0.863-0.587,1.271-0.887
	c0.815-0.601,1.187-1.2,1.187-1.835c0-0.936-0.528-1.476-1.415-1.476c-0.923,0-1.391,0.636-1.439,2.099h-1.367
	c0.036-2.039,1.151-3.238,2.891-3.238C19.549,40.704,20.208,40.956,20.676,41.46z"/>
<path d="M27.66,40.872v1.224h-3.322l-0.432,2.135l0.024,0.023c0.384-0.419,0.996-0.635,1.559-0.635c1.571,0,2.615,1.139,2.615,2.806
	c0,0.828-0.264,1.535-0.78,2.123c-0.528,0.6-1.235,0.888-2.123,0.888c-1.691,0-2.879-0.96-2.938-2.555h1.367
	c0.084,0.911,0.66,1.415,1.547,1.415c1.02,0,1.56-0.659,1.56-1.835c0-1.007-0.576-1.763-1.595-1.763c-0.72,0-1.188,0.3-1.355,0.768
	h-1.367l0.899-4.594H27.66z"/>
<path d="M38.544,46.161c0,1.943-1.223,3.274-3.13,3.274c-1.847,0-3.13-1.26-3.13-3.274c0-1.942,1.224-3.262,3.13-3.262
	C37.344,42.899,38.544,44.23,38.544,46.161z M35.413,48.356c1.08,0,1.763-0.924,1.763-2.195c0-1.247-0.648-2.183-1.775-2.183
	c-1.08,0-1.751,0.972-1.751,2.183C33.65,47.396,34.322,48.356,35.413,48.356z"/>
<path d="M45.132,44.962v4.306h-1.367V45.37c0-0.768-0.276-1.392-1.211-1.392c-0.959,0-1.499,0.792-1.499,1.595v3.694h-1.367v-6.2
	h1.295v0.911l0.024,0.024c0.443-0.72,1.151-1.104,1.943-1.104C44.376,42.899,45.132,43.715,45.132,44.962z"/>
<path d="M54.888,44.806H53.46c-0.107-0.563-0.516-0.827-1.26-0.827c-0.671,0-1.127,0.228-1.127,0.636
	c0,0.468,0.372,0.684,1.571,0.911c1.907,0.348,2.446,0.936,2.446,1.896c0,1.295-1.188,2.015-2.77,2.015
	c-1.632,0-2.711-0.731-2.747-2.159h1.367c0.084,0.731,0.552,1.08,1.403,1.08c0.84,0,1.379-0.24,1.379-0.78
	c0-0.468-0.299-0.731-1.619-0.983c-0.982-0.191-1.654-0.432-1.942-0.743c-0.3-0.3-0.456-0.695-0.456-1.176
	c0-1.163,1.104-1.774,2.591-1.774C53.773,42.899,54.732,43.57,54.888,44.806z"/>
<path d="M56.87,40.632c0.467,0,0.852,0.385,0.852,0.852c0,0.468-0.385,0.852-0.852,0.852c-0.469,0-0.852-0.384-0.852-0.852
	C56.019,41.017,56.402,40.632,56.87,40.632z M57.542,43.067v6.2h-1.368v-6.2H57.542z"/>
<path d="M63.372,43.919h0.023v-0.852h1.367v5.937c0,1.727-1.007,2.723-3.034,2.723c-1.559,0-2.675-0.696-2.782-1.932h1.367
	c0.12,0.6,0.527,0.912,1.487,0.912c1.067,0,1.595-0.552,1.595-1.548v-0.983h-0.023c-0.408,0.696-1.08,1.092-1.859,1.092
	c-1.751,0-2.782-1.247-2.782-3.25c0-1.787,1.151-3.118,2.807-3.118C62.376,42.899,63.048,43.247,63.372,43.919z M61.729,48.188
	c1.031,0,1.667-0.852,1.667-2.159c0-1.235-0.623-2.051-1.667-2.051c-1.031,0-1.631,0.876-1.631,2.159
	C60.098,47.313,60.722,48.188,61.729,48.188z"/>
<path d="M71.592,44.962v4.306h-1.368V45.37c0-0.768-0.275-1.392-1.211-1.392c-0.959,0-1.499,0.792-1.499,1.595v3.694h-1.367v-6.2
	h1.295v0.911l0.024,0.024c0.443-0.72,1.151-1.104,1.942-1.104C70.836,42.899,71.592,43.715,71.592,44.962z"/>
<path d="M78.012,44.806h-1.428c-0.107-0.563-0.516-0.827-1.259-0.827c-0.672,0-1.128,0.228-1.128,0.636
	c0,0.468,0.372,0.684,1.571,0.911c1.907,0.348,2.446,0.936,2.446,1.896c0,1.295-1.187,2.015-2.771,2.015
	c-1.631,0-2.71-0.731-2.746-2.159h1.367c0.084,0.731,0.552,1.08,1.403,1.08c0.84,0,1.379-0.24,1.379-0.78
	c0-0.468-0.3-0.731-1.619-0.983c-0.983-0.191-1.654-0.432-1.942-0.743c-0.3-0.3-0.456-0.695-0.456-1.176
	c0-1.163,1.104-1.774,2.591-1.774C76.896,42.899,77.856,43.57,78.012,44.806z"/>
<path d="M20.676,70.26c0.48,0.504,0.708,1.115,0.708,1.823c0,0.575-0.18,1.104-0.516,1.595c-0.348,0.479-0.983,1.008-1.895,1.583
	c-1.199,0.756-1.547,1.128-1.691,1.583h4.09v1.224h-5.733c0-1.295,0.612-2.351,1.919-3.227c0.432-0.287,0.863-0.587,1.271-0.887
	c0.815-0.601,1.187-1.2,1.187-1.836c0-0.935-0.528-1.475-1.415-1.475c-0.923,0-1.391,0.636-1.439,2.099h-1.367
	c0.036-2.039,1.151-3.238,2.891-3.238C19.549,69.504,20.208,69.756,20.676,70.26z"/>
<path d="M27.66,69.672v1.224h-3.322l-0.432,2.135l0.024,0.023c0.384-0.419,0.996-0.635,1.559-0.635c1.571,0,2.615,1.139,2.615,2.806
	c0,0.828-0.264,1.535-0.78,2.123c-0.528,0.6-1.235,0.888-2.123,0.888c-1.691,0-2.879-0.96-2.938-2.555h1.367
	c0.084,0.911,0.66,1.415,1.547,1.415c1.02,0,1.56-0.659,1.56-1.835c0-1.007-0.576-1.763-1.595-1.763c-0.72,0-1.188,0.3-1.355,0.768
	h-1.367l0.899-4.594H27.66z"/>
<path d="M38.016,73.762v4.306h-1.367V74.17c0-0.768-0.276-1.392-1.211-1.392c-0.959,0-1.499,0.792-1.499,1.595v3.694h-1.367v-6.2
	h1.295v0.911l0.024,0.024c0.443-0.72,1.151-1.104,1.943-1.104C37.26,71.699,38.016,72.515,38.016,73.762z"/>
<path d="M45.431,74.961c0,1.943-1.223,3.274-3.13,3.274c-1.847,0-3.13-1.26-3.13-3.274c0-1.942,1.224-3.262,3.13-3.262
	C44.232,71.699,45.431,73.03,45.431,74.961z M42.301,77.156c1.08,0,1.763-0.924,1.763-2.195c0-1.247-0.648-2.183-1.775-2.183
	c-1.08,0-1.751,0.972-1.751,2.183C40.538,76.196,41.21,77.156,42.301,77.156z"/>
<path d="M48.349,70.008v1.859h1.235v1.019h-1.235v3.383c0,0.647,0.156,0.779,0.684,0.779c0.252,0,0.504-0.023,0.552-0.048v1.056
	c-0.54,0.06-0.696,0.071-0.888,0.071c-1.307,0-1.715-0.396-1.715-1.643v-3.599H45.95v-1.019h1.032v-1.859H48.349z"/>
<path d="M59.879,74.961c0,1.943-1.224,3.274-3.13,3.274c-1.848,0-3.131-1.26-3.131-3.274c0-1.942,1.224-3.262,3.131-3.262
	C58.68,71.699,59.879,73.03,59.879,74.961z M56.749,77.156c1.079,0,1.763-0.924,1.763-2.195c0-1.247-0.647-2.183-1.775-2.183
	c-1.079,0-1.751,0.972-1.751,2.183C54.986,76.196,55.657,77.156,56.749,77.156z"/>
<path d="M66.468,73.762v4.306h-1.367V74.17c0-0.768-0.276-1.392-1.212-1.392c-0.959,0-1.499,0.792-1.499,1.595v3.694h-1.367v-6.2
	h1.295v0.911l0.024,0.024c0.443-0.72,1.151-1.104,1.942-1.104C65.712,71.699,66.468,72.515,66.468,73.762z"/>
<path d="M76.224,73.605h-1.428c-0.107-0.563-0.516-0.827-1.259-0.827c-0.672,0-1.128,0.228-1.128,0.636
	c0,0.468,0.372,0.684,1.571,0.911c1.907,0.348,2.446,0.936,2.446,1.896c0,1.295-1.187,2.015-2.771,2.015
	c-1.631,0-2.71-0.731-2.746-2.159h1.367c0.084,0.731,0.552,1.08,1.403,1.08c0.84,0,1.379-0.24,1.379-0.78
	c0-0.468-0.3-0.731-1.619-0.983c-0.983-0.191-1.654-0.432-1.942-0.743c-0.3-0.3-0.456-0.695-0.456-1.176
	c0-1.163,1.104-1.774,2.591-1.774C75.108,71.699,76.068,72.37,76.224,73.605z"/>
<path d="M78.205,69.433c0.468,0,0.852,0.383,0.852,0.851s-0.384,0.852-0.852,0.852s-0.852-0.384-0.852-0.852
	S77.738,69.433,78.205,69.433z M78.877,71.867v6.2H77.51v-6.2H78.877z"/>
<path d="M84.708,72.719h0.023v-0.852h1.367v5.937c0,1.727-1.007,2.723-3.034,2.723c-1.559,0-2.675-0.696-2.782-1.932h1.367
	c0.12,0.6,0.527,0.912,1.487,0.912c1.067,0,1.595-0.552,1.595-1.548v-0.983h-0.023c-0.408,0.696-1.08,1.092-1.859,1.092
	c-1.751,0-2.782-1.247-2.782-3.25c0-1.787,1.151-3.118,2.807-3.118C83.712,71.699,84.384,72.047,84.708,72.719z M83.065,76.988
	c1.031,0,1.667-0.852,1.667-2.159c0-1.235-0.623-2.051-1.667-2.051c-1.031,0-1.631,0.875-1.631,2.159
	C81.434,76.112,82.058,76.988,83.065,76.988z"/>
<path d="M92.927,73.762v4.306H91.56V74.17c0-0.768-0.276-1.392-1.212-1.392c-0.959,0-1.499,0.792-1.499,1.595v3.694h-1.367v-6.2
	h1.295v0.911l0.024,0.024c0.443-0.72,1.151-1.104,1.942-1.104C92.171,71.699,92.927,72.515,92.927,73.762z"/>
<path d="M99.347,73.605h-1.428c-0.107-0.563-0.516-0.827-1.259-0.827c-0.672,0-1.128,0.228-1.128,0.636
	c0,0.468,0.372,0.684,1.571,0.911c1.907,0.348,2.446,0.936,2.446,1.896c0,1.295-1.187,2.015-2.771,2.015
	c-1.631,0-2.71-0.731-2.746-2.159h1.367c0.084,0.731,0.552,1.08,1.403,1.08c0.84,0,1.379-0.24,1.379-0.78
	c0-0.468-0.3-0.731-1.619-0.983c-0.983-0.191-1.654-0.432-1.942-0.743c-0.3-0.3-0.456-0.695-0.456-1.176
	c0-1.163,1.104-1.774,2.591-1.774C98.231,71.699,99.191,72.37,99.347,73.605z"/>
<path d="M20.365,98.929c0.516,0.42,0.768,0.947,0.768,1.619c0,0.888-0.384,1.499-1.188,1.799v0.024
	c0.971,0.216,1.523,1.019,1.523,2.099c0,0.755-0.288,1.367-0.863,1.847s-1.283,0.72-2.111,0.72c-1.799,0-2.878-0.983-2.951-2.927
	h1.368v0.108c0,0.972,0.576,1.679,1.583,1.679c0.936,0,1.607-0.575,1.607-1.499c0-0.983-0.576-1.427-1.991-1.427h-0.204v-1.02h0.132
	c1.067,0,1.727-0.456,1.727-1.319c0-0.744-0.576-1.188-1.307-1.188c-0.828,0-1.391,0.707-1.391,1.607v0.107h-1.367
	c0.084-1.763,1.223-2.854,2.782-2.854C19.213,98.305,19.848,98.509,20.365,98.929z"/>
<path d="M28.079,102.671c0,2.758-0.995,4.365-2.902,4.365c-1.907,0-2.902-1.595-2.902-4.365c0-2.759,0.983-4.366,2.902-4.366
	C27.108,98.305,28.079,99.9,28.079,102.671z M25.177,105.896c1.02,0,1.535-1.02,1.535-3.226c0-2.195-0.54-3.227-1.547-3.227
	s-1.523,1.092-1.523,3.227C23.642,104.865,24.17,105.896,25.177,105.896z"/>
<path d="M20.365,127.729c0.516,0.42,0.768,0.947,0.768,1.619c0,0.888-0.384,1.499-1.188,1.799v0.024
	c0.971,0.216,1.523,1.019,1.523,2.099c0,0.755-0.288,1.367-0.863,1.847s-1.283,0.72-2.111,0.72c-1.799,0-2.878-0.983-2.951-2.927
	h1.368v0.108c0,0.972,0.576,1.679,1.583,1.679c0.936,0,1.607-0.575,1.607-1.499c0-0.983-0.576-1.427-1.991-1.427h-0.204v-1.02h0.132
	c1.067,0,1.727-0.456,1.727-1.319c0-0.744-0.576-1.188-1.307-1.188c-0.828,0-1.391,0.708-1.391,1.607v0.107h-1.367
	c0.084-1.763,1.223-2.854,2.782-2.854C19.213,127.104,19.848,127.309,20.365,127.729z"/>
<path d="M27.66,127.272v1.224h-3.322l-0.432,2.135l0.024,0.023c0.384-0.419,0.996-0.635,1.559-0.635
	c1.571,0,2.615,1.139,2.615,2.806c0,0.828-0.264,1.535-0.78,2.123c-0.528,0.6-1.235,0.888-2.123,0.888
	c-1.691,0-2.879-0.96-2.938-2.555h1.367c0.084,0.911,0.66,1.415,1.547,1.415c1.02,0,1.56-0.659,1.56-1.835
	c0-1.007-0.576-1.763-1.595-1.763c-0.72,0-1.188,0.3-1.355,0.768h-1.367l0.899-4.594H27.66z"/>
<path d="M20.352,156.072v5.325h1.08v1.079h-1.08v1.991h-1.295v-1.991h-3.598v-1.354l3.598-5.05H20.352z M19.033,157.703
	l-2.519,3.694h2.542v-3.694H19.033z"/>
<path d="M28.079,160.271c0,2.758-0.995,4.365-2.902,4.365c-1.907,0-2.902-1.595-2.902-4.365c0-2.759,0.983-4.366,2.902-4.366
	C27.108,155.904,28.079,157.5,28.079,160.271z M25.177,163.496c1.02,0,1.535-1.02,1.535-3.226c0-2.195-0.54-3.227-1.547-3.227
	s-1.523,1.092-1.523,3.227C23.642,162.465,24.17,163.496,25.177,163.496z"/>
<path d="M20.352,184.872v5.325h1.08v1.079h-1.08v1.991h-1.295v-1.991h-3.598v-1.354l3.598-5.05H20.352z M19.033,186.503
	l-2.519,3.694h2.542v-3.694H19.033z"/>
<path d="M27.66,184.872v1.224h-3.322l-0.432,2.135l0.024,0.023c0.384-0.419,0.996-0.635,1.559-0.635
	c1.571,0,2.615,1.139,2.615,2.806c0,0.828-0.264,1.535-0.78,2.123c-0.528,0.6-1.235,0.888-2.123,0.888
	c-1.691,0-2.879-0.96-2.938-2.555h1.367c0.084,0.911,0.66,1.415,1.547,1.415c1.02,0,1.56-0.659,1.56-1.835
	c0-1.007-0.576-1.763-1.595-1.763c-0.72,0-1.188,0.3-1.355,0.768h-1.367l0.899-4.594H27.66z"/>
<path d="M20.988,213.672v1.224h-3.322l-0.432,2.135l0.024,0.023c0.384-0.419,0.996-0.635,1.559-0.635
	c1.571,0,2.615,1.139,2.615,2.806c0,0.828-0.264,1.535-0.78,2.123c-0.528,0.6-1.235,0.888-2.123,0.888
	c-1.691,0-2.879-0.96-2.938-2.555h1.367c0.084,0.911,0.66,1.415,1.547,1.415c1.02,0,1.56-0.659,1.56-1.835
	c0-1.007-0.576-1.763-1.595-1.763c-0.72,0-1.188,0.3-1.355,0.768h-1.367l0.899-4.594H20.988z"/>
<path d="M28.079,217.87c0,2.758-0.995,4.365-2.902,4.365c-1.907,0-2.902-1.595-2.902-4.365c0-2.759,0.983-4.366,2.902-4.366
	C27.108,213.504,28.079,215.1,28.079,217.87z M25.177,221.096c1.02,0,1.535-1.02,1.535-3.226c0-2.195-0.54-3.227-1.547-3.227
	s-1.523,1.092-1.523,3.227C23.642,220.064,24.17,221.096,25.177,221.096z"/>
<rect x="110.682" y="44.152" fill="#1251A3" width="40.836" height="3.515"/>
<rect x="110.733" y="73.368" fill="#1990CE" width="40.836" height="3.515"/>
<rect x="110.748" y="101.333" fill="#FF7F00" width="40.836" height="3.515"/>
<rect x="110.764" y="129.611" fill="#994FA3" width="40.836" height="3.515"/>
<rect x="110.69" y="158.56" fill="#4DB04B" width="40.836" height="3.515"/>
<rect x="110.733" y="187.393" fill="#FFFF30" width="40.836" height="3.515"/>
<rect x="110.764" y="216.725" fill="#E41919" width="40.836" height="3.515"/>
<rect x="110.698" y="190.476" width="40.89" height="0.486"/>
<rect x="110.656" y="187.434" width="40.89" height="0.486"/>
<rect x="110.749" y="216.701" width="40.879" height="0.486"/>
<rect x="110.836" y="218.368" width="40.757" height="0.486"/>
<rect x="110.79" y="219.81" width="40.834" height="0.486"/>
<rect x="126.888" y="155.671" fill="#4DB04B" width="9.162" height="8.639"/>
<circle fill="#FF7F00" cx="130.946" cy="103.184" r="4.582"/>
<polyline fill="#994FA3" points="121.385,135.21 131.152,125.443 140.917,135.21 "/>
<rect x="112.366" y="14.104" fill="#FFFFFF" width="1.044" height="3.678"/>
<rect x="115.21" y="14.052" fill="#FFFFFF" width="1.044" height="3.615"/>
<rect x="118.188" y="13.977" fill="#FFFFFF" width="1.044" height="3.662"/>
<rect x="121.107" y="14.111" fill="#FFFFFF" width="1.044" height="3.537"/>
<rect x="124.054" y="14.119" fill="#FFFFFF" width="1.044" height="3.506"/>
<rect x="127.304" y="14.033" fill="#FFFFFF" width="1.044" height="3.607"/>
<rect x="130.095" y="14.085" fill="#FFFFFF" width="1.044" height="3.607"/>
<rect x="133.185" y="14.103" fill="#FFFFFF" width="1.044" height="3.607"/>
<rect x="136.342" y="13.95" fill="#FFFFFF" width="1.044" height="3.775"/>
<rect x="140.742" y="14.052" fill="#FFFFFF" width="1.044" height="3.607"/>
<rect x="144.437" y="14.085" fill="#FFFFFF" width="1.044" height="3.607"/>
<rect x="147.829" y="14.052" fill="#FFFFFF" width="1.044" height="3.607"/>
</svg>
