<?xml version="1.0" encoding="utf-8"?>
<!-- Generator: Adobe Illustrator 15.0.2, SVG Export Plug-In . SVG Version: 6.00 Build 0)  -->
<!DOCTYPE svg PUBLIC "-//W3C//DTD SVG 1.1//EN" "http://www.w3.org/Graphics/SVG/1.1/DTD/svg11.dtd">
<svg version="1.1" id="Layer_1" xmlns="http://www.w3.org/2000/svg" xmlns:xlink="http://www.w3.org/1999/xlink" x="0px" y="0px"
	 width="71.988px" height="8.493px" viewBox="0 0 71.988 8.493" enable-background="new 0 0 71.988 8.493" xml:space="preserve">
<g>
	<path fill="#203970" d="M69.276,2.514c-0.018-0.052-0.069-0.092-0.129-0.092H66.62c-0.06,0-0.109,0.041-0.127,0.092l-0.438,1.044
		h3.656L69.276,2.514z"/>
	<g>
		<polygon fill="#203970" points="5.17,0.192 3.864,5.109 3.843,5.109 2.514,0.192 0,0.192 0,0.214 2.414,8.299 5.205,8.299 
			7.738,0.192 		"/>
		<rect x="7.961" y="0.192" fill="#203970" width="2.5" height="8.109"/>
		<path fill="#203970" d="M13.329,5.575c0,0.204,0.035,0.389,0.09,0.532c0.18,0.49,0.728,0.592,1.192,0.592
			c0.409,0,1.034-0.137,1.034-0.737c0-0.423-0.352-0.534-1.75-0.934c-1.281-0.361-2.747-0.715-2.747-2.351
			C11.149,0.807,12.751,0,14.418,0c1.761,0,3.317,0.67,3.384,2.646h-2.36C15.486,2.34,15.351,2.136,15.146,2
			c-0.204-0.15-0.49-0.206-0.74-0.206c-0.34,0-0.896,0.09-0.896,0.542c0.046,0.58,1.204,0.705,2.351,1.024
			c1.148,0.318,2.284,0.853,2.284,2.339c0,2.113-1.942,2.793-3.749,2.793c-0.918,0-3.542-0.329-3.565-2.918h2.499V5.575z"/>
		<rect x="18.607" y="0.192" fill="#203970" width="2.5" height="8.109"/>
		<polygon fill="#203970" points="30.419,0.192 32.976,0.192 35.335,4.529 35.36,4.529 35.36,0.192 37.722,0.192 37.722,8.299 
			35.291,8.299 32.805,3.872 32.781,3.872 32.781,8.299 30.419,8.299 		"/>
		<path fill="#203970" d="M26.61,8.416L26.306,6.83l-0.964-1.057L25.12,6.805c-0.008,0.046-0.071,0.149-0.093,0.19l-0.741,1.254
			c0.449,0.159,0.949,0.242,1.488,0.242c0.29,0,0.57-0.025,0.836-0.071C26.61,8.42,26.61,8.42,26.61,8.416"/>
		<path fill="#203970" d="M25.774,0c-2.464,0-4.11,1.769-4.11,4.246c0,1.583,0.675,2.878,1.806,3.605l0.715-1.204l0.714-3.177
			l-0.467,0.38l-0.247,1.134c-0.033,0.142-0.165,0.263-0.323,0.249c-0.165-0.013-0.288-0.159-0.276-0.324
			c0.002-0.014,0.004-0.029,0.006-0.042l0.296-1.321c0.016-0.058,0.048-0.106,0.092-0.146l1.345-1.089
			c0.133-0.09,0.294-0.154,0.469-0.138c0.232,0.019,0.419,0.159,0.532,0.332l0.678,1.34l0.92,0.632
			c0.079,0.06,0.125,0.158,0.117,0.266c-0.014,0.167-0.159,0.29-0.326,0.276c-0.049-0.004-0.089-0.023-0.135-0.046l-1.003-0.691
			c-0.032-0.023-0.058-0.056-0.076-0.089l-0.256-0.499l-0.302,1.335l1.186,1.402c0.026,0.044,0.046,0.092,0.054,0.144l0.302,1.592
			c1.484-0.62,2.4-2.074,2.4-3.918C29.885,1.771,28.238,0,25.774,0 M26.608,1.426c-0.027,0.369-0.35,0.643-0.719,0.614
			c-0.368-0.031-0.646-0.353-0.612-0.72c0.028-0.371,0.352-0.643,0.718-0.614C26.364,0.736,26.638,1.056,26.608,1.426"/>
		<polygon fill="#203970" points="40.796,6.346 44.565,2.27 41.012,2.27 41.012,0.192 47.857,0.192 47.857,2.009 44.054,6.223 
			48.04,6.223 48.04,8.299 40.796,8.299 		"/>
		<polygon fill="#203970" points="48.655,0.192 55.365,0.192 55.365,2.27 51.151,2.27 51.151,3.281 54.979,3.281 54.979,5.211 
			51.151,5.211 51.151,6.223 55.49,6.223 55.49,8.299 48.655,8.299 		"/>
		<path fill="#203970" d="M56.116,0.192h4.758c1.419,0,2.646,0.784,2.646,2.316c0,0.843-0.385,1.727-1.214,2.034
			c0.682,0.262,1.103,1.013,1.19,2.022c0.037,0.397,0.046,1.36,0.272,1.736h-2.496c-0.125-0.409-0.171-0.828-0.206-1.248
			c-0.068-0.774-0.136-1.579-1.121-1.579h-1.329v2.825h-2.499V0.192H56.116z M58.615,3.734h1.304c0.467,0,1.104-0.078,1.104-0.803
			c0-0.513-0.286-0.807-1.238-0.807h-1.17V3.734L58.615,3.734z"/>
		<path fill="#203970" d="M69.749,4.035c-0.202,0-0.365,0.163-0.365,0.363c0,0.201,0.163,0.364,0.365,0.364
			c0.203,0,0.365-0.163,0.365-0.364C70.114,4.197,69.952,4.035,69.749,4.035"/>
		<path fill="#203970" d="M65.99,4.035c-0.202,0-0.365,0.163-0.365,0.363c0,0.201,0.163,0.364,0.365,0.364
			c0.201,0,0.363-0.163,0.363-0.364C66.353,4.197,66.191,4.035,65.99,4.035"/>
		<path fill="#203970" d="M67.878,0c-2.464,0-4.111,1.769-4.111,4.248c0,2.474,1.646,4.245,4.111,4.245
			c2.465,0,4.11-1.77,4.11-4.245C71.988,1.769,70.343,0,67.878,0 M70.643,4.234v1.425h-0.439v0.439c0,0.24-0.196,0.435-0.437,0.435
			c-0.239,0-0.436-0.196-0.436-0.437V5.656h-2.9v0.439c0,0.24-0.193,0.435-0.432,0.435c-0.24,0-0.437-0.194-0.437-0.435V5.656
			h-0.441V4.234l0,0c0-0.31,0.207-0.572,0.493-0.647l0.51-1.21c0.074-0.179,0.247-0.304,0.453-0.304h2.608
			c0.203,0,0.376,0.125,0.449,0.304l0.509,1.21C70.436,3.661,70.643,3.924,70.643,4.234L70.643,4.234z"/>
	</g>
</g>
</svg>
