<?xml version="1.0" encoding="utf-8"?>
<!-- Generator: Adobe Illustrator 16.0.0, SVG Export Plug-In . SVG Version: 6.00 Build 0)  -->
<!DOCTYPE svg PUBLIC "-//W3C//DTD SVG 1.1//EN" "http://www.w3.org/Graphics/SVG/1.1/DTD/svg11.dtd">
<svg version="1.1" id="Layer_1" xmlns="http://www.w3.org/2000/svg" xmlns:xlink="http://www.w3.org/1999/xlink" x="0px" y="0px"
	 width="110.548px" height="9.406px" viewBox="0 0 110.548 9.406" enable-background="new 0 0 110.548 9.406" xml:space="preserve">
<g>
	<path fill="#203A70" d="M70.113,2.972c-0.02-0.051-0.068-0.092-0.129-0.092h-2.527c-0.061,0-0.107,0.041-0.127,0.092l-0.438,1.045
		h3.654L70.113,2.972z"/>
	<g>
		<polygon fill="#203A70" points="6.006,0.649 4.701,5.567 4.679,5.567 3.351,0.649 0.836,0.649 0.836,0.673 3.251,8.757 
			6.042,8.757 8.575,0.649 		"/>
		<rect x="8.797" y="0.649" fill="#203A70" width="2.5" height="8.109"/>
		<path fill="#203A70" d="M14.166,6.032c0,0.205,0.035,0.391,0.09,0.533c0.181,0.49,0.729,0.592,1.192,0.592
			c0.409,0,1.034-0.137,1.034-0.738c0-0.422-0.353-0.531-1.75-0.934c-1.281-0.359-2.747-0.715-2.747-2.35
			c0.001-1.871,1.603-2.678,3.27-2.678c1.762,0,3.317,0.67,3.384,2.646H16.28c0.044-0.308-0.091-0.51-0.296-0.646
			c-0.204-0.15-0.49-0.205-0.74-0.205c-0.34,0-0.896,0.09-0.896,0.541c0.047,0.58,1.204,0.705,2.352,1.022
			c1.148,0.318,2.284,0.854,2.284,2.339c0,2.113-1.942,2.793-3.749,2.793c-0.918,0-3.542-0.33-3.565-2.918h2.496V6.032L14.166,6.032
			z"/>
		<rect x="19.444" y="0.649" fill="#203A70" width="2.5" height="8.109"/>
		<polygon fill="#203A70" points="31.255,0.649 33.813,0.649 36.171,4.987 36.197,4.987 36.197,0.649 38.559,0.649 38.559,8.757 
			36.127,8.757 33.642,4.331 33.618,4.331 33.618,8.757 31.255,8.757 		"/>
		<path fill="#203A70" d="M27.447,8.872l-0.304-1.586l-0.965-1.057l-0.222,1.031c-0.008,0.047-0.071,0.148-0.093,0.189l-0.74,1.254
			c0.449,0.16,0.949,0.242,1.488,0.242c0.29,0,0.569-0.023,0.836-0.07C27.447,8.876,27.447,8.876,27.447,8.872"/>
		<path fill="#203A70" d="M26.611,0.458c-2.464,0-4.11,1.77-4.11,4.246c0,1.58,0.675,2.875,1.807,3.604l0.715-1.205l0.714-3.175
			L25.27,4.307l-0.247,1.135c-0.033,0.14-0.165,0.261-0.323,0.247c-0.165-0.012-0.288-0.158-0.276-0.323
			c0.002-0.014,0.004-0.029,0.006-0.041l0.297-1.319c0.016-0.059,0.048-0.107,0.092-0.146l1.345-1.09
			c0.133-0.09,0.294-0.152,0.469-0.137c0.232,0.018,0.419,0.158,0.532,0.332l0.678,1.34l0.92,0.631
			c0.079,0.061,0.125,0.158,0.117,0.268c-0.014,0.167-0.159,0.29-0.326,0.275c-0.049-0.004-0.089-0.022-0.135-0.047l-1.003-0.689
			c-0.032-0.022-0.058-0.057-0.076-0.09l-0.256-0.5l-0.302,1.337l1.186,1.401c0.026,0.043,0.046,0.092,0.055,0.143l0.302,1.592
			c1.483-0.619,2.399-2.074,2.399-3.916C30.721,2.229,29.075,0.458,26.611,0.458 M27.445,1.884
			c-0.027,0.369-0.351,0.643-0.719,0.615c-0.368-0.031-0.646-0.354-0.612-0.721c0.028-0.371,0.352-0.644,0.718-0.613
			C27.201,1.194,27.475,1.515,27.445,1.884"/>
		<polygon fill="#203A70" points="41.631,6.804 45.402,2.728 41.849,2.728 41.849,0.649 48.694,0.649 48.694,2.468 44.891,6.681 
			48.875,6.681 48.875,8.757 41.631,8.757 		"/>
		<polygon fill="#203A70" points="49.493,0.649 56.203,0.649 56.203,2.728 51.988,2.728 51.988,3.739 55.816,3.739 55.816,5.667 
			51.988,5.667 51.988,6.681 56.328,6.681 56.328,8.757 49.493,8.757 		"/>
		<path fill="#203A70" d="M56.953,0.649h4.758c1.42,0,2.646,0.785,2.646,2.316c0,0.844-0.387,1.727-1.215,2.035
			c0.684,0.262,1.104,1.012,1.189,2.02c0.037,0.396,0.047,1.359,0.271,1.734h-2.496c-0.125-0.408-0.172-0.826-0.207-1.248
			c-0.066-0.773-0.135-1.578-1.121-1.578h-1.326v2.824h-2.498L56.953,0.649L56.953,0.649z M59.453,4.192h1.303
			c0.469,0,1.104-0.078,1.104-0.803c0-0.514-0.285-0.807-1.236-0.807h-1.17V4.192L59.453,4.192z"/>
		<path fill="#203A70" d="M70.586,4.493c-0.203,0-0.365,0.164-0.365,0.363c0,0.201,0.162,0.363,0.365,0.363s0.365-0.162,0.365-0.363
			S70.789,4.493,70.586,4.493"/>
		<path fill="#203A70" d="M66.828,4.493c-0.203,0-0.365,0.164-0.365,0.363c0,0.201,0.162,0.363,0.365,0.363
			c0.199,0,0.361-0.162,0.361-0.363S67.027,4.493,66.828,4.493"/>
		<path fill="#203A70" d="M68.715,0.458c-2.465,0-4.111,1.77-4.111,4.248c0,2.475,1.646,4.242,4.111,4.242
			c2.463,0,4.107-1.77,4.107-4.242C72.826,2.228,71.18,0.458,68.715,0.458 M71.48,4.692v1.424h-0.439v0.439
			c0,0.238-0.195,0.436-0.438,0.436c-0.238,0-0.436-0.197-0.436-0.438V6.114h-2.9v0.439c0,0.236-0.191,0.434-0.432,0.434
			c-0.242,0-0.439-0.193-0.439-0.434V6.114h-0.439V4.692l0,0c0-0.311,0.207-0.572,0.494-0.646l0.51-1.211
			c0.074-0.178,0.246-0.303,0.453-0.303h2.605c0.203,0,0.377,0.125,0.449,0.303l0.51,1.211C71.273,4.12,71.48,4.382,71.48,4.692
			L71.48,4.692z"/>
	</g>
</g>
<path fill="none" stroke="#203A70" stroke-width="0.5" d="M84.896,0.628h2.268v8.227h-2.268V0.628z"/>
<path fill="none" stroke="#203A70" stroke-width="0.5" d="M88.254,0.628h6.938v1.718h-4.67v1.438h4.27v1.661h-4.27v1.565h4.791
	v1.844h-7.059V0.628z"/>
<polygon fill="none" stroke="#203A70" stroke-width="0.5" stroke-miterlimit="10" points="81.047,0.688 79.732,5.672 79.711,5.672 
	78.373,0.688 75.838,0.688 75.838,0.711 78.27,8.901 81.084,8.901 83.637,0.688 "/>
<polygon fill="none" stroke="#203A70" stroke-width="0.5" stroke-miterlimit="10" points="107.111,0.628 105.787,5.614 
	105.766,5.614 104.42,0.628 104.084,0.628 101.871,0.628 101.482,0.628 100.156,5.612 100.137,5.612 98.791,0.628 96.242,0.628 
	96.242,0.651 98.688,8.844 101.518,8.844 102.949,4.263 104.316,8.846 107.146,8.846 109.713,0.628 "/>
</svg>
