<?xml version="1.0" encoding="utf-8"?>
<!-- Generator: Adobe Illustrator 15.0.2, SVG Export Plug-In . SVG Version: 6.00 Build 0)  -->
<!DOCTYPE svg PUBLIC "-//W3C//DTD SVG 1.1//EN" "http://www.w3.org/Graphics/SVG/1.1/DTD/svg11.dtd">
<svg version="1.1" id="Layer_1" xmlns="http://www.w3.org/2000/svg" xmlns:xlink="http://www.w3.org/1999/xlink" x="0px" y="0px"
	 width="43.11px" height="14.369px" viewBox="0 0 43.11 14.369" enable-background="new 0 0 43.11 14.369" xml:space="preserve">
<path fill="#FFFFFF" d="M42.212,6.275l0.898-0.887V2.695L40.417,0h-8.983L28.74,2.695V0.898L27.841,0h-3.592l-0.898,0.898v1.797
	L21.554,4.49l-1.795-1.795V0.898L18.861,0h-3.591l-0.898,0.898L13.473,0H9.881L8.982,0.898V4.49L4.491,0H0.899L0,0.898v12.573
	l0.899,0.898h3.592l0.898-0.898V9.879l4.491,4.49h3.592l0.898-0.898V6.286l4.49,4.491v2.694l0.898,0.898h3.592l0.898-0.898v-2.694
	l4.491-4.491v5.388l2.694,2.695h8.982l2.693-2.695V8.98l-0.898-0.899h-4.49V8.98h-3.592V5.388h3.592v0.887L42.212,6.275
	L42.212,6.275z M42.508,1.23c-0.354,0-0.604-0.266-0.604-0.615c0-0.371,0.28-0.615,0.604-0.615c0.323,0,0.602,0.244,0.602,0.615
	C43.111,0.985,42.831,1.23,42.508,1.23 M42.508,0.105c-0.267,0-0.473,0.209-0.473,0.509c0,0.279,0.18,0.507,0.473,0.507
	c0.264,0,0.472-0.207,0.472-0.507S42.772,0.105,42.508,0.105 M42.387,0.966h-0.111V0.285h0.258c0.165,0,0.249,0.057,0.249,0.196
	c0,0.123-0.076,0.174-0.178,0.187l0.189,0.298h-0.126l-0.176-0.29h-0.106L42.387,0.966L42.387,0.966z M42.512,0.58
	c0.083,0,0.158-0.008,0.158-0.106c0-0.083-0.081-0.093-0.148-0.093h-0.135V0.58H42.512z"/>
</svg>
