<?xml version="1.0" encoding="utf-8"?>
<!-- Generator: Adobe Illustrator 16.0.0, SVG Export Plug-In . SVG Version: 6.00 Build 0)  -->
<!DOCTYPE svg PUBLIC "-//W3C//DTD SVG 1.1//EN" "http://www.w3.org/Graphics/SVG/1.1/DTD/svg11.dtd">
<svg version="1.1" id="Layer_1" xmlns="http://www.w3.org/2000/svg" xmlns:xlink="http://www.w3.org/1999/xlink" x="0px" y="0px"
	 width="112.685px" height="31.177px" viewBox="-0.124 10.321 112.685 31.177"
	 enable-background="new -0.124 10.321 112.685 31.177" xml:space="preserve">
<metadata><?xpacket begin="﻿" id="W5M0MpCehiHzreSzNTczkc9d"?>
<x:xmpmeta xmlns:x="adobe:ns:meta/" x:xmptk="Adobe XMP Core 5.3-c011 66.145661, 2012/02/06-14:56:27        ">
   <rdf:RDF xmlns:rdf="http://www.w3.org/1999/02/22-rdf-syntax-ns#">
      <rdf:Description rdf:about=""
            xmlns:dc="http://purl.org/dc/elements/1.1/">
         <dc:format>image/svg+xml</dc:format>
         <dc:title>
            <rdf:Alt>
               <rdf:li xml:lang="x-default">Print</rdf:li>
            </rdf:Alt>
         </dc:title>
      </rdf:Description>
      <rdf:Description rdf:about=""
            xmlns:xmp="http://ns.adobe.com/xap/1.0/"
            xmlns:xmpGImg="http://ns.adobe.com/xap/1.0/g/img/">
         <xmp:MetadataDate>2014-07-24T08:47:08-04:00</xmp:MetadataDate>
         <xmp:ModifyDate>2014-07-24T08:47:08-04:00</xmp:ModifyDate>
         <xmp:CreateDate>2014-07-24T08:47:06-04:00</xmp:CreateDate>
         <xmp:CreatorTool>Adobe Illustrator CS6 (Windows)</xmp:CreatorTool>
         <xmp:Thumbnails>
            <rdf:Alt>
               <rdf:li rdf:parseType="Resource">
                  <xmpGImg:width>256</xmpGImg:width>
                  <xmpGImg:height>56</xmpGImg:height>
                  <xmpGImg:format>JPEG</xmpGImg:format>
                  <xmpGImg:image>/9j/4AAQSkZJRgABAgEASABIAAD/7QAsUGhvdG9zaG9wIDMuMAA4QklNA+0AAAAAABAASAAAAAEA&#xA;AQBIAAAAAQAB/+4ADkFkb2JlAGTAAAAAAf/bAIQABgQEBAUEBgUFBgkGBQYJCwgGBggLDAoKCwoK&#xA;DBAMDAwMDAwQDA4PEA8ODBMTFBQTExwbGxscHx8fHx8fHx8fHwEHBwcNDA0YEBAYGhURFRofHx8f&#xA;Hx8fHx8fHx8fHx8fHx8fHx8fHx8fHx8fHx8fHx8fHx8fHx8fHx8fHx8fHx8f/8AAEQgAOAEAAwER&#xA;AAIRAQMRAf/EAaIAAAAHAQEBAQEAAAAAAAAAAAQFAwIGAQAHCAkKCwEAAgIDAQEBAQEAAAAAAAAA&#xA;AQACAwQFBgcICQoLEAACAQMDAgQCBgcDBAIGAnMBAgMRBAAFIRIxQVEGE2EicYEUMpGhBxWxQiPB&#xA;UtHhMxZi8CRygvElQzRTkqKyY3PCNUQnk6OzNhdUZHTD0uIIJoMJChgZhJRFRqS0VtNVKBry4/PE&#xA;1OT0ZXWFlaW1xdXl9WZ2hpamtsbW5vY3R1dnd4eXp7fH1+f3OEhYaHiImKi4yNjo+Ck5SVlpeYmZ&#xA;qbnJ2en5KjpKWmp6ipqqusra6voRAAICAQIDBQUEBQYECAMDbQEAAhEDBCESMUEFURNhIgZxgZEy&#xA;obHwFMHR4SNCFVJicvEzJDRDghaSUyWiY7LCB3PSNeJEgxdUkwgJChgZJjZFGidkdFU38qOzwygp&#xA;0+PzhJSktMTU5PRldYWVpbXF1eX1RlZmdoaWprbG1ub2R1dnd4eXp7fH1+f3OEhYaHiImKi4yNjo&#xA;+DlJWWl5iZmpucnZ6fkqOkpaanqKmqq6ytrq+v/aAAwDAQACEQMRAD8A9UMyqpZiFUdSdhgMgBZS&#xA;BfJTjvLSRuKTIzeAYE5VHUY5GhIE+9mcUgLIKrlzW7FXYq7FUq1HzJp9lIYt5pl2ZUpQHwJOa7U9&#xA;qYsRr6peTmYdFOYvkEHD5ys2cCaB41P7QIan6sxcfbcCfVEj7W6XZsgNiCntvcQ3ESywuJI26MM3&#xA;GPJGceKJsOvnAxNHmqZNi7FWndERndgqKCWYmgAHUk4CQBZSASaDFNR8/W0UhjsYDOBt6rnip+Qp&#xA;U/hmi1HbkYmoDi83bYeypEXM0hrX8wpeYF1aKUPVomII+hq1+/Kcfbxv1x28myfZAr0y+bLNP1Gz&#xA;1C2FxavzjOxHQqfBh2Ob7BqIZY8UDYdTmwyxyqQROXNTsVdiqH1DULTT7SS7u5BHDGKsx/AAdycq&#xA;z54YoGUjQDZixSySEYjd53qv5larNIV05FtYR9lmAkkPua/CPlTOT1PtBlkf3Y4R8z+p6HB2PjiP&#xA;X6j9iDtvzC8zRSBpJ0uF7pJGgH/CBDmPj7c1MTuRL3gfopun2VgI2FfH9bO/LPmyy1uMoF9G8jFZ&#xA;ICa1H8ynuM6bs/tOGpFcpjp+p0Ws0MsBvnHvT3Nm4LsVdirsVY55y842/l+2VUUTahOCYYT0A6c3&#xA;p2r9+a7tDtAaeO28zyH6XP0GhOc90Q8j1XzFrWqyM99dySKekQPGMfJBRc5PPq8mU3KRP3fJ6nDp&#xA;ceIekfrQUFxcW8glgleGRejxsVYfSMojMxNg0W6URIURbO/KP5lXcM8dlrcnrWzkKl4324yf5z+0&#xA;vv1Gb3QdsSBEcpsd/d73S67sqJHFj2Pc9RBBAINQehzp3m3YqxTUr+S6nbf9ypIjXtTx+nOT1uqO&#xA;Wf8ARHJ3WDCIR80JmG3sh0K+kmRoJTyeMVVj1K+/yzouy9UZgxlzDq9ZhETY6prm2cJ2KpZ5iv3s&#xA;9Nd4zxlkIjRvCtST9wzX9pag4sRI5nZytHiE8lHkN2Cdc496FrFU88qX7w6gLYn9zcVFOwcCoP4U&#xA;zbdkagxy8H8MvvcDtDEJQ4uoZnnVOjdirEfP2pSRww2EZoJqyTe6qaKPv3+jNB25qCIjGOu5dx2V&#xA;hBJmenJhGcw7x2Kp35Q1KSz1mKOv7m6IikXsS2yH6GzZ9lag48wHSW36nB7QwieInrHd6VnZvMux&#xA;V2KvNvzM1OSXUodOU/ubdBI6+Mj+PyXp885D2h1BOQY+kRfxP7HpOxsIEDPqfuYZnPO5diqJ0zUJ&#xA;9Pv4LyE0khcNTxHdT7EbZdp88sUxOPMNWbEMkDE9XuMciyRrIu6uAyn2IrnpMZAiw8QRRpdhQ7FX&#xA;Yq8D80apJqevXt25qrSMkQ8I0PFB9wzg9bmOXLKXn9j22jwjHijHySvMVyXYq7FXtP5c6pLf+V4f&#xA;VYtJau1sWPUhAGX7lYDOz7IzHJgF847PI9qYRDMa/i3ZPmzdcwyeF4ZnicUZCQc4rLjMJGJ5h38J&#xA;CQBCzIMk48uQt6ss9PhC8AfEkg/wzc9j4zxGXSqcDXTFAJ9m/da7FUl8227y6WHUV9Fw7f6pBX+O&#xA;antnGZYbH8Jc/s6YGSu8MKzlXeOxVNPLVu82rwkD4YqyOfAAbfjTNh2XjMs48t3E1sxHEfNnedg8&#xA;+7FWD/mFBILq0uKfu2Qx191Nf+Ns5nt6B44y6VTveyJjhkPNiWc+7d2Kph5ftnuNas40FaSq7f6q&#xA;Hk34DMvQYzPNEDv+7dx9XMRxSPk9Vzu3k3Yq7FXln5j2skXmEzMPguIkZG7fCOBH4ZxPb2Mx1F9J&#xA;Afqep7ImDhruLFs0rtHYquijeWRIoxyd2Coo7kmgGGMTIgDmWMiALL3a2iMNvFETUxoqE/6opnpm&#xA;OPDEDuDw05WSVTJsXYq7FXzxqdvJbaldW8gpJFM6N81YjPPs0DGZB6Evd4ZCUAR1CGypsdirsVeu&#xA;/lTavF5bklYUFxcO6e6qqp/xJTnW9hwrCT3yeW7ZneYDuDM83LqUJfaZbXdGeqyDYOvX6cw9TooZ&#xA;tzse9vw6iUOXJBR+W4Q1XmZl8AAv41OYUOx4g7yJDkS15rYJrDDHDGI41CovQDNtjxxgOGIoOFKR&#xA;kbK/JsXYq06K6MjgMrAhlPQg4JRBFHkkGjYYrqPlGcSM9iweMmoiY0YewJ2Oc5qexpA3j3Hc7fD2&#xA;iKqfNBw+VdYkcB41iXuzMp/4iWzGh2RnJ3FfH9TdLtDEBsbZTpOkW+nQFIzzkfeSU9T/AEGdDo9H&#xA;HBGhuTzLqdRqJZTZ5I7Mxx3Yqg9W0u31Oye1n2B3Rx1Vh0YZj6rTRzQMZN2DPLFLiDz3UfK2s2Uh&#xA;HoNPFX4ZYgXBHuBuPpzkdR2ZmxnlxDvD0eHXYpjnR80NbaHrFzIEis5ST3ZSqj5s1BlOPRZpmhE/&#xA;JsnqscRZkGdeWfLK6UjTTESXkgoxH2UX+Vf4nOo7O7OGAXLeZ+x0Ot1vimh9IT3No4DsVdiqT+Z/&#xA;LsGuWHos3p3ER5W83XiT1B9m75gdo6COphXKQ5FzNFqzgnfQ83lOp6JqmmSmO9t2joaCSlUb/VYb&#xA;HOH1Gky4TUxX3fN6rDqYZRcTaEhgnnkEUEbSyN9lEBZj8gMohCUjURZbZSERZNB6B5L8kz2s6alq&#xA;aBZU3t7Y7lT/ADv7jsM6nsnsiUJDJk59B+kug7R7REhwQ5dSznOldG7FXYq7FXm/5k+Tp5Jm1vT4&#xA;zJUD67Co+IcRT1QO4p9r7/HOc7Y7PJPiwHv/AFu/7K1wA8OXw/U83znHoHYqmnl3y5qGuXy21qhE&#xA;YI9e4I+CNfE+/gO+ZWk0k88uGPLqe5xtVqo4Y3L4Dve6afY29hYwWVuOMMCBEB60Hc+5zuMWIY4i&#xA;I5B43LkM5GR5lEZY1uxVjOpfmR5P07zlp3k25vh/iLU1L21kiO5ChWasjKCqVCEjkd8VZNirsVdi&#xA;rsVS7zB5i0Ly7pU2ra5fRafp1vT1bmduKgnYKO7Meyjc4qxPyh+e35VebtVGk6Hr0c2ouSIbaaKe&#xA;2aWgr+69dIw5oK8R8XtirPcVdirsVed+av8AnIL8pPK+tPoura6q6hA3C6jghnuBCwNCsjQo6hh3&#xA;UHkO4xVm2h67o+vaVb6to15Ff6bdLyguoGDIwBoR7EEUIO4OxxVHYq8xvv8AnJf8krG9uLK58yBL&#xA;m1keGdBZ3zgPGxVgGSBlbcdQaYqznyt5p0LzVoVrr2g3X1zSbzn9WueEkXL0pGif4JVRxR0Ybriq&#xA;a4q7FXk/nD/nJj8u/LOvXeh+jqOs3un8v0i2lQJPFbsn21keSWIVT9rjUA7HfbFWc+SfO/lrzv5e&#xA;i1zy/c/WrCUtG4ZSskci05xSofssKjbwIIqCDiqehYo1JAVF6sQABt44BEDkkkl4xqn/ADlp+V1n&#xA;f3Nva2+q6ra2bhLnVLC2R7RatxrzklibjUbELQ9q4UPVfLHmbRPM+hWmu6Jcrd6ZepzgmWo6Eqys&#xA;poVZWBVgehxVNMVWTzwW8Ek88ixQRKXllchURFFWZmOwAG5JxVIPI/n/AMr+d9LuNU8t3RvLG1uX&#xA;spZjG8Y9aNEdgA4UkcZVNRtiqQeffz4/LTyNqa6VrmpMdTKh5LO2ied4lYVUy8fhSo34k8qb0piq&#xA;K0mx/Lfz9pMXmDRHS5tLkkC6tS0Tc1+0skZA4uO4Za5r8/ZmDIbIo+WznYe0c2MUDY80VB+V/lWK&#xA;QO6TTAfsSSfD/wAIFP45THsXAD1Pxbpdr5yOg+DFNY/5yI/JXyjqj+XjqFJbVzFcixt3lhikBoyu&#xA;6CjMP2uPL33zZ48UYCoig67JklM3I2WdS+ffJ0XlEecH1WAeWjEJxqdSYyhPEAADkX5fDwpy5fDS&#xA;u2TYMU8mf85D/lZ5v1xNE0rU3TUZqi1iuoXgExHaNmHEt4KSCewxVmvmfy/b+YdAvtEuLm4tIL+M&#xA;xSXNm4iuEBINY3KuFO3hir5Wsvy80jyF/wA5WeVdG0u7vL2CaI3klxqEiSzmSWG5VquiRAj4B2ri&#xA;r69xV2KuxV2KvMPzq/KnV/zEuvK1rHeQQ6Bpl8bvXLOYyBriPlGAI+AI5CP1RuR9rFXl354Q+VNU&#xA;/M3yL5X8hWdqPNunagsl5Jp0aRrawxujqkzRBR+74M/HqgHbluq+oMVdiq2RXaNlRuDkEK9K0JGx&#xA;oetMVfPeoeXPI35FeS9QGs6XcedtQ8xS3Dz3jWkZ5KqJ+6uHZn9KLkxbluSSdtsVR3/OKT6b5e/J&#xA;k32qazZpbXmpTXHJ7hFS25xxRLBKzsFSQ+lz4/5WKvVb7z75ZGiatf6Vqlnqc2l2U99Jb2lxFO/C&#xA;CMvUrGzGlRTFXyp+VereYPLf5dz6tP8AlUnmjTxc3N/qWvXwiD8BxVxEkkMsnpxrESzCq15bbHFX&#xA;1H+Vvmryv5p8kafrHlm1Sw0uUOo09ESL6vKrn1Yykfwg86tt1ry74qyvFUu8y6hNpvlzVdRhBaay&#xA;s7i4jUDkS0UTOAF77r0xV8k/84++aPzOs/KOrHyP5Oh1+4ku3uNe1i+mVDMxQcLWIM8TSMq1c/Ed&#xA;36biqr1X8iPPP5Taf+X2q63ZWC+TYre9WPzFZzz3E0Ud04CRuhmZyqv0ACrQilNqlVlmq/mF5N89&#xA;eWfMXlzydrttqOv3ekXy2lvAzBw7wNGrVIFKO674q8f/ACN/Nr8rfKn5O33l7zMVtdXtJLxdU0ea&#xA;F/WvWlYgKF40JKUhIb7PHegxVPv+cKb+5k8h65YS8vStNT5xcui+rAnJR4UKV+nFX0Rirzj83fyc&#xA;0Dz9At3q2p6pZiwtpFW1sJ44oJP92AypJFLyIIxVg/8AzhV/5KzVf+25cf8AUHaYqof8402Nnrnm&#xA;z8yvM+pQR3OpXWqyWgeVQ5SBnkZ4lLfssCqkeCjFUN+Q+r6L5M86fmzpV3dxaZ5X0nU45YHncRwW&#xA;/qXE0CrU7Dl+7QfIYq9l078wfJfmg3OleWfMljd6s9vI0QtZkmkj24+rwU7hGYYq8rTRfIn5F/lF&#xA;qukeZ7u21fUNYNwfRWILPfNIgRI/TZnbhHQVYnivXqd1XkupeW/MWmfk7+XXk/XFltI/M/mN7p7R&#xA;yUdLdzHFGrjqvL1mk4+4rvir1L/nLfRtP0byV5Y8xaRbw2WpeX9Vt4dOkjVU9OH0pJFjUKBsskEZ&#xA;A7UOKvobFXzx5z0LW5v+ctvKmqw6fcyaXDZIs1+kMjW6N6d0KNKBwB+IdT3xV9D4q7FXYq7FXh3/&#xA;ADlJ5685aFoWm6H5WivI59aaX6/qNjE8ksNtFxBSMpTi8hk61BoOu9cVYb+Un5jfl15JS30zRPIf&#xA;mEajfPHDe63d2yNPKzsAWd+XwRg78F2+Z3xV9R4q7FVC/hnnsbiG3lME8sTpFONyjspCuP8AVO+K&#xA;vnDyd+fXmbyJYaj5Y/NLR9Y1HzFaTyGzvIYVmS6ibZV5sYxx5fZdeQKnxG6qJ/I78mDrfkbzGvnn&#xA;R5NP0rzLqaahZaHzkt3hSHmUailHRSZOKg0JCg9KYq9A0v8AJLy55H03W778ubZtO80XdhLb2U88&#xA;z3EfqbSRqyzl0oZEWppirzix/wCckvMNj5Pu/Lvm7yxq0/5hBJrZIUswkFw8pYQsVXiVABAPBDyp&#xA;UddlXon/ADjf5E1jyZ+V9np+soYNSvJ5b+4tW+1D63FUjb/K4RqWHYmnbFXqGKqN7aQ3lnPZzgmG&#xA;5jeGUDY8ZFKtT6Dir5g/LrzJ59/JKz1nyXqnkrU9ehF3Ld6PqemxO8M/NVjAZ1VwFYRq3d1rQrir&#xA;LfyH/KG8fyf5huPzD0pDL5uv1v59FnXiESNmkjZ0BBRjJIx4H7IArvUYq9H0n8qPJHlx7q+8p6Ra&#xA;6NrUttLbwX8SElDINiQxYEBlU0p2xV4RF50896X+kbXzZ+Vja5+ZUcrrpPmW30qB42LDjFJ68cNW&#xA;EbVIZG3Gx474q9b/AOcePy31HyH+Xsdjq1BrWpXD6hqKBg/pvIqosRYdSqRjl25VpXrir03FUNqa&#xA;PJpt3GgLO8Miqo6klSABirx3/nEvyv5i8t/lzqNjr+m3Gl3kmsTTx291G0TtE1rbKHCtT4SyMK+2&#xA;KsYsj57/ACZ/MHzc9l5R1DzR5V8z3AvtOk01GkMMzOzem4jSTh8Uxj+Ib8VIriqf/kn+U9/eaJ5s&#xA;1n8xtKT6755vlvLvR7gE+nDFK1xEHFeSH1ZCeHYKtfAKs9svy48jeSob/X/K3lqCHWLezn9FLVX9&#xA;Wai8xCu7H94yAbDFXzl5KTz3Y+Z7zzh52/LHW/Nvmm4m9S1uZw629qg3VYYHikAKn7NTRRTiB1Kr&#xA;0b80dG87fmp+V9trNn5butA80+X9TF3Y6PeMDNNHEg5FOaxAk8gygjfhTqcVY95ruvzH/PC88t+V&#xA;7ryZf+WdFsLyO+8xX2oRyRx80Qoyw+okfL4JHCruSWFaAVxV/9k=</xmpGImg:image>
               </rdf:li>
            </rdf:Alt>
         </xmp:Thumbnails>
      </rdf:Description>
      <rdf:Description rdf:about=""
            xmlns:xmpMM="http://ns.adobe.com/xap/1.0/mm/"
            xmlns:stRef="http://ns.adobe.com/xap/1.0/sType/ResourceRef#"
            xmlns:stEvt="http://ns.adobe.com/xap/1.0/sType/ResourceEvent#">
         <xmpMM:InstanceID>xmp.iid:9BD0B0153013E411BEDAD1AAF8E34EA0</xmpMM:InstanceID>
         <xmpMM:DocumentID>xmp.did:9BD0B0153013E411BEDAD1AAF8E34EA0</xmpMM:DocumentID>
         <xmpMM:OriginalDocumentID>uuid:5D20892493BFDB11914A8590D31508C8</xmpMM:OriginalDocumentID>
         <xmpMM:RenditionClass>proof:pdf</xmpMM:RenditionClass>
         <xmpMM:DerivedFrom rdf:parseType="Resource">
            <stRef:instanceID>xmp.iid:CF8F8012FB05E41194BDE5B108BC4427</stRef:instanceID>
            <stRef:documentID>xmp.did:CF8F8012FB05E41194BDE5B108BC4427</stRef:documentID>
            <stRef:originalDocumentID>uuid:5D20892493BFDB11914A8590D31508C8</stRef:originalDocumentID>
            <stRef:renditionClass>proof:pdf</stRef:renditionClass>
         </xmpMM:DerivedFrom>
         <xmpMM:History>
            <rdf:Seq>
               <rdf:li rdf:parseType="Resource">
                  <stEvt:action>saved</stEvt:action>
                  <stEvt:instanceID>xmp.iid:CF8F8012FB05E41194BDE5B108BC4427</stEvt:instanceID>
                  <stEvt:when>2014-07-08T14:35:54-04:00</stEvt:when>
                  <stEvt:softwareAgent>Adobe Illustrator CS6 (Windows)</stEvt:softwareAgent>
                  <stEvt:changed>/</stEvt:changed>
               </rdf:li>
               <rdf:li rdf:parseType="Resource">
                  <stEvt:action>saved</stEvt:action>
                  <stEvt:instanceID>xmp.iid:9BD0B0153013E411BEDAD1AAF8E34EA0</stEvt:instanceID>
                  <stEvt:when>2014-07-24T08:47:08-04:00</stEvt:when>
                  <stEvt:softwareAgent>Adobe Illustrator CS6 (Windows)</stEvt:softwareAgent>
                  <stEvt:changed>/</stEvt:changed>
               </rdf:li>
            </rdf:Seq>
         </xmpMM:History>
      </rdf:Description>
      <rdf:Description rdf:about=""
            xmlns:illustrator="http://ns.adobe.com/illustrator/1.0/">
         <illustrator:StartupProfile>Print</illustrator:StartupProfile>
      </rdf:Description>
      <rdf:Description rdf:about=""
            xmlns:xmpTPg="http://ns.adobe.com/xap/1.0/t/pg/"
            xmlns:stDim="http://ns.adobe.com/xap/1.0/sType/Dimensions#"
            xmlns:xmpG="http://ns.adobe.com/xap/1.0/g/">
         <xmpTPg:HasVisibleOverprint>False</xmpTPg:HasVisibleOverprint>
         <xmpTPg:HasVisibleTransparency>False</xmpTPg:HasVisibleTransparency>
         <xmpTPg:NPages>1</xmpTPg:NPages>
         <xmpTPg:MaxPageSize rdf:parseType="Resource">
            <stDim:w>112.685059</stDim:w>
            <stDim:h>31.176758</stDim:h>
            <stDim:unit>Points</stDim:unit>
         </xmpTPg:MaxPageSize>
         <xmpTPg:PlateNames>
            <rdf:Seq>
               <rdf:li>Cyan</rdf:li>
               <rdf:li>Magenta</rdf:li>
               <rdf:li>Yellow</rdf:li>
               <rdf:li>Black</rdf:li>
            </rdf:Seq>
         </xmpTPg:PlateNames>
         <xmpTPg:SwatchGroups>
            <rdf:Seq>
               <rdf:li rdf:parseType="Resource">
                  <xmpG:groupName>Default Swatch Group</xmpG:groupName>
                  <xmpG:groupType>0</xmpG:groupType>
               </rdf:li>
            </rdf:Seq>
         </xmpTPg:SwatchGroups>
      </rdf:Description>
      <rdf:Description rdf:about=""
            xmlns:pdf="http://ns.adobe.com/pdf/1.3/">
         <pdf:Producer>Adobe PDF library 10.01</pdf:Producer>
      </rdf:Description>
   </rdf:RDF>
</x:xmpmeta>
                                                                                                    
                                                                                                    
                                                                                                    
                                                                                                    
                                                                                                    
                                                                                                    
                                                                                                    
                                                                                                    
                                                                                                    
                                                                                                    
                                                                                                    
                                                                                                    
                                                                                                    
                                                                                                    
                                                                                                    
                                                                                                    
                                                                                                    
                                                                                                    
                                                                                                    
                                                                                                    
                           
<?xpacket end="w"?>
	</metadata>
<path fill="#FFD27F" d="M1.035,18.622c0,2.483,2.015,4.499,4.5,4.499c2.485,0,4.5-2.018,4.5-4.499c0-2.488-2.015-4.501-4.5-4.501
	C3.05,14.121,1.035,16.135,1.035,18.622z"/>
<circle fill="#F9BC60" cx="25.933" cy="18.521" r="5.5"/>
<path fill="#F3A747" d="M40.45,18.621c0,3.313,2.686,6,5.999,6c3.314,0,6.001-2.688,6.001-6c0-3.312-2.687-6-6.001-6
	C43.135,12.621,40.45,15.309,40.45,18.621z"/>
<path fill="#EC9425" d="M64.249,18.525c0,3.584,2.91,6.496,6.498,6.496c3.592,0,6.502-2.91,6.502-6.496
	c0-3.594-2.91-6.503-6.502-6.503C67.159,12.02,64.249,14.932,64.249,18.525z"/>
<path fill="#E08026" d="M91.006,18.627c0,4.139,3.359,7.494,7.498,7.494c4.146,0,7.502-3.357,7.502-7.494
	c0-4.148-3.356-7.506-7.502-7.506C94.366,11.121,91.006,14.479,91.006,18.627z"/>
<g>
	<path d="M3.943,28.718c1.029,0.013,2.006-0.342,2.188-1.241h0.997v7.502H5.786v-5.295H3.943V28.718z"/>
</g>
<g>
	<path d="M28.455,35.076h-5.052c0.011-1.217,0.635-2.137,1.627-2.801c0.963-0.697,2.208-1.277,2.23-2.433
		c0.01-0.528-0.212-1.311-1.247-1.311c-0.951,0-1.237,0.813-1.269,1.85H23.54c0-1.639,0.897-2.854,2.546-2.854
		c1.809,0,2.378,1.318,2.378,2.271c0,1.174-0.803,1.9-1.648,2.494c-0.855,0.592-1.753,1.047-1.965,1.699h3.604V35.076L28.455,35.076
		z"/>
</g>
<g>
	<path d="M40.927,30.691c0.805,0.031,1.641-0.254,1.641-1.164c0-0.623-0.486-1.047-1.152-1.047c-0.834,0-1.248,0.752-1.228,1.515
		h-1.206c0.063-1.438,0.963-2.519,2.454-2.519c1.152,0,2.338,0.666,2.338,1.979c0,0.738-0.338,1.332-1.048,1.586v0.021
		c0.835,0.168,1.343,0.896,1.343,1.853c0,1.396-1.206,2.265-2.623,2.265c-1.712,0-2.569-1.037-2.603-2.58h1.206
		c-0.031,0.897,0.454,1.573,1.396,1.573c0.806,0,1.417-0.478,1.417-1.319c0-1.15-0.983-1.302-1.936-1.259L40.927,30.691
		L40.927,30.691z"/>
	<path d="M44.911,31.58h3.077v1.143h-3.077V31.58z"/>
	<path d="M49.805,27.623h3.827v1.08h-2.93l-0.381,1.881l0.021,0.021c0.326-0.359,0.865-0.563,1.363-0.563
		c1.471,0,2.315,1.06,2.315,2.478c0,1.186-0.738,2.651-2.56,2.651c-1.428,0-2.538-0.771-2.591-2.252h1.206
		c0.073,0.795,0.583,1.248,1.363,1.248c1.026,0,1.375-0.729,1.375-1.629c0-0.813-0.436-1.543-1.405-1.543
		c-0.508,0-1.006,0.157-1.195,0.676H49.01L49.805,27.623z"/>
</g>
<g>
	<path d="M66.909,29.175c-0.057-0.614-0.467-1.036-1.104-1.036c-1.34,0-1.49,1.601-1.563,2.594l0.021,0.021
		c0.336-0.592,0.963-0.896,1.633-0.896c1.502,0,2.39,1.092,2.39,2.537c0,1.473-1.007,2.584-2.521,2.584
		c-2.228,0-2.757-1.752-2.757-3.953c0-1.806,0.715-3.911,2.854-3.911c1.199,0,2.217,0.831,2.279,2.063L66.909,29.175L66.909,29.175z
		 M67.049,32.375c0-0.813-0.44-1.545-1.325-1.545c-0.896,0-1.362,0.713-1.362,1.545c0,0.816,0.467,1.576,1.362,1.576
		C66.605,33.951,67.049,33.184,67.049,32.375z"/>
	<path d="M69.174,31.305h3.146v1.166h-3.146V31.305z"/>
	<path d="M74.586,32.914c0.056,0.617,0.463,1.039,1.104,1.039c1.34,0,1.49-1.6,1.563-2.594l-0.021-0.021
		c-0.321,0.584-0.938,0.908-1.633,0.908c-1.429,0-2.39-1.006-2.39-2.553c0-1.469,0.951-2.58,2.604-2.58
		c2.14,0,2.668,1.75,2.668,3.951c0,1.807-0.713,3.91-2.854,3.91c-1.195,0-2.215-0.832-2.277-2.063h1.23V32.91h0.006V32.914z
		 M74.443,29.684c0,0.819,0.423,1.59,1.318,1.59c0.915,0,1.37-0.758,1.37-1.59c0-0.812-0.452-1.545-1.37-1.545
		C74.866,28.139,74.443,28.863,74.443,29.684z"/>
</g>
<g>
	<path d="M85.579,28.71c0.988,0.011,1.928-0.332,2.104-1.196h0.959v7.223h-1.289v-5.098h-1.771L85.579,28.71L85.579,28.71z"/>
	<path d="M96.131,31.125c0,1.643-0.422,3.758-2.493,3.758c-2.074,0-2.498-2.115-2.498-3.758c0-1.645,0.424-3.758,2.498-3.758
		C95.709,27.367,96.131,29.482,96.131,31.125z M94.956,31.125c0-1.508-0.289-2.775-1.317-2.775c-1.033,0-1.322,1.271-1.322,2.775
		s0.289,2.773,1.322,2.773C94.667,33.9,94.956,32.63,94.956,31.125z"/>
	<path d="M97.006,31.371h3.002v1.113h-3.002V31.371z"/>
	<path d="M105.848,34.736h-4.934c0.008-1.188,0.617-2.086,1.588-2.735c0.938-0.681,2.156-1.248,2.182-2.373
		c0.008-0.517-0.207-1.278-1.221-1.278c-0.93,0-1.207,0.795-1.236,1.811h-1.18c0-1.604,0.879-2.785,2.486-2.785
		c1.766,0,2.319,1.291,2.319,2.219c0,1.146-0.782,1.856-1.606,2.438c-0.838,0.575-1.713,1.021-1.918,1.659h3.52V34.736z"/>
	<path d="M111.611,31.125c0,1.643-0.424,3.758-2.498,3.758c-2.071,0-2.495-2.115-2.495-3.758c0-1.645,0.424-3.758,2.495-3.758
		C111.188,27.367,111.611,29.482,111.611,31.125z M110.438,31.125c0-1.508-0.289-2.775-1.32-2.775s-1.32,1.271-1.32,2.775
		s0.289,2.773,1.32,2.773C110.146,33.9,110.438,32.63,110.438,31.125z"/>
</g>
</svg>
