<?xml version="1.0" encoding="utf-8"?>
<!-- Generator: Adobe Illustrator 16.0.0, SVG Export Plug-In . SVG Version: 6.00 Build 0)  -->
<!DOCTYPE svg PUBLIC "-//W3C//DTD SVG 1.1//EN" "http://www.w3.org/Graphics/SVG/1.1/DTD/svg11.dtd">
<svg version="1.1" id="Layer_1" xmlns="http://www.w3.org/2000/svg" xmlns:xlink="http://www.w3.org/1999/xlink" x="0px" y="0px"
	 width="108.131px" height="25.459px" viewBox="0.467 10.729 108.131 25.459" enable-background="new 0.467 10.729 108.131 25.459"
	 xml:space="preserve">
<metadata><?xpacket begin="﻿" id="W5M0MpCehiHzreSzNTczkc9d"?>
<x:xmpmeta xmlns:x="adobe:ns:meta/" x:xmptk="Adobe XMP Core 5.3-c011 66.145661, 2012/02/06-14:56:27        ">
   <rdf:RDF xmlns:rdf="http://www.w3.org/1999/02/22-rdf-syntax-ns#">
      <rdf:Description rdf:about=""
            xmlns:dc="http://purl.org/dc/elements/1.1/">
         <dc:format>image/svg+xml</dc:format>
         <dc:title>
            <rdf:Alt>
               <rdf:li xml:lang="x-default">Print</rdf:li>
            </rdf:Alt>
         </dc:title>
      </rdf:Description>
      <rdf:Description rdf:about=""
            xmlns:xmp="http://ns.adobe.com/xap/1.0/"
            xmlns:xmpGImg="http://ns.adobe.com/xap/1.0/g/img/">
         <xmp:MetadataDate>2014-07-24T08:47:08-04:00</xmp:MetadataDate>
         <xmp:ModifyDate>2014-07-24T08:47:08-04:00</xmp:ModifyDate>
         <xmp:CreateDate>2014-07-24T08:47:06-04:00</xmp:CreateDate>
         <xmp:CreatorTool>Adobe Illustrator CS6 (Windows)</xmp:CreatorTool>
         <xmp:Thumbnails>
            <rdf:Alt>
               <rdf:li rdf:parseType="Resource">
                  <xmpGImg:width>256</xmpGImg:width>
                  <xmpGImg:height>60</xmpGImg:height>
                  <xmpGImg:format>JPEG</xmpGImg:format>
                  <xmpGImg:image>/9j/4AAQSkZJRgABAgEASABIAAD/7QAsUGhvdG9zaG9wIDMuMAA4QklNA+0AAAAAABAASAAAAAEA&#xA;AQBIAAAAAQAB/+4ADkFkb2JlAGTAAAAAAf/bAIQABgQEBAUEBgUFBgkGBQYJCwgGBggLDAoKCwoK&#xA;DBAMDAwMDAwQDA4PEA8ODBMTFBQTExwbGxscHx8fHx8fHx8fHwEHBwcNDA0YEBAYGhURFRofHx8f&#xA;Hx8fHx8fHx8fHx8fHx8fHx8fHx8fHx8fHx8fHx8fHx8fHx8fHx8fHx8fHx8f/8AAEQgAPAEAAwER&#xA;AAIRAQMRAf/EAaIAAAAHAQEBAQEAAAAAAAAAAAQFAwIGAQAHCAkKCwEAAgIDAQEBAQEAAAAAAAAA&#xA;AQACAwQFBgcICQoLEAACAQMDAgQCBgcDBAIGAnMBAgMRBAAFIRIxQVEGE2EicYEUMpGhBxWxQiPB&#xA;UtHhMxZi8CRygvElQzRTkqKyY3PCNUQnk6OzNhdUZHTD0uIIJoMJChgZhJRFRqS0VtNVKBry4/PE&#xA;1OT0ZXWFlaW1xdXl9WZ2hpamtsbW5vY3R1dnd4eXp7fH1+f3OEhYaHiImKi4yNjo+Ck5SVlpeYmZ&#xA;qbnJ2en5KjpKWmp6ipqqusra6voRAAICAQIDBQUEBQYECAMDbQEAAhEDBCESMUEFURNhIgZxgZEy&#xA;obHwFMHR4SNCFVJicvEzJDRDghaSUyWiY7LCB3PSNeJEgxdUkwgJChgZJjZFGidkdFU38qOzwygp&#xA;0+PzhJSktMTU5PRldYWVpbXF1eX1RlZmdoaWprbG1ub2R1dnd4eXp7fH1+f3OEhYaHiImKi4yNjo&#xA;+DlJWWl5iZmpucnZ6fkqOkpaanqKmqq6ytrq+v/aAAwDAQACEQMRAD8A9UkgCpNAOpxJpVNLq2du&#xA;KSozfyhgTlUc8CaEgT72ZxyG5BVMtYOxV2KuxVB6hq9jYKPXf4zusa7sfo/rmLqdbjw/Ud+7q34d&#xA;NPJyCVDznZ8t7eTj41Wv3VzXfy5jv6S5f8mS7wnFhqVnfRl7d+VPtIdmX5jNnp9VDMLiXCy4JYzU&#xA;gicyGp2KuxVKta8yafpQCykyXDCqwJ1p4nwGYOs7Qx4NjvLucvTaOeXlsO9jrfmHc86rZIE8C5J+&#xA;+g/VmnPb8r2gK97sR2RGvqTnRvOGn6jIsEgNtctsqOQVY+Cttv8AMZsdJ2tjzHhPpl+Orhans+eM&#xA;WPVFPs2rgOxV2KuxVJPMvmux0SIKw9a8kFY7dTTb+Zj2Ga3tDtOGmG+8z0/W5uj0Msx7o97BLr8w&#xA;/MszlopY7Za7JHGrbfOQPnM5O3dTI7ER9w/XbvYdk4QNwT8f1IrTPzK1eGQC/RLqH9ogCOQe4p8P&#xA;4Zdp/aDLE+sCQ+R/U1Zux8ZHo9J+YehaZqllqdml3Zyc4m2PZlI6qw7EZ1en1MM0OOBsPP5sMscu&#xA;GQ3RWXtTsVdirsVYp5187xaEgtbVVm1KReQVvsxqejPTuewzVdo9pDAOGO8z9js+z+zzm9Utofe8&#xA;o1PXdX1OQvfXck9TXgWog/1UFFH0DOVzanJlNzkS9Ni0+PGKiAELb3NzbSCW3leGQdHjYqw+kUyq&#xA;E5RNg0WyUBIURbPfKH5lXKTpZa5J6kDnil6R8aE9PUp1X36jN9oO2JA8OXcd/wCt0mu7JBHFj593&#xA;6np4IIqOmdM86xfVNRkupmUNSBTRFHQ07nOV12rllkR/CHc6fAIDzQOYLkJ9oWoSS8raVuTKOUbH&#xA;rTuM3/ZerMvRLeuTrdZgA9QTjNy4DsVUby4W2tZbhtxEhaniQNhlWfL4cDLuDPHDikI97zq4uJbi&#xA;d5pW5SOasc4fJklORlLmXpoQERQ5KeQZImwvZrK6S4iO6n4l7MvdTl2nzyxTEg15sQnExL0WN1kj&#xA;V1NVcBlPsd87mMgRY6vMkUabwoQ+o3a2djPdMK+ijOB4kDYfScp1GXw4GXcGzDj45iPeXk1zcTXM&#xA;8k8zF5ZCWdj4nOCyZDORlLmXroQEQAOQU8gycCQajYjocKvT/K+pvqOkRyynlNGTFK3iy03+lSM7&#xA;bs3UnNhBPMbF5bXYBjyEDkd02zPcR2KrJpkhhkmkNEjUux9lFTkZyEQSeQTGJJAHV4fqeoT6hfTX&#xA;k5rJMxangOyj2A2zzfUZ5ZZmcuZe3w4hjgIjohspbXYqyr8u9VktdbFmW/0e8BUr2DqCyt+FPpzd&#xA;9hakwzcH8M/vdV2tgEsXF1i9SztXl3Yq7FVk8yQwyTSGiRqXc+yipwSkACT0TGJJoPnvU9Qn1HUL&#xA;i+nNZbhy7e1egHsBsM8/zZTkmZHmXusOIY4CI5BDZU2OxV2KvaPy41WTUPLMQlblLZubdmPUqoBT&#xA;/hWA+jOz7IznJgF847PI9q4RDMa5S3QcsbRSNG4oyEg/RnOTgYyMTzDnxkCLC3IpTLy/EzX3MfZR&#xA;TU/PYDNn2TAnLfcHE1sqhXeyTOldS7FUFrULzaVcxoKsUJAHfj8VPwzE10DLDIDub9LIRyRJ73nu&#xA;cU9I7FWwCSABUnoMQFek2kTRWsMTfajjVT8wAM7zDHhgAegDy+SVyJ81XLGCW+ZYXm0K9RBVvT5U&#xA;9kIY/qzC7RgZYJgd33OVopAZYk97yzOGeqdirsVeg+QoHTRnkbYSzMyfIALX7wc63sOBGEnvk892&#xA;rIHKB3Bkmbl1jsVQ+owvPp9zCn25YnRfmykDKs8DLHKI6gtmKXDME9CHhZBBIIoR1GeaPcOxS7FU&#xA;88lW8k3mayCDaNjIx8Aqk/2ZsuyIGWphXTdwe0ZAYJPYM755B2KuxVC6rC8+mXkEYq8sEiIPdkIG&#xA;VZ4mUJAdQWzDIRmCehD55zz57t2KuxV2KvWfylhddAuZGFFkuW4e/FFBOdX2FEjET/S/QHmO2pA5&#xA;QP6LKNQ0iG7b1AfTm7tSoPzGZer7PjlNjaTgYNSYbcwl6eW5+XxzKF8QCT/DNfHsed7yFOUddHoE&#xA;5tLOG1i9OIe7MepPvm50+njijwxcDLlMzZVsva3Yq7FWK6z5Wl9Vp7BQyNu0FaEH/Jr29s53Xdky&#xA;vix8u79Tt9NrxVT+aTDR9VLcfqktfdCB9/TNUNFmuuCXyc78zj/nBP8AQvLLwSrdXtOabxwjeh8W&#xA;Ptm67P7KMJCeTmOQ/W67V64SHDD5skzeurdiriARQ7g9Rirz3zF5SurOZ7iyjM1mxqFWpaP2I8Pf&#xA;OS7Q7LnjkZQFw+56LR6+MxUjUvvY5mndkm+i+WtQ1OVTwaK1/bnYUFP8mv2jmfo+zsmY8qj3/qcT&#xA;U62GId8u56Ta20NrbR28K8YolCoPYZ2eLGIREY8g8zOZlIyPMquTYOxV2KvN/O3k65hupNS0+IyW&#xA;0pLzxIKmNjuxAH7J6+2ch2v2VKMjkxi4nmO79j0fZvaETEQmakOXmwvOed0vggmnlWGFGklc0REB&#xA;LE+wGShAyNRFljKQiLOwepeSfKr6RA9zdgfX5xQqN/TTrxr4nvnadkdmnBEyn9cvsDy/aWu8Y8Mf&#xA;pH2snzdOsdirsVdirxv8wPKs2k6nJeQITp12xdGA2jdt2Q+G/wBn2+Wcd2roTimZD6JfZ5PWdmaw&#xA;ZYcJ+uP2+bE81Ts3Yqi9K0q91W+jsrOPnNIfoUd2Y9gMuwYJZZCMeZas2aOOJlLk940XSoNJ0u30&#xA;+DdIFoW6FmO7MfmxrndafAMUBAdHi9RmOWZmeqNy5pQF/r+hadeWdlqGpWtne6ixj0+1uJo4pbhw&#xA;QCsKOwaQguuyg9RiqPxV2KuxV2KuxVKv8WeVf0j+jP0zY/pLn6f1L6zD6/P+X0+XPl7UxVNcVdir&#xA;sVQ2o6npumWcl7qV3DY2cW8tzcyJFEo/yncqo+/FUPovmTy7rsLT6JqlnqkCGjy2U8VwgPgWiZgM&#xA;VRzW8DPzaNS/8xUE/fkDCJN0GQmaq0Jquu6JpEccmrahbafHKSsT3U0cCswFSFMhWpybFC2HnLyh&#xA;qN3HZ6frmn3l5LX0ra3uoZZG4qWbiiMWNFBJ9sVTjFXYqp3Nzb2tvLc3MqQW8KmSaaRgiIiirMzN&#xA;QAAdScVYVo/54flNrGrppGneZrObUJWKRREvGrvWnFJJFWNiewDb9sVZVdaBol25kuLGGSQ9XKDk&#xA;fmRvmLk0WGZuUIk+5vhqssRQkWnTQdCspryQW2m2cCl7m5fhDGqDqzueIA+ZyzFp8eP6IiPuDDJm&#xA;nP6iSxTSPz0/KTV9Vj0nT/M9pLfzP6cMbc41d68QqSSKiMWOygNv2y5rZ3irsVdiqncXFvbW8tzc&#xA;ypBbwI0k00jBEREHJmZmoAoAqScVQtlfaHr+lLc2NzbarpV2GVLiCRLi3kCsUbi6FkajKQaHqMjO&#xA;AkKIsMoyMTY2LzDzvY/lRoWora6j5nttBvZqMtlPKkhUN0bgSHRT4saZps3YeORuJMftdvh7ayRF&#xA;SAl9ia6V+Vek3cMN4ms/XrGdVkhmtVQJIjCoZJA8qkEdCMqh2BG/VMn4V+tsn25Kto18b/UzjRtA&#xA;0nRoDDp8AiDf3kh+J3I/mY75uNPpceEVAU6nPqZ5TcjaYZkNCX+YrbWbrQr+30S8XT9XlgdLC+dF&#xA;lWGYiiSFGDKwU9iMVfI/mDyz560H/nIryGnnLzD/AIi1C8urSeK4AKJFH9ZKemkdFVBVSaKAN8Vf&#xA;ZGKuxV2KuxVhf5xr5zk/LjWLfyZDJN5huo0t7UQuscipLIqzOjOVAYRFqGtQdxirwbzr+Qf5f+Uf&#xA;yA/TOsQPZedYbWCeS9edjIdQmKk2ojDmFlUsU+Feg5V6nFXu/wCSmpa1qf5UeWL7Wmd9Rmsk9SSS&#xA;vN0UlYpGJ3JeIKxJ61rirNsVdirxn83Pyq1fzv5+0W+8wXcMX5Y6HbPcanaG4eKR5lWR3dgqgBaC&#xA;NS3KoXlSlcVea+ULPylF/wA5KaOv5PM7eX4rRv8AErW7TSWQWkgcc5CeSn93x3K86U3xV9YYq+Yf&#xA;+crNY8u3H5h+RdA8xyOugWyy6hqscIdpZIppAiooj+Lk/wBWZFIp9rriqP8AyTi/5xpuvPdtL5Rt&#xA;L7TPNlkszWVtqUk6M4eFo5eCtJJGxEUjfCTypuBtXFX0firsVfP3/OY/mK5s/JuieX47g2lrrt/T&#xA;UJxWn1e2AYqwWpK85EegH7OKvP8AXtc/5xv1vTNI8vyeXNV8p6asqDTPOMdlDC0wQcS8s1WklR61&#xA;LFWIO9Bir6506Iw6fbQm4a7McSIbpyC8vFQPUYrQEv1NMVeEf85nXWoxflxpcETOmm3OqxpqLR9S&#xA;qxSPGrLtUcl5bnqoxVJf+chfJH5PaV+SVpqOgWdhaXam1/w7e2oRZ7pXdfU5yCjzj0SzkvXffFXt&#xA;v5T67da9+WnlnVrtzJd3WnwG5lbq8qoEkc/6zKTirLMVdirwr/nI/wAjeftU0HXdatPN8lh5YsrB&#xA;ppvLscRAmMKEyK8qOhZZP5WBHtiqe/8AOMcyQfkF5dnevCJdQdqdaLf3JNMVec/846/l/wCWvzH0&#xA;bzR5287afHq+p6zqU1urXFW9KNY0djCa/AazcQRuoUUpirIf+cTr69soPOnkieZ5oPKurNFamWvJ&#xA;UleWNlpQUHO2LU8ScVTr83/zz/LGy8ueb/KcmuGLzL+jr6xSzFteVF1LbOsaCVYvS3Zh8XOg8cVY&#xA;D/zjv+e/5a+Vfy3h0nzTrzWurLdXEjRPb3lweDsCh5xRSr/w2KvqHFXzV+d//rTf5Z/9Gn/UbJir&#xA;6VxV2KuxV2Ksa/Mfz1p3kXybqPma/jaaOyVRFbIaNLNIwSKMHenJmFTTYVOKvmXyzrXkz8wtXt/O&#xA;H5x+dLQxwyF9L8mxOy20ChtvWADD4qbr9phTm37OKvq/QNX0XWNHtdR0SeO50qdP9Emg2jKISnwi&#xA;g2BWmKphirsVePeefzkPln81rXyZ5stbO38k63ZErqs6vQmRGRo5WLGPhzXi1V2DCu2+KvMPMzfl&#xA;9b/n/wDl+v5SNbi9kulXzANEZWtDaGVC4/dExf7ziYycf2aV3xV6D5h/5xz8y6tr+p6rD+ZOs2MW&#xA;oXc91HYwmX04FmkaQRJS4UcUDcRsMVa8y+fPJPlH839B0Xzf5ftknSwhGn+frt1LjijJRg0R9P8A&#xA;eclLer8PLkdjirEvzB1jy75w/wCcjvy+Pki6g1HULCVJda1KwZZYjbRSiUo0yEo3GESA0O3IDrti&#xA;r6dxV2Kvn3/nMny1e3/kvRtdgt2urfQ70m/iWu0FyoBdiBsvONVJ7csVY9/zkB+cP5Z+cfyqtNC8&#xA;szjUdX1C4tTp+nQwOJbUxsKqyFRxan7pVWta7VG+Ks31X/nHK0826N5Wn1/WtS07VdJ0Gw0q6gsp&#xA;Y/TMlshLuxZXJbnIwrXtiqh518r6J+VP5J32myaPc+e9ClvRJqdvfXIgkiimUD1vVjicgRyRoBxA&#xA;I5VrtirxHzpo/wCQCeUI4fy8W61jzn5ia3gsLCRpZ5LLm6tKoQoi+oaekK8m3qvjir6//Lvy3J5Z&#xA;8iaDoEtDcadYwQXBBqDMqD1SD4cyaYqyLFXYqwr86/8AyUfm/wD7ZV1/yaOKsd/5xhijm/ITy5FI&#xA;OUci36Ou4qG1C4BG2KvLvyT/ADM8vfk9beavIfnuWawvNM1CW7sW9GST6yjxpGEi4AgcxEroWopD&#xA;dcVZh/zifo2pPpHmjzrf27Wp83am1zbRuCC0MbSOHFeqmS4dQfbFWX/mn+VXkrU/KfmvU4fLFpee&#xA;ZZ9NvZba5jtlku5Lv6s/pFCoLtJzC8ab1xVg/wDzjx+TXlqb8t4X86eT4Rrn1q4DjVbLhc+nyHCo&#xA;mVX406Yq+gcVYj5j/wCVXf4w0f8AxB+jP8W/B+hPrXp/XP7w+n6HL4v7ytKd8VZdirsVdirsVYv+&#xA;Y/8AgD/DL/47+rf4f9WPn9c5el6tf3f2d616Yq8o/wCsNv8AtR/8lcVex+Sf8J/4WsP8I+j/AId4&#xA;N+j/AKtX0uPqNy4V3+3yxVPMVdirDfzR/wCVV/oSP/lYv6P/AEbzP1b6/Tn6lPi9Cn73lx6+nvTF&#xA;Um/KT/lQ3Of/AJVv+jPrfE/WPq9frnp135ev/pHp8qf5OKvS8VYb+Z//ACqz9Cxf8rE/R/6N5n6r&#xA;+kOPL1KfF6H+7OVOvp70xVK/yj/5Udwuv+Va/o31uI+ufVq/W/TqKep637/0+XSvw1xV6NirsVUr&#xA;v6r9Vm+uen9U9NvrHrU9P06Hnz5fDx49a4q8/wDKn/Qv/wDiP/nVv8Nf4gqfT+ofU/rFf2vS9Pf5&#xA;8MVei4qpXf1X6rN9c9P6p6bfWPWp6fp0PPny+Hjx61xVgnk7/lRP6fk/wh/hz9PfFX9G/U/rNKHn&#xA;w9L4uP8ANw28cVegYq7FXYqo3v1L6nN9e9P6nwP1j1+PpcKfFz5fDx8a4qp6V+ivqEX6K9D6h8Xo&#xA;/VeHo/aPLj6fw/arWnfFUn8z/wDKvPrNv/in9EfWqf6J+k/q3qca/wC6/X3pXwxVkEPpekno8fS4&#xA;j0+FOPGm3Gm1KYquxV2Kv//Z</xmpGImg:image>
               </rdf:li>
            </rdf:Alt>
         </xmp:Thumbnails>
      </rdf:Description>
      <rdf:Description rdf:about=""
            xmlns:xmpMM="http://ns.adobe.com/xap/1.0/mm/"
            xmlns:stRef="http://ns.adobe.com/xap/1.0/sType/ResourceRef#"
            xmlns:stEvt="http://ns.adobe.com/xap/1.0/sType/ResourceEvent#">
         <xmpMM:InstanceID>xmp.iid:9BD0B0153013E411BEDAD1AAF8E34EA0</xmpMM:InstanceID>
         <xmpMM:DocumentID>xmp.did:9BD0B0153013E411BEDAD1AAF8E34EA0</xmpMM:DocumentID>
         <xmpMM:OriginalDocumentID>uuid:5D20892493BFDB11914A8590D31508C8</xmpMM:OriginalDocumentID>
         <xmpMM:RenditionClass>proof:pdf</xmpMM:RenditionClass>
         <xmpMM:DerivedFrom rdf:parseType="Resource">
            <stRef:instanceID>xmp.iid:CF8F8012FB05E41194BDE5B108BC4427</stRef:instanceID>
            <stRef:documentID>xmp.did:CF8F8012FB05E41194BDE5B108BC4427</stRef:documentID>
            <stRef:originalDocumentID>uuid:5D20892493BFDB11914A8590D31508C8</stRef:originalDocumentID>
            <stRef:renditionClass>proof:pdf</stRef:renditionClass>
         </xmpMM:DerivedFrom>
         <xmpMM:History>
            <rdf:Seq>
               <rdf:li rdf:parseType="Resource">
                  <stEvt:action>saved</stEvt:action>
                  <stEvt:instanceID>xmp.iid:CF8F8012FB05E41194BDE5B108BC4427</stEvt:instanceID>
                  <stEvt:when>2014-07-08T14:35:54-04:00</stEvt:when>
                  <stEvt:softwareAgent>Adobe Illustrator CS6 (Windows)</stEvt:softwareAgent>
                  <stEvt:changed>/</stEvt:changed>
               </rdf:li>
               <rdf:li rdf:parseType="Resource">
                  <stEvt:action>saved</stEvt:action>
                  <stEvt:instanceID>xmp.iid:9BD0B0153013E411BEDAD1AAF8E34EA0</stEvt:instanceID>
                  <stEvt:when>2014-07-24T08:47:08-04:00</stEvt:when>
                  <stEvt:softwareAgent>Adobe Illustrator CS6 (Windows)</stEvt:softwareAgent>
                  <stEvt:changed>/</stEvt:changed>
               </rdf:li>
            </rdf:Seq>
         </xmpMM:History>
      </rdf:Description>
      <rdf:Description rdf:about=""
            xmlns:illustrator="http://ns.adobe.com/illustrator/1.0/">
         <illustrator:StartupProfile>Print</illustrator:StartupProfile>
      </rdf:Description>
      <rdf:Description rdf:about=""
            xmlns:xmpTPg="http://ns.adobe.com/xap/1.0/t/pg/"
            xmlns:stDim="http://ns.adobe.com/xap/1.0/sType/Dimensions#"
            xmlns:xmpG="http://ns.adobe.com/xap/1.0/g/">
         <xmpTPg:HasVisibleOverprint>False</xmpTPg:HasVisibleOverprint>
         <xmpTPg:HasVisibleTransparency>False</xmpTPg:HasVisibleTransparency>
         <xmpTPg:NPages>1</xmpTPg:NPages>
         <xmpTPg:MaxPageSize rdf:parseType="Resource">
            <stDim:w>108.131348</stDim:w>
            <stDim:h>25.459473</stDim:h>
            <stDim:unit>Pixels</stDim:unit>
         </xmpTPg:MaxPageSize>
         <xmpTPg:PlateNames>
            <rdf:Seq>
               <rdf:li>Cyan</rdf:li>
               <rdf:li>Magenta</rdf:li>
               <rdf:li>Yellow</rdf:li>
               <rdf:li>Black</rdf:li>
            </rdf:Seq>
         </xmpTPg:PlateNames>
         <xmpTPg:SwatchGroups>
            <rdf:Seq>
               <rdf:li rdf:parseType="Resource">
                  <xmpG:groupName>Default Swatch Group</xmpG:groupName>
                  <xmpG:groupType>0</xmpG:groupType>
               </rdf:li>
            </rdf:Seq>
         </xmpTPg:SwatchGroups>
      </rdf:Description>
      <rdf:Description rdf:about=""
            xmlns:pdf="http://ns.adobe.com/pdf/1.3/">
         <pdf:Producer>Adobe PDF library 10.01</pdf:Producer>
      </rdf:Description>
   </rdf:RDF>
</x:xmpmeta>
                                                                                                    
                                                                                                    
                                                                                                    
                                                                                                    
                                                                                                    
                                                                                                    
                                                                                                    
                                                                                                    
                                                                                                    
                                                                                                    
                                                                                                    
                                                                                                    
                                                                                                    
                                                                                                    
                                                                                                    
                                                                                                    
                                                                                                    
                                                                                                    
                                                                                                    
                                                                                                    
                           
<?xpacket end="w"?>
	</metadata>
<path fill="#FFD27F" d="M1.035,18.622c0,2.483,2.015,4.5,4.5,4.5s4.5-2.019,4.5-4.5c0-2.488-2.015-4.5-4.5-4.5
	S1.035,16.135,1.035,18.622z"/>
<circle fill="#F9BC60" cx="25.933" cy="18.521" r="5.5"/>
<path fill="#F3A747" d="M40.45,18.622c0,3.313,2.687,6,5.999,6c3.314,0,6.001-2.688,6.001-6c0-3.313-2.687-6-6.001-6
	S40.45,15.309,40.45,18.622z"/>
<path fill="#EC9425" d="M64.249,18.525c0,3.584,2.91,6.496,6.498,6.496c3.592,0,6.502-2.91,6.502-6.496
	c0-3.594-2.91-6.503-6.502-6.503C67.159,12.02,64.249,14.932,64.249,18.525z"/>
<path fill="#E08026" d="M91.006,18.627c0,4.139,3.359,7.494,7.498,7.494c4.146,0,7.502-3.357,7.502-7.494
	c0-4.148-3.355-7.506-7.502-7.506C94.366,11.121,91.006,14.479,91.006,18.627z"/>
<g>
	<path d="M3.943,28.717c1.029,0.014,2.006-0.342,2.188-1.24h0.997v7.502H5.786v-5.295H3.943V28.717z"/>
</g>
<g>
	<path d="M28.455,35.077h-5.052c0.011-1.218,0.635-2.138,1.627-2.802c0.963-0.696,2.208-1.276,2.229-2.433
		c0.011-0.528-0.212-1.311-1.246-1.311c-0.951,0-1.237,0.813-1.27,1.85H23.54c0-1.639,0.897-2.854,2.546-2.854
		c1.81,0,2.378,1.318,2.378,2.271c0,1.175-0.803,1.9-1.647,2.494c-0.855,0.592-1.753,1.047-1.965,1.699h3.604V35.077L28.455,35.077z
		"/>
</g>
<g>
	<path d="M40.927,30.691c0.806,0.031,1.642-0.254,1.642-1.164c0-0.623-0.486-1.047-1.152-1.047c-0.834,0-1.248,0.752-1.228,1.515
		h-1.206c0.063-1.438,0.963-2.519,2.454-2.519c1.151,0,2.338,0.666,2.338,1.979c0,0.737-0.338,1.332-1.048,1.586v0.021
		c0.835,0.168,1.343,0.896,1.343,1.853c0,1.396-1.206,2.266-2.623,2.266c-1.712,0-2.569-1.037-2.604-2.58h1.206
		c-0.03,0.896,0.454,1.572,1.396,1.572c0.806,0,1.417-0.478,1.417-1.318c0-1.15-0.983-1.303-1.937-1.259L40.927,30.691
		L40.927,30.691z"/>
	<path d="M44.911,31.581h3.077v1.143h-3.077V31.581z"/>
	<path d="M49.805,27.624h3.826v1.08h-2.93l-0.381,1.881l0.021,0.021c0.326-0.358,0.865-0.563,1.363-0.563
		c1.471,0,2.315,1.061,2.315,2.479c0,1.186-0.738,2.65-2.561,2.65c-1.428,0-2.538-0.771-2.591-2.252h1.206
		c0.073,0.795,0.583,1.248,1.363,1.248c1.025,0,1.375-0.729,1.375-1.629c0-0.813-0.437-1.543-1.405-1.543
		c-0.508,0-1.006,0.157-1.195,0.676H49.01L49.805,27.624z"/>
</g>
<g>
	<path d="M66.909,29.174c-0.057-0.613-0.467-1.035-1.104-1.035c-1.341,0-1.49,1.602-1.563,2.594l0.021,0.021
		c0.336-0.592,0.963-0.896,1.633-0.896c1.502,0,2.39,1.092,2.39,2.537c0,1.473-1.007,2.584-2.521,2.584
		c-2.229,0-2.758-1.752-2.758-3.953c0-1.806,0.716-3.91,2.854-3.91c1.199,0,2.217,0.83,2.279,2.063L66.909,29.174L66.909,29.174z
		 M67.049,32.375c0-0.813-0.439-1.545-1.324-1.545c-0.896,0-1.362,0.713-1.362,1.545c0,0.815,0.467,1.576,1.362,1.576
		C66.605,33.952,67.049,33.184,67.049,32.375z"/>
	<path d="M69.174,31.305h3.146v1.166h-3.146V31.305z"/>
	<path d="M74.586,32.915c0.057,0.617,0.463,1.039,1.104,1.039c1.34,0,1.49-1.601,1.563-2.595l-0.021-0.021
		c-0.321,0.584-0.938,0.908-1.633,0.908c-1.43,0-2.391-1.006-2.391-2.554c0-1.469,0.951-2.58,2.604-2.58
		c2.14,0,2.668,1.75,2.668,3.951c0,1.808-0.713,3.91-2.854,3.91c-1.194,0-2.215-0.832-2.276-2.063h1.229l0,0h0.006V32.915
		L74.586,32.915z M74.443,29.684c0,0.818,0.423,1.59,1.318,1.59c0.914,0,1.369-0.758,1.369-1.59c0-0.813-0.451-1.545-1.369-1.545
		C74.866,28.139,74.443,28.863,74.443,29.684z"/>
</g>
<g>
	<path d="M89.014,28.627c0.988,0.012,1.928-0.332,2.104-1.195h0.959v7.223h-1.289v-5.098h-1.771L89.014,28.627L89.014,28.627z"/>
	<path d="M99.566,31.043c0,1.643-0.422,3.758-2.492,3.758c-2.074,0-2.498-2.115-2.498-3.758c0-1.646,0.424-3.758,2.498-3.758
		C99.144,27.286,99.566,29.4,99.566,31.043z M98.391,31.043c0-1.508-0.289-2.775-1.316-2.775c-1.033,0-1.322,1.271-1.322,2.775
		s0.289,2.772,1.322,2.772C98.102,33.818,98.391,32.547,98.391,31.043z"/>
	<g>
		<path d="M105.61,28.014v2.388h2.387v1.283h-2.387v2.387h-1.283v-2.387h-2.387v-1.283h2.387v-2.388H105.61z"/>
	</g>
</g>
</svg>
