<?xml version="1.0" encoding="utf-8"?>
<!-- Generator: Adobe Illustrator 16.0.0, SVG Export Plug-In . SVG Version: 6.00 Build 0)  -->
<!DOCTYPE svg PUBLIC "-//W3C//DTD SVG 1.1//EN" "http://www.w3.org/Graphics/SVG/1.1/DTD/svg11.dtd">
<svg version="1.1" id="Layer_1" xmlns="http://www.w3.org/2000/svg" xmlns:xlink="http://www.w3.org/1999/xlink" x="0px" y="0px"
	 width="128.5px" height="197.16px" viewBox="0 0 128.5 197.16" enable-background="new 0 0 128.5 197.16" xml:space="preserve">
<metadata><?xpacket begin="﻿" id="W5M0MpCehiHzreSzNTczkc9d"?>
<x:xmpmeta xmlns:x="adobe:ns:meta/" x:xmptk="Adobe XMP Core 5.3-c011 66.145661, 2012/02/06-14:56:27        ">
   <rdf:RDF xmlns:rdf="http://www.w3.org/1999/02/22-rdf-syntax-ns#">
      <rdf:Description rdf:about=""
            xmlns:dc="http://purl.org/dc/elements/1.1/">
         <dc:format>image/svg+xml</dc:format>
         <dc:title>
            <rdf:Alt>
               <rdf:li xml:lang="x-default">Print</rdf:li>
            </rdf:Alt>
         </dc:title>
      </rdf:Description>
      <rdf:Description rdf:about=""
            xmlns:xmp="http://ns.adobe.com/xap/1.0/"
            xmlns:xmpGImg="http://ns.adobe.com/xap/1.0/g/img/">
         <xmp:MetadataDate>2014-07-08T14:35:54-04:00</xmp:MetadataDate>
         <xmp:ModifyDate>2014-07-08T14:35:54-04:00</xmp:ModifyDate>
         <xmp:CreateDate>2014-07-08T14:35:52-04:00</xmp:CreateDate>
         <xmp:CreatorTool>Adobe Illustrator CS6 (Windows)</xmp:CreatorTool>
         <xmp:Thumbnails>
            <rdf:Alt>
               <rdf:li rdf:parseType="Resource">
                  <xmpGImg:width>144</xmpGImg:width>
                  <xmpGImg:height>256</xmpGImg:height>
                  <xmpGImg:format>JPEG</xmpGImg:format>
                  <xmpGImg:image>/9j/4AAQSkZJRgABAgEASABIAAD/7QAsUGhvdG9zaG9wIDMuMAA4QklNA+0AAAAAABAASAAAAAEA&#xA;AQBIAAAAAQAB/+4ADkFkb2JlAGTAAAAAAf/bAIQABgQEBAUEBgUFBgkGBQYJCwgGBggLDAoKCwoK&#xA;DBAMDAwMDAwQDA4PEA8ODBMTFBQTExwbGxscHx8fHx8fHx8fHwEHBwcNDA0YEBAYGhURFRofHx8f&#xA;Hx8fHx8fHx8fHx8fHx8fHx8fHx8fHx8fHx8fHx8fHx8fHx8fHx8fHx8fHx8f/8AAEQgBAACQAwER&#xA;AAIRAQMRAf/EAaIAAAAHAQEBAQEAAAAAAAAAAAQFAwIGAQAHCAkKCwEAAgIDAQEBAQEAAAAAAAAA&#xA;AQACAwQFBgcICQoLEAACAQMDAgQCBgcDBAIGAnMBAgMRBAAFIRIxQVEGE2EicYEUMpGhBxWxQiPB&#xA;UtHhMxZi8CRygvElQzRTkqKyY3PCNUQnk6OzNhdUZHTD0uIIJoMJChgZhJRFRqS0VtNVKBry4/PE&#xA;1OT0ZXWFlaW1xdXl9WZ2hpamtsbW5vY3R1dnd4eXp7fH1+f3OEhYaHiImKi4yNjo+Ck5SVlpeYmZ&#xA;qbnJ2en5KjpKWmp6ipqqusra6voRAAICAQIDBQUEBQYECAMDbQEAAhEDBCESMUEFURNhIgZxgZEy&#xA;obHwFMHR4SNCFVJicvEzJDRDghaSUyWiY7LCB3PSNeJEgxdUkwgJChgZJjZFGidkdFU38qOzwygp&#xA;0+PzhJSktMTU5PRldYWVpbXF1eX1RlZmdoaWprbG1ub2R1dnd4eXp7fH1+f3OEhYaHiImKi4yNjo&#xA;+DlJWWl5iZmpucnZ6fkqOkpaanqKmqq6ytrq+v/aAAwDAQACEQMRAD8Aj3/OEv8Ayn+u/wDbKP8A&#xA;1ExYq+sE87eTJNSuNLTXtOfU7QSG7sVu4DPEIf7wyRB+acP2qjbviqS2X50/lRe6iunWvmvTpLt2&#xA;9ONPXUKzVoArmiNU9KHftirX5zeW9K8y/lrrGi6rrUHl6wu/q3raxdcDDD6d1FKvL1JIF+NkCCrj&#xA;c/RiqB/KHR/LHkb8rra1g8z2WsaJYvcSv5gR4obWjzMzVcSzRrwZuJ/eYqzXRte0LXLQ3ui6ja6p&#xA;ZhzGbmymjuIuagErziZl5Co2riqHvvN/lPT9Wg0e/wBbsLTV7ooLbTp7qGO5kMrcIwkLsHbm2y0G&#xA;5xV2peb/ACnpepQaXqet2Fjqd0ENtY3N1DDPKJHKIY4nZXbk6lRQbnbFUqvPzF8gXGsTeUx5gs/0&#xA;5MskBskkEkiOEYuG47BkCklSQRirAP8AnG/8uPKvkv8AxF+gfOlj5v8Ar/1P6z9REI+rej6/Dn6V&#xA;xdf3nqNStPsnr2VeoeZvO3lHytAk/mLV7XS0l2hFzKqM9OvBPtNTvQYqoeV/zD8j+ankj8u63aan&#xA;LCOUsMEqmVV6cjGaPx96UxVONS1TTNLspb/U7uGxsoBymurmRYokHizuQoxVh8H55flDPdC1j826&#xA;b6rNxBaYIlf+MjUT6a4qzhHSRFkjYOjgMjqagg7ggjFW8VdirsVfGv8AzhL/AMp/rv8A2yj/ANRM&#xA;WKpGfJaedf8AnKDXfLU91JaWF9qt+dQeE8Xe3hLTPGO3xmMDfp13pirNf+clPyE/Lzyj5Bh8weV7&#xA;J9Ou7a6iguUM886TRzAipEzycWVgCONB126UVTzzNql9qn/OE63l9KZ7k2llE0rbsVg1WKFKnueE&#xA;Yqe+KoXyb/6xbqv/ABgvv+oxsVZV/wA4bf8Ako5v+2rc/wDJqHFWAfnh/wCtX+R/+M+if91BsVSj&#xA;/nMP69/yuXQPqDMl/wDom0+qNGeLib69demVI6HlSmKvWvJP/OMPlDydb2uvz3d3e+aLCGWaa69Q&#xA;LbmaSB0dVj414fGaVbl3r2xV5/8A84T3kVjY+f72avo2sWnTSU3PGNbxjT6BirCPId/5C/Mfz5rX&#xA;mz839dS2twUNlpbzSRrIHZisSunxrDAi0opUkmtetVV35tWv5XeUdW0bzX+TvmFIb63n4zWFvPLM&#xA;0TBSyzI03JyjUKSKzEGoHQnFWTf85VeYPMHmXyZ5A8wpHJF5e1SzN3PClfSS+mjjbjJ7hCwjJ/yq&#xA;d8VUovL/APziT5r8rrY6LqT+VPMjonpXmqSXXJJBSvr+o5s2Dd+DL9GKvof8kvJeo+TfI0Oi3OvR&#xA;eYbNJXl0u9hXiiW0gBESnnIGUPyYGvenbFWfYq7FXYq+Nf8AnCX/AJT/AF3/ALZR/wComLFUX+XX&#xA;/rZOr/8AMdq//JqXFXqv/OXv/km7n/mOtP8AiRxVhWp/+sOJ/wAYLf8A7rSYqivy70271L/nDnU7&#xA;O0Qy3D2upOka7s3pXDyEKO5ITYYqlf8Azij+bvkXy75J1Hy/5j1WHSruG+kvIGuCUSWGWKNTxbcF&#xA;1eNvh60IpXfFWF+cPP2k+d/+cn/K+raOzS6VBqukWdncMpT1lhu0LSBWAPEyO3Gu9PuxVPv+cqf/&#xA;ACfvlH/mB07/ALqNxir611b/AI5V7/xgl/4gcVfKv/OFunxalpf5hadKeMV7BYW8jUBosqXqE0Ox&#xA;2OKsN/J+1/Lbyp5z1/yl+b2kwLcJIsdpe3aSGOGWEsGUld+E6srI9ONB74qy78y/NX/OPuj3enaX&#xA;5E8n6X5s1a8l4SpCJjEtTxjRGQ/vJJHOwWv4jFWb/m5+aWpfllovlfQ7rydYXXl2/wBPijvbR+Ul&#xA;tDNFT1rWNWDIyopHDn1xVinn7Tv+cRdY8oXmr6Zd22l6tJbvJZJp7TR3AnCckjayNYxVqKfgH+sO&#xA;uKp//wA4USa63kzXFuzKdHS8jGliSvphyhNwIq9q8CabV964q+jcVdirsVYn5P8Ayp/L7ybfTX3l&#xA;rR49Nu7iL0JpUkmctHyDcaSO4+0oOKrrD8rfIOn+bJfN1npEcPmKd5ZZdQDylmecESHiXKfEGP7O&#xA;Kpn5p8peXfNektpHmCyW/wBOZ1la3dnUF0NVNUZW2+eKvB/+clvNPkTyd+WVx+VWmW0lreXlta3G&#xA;m2kas0EcAv8A1WLSuxO7W77b9RirOf8AnF7Tb2w/JTQUu4mhknNzcRowIb0pbh2jah/nWjD2IxVG&#xA;ax/zjh+TGram+pXfluNbmVzJMLea4t4nY7msUMiRjff4QMVTdvya/LA6rpmqr5etor7RvRGmSRGS&#xA;JYfq0hli4xxsqfDIS267nrXFUT5l/K3yF5m1u11zXdIjvtVskjitbp3lVkSKRpUACOq7O7HcYqyi&#xA;WJJYnikHKORSrr4gihGKsc8mflv5I8lfXP8AC+lR6Z9f9P656byv6no8/Tr6jvTj6jdPHFVDzr+V&#xA;P5e+dij+ZtFhvriJeMd0C8NwFG4X1oWjkKg/slqYqg/Jn5J/lh5NvBfaDoUMGoKKLezNJczLUUJR&#xA;52k9Oo2PCmKsn1/y5oPmLTJNL1ywg1HT5aF7e4QOvIdGFfssK7MNxirz2H/nF/8AI+G7+sr5bDEU&#xA;KxPd3jxg+PBpiD8jtir0rTdN07TLGGw021isrG3Xhb2sCLHEi9aKigAYqicVdirsVdirsVdiqUat&#xA;5O8o6xfRahq+h6fqN/Aojgu7u1hnmRFJYKskisygMxNAe+KpuAFAAFANgB0AxV2KuxV2KuxV2Kux&#xA;V2KuxV2KuxV2KuxV2KvHvMv/ADkp5TsvPmkeStDibVtUutYj0fVnYSW8dozXAtpKF0/eurn9n4TT&#xA;7WKvYcVdirsVdirsVdirsVdirsVdirsVULy8htIvUk77Ko6k5RqNRHFHik2YsRmaCXReY4mkCyQl&#xA;EP7YblT6KDNbDtiJNSjQcuWhIGxThWDAMpqCKgjwzcA2LDgEU7CrsVdirwr/AJyK/wCU/wDyf/8A&#xA;Aji/6ibXFXuuKuxV2KuxV2KuxV2KuxV2KuxV2KpL5kjkKwyDdF5A+xNKfqzSdsQNRPTd2GgkNx1S&#xA;PNE7Fl9hG8dlCj7OqCo8PbOw0sDHFEHnTo80gZkhXzIanYq7FUm17yb5Z1++0q+1ixW7u9EuBd6V&#xA;KzOphnVlYOAjKD8Uan4q9MVTnFXYq7FXYq7FXYq7FXYq7FXYq7FWnRHUq4DKdip3BwSiJCjySCRu&#xA;FCLTrGJ+aQqHG4PWnyrmPDR4omxEW2SzzIolEZktTsVdirsVeUeavz7TTfMeqaJ5d8r6j5pfy+qt&#xA;r91ZcVitagsUBIYu6hT8O24I7HFWd+SPOWjec/K9j5j0Zmaxv0LKsg4yI6MUeN1BNGR1IO9O42xV&#xA;PMVdirsVdirsVdirsVdirsVdiqT6/rx04LDCoa5ccvi6KvSvvmr7R7Q8Cox3kfsc3SaTxNz9KQw+&#xA;a9XSTlI6yp3QqAPoKgHNPDtfODZII9zsZdn4yNtmXWF7Fe2kdzFsrjdT1BGxGdNp84ywEx1dLmxG&#xA;EjEojLmt2KuxV4b5k8yQaf5k8w+Sfyi0FbvznrMjXPmbV2ZxZWUtxUtNPI5YGQcyQi7A9mIK4q9G&#xA;/KzyFD5D8jab5YjuDdvZq7T3JHEPNM5kkKr2Xk1FHhirLMVdirsVdirsVdirsVdirsVdirDfN8Ei&#xA;aisxH7uRAFbtVdiM5btnGRlEuhDvOzpgwrqCkWahz2ceVoJYdJUyCnqMZFB/lNAPvpXOt7JxmOEX&#xA;1Nuh18wcm3RN82bhOxV2KvJtR/5xj/LLUNWv9VnOpLealcSXV28d7IgaWVy7Gg/ymOKs+8m+UNJ8&#xA;o6BBoWkmY2NuzvGbiQzSVkcu1Xbc7tiqd4q7FXYq7FXYq7FXYq7FXYq7FVK5tLe6iMVxGJIzvQ+P&#xA;iD2yvLhjkjwyFhnDJKBuJooCHyzo8Ugk9EuQahXYlfu7/TmFDsrBE3V+9yJa7KRVpp02GbFxHYq7&#xA;FXYqw/zN+b35aeV9VXSNd8wWtlqRClrZizsgenH1PTVxHUGvx0236YqyuzvLS9tYbuzmS4tbhFkg&#xA;niYPG6MKqystQQR0IxVKvNPnTyr5UtIbzzHqUOmW1xJ6MMs5IDScS3EUB7DFUP5U/MPyV5tkuY/L&#xA;er2+qPaBWuVgJJQSEhSagdeJxVkWKuxV2KuxV2KuxV2KuxVj3mfzSNLYW1sqyXbDkxb7KA9KgdSc&#xA;1HaXafgemO8/udjotD4vqltFjkHnnXElDSNHKld4ygG3sVoc08O2s4NmiPc7KXZeIjawzjSNUt9T&#xA;skuodgfhdD1Vh1U50+l1Mc0BOLotRgOKXCUZmQ0uxV2KvDvPvkOPy1oHm3VPKPlpvPGr+bZrl9Zn&#xA;vJ7aRrNXVmAhjEavIkbN8MSfF032GKoL8r/zh/LHyF+Tvk611XWZpFuoLn05DbSuwlS4Zp4mVA/E&#xA;RPNwWp3WhGKu/M9PMf5k6j+XvmDyNosXmHy3bvdXkjagVgs2kZhDH9ZjlpIVjMTMQEJI2HXFU9/K&#xA;DzRfQeedf8ieYfLej6H5n0+3jvfregw+jaXdoWVQ1GHqfAZlpU9zspG6r2HFXYq7FXYq7FXYq7FX&#xA;Yq8x82JKvmC79TqzKynxUqKZxPagI1Er/Gz1GgIOGNJRmvcxnX5epKLK6c/3TSKE+YX4v1jOo7Bi&#xA;eCR6W6LtcjiiOtMrzfOodirsVeKzfk5+Zugaxr7fl95rtdK0PzJdSXt1aXdsZJbWeYUke2ccqnwr&#xA;SlB4VxVnX5b/AJZaL5I8m2HlqKmofVObzXc8a8pJpW5SOF+LgtdgtdgBuTviqTfmN+WHmDV9d0bz&#xA;T5M1pNC8w6JHJBFFNF6tlPDLWqSRj7P223Cnr4gHFW/y1/K/W9D8yav5z826vHrPm7Woo7aWW3i9&#xA;G2t7aPjSGFepqUWpIHTpWpKr0jFXYq7FXYq7FXYq7FXYqlWu+XbPV0UyExXCCiTKKmngR3GYGt7P&#xA;hqBvtIdXL0uslhO247khg/Lw+r+/vKxA9ESjEfMnb8c1cOwN/VLb3OfLtfbaO7LbOzt7O2S2t04R&#xA;Riir+sn3Ob/FijjiIxFAOoyZJTkZS5lWyxg7FXYq7FXYq7FXYq7FXYq7FXYq7FXYq7FXYql2s+YN&#xA;M0eESXslGf8Au4lHJ2p4D+JzE1eux6cXM/Dq5Gn0s8xqISKD8zNDklCSQzwoT/eFVIHzCsT92ayH&#xA;tDgJoiQc6XY2UDYgsqt7iC5gSeBxJDIOSOpqCM3ePJGcRKJsF1c4GJo7FUybF2KuxV4Brn5p/mN5&#xA;j8zeY4PJ+s6N5d0Pyzctp8E2qlPU1O/iB9WGNpTxVQy0qu9CDU1+FV7D5E1XzJqvlPTr7zLpo0nX&#xA;ZYyL+xVlZFkVivJCrSDi4AdRyNAaYqwf80fPXnePzz5f/L3yS1rZaxrUE17c6veoZY4LeEPskYrV&#xA;z6bdQew71Crf5V+fPOc/nTzF+X3nd7W617Qo4bu21OyQxx3NrMFPJ02CsvqJ0A6kdqlV6rirsVdi&#xA;rsVdirsVdirsVeMeaL+a9169llJPCVooweyRkqo/DPPO0cxyZ5E99fAPZaLEIYogd1/NKswnLZ/+&#xA;V99MwvLFiTCgWWMH9kkkNT57Z1Hs5mkeKB5c3QdtYh6ZdeTPc6h0LsVdir5D0PSPye0TzT+Z9l+a&#xA;cMaasL64n01bgSc3s52eVHsgP92vyU1G9KduWKs3/KXy7+dOrfk/5VbSPNv+GhClyFS5sYb2Sa1a&#xA;b/RTW4BKKqhuFOqFe1MVWfmtZWej6t5Dbzh5lvdM85xrcxQ/mHaW0EdmN2Yw3MAKqAVkCigp8RLb&#xA;VxVD/wDOPOiG+/N/zj5vs9WufMOlR2iaZ/iK6UJ9dupDDLM0agABI/q/FQOi8fHFX0hirsVdirsV&#xA;dirsVdirsVeXeefLN3Z6jNqEEbSWNwxkd1FfTdt2DU6Cu4OcX2x2fPHkOSIuEt/cer0/ZusjOAgT&#xA;6h9rFo45JHWONS7saKigkk+wGaSMSTQ5u1JAFl6l5D8u3GlWUs92vC6uuNYz1RFrQH3NanO17F0E&#xA;sEDKf1S+wPL9p6sZZAR+mLKM3Tq3Yq7FUv1Ly75f1SaKfU9MtL6aD+5luYI5mTevws6sV38MVTAA&#xA;AUGwHQYqhtQ0zTdStWtNRtIb21cgtb3EayxkjcEo4ZdsVX2VjZWNtHaWVvHa2sQpFBCixxqPBVUA&#xA;DFVbFXYq7FXYq7FXYq7FXYq7FVOO2to3LxxIjnqyqAT9IyEccQbADIzJ2JVMmxdirsVdirsVdirs&#xA;VdirsVdirsVdirsVdirsVdiry3zn+Yl+95LYaPKYLaFiklyn25GGx4t+yoPQjrnL9odrTMjDGaA6&#xA;970mg7LiIiWQWT0Ypb+Z/MVvN60WpXPOtTylZwT7qxIP05qoa3NE2Jy+bs5aPFIUYx+T1PyL5yOv&#xA;W8kF0FTUbcAuF2WRDtzA7b7EZ1PZnaHjgiX1j7Xmu0dD4JBj9BZVm0da7FXYq+dP+clPM35y6IbO&#xA;a1vLXSfKE+q21ra3GnTTx6nM7xtJxncEBY/3T7IRXatcVZj/AM5BeY/MFvbeV/KWgX0ml3/nDVYt&#xA;Pl1GElZYbaqiZo2FCrfvF3BBpUDriqSeWYdb/Ln88NM8kjXdR1zy35p02We2XVp/rM0F5aq7uVeg&#xA;opSE9AAeXfiMVegfml+Z2h+R/Lt/czX9nFri2ctzpWm3UnFrl4x8KqgKswLbbYqrflr+Y+g+dfL1&#xA;hd2l/aXGrmxtbnV7G0kDm1nniDPGy1Zl4vyX4t9sVZfirsVdirsVdirsVU7kSm2lEO0vBvTP+VTb&#xA;8cjO6Nc2UKsXyfOZrXfr3zzt712Kst/K8Tf4rj9P7Ihl9X/VoP8AjambbsW/H27i6vtevA37w9jz&#xA;sHlHYq7FXjP/ADlRoOu635I0K20bTrrU7iHX7SeWGzhkuHSJbe4VpGWNWIUFgCx23xVHf85AeWPM&#xA;V5aeWfNflyxfVNV8oarFqB02IFpJ7aqmZI1FSzVjXYCtK03xVI/KzeYfzE/OzTPPMvl/UNA8t+WN&#xA;OmtrL9LQ/Vrie7uQ8chVKmqhJSK1IHHxNAq9N/MDyBo3nPy9qGmXcFsl7dWstra6pLbR3EtsZBTn&#xA;Hy4t8J3oGGKqvkbyPo3lHy/p+mWNtbC6tbO2tLzUYLeO3kumt4whll41Yl2Bb4mPXrirIsVdirsV&#xA;dirsVdirsVeZ+c/y5vXvZdQ0ZBLHMxea0BCsrHdilaAg+Gc12h2RIyM8e99HodB2rEREMm1dWKW/&#xA;k3zTPL6SaZOrVpWRDGv/AAT8V/HNVHs/PI1wH7nZy12EC+IPUfJPk5PL9s8kzCXULgATOv2VUbhF&#xA;r+Jzp+zuzxgjZ3mXnO0Ncc5obRDJs2brnYq7FXYq7FXYq7FXYq7FXYq7FXYq7FXYq7FXYq7FXYq7&#xA;FXYq7FXYq7FXYq7FXYq7FXYq7FXYq7FXYq7FXYq7FXYq7FXYq7FXYq7FXYq7FXYq7FXYq7FXYq7F&#xA;XYq7FXYq7FXYq7FXYq7FUM+p6ajsj3cKupIZTIgII2IIJxVr9LaV/wAtsH/I1P64qrwzwTp6kMiy&#xA;p05IQwqPcYqvxV2KuxV2KuxVxIAqdgOpxVSgurW4BMEyTBftGNg1K+NDiroLy0uCRBPHMV+0I2Vq&#xA;V8aHFVXFVKe7tbfj9Ymjh5V4+owWtOtKn3xVVBBFRuD0OKuxV2KuxV2KvgmL8v4fP/8Azkb5l8sT&#xA;XrafHd6zrMhukjEpX0Z5pKcCydeNOuKvV/8AoRzSv+pun/6Qk/6rYq9q/K38vrP8tfJQ0L9JfXLa&#xA;2lmupL6ZFgCq/wATchyYAKB1riqAuv8AnIb8l7W5e3k812jSRnizRCWaOvtJGjow9wcVZZZ+cfKl&#xA;75fk8xWerWtxocSNJNqMcqNAioKvzcGi8f2gdx3xV8zWX51zf9DON6vm8/8AKvvVmpyuv9x3H9Gt&#xA;w7+nT6xSn+Vir6eXzP5dbQR5g/SVsNCMfrfpNpUW39OtOfqkhaV98VYZ/wBDFfkr6/of4qtefLjX&#xA;hPwr0+36fCnvWmKs0m1Gw1Hy7PfafcxXllcW0jwXMDrJE68DurqSpHyxV85f84Of8crzd/xnsv8A&#xA;iE2Ksk/IXyp+WX5fp5j1XSfPVnr1oYLc6lKPSjS1jjZ+LuyySUDFiN/DFWE+Xfzrm/6GQvvr3m8/&#xA;4D9W69D1br/cfx+rn0uNTwp6n2ffFWf/APOQHlT8uPPtj5Wv9Z87Wvl+yRLuXS7hvTkS8ScQFmjZ&#xA;pIwQgRelftYq9pt2trXTYmaZfq0EKk3DEKnpon2ySaAUFcVYNJ/zkH+TEd6bNvNdmZg3DkvqNFX/&#xA;AIzKhip78qYqz20u7W8torq0mjuLWdQ8M8TB43RhUMrKSGB8RirDvMP52flV5e1B9O1bzLaQX0RK&#xA;zW6Fp3jYbFZBCsnBh4NQ4qnHlPz55O83W0lx5b1e31OOKgmWF/3kdenONuLpXtyGKvieJPzAf/nI&#xA;3zKvkCRYvM51nWfqjv6BAT15vV/3pDRf3deoxV6v9T/5zj/5b4P+B0X/AKpYq9G/NHyf5s81fktp&#xA;+kavr9toOpCGym816hdlFt3MUNbhGaLhGoNzxb4aLtQbYq8m0q0/5xC8s+VI9K129t/MOtel/p99&#xA;apeyvLN1b0JIwscaitFow96muKoL/nEK3sNY1Lzv5cuFkn8tahaJ6mnzN9pDI0Y5lCtG9N6MVpX7&#xA;sVSew/LvyZJ/zli3kt9MRvLAmmUabzk4UTS2nUcuXqbSjl9rFXsn5+flPa6j5J0PR7DzBY+UPKGh&#xA;NIZYb13ELuwAgAZm3KD1KAkk8sVec+aH/wCcP9K8lXOkWJ/SmtR2rLbXlol4bl7ngQsvruFgFX3K&#xA;8uNP2aYqyH/nDy+u5fy1812ckrPbW1yzW8ZNQhlt/j4+APEGmKqH/ODn/HK83f8AGey/4hNirHP+&#xA;cONE0rXR530jVrcXWnXtrZxXNuxZQ6F5jQlSrduxxVKvLH5d+TLv/nKTUPJ9zpiSeW4ZrtY9OLyB&#xA;AIrYug5Buezb/axVkX/OaGkado+l/l/pWmwi20+yi1GC1gUkhI0FmFUFiTsPE4qmn/OXHnfU7Hyx&#xA;5Y8o2Vw1tbatB9Z1R1LDnFEESONuNSULMzMP8kYqldrD/wA4Wx+VBos2qNLfNDwl1v6rqguvWp/f&#xA;L+54L8W4Tjx8QcVQ/wDzi35s8wz2PnXyBpV6bhl026vvLlyeSiOdT6AZA3FlWR5o34mlCPc4qwH8&#xA;pNW/KTy7qOrad+a/ly6udSMoSOeRZG+rlaiWOW35xurct+VGPy7qvZfyb/L38tW/M9vN35beeYzY&#xA;J6jSeVDbyCcW0icXiZ55kmaNZCGVjEafDuepVYX+VH/rYOtf9tXX/wDiVxir7KxV84/85sJrR8ma&#xA;C1t6n6IW9k/SPCvD1DGPq5kp/wA9KV74qlnk784f+cZPLHkixmtNHibX7a3QS2j6fzvpLlY/iZrt&#xA;0aOjPXf1dq9O2KsO/wCcSPOGk6T+Zeq2GrM9te6/GLeyTg7D6ws3MxNQEqaV3bbbfFUR5o8y6f5H&#xA;/wCcv7nzF5gWWHTLeUySSIhdjHc6X6COqj7QDSb08D3FMVVP+cq/MMfmO68jeY4Rcz+Sb61eWDYx&#xA;8pPW/fih+zI0QWlf64qyXzD+cX/OOWneQ7yw8laNC+t6hZTWVnawaaYbiOWeP0laa4kQciKgkq7s&#xA;aYqlH/OH/m3RbfS/NHleeVk1e+U3lnFwYrJFFAyyfGAVUpt9qla7VxVOf+cHP+OV5u/4z2X/ABCb&#xA;FUq/5wc/46vm7/jBZf8AE5sVSa981aX5C/5y21bW/MYlt9OSecySIhkYJdWlIn4jcr8Y6Yqmf/OY&#xA;2u6f5g0L8utb04s1jqMGo3NszrxYxyCzZar2NMVT3/nLPyHq2o+VfLXnDTYDcpokHo6nGq8+EEio&#xA;6TFenBGVg+37Q7A4q3pv5zf84rS+WY9Qv/KWmW2siIGfRk0WB3MwHxLHKIvRKlvslnG3UA7YqmP5&#xA;Ha15u8weXPNHmvRfJHl3y5NHZyweWptP076rLdzisnpPIHHqQho0VqBQW/1TirHfJ/5//l15oiv7&#xA;D87dGsItWt5StvdtpryhY1AUwsFWe4jlRw3h1ptTFWFeV7Py1q3/ADkhocv5SW91DoVvdW9zdFhI&#xA;FSCNq3rD1CzpC8ZKAP3ag6gYq+ybTyV5Os9YfW7TQdOttZleSSTU4rSBLpnmr6rNMqCQs/I8jXeu&#xA;+Kpziqje2VnfWstnewR3VpOpSe3mRZI3U9VdGBVh7HFWN6b+VH5Z6Zepfaf5W0u2vIjyinS0hDo3&#xA;8yHj8J9xiqKT8vvIqa8fMKeX9PXXGkMx1IW0Xr+qesnPjXmf5uuKonW/J/lLXnjk13RLDVXiHGJ7&#xA;61huSo60Uyq9OvbFV9x5V8sXOiLoM+k2cmiIoRNMa3iNsqruoWHjwWnag2xVAaF+W/5f6BefXdF8&#xA;u6dp96BRbmC2iSVR0orheS1rvQ4q3pH5deQtGv5dQ0ry7p1jfTB1kuYLaJHKyfbUMF2DV3AxVHaH&#xA;5W8saAkyaDpFlpKXBUzrY20VsJCteJcRKnKlTSuKrdD8oeU9AeZ9B0Sw0l7gKJ2sbWG2MgWpUOYl&#xA;TlSppXFVut+TfJ+vTJNrmhafqs0a8Y5L21guGVa1oplRiBviqzUPI3knUrSys9R8v6be2emoY9Ot&#xA;rizgljt0IUFIUdCsakIuy06DwxVORHGsYjCgRgcQgA4haUpTwxVicv5QflXNdtdyeUdIa4ZubMbO&#xA;ChbxK8eJr32xVlcMMMESQwxrFDGoWONAFVVAoAoGwAxVj+u/lv5A1+7N7rXl3TtQvDs1zPbRPKQN&#xA;gGcryNPc4qj9A8q+WvLtu1toOlWmlwOQZEtIY4QxHduAHI/PFXnv5m/nT+gL6TRtCjjuNRh2u7mW&#xA;rRRN/Iqgjk4770HTc1phajV8JqPN6zsX2c/MQGXKSIHkBzPn5D73m9t+eX5jw3Alkv4rhAa+hJbw&#xA;hD7VjWN/+GzEGsyd70k/ZnREUIkeYkf0kj7Htv5cfmPYecrCQiP6rqdrT63aVqKHpJGe6n8PuJ2G&#xA;DOMg83iO2Ox56OY34oS5H9B82Y5kOmdirsVdirsVdirsVdirsVdirsVdirsVdirsVfFN3cT3N1Nc&#xA;XDFp5naSZj1LuSWJ+k5zxNl9sxwEYiI5AKOBmz78jbm4h/MewjiJCXEVxHPTughaQV/2ca5laM/v&#xA;A6D2mgDopE9DEj5gfcS+ns3D5e7FXYq7FXYq7FXYq7FXYq7FXYq7FXYq7FXYq+cvzW/KnVtK1a61&#xA;fSLV7rRrpzMywgu9u7mrKyjfhX7LdANj76nU6YxNjk+j9hdu48uMY8h4ckdt/wCL9rza3tLq5nW3&#xA;t4XmnY0WGNS7k+AUAnMQAl6WeSMRciAH0B+S35Z32g+pr2sx+jqNxH6VtaH7UUTEFmf/AC2oNuw6&#xA;9aDaaTTmPqPN8/8AaPtqOesWI3AGye8+XkPterZmvJuxV2KuxV2KuxV2KuxV2KuxV2KuxV2KuxV2&#xA;Kv8A/9k=</xmpGImg:image>
               </rdf:li>
            </rdf:Alt>
         </xmp:Thumbnails>
      </rdf:Description>
      <rdf:Description rdf:about=""
            xmlns:xmpMM="http://ns.adobe.com/xap/1.0/mm/"
            xmlns:stRef="http://ns.adobe.com/xap/1.0/sType/ResourceRef#"
            xmlns:stEvt="http://ns.adobe.com/xap/1.0/sType/ResourceEvent#">
         <xmpMM:InstanceID>xmp.iid:CF8F8012FB05E41194BDE5B108BC4427</xmpMM:InstanceID>
         <xmpMM:DocumentID>xmp.did:CF8F8012FB05E41194BDE5B108BC4427</xmpMM:DocumentID>
         <xmpMM:OriginalDocumentID>uuid:5D20892493BFDB11914A8590D31508C8</xmpMM:OriginalDocumentID>
         <xmpMM:RenditionClass>proof:pdf</xmpMM:RenditionClass>
         <xmpMM:DerivedFrom rdf:parseType="Resource">
            <stRef:instanceID>uuid:ba5dc92b-6d0a-484a-ab90-b9370a4a0965</stRef:instanceID>
            <stRef:documentID>xmp.did:0980117407206811822A897E387FE54C</stRef:documentID>
            <stRef:originalDocumentID>uuid:5D20892493BFDB11914A8590D31508C8</stRef:originalDocumentID>
            <stRef:renditionClass>proof:pdf</stRef:renditionClass>
         </xmpMM:DerivedFrom>
         <xmpMM:History>
            <rdf:Seq>
               <rdf:li rdf:parseType="Resource">
                  <stEvt:action>saved</stEvt:action>
                  <stEvt:instanceID>xmp.iid:CF8F8012FB05E41194BDE5B108BC4427</stEvt:instanceID>
                  <stEvt:when>2014-07-08T14:35:54-04:00</stEvt:when>
                  <stEvt:softwareAgent>Adobe Illustrator CS6 (Windows)</stEvt:softwareAgent>
                  <stEvt:changed>/</stEvt:changed>
               </rdf:li>
            </rdf:Seq>
         </xmpMM:History>
      </rdf:Description>
      <rdf:Description rdf:about=""
            xmlns:illustrator="http://ns.adobe.com/illustrator/1.0/">
         <illustrator:StartupProfile>Print</illustrator:StartupProfile>
      </rdf:Description>
      <rdf:Description rdf:about=""
            xmlns:xmpTPg="http://ns.adobe.com/xap/1.0/t/pg/"
            xmlns:stDim="http://ns.adobe.com/xap/1.0/sType/Dimensions#"
            xmlns:xmpG="http://ns.adobe.com/xap/1.0/g/">
         <xmpTPg:HasVisibleOverprint>False</xmpTPg:HasVisibleOverprint>
         <xmpTPg:HasVisibleTransparency>False</xmpTPg:HasVisibleTransparency>
         <xmpTPg:NPages>1</xmpTPg:NPages>
         <xmpTPg:MaxPageSize rdf:parseType="Resource">
            <stDim:w>128.500000</stDim:w>
            <stDim:h>197.160156</stDim:h>
            <stDim:unit>Pixels</stDim:unit>
         </xmpTPg:MaxPageSize>
         <xmpTPg:PlateNames>
            <rdf:Seq>
               <rdf:li>Cyan</rdf:li>
               <rdf:li>Magenta</rdf:li>
               <rdf:li>Yellow</rdf:li>
               <rdf:li>Black</rdf:li>
            </rdf:Seq>
         </xmpTPg:PlateNames>
         <xmpTPg:SwatchGroups>
            <rdf:Seq>
               <rdf:li rdf:parseType="Resource">
                  <xmpG:groupName>Default Swatch Group</xmpG:groupName>
                  <xmpG:groupType>0</xmpG:groupType>
               </rdf:li>
            </rdf:Seq>
         </xmpTPg:SwatchGroups>
      </rdf:Description>
      <rdf:Description rdf:about=""
            xmlns:pdf="http://ns.adobe.com/pdf/1.3/">
         <pdf:Producer>Adobe PDF library 10.01</pdf:Producer>
      </rdf:Description>
   </rdf:RDF>
</x:xmpmeta>
                                                                                                    
                                                                                                    
                                                                                                    
                                                                                                    
                                                                                                    
                                                                                                    
                                                                                                    
                                                                                                    
                                                                                                    
                                                                                                    
                                                                                                    
                                                                                                    
                                                                                                    
                                                                                                    
                                                                                                    
                                                                                                    
                                                                                                    
                                                                                                    
                                                                                                    
                                                                                                    
                           
<?xpacket end="w"?>
	</metadata>
<path fill="#E21F26" d="M11.377,182.977c0,4.317,3.505,7.821,7.826,7.821c4.327,0,7.832-3.504,7.832-7.821
	c0-4.328-3.505-7.834-7.832-7.834C14.882,175.143,11.377,178.648,11.377,182.977z"/>
<g>
	<path d="M11.451,7.66h3.197v18.266h-3.197V7.66z"/>
	<path d="M18.156,12.7h2.764v1.943l0.051,0.051c0.87-1.457,2.378-2.354,4.118-2.354c2.866,0,4.682,1.535,4.682,4.503v9.081h-2.916
		V17.61c-0.051-2.072-0.87-2.968-2.584-2.968c-1.943,0-3.197,1.535-3.197,3.479v7.803h-2.917L18.156,12.7L18.156,12.7z"/>
	<path d="M32.927,12.7h2.916v14.35c0,2.635-1.049,4.12-3.786,4.12c-0.563,0-0.921-0.05-1.305-0.103v-2.302
		c0.384,0.05,0.716,0.103,0.998,0.103c1.075,0,1.177-0.64,1.177-1.945V12.7z M32.927,7.66h2.916v2.763h-2.916V7.66z"/>
	<path d="M50.632,25.926h-2.866v-1.842h-0.051c-0.716,1.33-2.302,2.2-3.759,2.2c-3.455,0-4.938-1.74-4.938-5.192V12.7h2.917v8.109
		c0,2.327,0.946,3.172,2.532,3.172c2.431,0,3.248-1.56,3.248-3.607V12.7h2.917V25.926z"/>
	<path d="M53.71,12.7h2.737v2.558h0.051c0.333-1.407,2.072-2.917,3.863-2.917c0.665,0,0.844,0.051,1.1,0.076v2.815
		c-0.409-0.051-0.844-0.127-1.254-0.127c-1.995,0-3.581,1.611-3.581,4.527v6.294H53.71V12.7z"/>
	<path d="M62.796,7.66h2.916v2.763h-2.916V7.66L62.796,7.66z M62.796,12.7h2.916v13.226h-2.916V12.7L62.796,12.7z"/>
	<path d="M71.165,20.066c0,2.072,1.125,3.915,3.556,3.915c1.688,0,2.713-0.742,3.223-2.2h2.764
		c-0.641,2.892-3.096,4.502-5.986,4.502c-4.145,0-6.473-2.89-6.473-6.958c0-3.76,2.456-6.984,6.396-6.984
		c4.17,0,6.729,3.761,6.242,7.725H71.165z M77.971,18.149c-0.104-1.842-1.357-3.506-3.326-3.506c-2.021,0-3.403,1.535-3.479,3.506
		H77.971z"/>
	<path d="M85.318,21.679c0.154,1.69,1.435,2.302,2.994,2.302c1.101,0,3.021-0.23,2.941-1.74c-0.076-1.535-2.199-1.712-4.322-2.2
		c-2.148-0.46-4.248-1.227-4.248-3.915c0-2.889,3.121-3.786,5.525-3.786c2.712,0,5.168,1.126,5.525,4.068h-3.043
		c-0.258-1.382-1.408-1.766-2.688-1.766c-0.845,0-2.404,0.205-2.404,1.356c0,1.433,2.148,1.637,4.297,2.124
		c2.123,0.486,4.273,1.253,4.273,3.863c0,3.147-3.174,4.297-5.911,4.297c-3.325,0-5.807-1.482-5.858-4.604L85.318,21.679
		L85.318,21.679z"/>
</g>
<g>
	<path d="M12.244,150.66h12.283v2.689h-9.169v4.658h8.047v2.542h-8.047v7.896h-3.114V150.66z"/>
	<path d="M37.412,165.583c0,0.696,0.15,0.97,0.675,0.97c0.174,0,0.397,0,0.697-0.05v1.968c-0.423,0.15-1.319,0.326-1.793,0.326
		c-1.146,0-1.969-0.398-2.193-1.566c-1.12,1.095-2.939,1.566-4.459,1.566c-2.317,0-4.41-1.247-4.41-3.764
		c0-3.213,2.566-3.736,4.958-4.014c2.043-0.371,3.862-0.145,3.862-1.814c0-1.471-1.521-1.744-2.667-1.744
		c-1.594,0-2.715,0.646-2.84,2.043h-2.84c0.2-3.313,3.015-4.287,5.854-4.287c2.516,0,5.156,1.023,5.156,3.736V165.583z
		 M34.574,161.997c-0.873,0.573-2.243,0.544-3.488,0.772c-1.222,0.194-2.318,0.647-2.318,2.145c0,1.27,1.62,1.641,2.617,1.641
		c1.245,0,3.189-0.647,3.189-2.439V161.997z"/>
	<path d="M39.19,155.57h2.141v-3.864h2.841v3.864h2.565v2.119h-2.565v6.873c0,1.168,0.098,1.768,1.369,1.768
		c0.4,0,0.799,0,1.197-0.1v2.191c-0.624,0.049-1.221,0.152-1.844,0.152c-2.964,0-3.511-1.149-3.563-3.293v-7.594H39.19V155.57z"/>
	<path d="M59.573,165.583c0,0.696,0.15,0.97,0.674,0.97c0.175,0,0.398,0,0.697-0.05v1.968c-0.421,0.15-1.32,0.326-1.793,0.326
		c-1.145,0-1.969-0.398-2.191-1.566c-1.123,1.095-2.941,1.566-4.46,1.566c-2.319,0-4.411-1.247-4.411-3.764
		c0-3.213,2.566-3.736,4.959-4.014c2.043-0.371,3.86-0.145,3.86-1.814c0-1.471-1.518-1.744-2.665-1.744
		c-1.594,0-2.716,0.646-2.84,2.043h-2.84c0.199-3.313,3.014-4.287,5.854-4.287c2.516,0,5.156,1.023,5.156,3.736V165.583z
		 M56.733,161.997c-0.873,0.573-2.241,0.544-3.487,0.772c-1.222,0.194-2.319,0.647-2.319,2.145c0,1.27,1.621,1.641,2.618,1.641
		c1.245,0,3.188-0.647,3.188-2.439V161.997z"/>
	<path d="M62.721,150.66h2.839v17.787h-2.839V150.66L62.721,150.66z"/>
	<path d="M68.729,150.66h2.84v2.689h-2.84V150.66z M68.729,155.57h2.84v12.877h-2.84V155.57z"/>
	<path d="M73.365,155.57h2.142v-3.864h2.841v3.864h2.567v2.119h-2.567v6.873c0,1.168,0.1,1.768,1.37,1.768c0.4,0,0.798,0,1.197-0.1
		v2.191c-0.624,0.049-1.222,0.152-1.845,0.152c-2.965,0-3.514-1.149-3.563-3.293v-7.594h-2.142V155.57z"/>
	<path d="M83.036,150.66h2.841v2.689h-2.841V150.66z M83.036,155.57h2.841v12.877h-2.841V155.57z"/>
	<path d="M91.188,162.741c0,2.021,1.095,3.813,3.461,3.813c1.646,0,2.642-0.721,3.14-2.145h2.692
		c-0.625,2.82-3.015,4.388-5.832,4.388c-4.035,0-6.305-2.813-6.305-6.776c0-3.662,2.393-6.804,6.231-6.804
		c4.061,0,6.552,3.663,6.079,7.523H91.188z M97.813,160.876c-0.101-1.798-1.319-3.415-3.238-3.415c-1.967,0-3.314,1.492-3.389,3.415
		H97.813z"/>
	<path d="M104.971,164.314c0.148,1.645,1.396,2.238,2.916,2.238c1.07,0,2.939-0.224,2.864-1.693
		c-0.076-1.496-2.144-1.666-4.21-2.144c-2.094-0.446-4.137-1.192-4.137-3.812c0-2.813,3.041-3.688,5.382-3.688
		c2.641,0,5.032,1.097,5.382,3.964h-2.967c-0.248-1.348-1.369-1.72-2.614-1.72c-0.821,0-2.342,0.199-2.342,1.322
		c0,1.39,2.093,1.591,4.187,2.065c2.066,0.476,4.16,1.219,4.16,3.76c0,3.068-3.091,4.188-5.758,4.188
		c-3.238,0-5.654-1.446-5.702-4.483h2.839V164.314z"/>
</g>
<path fill="#FFD27F" d="M87.662,39.177c-2.688,0-4.867,2.18-4.867,4.869s2.18,4.869,4.867,4.869c2.691,0,4.871-2.18,4.871-4.869
	C92.533,41.356,90.354,39.177,87.662,39.177z"/>
<circle fill="#F9BC60" cx="87.663" cy="60.806" r="5.805"/>
<path fill="#F3A747" d="M87.661,72.277c-3.545,0-6.422,2.877-6.422,6.426c0,3.551,2.877,6.427,6.422,6.427
	c3.55,0,6.427-2.876,6.427-6.427C94.088,75.154,91.211,72.277,87.661,72.277z"/>
<path fill="#EC9425" d="M87.66,91.215c-3.865,0-7.001,3.137-7.001,7.005c0,3.871,3.136,7.008,7.001,7.008
	c3.874,0,7.01-3.138,7.01-7.008C94.67,94.352,91.533,91.215,87.66,91.215z"/>
<path fill="#E08026" d="M87.658,111.314c-4.318,0-7.821,3.506-7.821,7.826c0,4.327,3.503,7.832,7.821,7.832
	c4.328,0,7.834-3.505,7.834-7.832C95.492,114.82,91.986,111.314,87.658,111.314z"/>
<g>
	<path d="M12.12,40.734c1.345,0.014,2.62-0.448,2.858-1.625h1.303v9.805H14.53v-6.92h-2.41V40.734z"/>
</g>
<g>
	<path d="M18.693,66.611h-6.695c0.014-1.611,0.84-2.83,2.157-3.712c1.274-0.925,2.927-1.695,2.956-3.222
		c0.014-0.701-0.28-1.737-1.653-1.737c-1.261,0-1.639,1.079-1.681,2.452H12.18c0-2.171,1.19-3.782,3.375-3.782
		c2.396,0,3.152,1.751,3.152,3.012c0,1.555-1.064,2.521-2.185,3.306c-1.135,0.784-2.325,1.387-2.605,2.255h4.776V66.611z"/>
</g>
<g>
	<path d="M14.645,79.386c1.064,0.042,2.171-0.336,2.171-1.541c0-0.826-0.644-1.387-1.527-1.387c-1.106,0-1.653,0.994-1.625,2.004
		h-1.597c0.084-1.906,1.275-3.334,3.25-3.334c1.527,0,3.096,0.882,3.096,2.619c0,0.98-0.448,1.765-1.387,2.102v0.027
		c1.106,0.225,1.779,1.191,1.779,2.451c0,1.85-1.597,2.998-3.474,2.998c-2.269,0-3.404-1.373-3.446-3.418h1.597
		c-0.042,1.19,0.602,2.087,1.849,2.087c1.065,0,1.877-0.63,1.877-1.751c0-1.527-1.303-1.723-2.563-1.666V79.386z"/>
	<path d="M19.922,80.563h4.076v1.513h-4.076V80.563z"/>
	<path d="M26.404,75.324h5.07v1.43h-3.88l-0.504,2.492l0.028,0.029c0.434-0.477,1.148-0.743,1.807-0.743
		c1.947,0,3.068,1.401,3.068,3.278c0,1.568-0.98,3.516-3.39,3.516c-1.891,0-3.362-1.023-3.432-2.984h1.597
		c0.098,1.051,0.771,1.653,1.807,1.653c1.359,0,1.821-0.966,1.821-2.157c0-1.078-0.575-2.045-1.863-2.045
		c-0.672,0-1.331,0.21-1.583,0.896h-1.597L26.404,75.324z"/>
</g>
<g>
	<path d="M16.984,97.902c-0.07-0.799-0.603-1.345-1.429-1.345c-1.737,0-1.933,2.073-2.031,3.362l0.028,0.026
		c0.434-0.77,1.247-1.161,2.115-1.161c1.947,0,3.096,1.414,3.096,3.291c0,1.905-1.303,3.349-3.264,3.349
		c-2.886,0-3.572-2.27-3.572-5.127c0-2.339,0.925-5.071,3.698-5.071c1.555,0,2.872,1.079,2.956,2.676H16.984z M17.166,102.048
		c0-1.051-0.574-2.003-1.723-2.003c-1.163,0-1.765,0.926-1.765,2.003c0,1.063,0.603,2.045,1.765,2.045
		C16.592,104.093,17.166,103.1,17.166,102.048z"/>
	<path d="M19.922,100.662h4.076v1.513h-4.076V100.662z"/>
	<path d="M26.937,102.749c0.07,0.799,0.602,1.345,1.429,1.345c1.737,0,1.933-2.072,2.031-3.361l-0.028-0.027
		c-0.42,0.757-1.219,1.177-2.115,1.177c-1.849,0-3.096-1.303-3.096-3.307c0-1.904,1.233-3.348,3.376-3.348
		c2.773,0,3.46,2.27,3.46,5.126c0,2.34-0.925,5.071-3.698,5.071c-1.555,0-2.872-1.079-2.956-2.676H26.937z M26.754,98.56
		c0,1.064,0.546,2.06,1.709,2.06c1.19,0,1.779-0.979,1.779-2.06c0-1.051-0.588-2.003-1.779-2.003
		C27.301,96.557,26.754,97.496,26.754,98.56z"/>
</g>
<path d="M12.693,118.792c1.345,0.015,2.62-0.448,2.858-1.624h1.303v9.805h-1.751v-6.92h-2.41V118.792z"/>
<path d="M27.02,122.07c0,2.227-0.575,5.099-3.39,5.099s-3.39-2.872-3.39-5.099c0-2.229,0.574-5.1,3.39-5.1
	S27.02,119.842,27.02,122.07z M25.422,122.07c0-2.045-0.392-3.77-1.793-3.77s-1.793,1.725-1.793,3.77s0.392,3.768,1.793,3.768
	S25.422,124.115,25.422,122.07z"/>
<g>
	<path d="M34.822,118.854v2.387h2.387v1.283h-2.387v2.387h-1.283v-2.387h-2.387v-1.283h2.387v-2.387H34.822z"/>
</g>
</svg>
